<?xml version="1.0" encoding="UTF-8"?>
<svg id="Layer_1" data-name="Layer 1" xmlns="http://www.w3.org/2000/svg" viewBox="0 0 728 342.67">
  <defs>
    <style>
      .cls-1 {
        fill: #fff;
      }
    </style>
  </defs>
  <polygon class="cls-1" points="80.9 73.85 80.9 119.4 158.63 119.4 158.63 179.41 80.9 179.41 80.9 286.41 10.05 286.41 10.05 13.85 166.58 13.85 166.58 73.85 80.9 73.85"/>
  <path class="cls-1" d="m179.88,13.85v272.57h70.51l.34-60.01V73.85h16.63c45.55,0,77.72,27.47,77.72,76.28,0,53.14-36.15,76.28-78.44,76.28h-15.91l-.34,60.01h29.98c75.55,0,138.45-59.65,138.45-136.28S356.29,13.85,280.37,13.85h-100.5Z"/>
  <rect class="cls-1" x="428.91" y="13.85" width="70.85" height="272.57"/>
  <path class="cls-1" d="m717.98,105.31c-14.46-19.52-37.96-30-62.18-30-43.38,0-72.66,33.26-72.66,75.55s29.64,74.11,73.75,74.11c23.14,0,46.27-11.21,61.09-28.92v84.95c-23.5,7.23-40.49,12.65-62.54,12.65-37.96,0-74.11-14.46-102.3-40.12-30-27.11-43.74-62.54-43.74-103.03,0-37.23,14.1-73.02,40.13-99.77,26.75-27.47,65.43-44.1,103.75-44.1,22.77,0,43.74,5.06,64.71,13.74v84.95Z"/>
  <g>
    <path class="cls-1" d="m13.05,308.03v7.15h8.83v2.9h-8.83v12.48h-3.17v-25.42h12.31v2.9h-9.14Z"/>
    <path class="cls-1" d="m26.34,305.13h13.66v2.9h-10.49v7.11h10.18v2.9h-10.18v9.61h10.49v2.9h-13.66v-25.42Z"/>
    <path class="cls-1" d="m44.09,305.13h5.26c7.79,0,14.26,4.11,14.26,12.58s-6.34,12.85-14.36,12.85h-5.16v-25.42Zm3.17,22.52h1.11c6.47,0,12.07-2.43,12.07-9.81s-5.6-9.81-12.07-9.81h-1.11v19.62Z"/>
    <path class="cls-1" d="m67.23,305.13h13.66v2.9h-10.49v7.11h10.18v2.9h-10.18v9.61h10.49v2.9h-13.66v-25.42Z"/>
    <path class="cls-1" d="m101.06,330.55h-3.84l-7.49-10.75h-1.32v10.75h-3.17v-25.42h3.84c2.26,0,4.69.03,6.71,1.18,2.12,1.25,3.34,3.64,3.34,6.07,0,3.64-2.43,6.68-6.1,7.11l8.03,11.06Zm-12.65-13.39h1.01c3.24,0,6.74-.61,6.74-4.65s-3.78-4.55-6.91-4.55h-.84v9.2Z"/>
    <path class="cls-1" d="m107.61,324.18l-2.9,6.37h-3.41l12.14-26.5,12.14,26.5h-3.41l-2.9-6.37h-11.67Zm5.83-13.18l-4.52,10.28h9.04l-4.52-10.28Z"/>
    <path class="cls-1" d="m131.32,327.65h7.72v2.9h-10.89v-25.42h3.17v22.52Z"/>
    <path class="cls-1" d="m151.48,305.13h5.26c7.79,0,14.26,4.11,14.26,12.58s-6.34,12.85-14.36,12.85h-5.16v-25.42Zm3.17,22.52h1.11c6.47,0,12.07-2.43,12.07-9.81s-5.6-9.81-12.07-9.81h-1.11v19.62Z"/>
    <path class="cls-1" d="m174.62,305.13h13.66v2.9h-10.49v7.11h10.18v2.9h-10.18v9.61h10.49v2.9h-13.66v-25.42Z"/>
    <path class="cls-1" d="m195.81,330.55h-3.17v-25.42h3.64c7.82,0,10.25,2.7,10.25,7.35,0,5.36-4.08,7.42-8.9,7.42h-1.82v10.66Zm0-13.49h1.01c3.24,0,6.74-.61,6.74-4.65s-3.78-4.45-6.91-4.45h-.84v9.1Z"/>
    <path class="cls-1" d="m234.62,317.84c0,7.55-5.97,13.25-13.32,13.25s-13.32-5.7-13.32-13.25,6.04-13.25,13.32-13.25,13.32,5.97,13.32,13.25Zm-3.17,0c0-5.6-4.18-10.28-10.15-10.28s-10.15,4.69-10.15,10.28,4.65,10.28,10.15,10.28,10.15-4.48,10.15-10.28Z"/>
    <path class="cls-1" d="m249.44,309.95c-.94-1.58-2.16-2.39-4.08-2.39-2.02,0-4.25,1.38-4.25,3.61,0,1.99,1.96,3.03,3.54,3.64l1.82.71c3.61,1.42,6.31,3.41,6.31,7.65,0,4.62-3.57,7.92-8.13,7.92-4.11,0-7.32-3.04-7.86-7.11l3.2-.67c-.03,2.8,2.19,4.82,4.92,4.82s4.69-2.29,4.69-4.96-2.19-3.91-4.38-4.82l-1.75-.74c-2.9-1.25-5.53-2.9-5.53-6.44,0-4.11,3.64-6.58,7.49-6.58,2.83,0,5.16,1.38,6.54,3.85l-2.53,1.52Z"/>
    <path class="cls-1" d="m259.76,330.55h-3.17v-25.42h3.17v25.42Z"/>
    <path class="cls-1" d="m271.8,330.55h-3.17v-22.52h-6.04v-2.9h15.24v2.9h-6.04v22.52Z"/>
    <path class="cls-1" d="m294.02,330.55h-3.17v-25.42h3.17v25.42Z"/>
    <path class="cls-1" d="m298.92,303.91l19.08,20v-18.78h3.17v26.47l-19.08-20v18.95h-3.17v-26.64Z"/>
    <path class="cls-1" d="m337.43,309.95c-.94-1.58-2.16-2.39-4.08-2.39-2.02,0-4.25,1.38-4.25,3.61,0,1.99,1.96,3.03,3.54,3.64l1.82.71c3.61,1.42,6.31,3.41,6.31,7.65,0,4.62-3.57,7.92-8.13,7.92-4.11,0-7.32-3.04-7.86-7.11l3.2-.67c-.03,2.8,2.19,4.82,4.92,4.82s4.69-2.29,4.69-4.96-2.19-3.91-4.38-4.82l-1.75-.74c-2.9-1.25-5.53-2.9-5.53-6.44,0-4.11,3.64-6.58,7.49-6.58,2.83,0,5.16,1.38,6.54,3.85l-2.53,1.52Z"/>
    <path class="cls-1" d="m347.42,305.13v15c0,4.15,1.25,7.99,6.14,7.99s6.14-3.84,6.14-7.99v-15h3.17v16.08c0,5.6-3.47,9.88-9.31,9.88s-9.31-4.28-9.31-9.88v-16.08h3.17Z"/>
    <path class="cls-1" d="m383.51,330.55h-3.85l-7.49-10.75h-1.32v10.75h-3.17v-25.42h3.84c2.26,0,4.69.03,6.71,1.18,2.12,1.25,3.34,3.64,3.34,6.07,0,3.64-2.43,6.68-6.1,7.11l8.03,11.06Zm-12.65-13.39h1.01c3.24,0,6.74-.61,6.74-4.65s-3.78-4.55-6.91-4.55h-.84v9.2Z"/>
    <path class="cls-1" d="m390.06,324.18l-2.9,6.37h-3.41l12.14-26.5,12.14,26.5h-3.41l-2.9-6.37h-11.67Zm5.83-13.18l-4.52,10.28h9.04l-4.52-10.28Z"/>
    <path class="cls-1" d="m410.3,303.91l19.08,20v-18.78h3.17v26.47l-19.09-20v18.95h-3.17v-26.64Z"/>
    <path class="cls-1" d="m456.04,309.98c-1.82-1.62-4.32-2.5-6.71-2.5-5.7,0-10.05,4.75-10.05,10.39s4.32,10.32,9.98,10.32c2.5,0,4.89-.94,6.78-2.63v3.74c-1.96,1.15-4.45,1.79-6.68,1.79-7.25,0-13.25-5.77-13.25-13.12s6.03-13.39,13.52-13.39c2.23,0,4.49.54,6.41,1.72v3.68Z"/>
    <path class="cls-1" d="m460.26,305.13h13.66v2.9h-10.49v7.11h10.18v2.9h-10.18v9.61h10.49v2.9h-13.66v-25.42Z"/>
    <path class="cls-1" d="m506.97,309.98c-1.82-1.62-4.32-2.5-6.71-2.5-5.7,0-10.05,4.75-10.05,10.39s4.32,10.32,9.98,10.32c2.5,0,4.89-.94,6.78-2.63v3.74c-1.96,1.15-4.45,1.79-6.68,1.79-7.25,0-13.25-5.77-13.25-13.12s6.04-13.39,13.52-13.39c2.23,0,4.48.54,6.41,1.72v3.68Z"/>
    <path class="cls-1" d="m536.05,317.84c0,7.55-5.97,13.25-13.32,13.25s-13.32-5.7-13.32-13.25,6.04-13.25,13.32-13.25,13.32,5.97,13.32,13.25Zm-3.17,0c0-5.6-4.18-10.28-10.15-10.28s-10.15,4.69-10.15,10.28,4.65,10.28,10.15,10.28,10.15-4.48,10.15-10.28Z"/>
    <path class="cls-1" d="m555.38,330.55h-3.84l-7.49-10.75h-1.32v10.75h-3.17v-25.42h3.84c2.26,0,4.69.03,6.71,1.18,2.12,1.25,3.34,3.64,3.34,6.07,0,3.64-2.43,6.68-6.1,7.11l8.02,11.06Zm-12.64-13.39h1.01c3.24,0,6.74-.61,6.74-4.65s-3.78-4.55-6.91-4.55h-.84v9.2Z"/>
    <path class="cls-1" d="m561.49,330.55h-3.17v-25.42h3.64c7.82,0,10.25,2.7,10.25,7.35,0,5.36-4.08,7.42-8.9,7.42h-1.82v10.66Zm0-13.49h1.01c3.24,0,6.74-.61,6.74-4.65s-3.78-4.45-6.91-4.45h-.84v9.1Z"/>
    <path class="cls-1" d="m600.31,317.84c0,7.55-5.97,13.25-13.32,13.25s-13.32-5.7-13.32-13.25,6.04-13.25,13.32-13.25,13.32,5.97,13.32,13.25Zm-3.17,0c0-5.6-4.18-10.28-10.15-10.28s-10.15,4.69-10.15,10.28,4.65,10.28,10.15,10.28,10.15-4.48,10.15-10.28Z"/>
    <path class="cls-1" d="m619.64,330.55h-3.84l-7.49-10.75h-1.31v10.75h-3.17v-25.42h3.84c2.26,0,4.69.03,6.71,1.18,2.12,1.25,3.34,3.64,3.34,6.07,0,3.64-2.43,6.68-6.1,7.11l8.03,11.06Zm-12.64-13.39h1.01c3.24,0,6.74-.61,6.74-4.65s-3.78-4.55-6.91-4.55h-.84v9.2Z"/>
    <path class="cls-1" d="m626.19,324.18l-2.9,6.37h-3.41l12.14-26.5,12.14,26.5h-3.4l-2.9-6.37h-11.67Zm5.83-13.18l-4.52,10.28h9.04l-4.52-10.28Z"/>
    <path class="cls-1" d="m650.89,330.55h-3.17v-22.52h-6.04v-2.9h15.24v2.9h-6.04v22.52Z"/>
    <path class="cls-1" d="m662.93,330.55h-3.17v-25.42h3.17v25.42Z"/>
    <path class="cls-1" d="m692.97,317.84c0,7.55-5.97,13.25-13.32,13.25s-13.32-5.7-13.32-13.25,6.04-13.25,13.32-13.25,13.32,5.97,13.32,13.25Zm-3.17,0c0-5.6-4.18-10.28-10.15-10.28s-10.15,4.69-10.15,10.28,4.65,10.28,10.15,10.28,10.15-4.48,10.15-10.28Z"/>
    <path class="cls-1" d="m696.19,303.91l19.09,20v-18.78h3.17v26.47l-19.09-20v18.95h-3.17v-26.64Z"/>
  </g>
</svg>