<?xml version="1.0" encoding="utf-8"?>
<!-- Generator: Adobe Illustrator 24.2.3, SVG Export Plug-In . SVG Version: 6.00 Build 0)  -->
<svg version="1.1" id="Layer_1" xmlns="http://www.w3.org/2000/svg" xmlns:xlink="http://www.w3.org/1999/xlink" x="0px" y="0px"
	 viewBox="0 0 360 83.4" style="enable-background:new 0 0 360 83.4;" xml:space="preserve">
<style type="text/css">
	.st0{fill:#FFFFFF;}
</style>
<path id="Path_1" class="st0" d="M0,22.9v-0.1c0-0.2,0-0.5,0-0.9l0.3-0.2C0.5,21.9,0.7,22,1,22.1c0.2,0.1,0.5,0.1,0.7,0.1
	c0.4,0,0.8-0.1,1.1-0.3c0.3-0.2,0.5-0.5,0.5-0.9c0.2-1,0.2-2.1,0.2-3.1V6.6c0-1.2,0-2.3-0.1-3.5c0-0.5,0-1-0.2-1.5
	C3.1,1.5,3,1.4,2.8,1.3C2.2,1.2,1.5,1.2,0.9,1.2V0.4c1.4,0,2.7,0.1,3.8,0.1s2.6,0,3.9-0.1v0.8c-0.6,0-1.3,0-1.9,0.1
	c-0.2,0-0.3,0.1-0.4,0.3C6.1,2.1,6.1,2.5,6.1,2.9c0,0.2,0,1.4-0.1,3.7v9.3c0,1.1-0.1,2.3-0.4,3.4C5.4,20.2,5,21,4.4,21.7
	c-0.5,0.7-1.1,1.3-1.9,1.7c-0.6,0.4-1.3,0.6-2,0.6c-0.2,0-0.3-0.1-0.5-0.1L0,22.9z M23.6,18.7c-0.8,0-1.8,0-2.8,0.1V18
	c0.4,0,0.9,0,1.3-0.1c0.2-0.1,0.3-0.1,0.5-0.3c0.3-0.3,0.5-0.6,0.6-1c0.2-0.3,0.7-1.5,1.7-3.6l3.3-7.3c0.4-0.8,1.1-2.6,2.3-5.4h0.8
	l5.5,13c0.9,2.1,1.5,3.4,1.8,4c0.1,0.3,0.3,0.5,0.5,0.6C39.5,18,40,18,40.4,18v0.9c-1.4-0.1-2.3-0.1-2.8-0.1l-4.2,0.1V18
	c0.6,0,1.2,0,1.8-0.1c0.2,0,0.3-0.1,0.4-0.2c0.1-0.1,0.1-0.2,0.1-0.3c0-0.3-0.1-0.5-0.2-0.7l-1.6-4h-7.5L25,16
	c-0.2,0.4-0.3,0.9-0.4,1.3c0,0.1,0,0.2,0.1,0.3c0.1,0.1,0.3,0.2,0.4,0.2c0.6,0.1,1.1,0.1,1.7,0.1v0.9C25.4,18.8,24.3,18.7,23.6,18.7
	z M26.9,11.5h6.6l-3.3-7.8L26.9,11.5z M59.1,18.8V18c-0.6,0-1.3,0-1.9-0.1c-0.2,0-0.4-0.2-0.5-0.3c-0.2-0.5-0.2-1-0.2-1.5
	c0-1.1,0-2.3,0-3.5V3.5l6.2,12.9l0.9,1.9c0.1,0.3,0.2,0.5,0.3,0.8h0.5c0.6-1.4,1-2.4,1.3-3.1c0.4-0.9,1-2.1,1.7-3.5l4.4-9.4v9.5
	c0,2.3,0,3.5-0.1,3.7c0,0.4,0,0.9-0.2,1.3c-0.1,0.2-0.3,0.3-0.5,0.3C70.5,18,69.8,18,69.2,18v0.8c2-0.1,3.3-0.1,3.8-0.1
	c0.7,0,2,0,3.7,0.1V18c-0.6,0-1.3,0-1.9-0.1c-0.2-0.1-0.4-0.2-0.5-0.3c-0.2-0.5-0.2-1-0.2-1.5c0-1.1,0-2.3,0-3.5v-6
	c0-2.3,0-3.5,0.1-3.7c0-0.4,0-0.9,0.2-1.3c0.1-0.2,0.3-0.3,0.5-0.3c0.6-0.1,1.2-0.2,1.9-0.2V0.4c-1.3,0-2.2,0-2.8,0s-1.4,0-2.3,0
	c-0.4,1.1-1.2,2.9-2.4,5.4l-4.4,9.3l-5-10.1c-0.6-1.3-1.3-2.9-2.1-4.6c-0.8,0-1.6,0-2.4,0s-1.7,0-2.6,0v0.8c0.6,0,1.3,0,1.9,0.1
	c0.2,0.1,0.4,0.2,0.5,0.3c0.1,0.5,0.2,1,0.2,1.5c0,1.1,0,2.3,0,3.5v6c0,2.3,0,3.5,0,3.7c0,0.4,0,0.9-0.2,1.3
	c-0.1,0.2-0.3,0.3-0.5,0.3C54,18,53.4,18,52.7,18v0.8l3.2-0.1L59.1,18.8z M91.6,1.7c0.2,0.5,0.2,1,0.2,1.5c0,1.1,0,2.3,0,3.5v6.6
	c0,0.8,0,1.8-0.1,3c0,0.5-0.1,0.9-0.2,1.4c-0.1,0.1-0.1,0.2-0.3,0.3c-0.6,0.2-1.2,0.2-1.8,0.2v0.8l3.4-0.1l7.8,0.1
	c0.9,0,1.8,0,2.7-0.2c0-1.5,0.1-2.9,0.3-4.3h-0.8c-0.1,0.4-0.2,1-0.4,1.7c-0.1,0.4-0.2,0.7-0.3,1.1c-0.4,0.2-0.9,0.3-1.3,0.4
	c-0.8,0.1-1.6,0.1-2.3,0.1c-1.6,0-3,0-4.2-0.1c0-0.8-0.1-2.1-0.1-3.7s0-3,0.1-3.9c1.1,0,1.9-0.1,2.5-0.1c1,0,1.9,0,2.9,0.2
	c0.2,0,0.4,0.1,0.6,0.3c0.1,0.4,0.2,0.8,0.2,1.2v0.9h0.9l-0.1-3l0.1-2.7V6.5h-0.8l-0.1,0.9c0,0.4-0.1,0.7-0.2,1.1
	c-0.1,0.1-0.3,0.2-0.5,0.2c-0.9,0.1-1.8,0.1-2.6,0.1c-0.8,0-1.8,0-2.8-0.1V4.3c0-0.8,0.1-1.7,0.1-2.7c0.3,0,0.8-0.1,1.6-0.1l1.4-0.1
	c1,0,1.9,0.1,2.9,0.2c0.5,0.1,1.1,0.2,1.6,0.4c0.1,0.8,0.2,1.6,0.2,2.4h0.8c0.1-1.7,0.2-2.6,0.2-2.7c0.1-0.4,0.2-0.9,0.3-1.3
	c-0.8-0.1-1.6-0.1-2.4-0.1h-4.1l-3.9,0.1l-3.7-0.1v0.8c0.6,0,1.3,0,1.9,0.1c0.2,0.1,0.4,0.2,0.5,0.3L91.6,1.7z M118.2,9.2
	c0.6,0.5,1.3,0.8,2,1c0.7,0.1,1.5,0.3,2.4,0.4s1.6,0.2,1.9,0.3c0.5,0.1,0.9,0.3,1.3,0.5c0.4,0.3,0.6,0.6,0.8,1
	c0.2,0.5,0.3,1,0.3,1.5c0,0.7-0.2,1.5-0.5,2.1c-0.4,0.7-0.9,1.2-1.6,1.6c-0.7,0.4-1.6,0.6-2.4,0.6c-0.6,0-1.3-0.1-1.9-0.3
	c-0.5-0.2-1.1-0.4-1.5-0.7c-0.3-0.2-0.5-0.4-0.7-0.7c-0.2-0.7-0.2-1.5-0.2-2.3h-0.9c0,1.4-0.1,2.7-0.3,4.1c1.5,0.7,3.1,1,4.7,1
	c2,0.1,4-0.6,5.6-1.9c1.4-1.1,2.1-2.8,2.1-4.5c0-0.7-0.1-1.3-0.4-1.9c-0.2-0.5-0.6-1-1-1.3c-0.5-0.4-1.2-0.7-1.8-0.9
	c-0.9-0.2-1.8-0.3-2.9-0.5c-0.8-0.1-1.6-0.2-2.3-0.5c-0.6-0.2-1.1-0.5-1.4-1c-0.3-0.5-0.4-1.1-0.4-1.7c0-1.1,0.4-2.2,1.1-3
	c0.8-0.8,1.9-1.2,3-1.2c1,0,1.9,0.3,2.8,0.8c0.3,0.2,0.6,0.5,0.9,0.8c0.1,0.7,0.2,1.5,0.1,2.3h0.9c0-0.9,0.1-1.6,0.1-2.1
	c0.1-0.5,0.1-1,0.3-1.5c-0.8-0.4-1.6-0.7-2.4-0.9C125,0.1,124.1,0,123.3,0c-1.2,0-2.3,0.2-3.4,0.8c-1,0.4-1.8,1.2-2.4,2.1
	c-0.5,0.9-0.8,1.9-0.8,2.9c0,0.7,0.1,1.4,0.4,2C117.4,8.3,117.8,8.8,118.2,9.2L118.2,9.2z M166.4,18.8V18c-0.6,0-1.3,0-1.9-0.1
	c-0.2-0.1-0.4-0.2-0.5-0.4c-0.1-0.5-0.2-1-0.2-1.5c0-1.1-0.1-2.3-0.1-3.4V3.5l6.2,12.9l0.9,1.9c0.1,0.3,0.2,0.5,0.3,0.8h0.5
	c0.6-1.4,1-2.4,1.3-3.1c0.4-0.9,0.9-2.1,1.6-3.5l4.5-9.4v9.5c0,2.3-0.1,3.5-0.1,3.7c0,0.4,0,0.9-0.2,1.3c-0.1,0.2-0.3,0.3-0.5,0.3
	c-0.6,0.1-1.3,0.2-1.9,0.1v0.8c2-0.1,3.3-0.1,3.8-0.1c0.6,0,2,0,3.7,0.1V18c-0.6,0-1.3,0-1.9-0.1c-0.2-0.1-0.4-0.2-0.5-0.4
	c-0.1-0.5-0.2-1-0.2-1.5c0-1.1,0-2.3,0-3.5v-6c0-2.3,0.1-3.5,0.1-3.7c0-0.4,0-0.9,0.2-1.3c0.1-0.2,0.3-0.3,0.5-0.3
	c0.6-0.1,1.3-0.2,1.9-0.1V0.4c-1.3,0-2.2,0-2.8,0s-1.4,0-2.3,0c-0.4,1.1-1.2,2.9-2.4,5.4l-4.4,9.3l-5-10.1c-0.6-1.3-1.3-2.9-2.1-4.6
	c-0.8,0-1.6,0-2.4,0s-1.7,0-2.6,0v0.8c0.6,0,1.3,0,1.9,0.1c0.2,0.1,0.4,0.2,0.5,0.3c0.1,0.5,0.2,1,0.2,1.5c0,1.1,0,2.3,0,3.5v6
	c0,2.3,0,3.5,0,3.7c0,0.4,0,0.9-0.2,1.3c-0.1,0.1-0.3,0.3-0.5,0.3c-0.6,0.1-1.2,0.2-1.9,0.1v0.8l3.2-0.1L166.4,18.8z M229.9,1.4
	c-0.6-0.2-1.2-0.2-1.8-0.2V0.4c1.3,0,2.4,0.1,3.4,0.1c0.8,0,1.8,0,3.1,0s2.3-0.1,3-0.1c1.7-0.1,3.5,0.2,5.1,0.8
	c1.3,0.6,2.5,1.5,3.3,2.7c0.9,1.4,1.4,3,1.4,4.7c0,1.3-0.2,2.5-0.6,3.7c-0.4,1.1-1,2.1-1.7,3c-0.7,0.8-1.5,1.5-2.3,2
	c-0.8,0.5-1.7,0.9-2.6,1.1c-1.2,0.3-2.5,0.4-3.8,0.4c-0.5,0-1.3,0-2.1,0l-2.3,0c-0.5,0-1.5,0-2.8,0.1v-0.6c0.5-0.3,0.9-0.5,1.3-0.8
	c0-0.6,0.1-1.4,0.1-2.4c0.1-1.8,0.1-3,0.1-3.7V6c0-0.8,0-1.8-0.1-3c0-0.5-0.1-0.9-0.2-1.3C230.1,1.5,230,1.4,229.9,1.4L229.9,1.4z
	 M232.9,11v4c0,0.6,0,1.4,0.1,2.4c1,0.2,2,0.2,3,0.2c1,0,1.9-0.1,2.9-0.3c0.8-0.2,1.5-0.4,2.1-0.8c0.7-0.4,1.2-0.9,1.7-1.5
	c0.6-0.8,1-1.6,1.3-2.6c0.3-1.1,0.4-2.2,0.4-3.3c0-1.4-0.3-2.9-0.9-4.2c-0.6-1.1-1.5-2.1-2.6-2.7c-1.5-0.7-3.1-1-4.8-0.9
	c-1.1,0-2.2,0.1-3.3,0.3c0,0.4,0,1.2-0.1,2.3l0,1.9L232.9,11z M267.9,18.8V18c-0.6,0-1.3,0-1.9-0.1c-0.2-0.1-0.4-0.2-0.5-0.4
	c-0.2-0.5-0.2-1-0.2-1.5c0-1.1,0-2.3,0-3.4v-6c0-2.3,0-3.5,0-3.7c0-0.4,0-0.9,0.2-1.3c0.1-0.2,0.3-0.3,0.5-0.3
	c0.6-0.1,1.2-0.2,1.8-0.1V0.4c-1.7,0.1-3,0.1-3.8,0.1s-2.2,0-3.8-0.1v0.8c0.6,0,1.3,0,1.9,0.1c0.2,0.1,0.4,0.2,0.5,0.3
	c0.2,0.5,0.2,1,0.2,1.5c0,1.1,0,2.3,0,3.5v6c0,2.3,0,3.5,0,3.7c0,0.4-0.1,0.9-0.2,1.3c-0.1,0.2-0.3,0.3-0.5,0.3
	c-0.6,0.1-1.2,0.1-1.9,0.1v0.8l4-0.1c0.6,0,1.8,0,3.6,0.1L267.9,18.8z M282.4,9.2c0.6,0.5,1.3,0.8,2,1c0.7,0.1,1.5,0.3,2.5,0.4
	s1.6,0.2,1.9,0.3c0.5,0.1,0.9,0.3,1.3,0.5c0.3,0.3,0.6,0.6,0.8,1c0.2,0.5,0.3,1,0.3,1.5c0,0.7-0.2,1.5-0.5,2.1
	c-0.4,0.7-0.9,1.2-1.6,1.6c-0.7,0.4-1.6,0.6-2.4,0.6c-0.6,0-1.3-0.1-1.9-0.3c-0.5-0.2-1.1-0.4-1.5-0.7c-0.3-0.2-0.5-0.4-0.7-0.7
	c-0.2-0.7-0.2-1.5-0.2-2.3h-0.9c0,1.4-0.1,2.7-0.3,4.1c1.5,0.7,3.1,1,4.7,1c2,0.1,4-0.6,5.5-1.9c1.3-1.1,2.1-2.8,2-4.5
	c0-0.7-0.1-1.3-0.4-1.9c-0.2-0.5-0.6-1-1-1.3c-0.5-0.4-1.2-0.7-1.8-0.9c-0.9-0.2-1.8-0.3-2.9-0.5c-0.8-0.1-1.5-0.2-2.3-0.5
	c-0.6-0.2-1.1-0.5-1.4-1c-0.3-0.5-0.4-1.1-0.4-1.7c-0.1-1.1,0.4-2.2,1.1-3c0.8-0.8,1.9-1.2,3-1.2c1,0,1.9,0.3,2.8,0.8
	c0.3,0.2,0.6,0.5,0.9,0.8c0.1,0.7,0.1,1.5,0.1,2.3h0.9c0-0.9,0.1-1.6,0.1-2.1s0.1-1,0.3-1.5c-0.8-0.4-1.6-0.7-2.4-0.9
	c-0.8-0.2-1.6-0.3-2.4-0.3c-1.2,0-2.3,0.2-3.4,0.8c-1,0.4-1.8,1.2-2.4,2.1c-0.5,0.9-0.8,1.9-0.8,2.9c0,0.7,0.1,1.4,0.4,2
	c0.2,0.6,0.6,1.1,1,1.5L282.4,9.2z M306.7,13.4c-0.8-2.4-0.8-5.1,0-7.5c0.4-1.2,1.1-2.3,2-3.1c0.9-0.9,2-1.6,3.2-2.1
	c1.3-0.5,2.7-0.7,4.1-0.7c1.3,0,2.6,0.2,3.9,0.6c1,0.3,2,0.9,2.9,1.6c0.7,0.6,1.3,1.4,1.8,2.2c0.4,0.7,0.6,1.4,0.8,2.1
	c0.2,0.8,0.3,1.7,0.3,2.6c0.1,2.7-1,5.4-2.9,7.3c-2,1.9-4.7,3-7.4,2.9c-1.3,0-2.6-0.2-3.8-0.7c-1.1-0.4-2.2-1.1-3-2
	C307.6,15.6,307,14.6,306.7,13.4L306.7,13.4z M308.7,8.6c0,0.8,0.1,1.7,0.3,2.5c0.1,0.8,0.3,1.5,0.6,2.2c0.4,1,0.9,1.9,1.6,2.6
	c0.6,0.7,1.4,1.2,2.3,1.6c0.9,0.3,1.8,0.5,2.8,0.5c1.3,0,2.6-0.3,3.6-1c1-0.7,1.8-1.7,2.3-2.9c0.5-1.4,0.8-2.8,0.8-4.3
	c0-1.3-0.2-2.6-0.5-3.8c-0.2-0.7-0.5-1.3-0.9-1.9c-0.4-0.6-0.8-1.1-1.3-1.5c-0.6-0.5-1.3-0.8-2-1.1c-0.9-0.3-1.8-0.4-2.7-0.4
	c-1.3,0-2.5,0.3-3.6,0.9c-1,0.6-1.9,1.6-2.3,2.7C309,6,308.7,7.3,308.7,8.6L308.7,8.6z M340,1.5c0.2,0.2,0.3,0.3,0.5,0.5
	c0,0.2,0.1,0.4,0,0.6v10.6c0,0.8,0,1.8-0.1,3c0,0.5-0.1,0.9-0.2,1.4c0,0.1-0.1,0.2-0.3,0.2c-0.6,0.2-1.2,0.2-1.8,0.2v0.8
	c1.2-0.1,2.3-0.1,3.3-0.1s1.8,0,2.5,0.1v-0.8c-0.6,0-1.2,0-1.8-0.2c-0.1-0.1-0.2-0.1-0.3-0.3c-0.1-0.4-0.2-0.9-0.2-1.3
	c-0.1-1.1-0.1-2.1-0.1-3v-10l9.2,11l1.7,2.1c0.3,0.4,0.9,1,1.6,1.8c0.2,0.2,0.3,0.4,0.5,0.5l0.1,0.1l0.3,0.1l1.3,0.4
	c0-3.5-0.1-5.8-0.1-7.1V6c0-0.8,0-1.8,0.1-2.9c0-0.5,0.1-0.9,0.2-1.4c0.1-0.1,0.1-0.2,0.3-0.3c0.6-0.2,1.2-0.2,1.8-0.2V0.4
	c-0.8,0-1.7,0.1-2.7,0.1s-2.1,0-3.1-0.1v0.8c0.6,0,1.2,0,1.8,0.2c0.1,0,0.2,0.1,0.3,0.2c0.1,0.4,0.2,0.9,0.2,1.3
	c0.1,1.1,0.1,2.1,0.1,3v9.5c-0.3-0.3-0.7-0.8-1.2-1.4c-0.8-0.9-1.8-2-3-3.6l-4-4.8l-2.7-3.3l-1.6-2.1c-0.6,0-1.3,0-1.9,0
	c-0.4,0-1.3,0-2.7,0v0.8c0.5,0,0.9,0,1.4,0.1C339.6,1.3,339.8,1.4,340,1.5L340,1.5z M196.3,18.8l-0.7,0V18c0.4,0,0.9,0,1.3-0.1
	c0.2,0,0.3-0.1,0.5-0.3c0.2-0.3,0.5-0.6,0.6-1c0.1-0.3,0.7-1.5,1.7-3.6l3.3-7.3c0.4-0.8,1.1-2.6,2.3-5.4h1.6l5.6,13
	c0.9,2.1,1.5,3.4,1.8,4c0.1,0.2,0.3,0.5,0.5,0.6c0.4,0.1,0.9,0.2,1.3,0.2v0.9l-0.7-0.1v0c-1-0.1-1.8-0.1-2.4-0.1l-3.9,0.1l0,0h-0.7
	V18c0.6,0,1.2,0,1.8-0.1c0.2,0,0.3-0.1,0.4-0.2c0.1-0.1,0.1-0.2,0.1-0.3c0-0.3-0.1-0.5-0.2-0.7l-1.6-4h-6.8l-1.4,3.4
	c-0.2,0.4-0.3,0.9-0.4,1.3c0,0.1,0,0.2,0.1,0.3c0.1,0.1,0.3,0.2,0.4,0.2c0.6,0.1,1.1,0.1,1.7,0.1v0.8h-0.8l0,0
	c-1.2-0.1-2.2-0.1-2.9-0.1C198,18.7,197.2,18.7,196.3,18.8z M208.2,11.6l-2.9-7l-2.9,7L208.2,11.6z M4.2,47.8v-0.6
	c-0.4,0-0.8,0-1.2-0.1c-0.1,0-0.2-0.1-0.3-0.2c-0.1-0.3-0.1-0.7-0.1-1c0-0.7,0-1.5,0-2.3v-6l4.1,8.5l0.6,1.3
	c0.1,0.2,0.2,0.3,0.2,0.5h0.4c0.4-0.9,0.7-1.6,0.9-2c0.3-0.6,0.6-1.4,1.1-2.3l3-6.2v6.3c0,1.5,0,2.3,0,2.5c0,0.3,0,0.6-0.1,0.8
	c-0.1,0.1-0.2,0.2-0.3,0.2c-0.4,0.1-0.8,0.1-1.3,0.1v0.5c1.3,0,2.2-0.1,2.6-0.1c0.4,0,1.2,0.1,2.3,0.1v-0.5c-0.4,0-0.8,0-1.2-0.1
	c-0.1,0-0.2-0.1-0.3-0.2c-0.1-0.3-0.1-0.7-0.1-1c0-0.7,0-1.5,0-2.3v-4c0-1.5,0-2.3,0-2.5c0-0.3,0-0.6,0.1-0.8
	c0.1-0.1,0.2-0.2,0.3-0.2c0.4-0.1,0.8-0.1,1.2-0.1v-0.5h-1.9h-1.5c-0.3,0.7-0.8,1.9-1.6,3.6L8,45.3l-3.3-6.7c-0.4-0.9-0.9-1.9-1.4-3
	c-0.5,0-1,0-1.6,0H0v0.5c0.4,0,0.8,0,1.3,0.1c0.1,0,0.2,0.1,0.3,0.2c0.1,0.3,0.2,0.7,0.1,1c0,0.8,0,1.5,0,2.3v4c0,1.5,0,2.3,0,2.5
	c0,0.3,0,0.6-0.1,0.8c-0.1,0.1-0.2,0.2-0.3,0.2c-0.4,0.1-0.8,0.1-1.2,0.1v0.5l2.1-0.1L4.2,47.8z M25.9,46c0,0.3,0,0.6-0.1,0.9
	c0,0.1-0.1,0.1-0.2,0.2c-0.4,0.1-0.8,0.2-1.2,0.1v0.5l2.3-0.1l5.2,0.1c0.6,0,1.2,0,1.8-0.1c0-1,0.1-1.9,0.2-2.9h-0.6
	c0,0.3-0.1,0.6-0.3,1.2c-0.1,0.2-0.1,0.5-0.2,0.7c-0.3,0.1-0.6,0.2-0.9,0.2c-0.5,0.1-1,0.1-1.6,0.1c-1,0-2,0-2.8-0.1
	c0-0.5,0-1.4,0-2.4s0-2,0-2.6c0.7,0,1.3,0,1.6,0c0.6,0,1.3,0,1.9,0.1c0.1,0,0.3,0.1,0.4,0.2c0.1,0.3,0.1,0.5,0.1,0.8v0.6h0.6v-2
	v-1.8v-0.2h-0.5l-0.1,0.6c0,0.2,0,0.5-0.1,0.7c-0.1,0.1-0.2,0.1-0.3,0.1c-0.6,0.1-1.2,0.1-1.8,0.1c-0.6,0-1.2,0-1.9,0v-2.9
	c0-0.5,0-1.2,0-1.8l1-0.1h0.9c0.6,0,1.3,0,1.9,0.1c0.3,0,0.7,0.1,1,0.3c0.1,0.5,0.1,1.1,0.1,1.6h0.5c0.1-1.2,0.1-1.7,0.2-1.8
	c0-0.3,0.1-0.6,0.2-0.8c-0.5-0.1-1.1-0.1-1.6-0.1h-2.7h-2.6h-2.5v0.5c0.4,0,0.8,0,1.2,0.1c0.1,0,0.2,0.1,0.3,0.2
	c0.1,0.3,0.1,0.7,0.1,1c0,0.8,0,1.5,0,2.3v4.4c0,0.5,0,1.2,0,2L25.9,46z M56.5,37.2c0-0.3,0-0.6,0.1-0.8c0.1-0.1,0.2-0.2,0.3-0.2
	c0.4-0.1,0.8-0.1,1.2-0.1v-0.5h-1.9h-1.5c-0.3,0.7-0.8,1.9-1.6,3.6l-3,6.2l-3.3-6.7c-0.4-0.9-0.9-1.9-1.4-3c-0.5,0-1,0-1.6,0h-1.7
	v0.5c0.4,0,0.8,0,1.2,0.1c0.1,0,0.2,0.1,0.3,0.2c0.1,0.3,0.1,0.7,0.1,1c0,0.8,0,1.5,0,2.3v4c0,1.5,0,2.3,0,2.4c0,0.3,0,0.6-0.1,0.8
	c-0.1,0.1-0.2,0.2-0.3,0.2c-0.4,0.1-0.8,0.1-1.2,0.1v0.5l2.2-0.1l2.1,0.1v-0.6c-0.4,0-0.8,0-1.2-0.1c-0.1,0-0.2-0.1-0.3-0.2
	c-0.1-0.3-0.1-0.7-0.1-1c0-0.8,0-1.5,0-2.3v-6l4.1,8.5l0.6,1.2c0.1,0.2,0.2,0.3,0.2,0.5H50c0.4-0.9,0.7-1.6,0.9-2
	c0.3-0.6,0.6-1.4,1.1-2.3l3-6.2v6.3c0,1.5,0,2.3,0,2.5c0,0.3,0,0.6-0.1,0.8c-0.1,0.1-0.2,0.2-0.3,0.2c-0.4,0.1-0.8,0.1-1.3,0.1v0.5
	c1.3,0,2.2-0.1,2.5-0.1s1.3,0,2.5,0.1v-0.6c-0.4,0-0.8,0-1.3-0.1c-0.1,0-0.2-0.1-0.3-0.2c-0.1-0.3-0.2-0.7-0.1-1c0-0.7,0-1.5,0-2.3
	v-4C56.6,38.1,56.6,37.3,56.5,37.2L56.5,37.2z M78.4,38.2c0.2,0.4,0.4,0.9,0.5,1.4c0.1,0.6,0.2,1.1,0.2,1.7c0,1.8-0.7,3.6-2,4.8
	c-1.3,1.3-3.1,2-4.9,1.9c-0.9,0-1.7-0.1-2.5-0.4c-0.8-0.3-1.4-0.7-2-1.3c-0.6-0.6-1-1.3-1.2-2.1c-0.2-0.8-0.4-1.6-0.4-2.4
	c0-0.9,0.1-1.7,0.4-2.5c0.3-0.8,0.7-1.5,1.3-2.1c0.6-0.6,1.4-1.1,2.2-1.4c0.9-0.3,1.8-0.5,2.7-0.5c0.9,0,1.7,0.1,2.6,0.4
	C76.6,36.1,77.7,37,78.4,38.2L78.4,38.2z M77.3,41.9c0-0.9-0.1-1.7-0.4-2.5c-0.1-0.5-0.3-0.9-0.6-1.3c-0.2-0.4-0.5-0.7-0.9-1
	c-0.4-0.3-0.9-0.6-1.3-0.7c-0.6-0.2-1.2-0.3-1.8-0.3c-0.8,0-1.7,0.2-2.4,0.6c-0.7,0.4-1.2,1-1.6,1.8c-0.4,0.8-0.5,1.7-0.5,2.6
	c0,0.6,0.1,1.1,0.2,1.7c0.1,0.5,0.2,1,0.4,1.5c0.2,0.6,0.6,1.2,1.1,1.7c0.4,0.4,0.9,0.8,1.5,1c0.6,0.2,1.2,0.3,1.8,0.3
	c0.9,0,1.7-0.2,2.4-0.7c0.7-0.5,1.3-1.1,1.6-1.9C77.2,43.8,77.3,42.8,77.3,41.9L77.3,41.9z M92.1,41.2h-0.7l-0.1,0.3
	c0.6,0.6,1.1,1.3,1.7,2.1c0.4,0.5,0.8,1,1.3,1.7c0.9,1.2,1.5,2,1.9,2.5c0.5,0,0.9,0,1.3,0s0.7,0,1.1,0v-0.6c-0.2,0-0.4,0-0.6,0
	c-0.1,0-0.1-0.1-0.2-0.1c-0.1-0.1-0.5-0.5-1.1-1.3l-2.2-2.9c-0.5-0.7-0.9-1.1-1-1.3c0.7-0.1,1.3-0.4,1.9-0.7
	c0.5-0.3,0.9-0.7,1.1-1.2c0.2-0.4,0.4-0.9,0.4-1.4c0-0.5-0.1-1-0.4-1.5c-0.3-0.5-0.7-0.8-1.2-1c-0.8-0.2-1.6-0.3-2.4-0.3h-1.6H90
	h-1.7h-1v0.6c0.4,0,0.8,0,1.3,0.1c0.1,0,0.2,0.1,0.3,0.2c0.1,0.3,0.2,0.7,0.1,1c0,0.8,0,1.5,0,2.3v4c0,1.5,0,2.3,0,2.4
	c0,0.3,0,0.6-0.1,0.8c-0.1,0.1-0.2,0.2-0.3,0.2c-0.4,0.1-0.8,0.1-1.2,0.1v0.6c1.3,0,2.2-0.1,2.8-0.1s1.4,0,2.3,0.1v-0.6
	c-0.4,0-0.8,0-1.2-0.1c-0.1,0-0.2-0.1-0.3-0.2c-0.1-0.3-0.1-0.7-0.1-1c0-0.7,0-1.5,0-2.3v-3.8c0-1.6,0-2.4,0.1-2.5
	c0-0.3,0-0.6,0-0.9c0.6-0.2,1.1-0.3,1.7-0.3c0.8-0.1,1.5,0.2,2.1,0.6c0.5,0.4,0.7,1,0.7,1.7c0,0.8-0.3,1.5-0.8,2
	C93.8,41.1,93,41.3,92.1,41.2L92.1,41.2z M109.9,37.2c0-0.3,0-0.6,0.1-0.8c0.1-0.1,0.2-0.2,0.3-0.2c0.4-0.1,0.8-0.1,1.2-0.1v-0.5
	c-1.1,0-2,0.1-2.5,0.1s-1.4,0-2.5-0.1v0.5c0.4,0,0.8,0,1.2,0.1c0.1,0,0.2,0.1,0.3,0.2c0.1,0.3,0.1,0.7,0.1,1c0,0.8,0,1.5,0,2.3v4
	c0,1.5,0,2.3,0,2.4c0,0.3,0,0.6-0.1,0.8c-0.1,0.1-0.2,0.2-0.3,0.2c-0.4,0.1-0.8,0.1-1.2,0.1v0.5l2.7-0.1c0.4,0,1.2,0,2.4,0.1v-0.6
	c-0.4,0-0.8,0-1.3-0.1c-0.1,0-0.2-0.1-0.3-0.2c-0.1-0.3-0.1-0.7-0.1-1c0-0.8,0-1.5,0-2.3v-4C109.9,38.1,109.9,37.3,109.9,37.2
	L109.9,37.2z M129.5,47c0-0.1,0.1-0.1,0.1-0.2c0-0.2,0-0.3-0.1-0.5l-1.1-2.6h-5l-0.9,2.2c-0.1,0.3-0.2,0.6-0.3,0.9
	c0,0.1,0,0.1,0.1,0.2c0.1,0.1,0.2,0.1,0.3,0.2c0.4,0.1,0.7,0.1,1.1,0.1v0.6c-1,0-1.7-0.1-2.2-0.1s-1.2,0-1.8,0.1v-0.6
	c0.3,0,0.6,0,0.8,0c0.1,0,0.2-0.1,0.3-0.2c0.2-0.2,0.3-0.4,0.4-0.7l1.1-2.4l2.2-4.9c0.2-0.5,0.7-1.7,1.5-3.5h0.6l3.7,8.6
	c0.6,1.4,1,2.3,1.2,2.6c0.1,0.2,0.2,0.3,0.4,0.4c0.3,0.1,0.6,0.1,0.9,0.1v0.5c-0.9-0.1-1.5-0.1-1.9-0.1l-2.8,0.1v-0.6
	c0.4,0,0.8,0,1.2-0.1C129.3,47.1,129.4,47.1,129.5,47L129.5,47z M128.1,43l-2.2-5.2l-2.2,5.2L128.1,43z M142.2,45.7
	c0,0.3,0,0.7-0.1,1c0,0.1-0.1,0.1-0.1,0.2c-0.2,0.2-0.4,0.3-0.7,0.4v0.5c0.6,0,1.1-0.1,1.7-0.1l5.1,0.1c0.6,0,1.1,0,1.4,0
	c0.2,0,0.4,0,0.6-0.1c0.1-1.2,0.2-2.2,0.4-3h-0.6l-0.3,1.4c-0.1,0.2-0.1,0.4-0.2,0.6c-1.1,0.3-2.3,0.4-3.4,0.3c-0.6,0-1.3,0-1.9-0.1
	c0-0.4,0-0.9,0-1.5v-5.8c0-1.5,0-2.3,0-2.4c0-0.3,0-0.6,0.1-0.8c0.1-0.1,0.2-0.2,0.3-0.2c0.4-0.1,0.8-0.1,1.2-0.1v-0.6
	c-1.3,0-2.1,0.1-2.5,0.1s-1.2,0-2.6-0.1v0.6c0.4,0,0.8,0,1.3,0.1c0.1,0,0.2,0.1,0.3,0.2c0.1,0.3,0.1,0.7,0.1,1c0,0.8,0,1.5,0,2.3
	v4.6C142.2,44.5,142.2,45,142.2,45.7L142.2,45.7z M184.2,37.3c0-0.3,0-0.6,0.1-0.9c0.6-0.1,1.2-0.1,1.8-0.1c0.5,0,1,0,1.5,0.1
	c0.4,0,0.7,0.1,1.1,0.2c0.1,0.5,0.2,1.1,0.2,1.6h0.6c0-0.9,0.1-1.8,0.3-2.6h-0.9h-1.1h-2.3h-2.3c-0.6,0-1.4,0-2.2,0v0.6
	c0.4,0,0.8,0,1.2,0.1c0.1,0,0.2,0.1,0.3,0.2c0.1,0.3,0.1,0.7,0.1,1c0,0.7,0,1.5,0,2.3v4c0,1.5,0,2.3,0,2.5c0,0.3,0,0.6-0.1,0.8
	c-0.1,0.1-0.2,0.2-0.3,0.2c-0.4,0.1-0.8,0.1-1.2,0.1v0.4c1.2,0,2.2-0.1,2.8-0.1s1.4,0,2.2,0.1v-0.5c-0.4,0-0.8,0-1.2-0.1
	c-0.1,0-0.2-0.1-0.3-0.2c-0.1-0.3-0.1-0.7-0.1-1c0-0.7,0-1.5,0-2.3v-1.7h1.3c0.7,0,1.5,0,2.2,0.1c0.1,0,0.2,0.1,0.3,0.2
	c0.1,0.3,0.1,0.7,0.1,1l0.1,0.5h0.5l-0.1-2.1l0.1-2h-0.5l-0.1,0.5c0,0.3-0.1,0.5-0.2,0.7c-0.1,0.1-0.2,0.1-0.3,0.1
	c-0.6,0.1-1.2,0.1-1.8,0.1h-1.7v-1.9C184.2,38.1,184.2,37.4,184.2,37.3L184.2,37.3z M199.8,46c0,0.3,0,0.6-0.1,0.9
	c0,0.1-0.1,0.1-0.2,0.2c-0.4,0.1-0.8,0.2-1.2,0.1v0.5l2.3-0.1l5.1,0.1c0.6,0,1.2,0,1.8-0.1c0-1,0.1-1.9,0.2-2.9h-0.6
	c0,0.3-0.1,0.6-0.3,1.2c-0.1,0.2-0.1,0.5-0.2,0.7c-0.3,0.1-0.6,0.2-0.9,0.2c-0.5,0.1-1,0.1-1.6,0.1c-1,0-2,0-2.8-0.1
	c0-0.5,0-1.4,0-2.4s0-2,0-2.6c0.7,0,1.3,0,1.6,0c0.6,0,1.3,0,1.9,0.1c0.1,0,0.3,0.1,0.4,0.2c0.1,0.3,0.1,0.5,0.1,0.8v0.6h0.6l-0.1-2
	l0.1-1.8v-0.2h-0.5l-0.1,0.6c0,0.2,0,0.5-0.1,0.7c-0.1,0.1-0.2,0.1-0.4,0.1c-0.6,0.1-1.2,0.1-1.8,0.1c-0.6,0-1.2,0-1.9,0v-2.9
	c0-0.5,0-1.2,0-1.8l1-0.1h0.9c0.6,0,1.3,0,1.9,0.1c0.3,0,0.7,0.1,1,0.3c0.1,0.5,0.1,1.1,0.1,1.6h0.6c0.1-1.2,0.1-1.7,0.1-1.8
	c0-0.3,0.1-0.6,0.2-0.8c-0.5-0.1-1.1-0.1-1.6-0.1H203h-2.6h-2.4v0.5c0.4,0,0.8,0,1.2,0.1c0.1,0,0.2,0.1,0.3,0.2
	c0.1,0.3,0.1,0.7,0.1,1c0,0.8,0,1.5,0,2.3v4.4c0,0.5,0,1.2,0,2L199.8,46z M217.8,45.7c0,0.3,0,0.7-0.1,1c0,0.1-0.1,0.1-0.1,0.2
	c-0.2,0.2-0.4,0.3-0.7,0.4v0.5c0.6,0,1.1-0.1,1.7-0.1l5.1,0.1c0.6,0,1.1,0,1.4,0c0.2,0,0.4,0,0.6-0.1c0.1-1.2,0.2-2.2,0.4-3h-0.6
	l-0.3,1.4c-0.1,0.2-0.1,0.4-0.2,0.6c-1.1,0.3-2.3,0.4-3.4,0.3c-0.7,0-1.3,0-1.9-0.1c0-0.4,0-0.9,0-1.5v-5.8c0-1.5,0-2.3,0-2.4
	c0-0.3,0-0.6,0.1-0.8c0.1-0.1,0.2-0.2,0.3-0.2c0.4-0.1,0.8-0.1,1.2-0.1v-0.6c-1.3,0-2.1,0.1-2.5,0.1s-1.2,0-2.6-0.1v0.6
	c0.4,0,0.8,0,1.2,0.1c0.1,0,0.2,0.1,0.3,0.2c0.1,0.3,0.1,0.7,0.1,1c0,0.8,0,1.5,0,2.3v4.6C217.8,44.5,217.8,45,217.8,45.7
	L217.8,45.7z M236,45.7c0,0.3,0,0.7-0.1,1c0,0.1-0.1,0.1-0.1,0.2c-0.2,0.2-0.4,0.3-0.7,0.4v0.5c0.6,0,1.1-0.1,1.7-0.1l5.1,0.1
	c0.6,0,1.1,0,1.4,0c0.2,0,0.4,0,0.6-0.1c0.1-1.2,0.3-2.2,0.4-3h-0.6l-0.4,1.4c0,0.2-0.1,0.4-0.2,0.6c-1.1,0.3-2.3,0.4-3.4,0.3
	c-0.7,0-1.3,0-2-0.1c0-0.4,0-0.9,0-1.5v-5.8c0-1.5,0-2.3,0-2.4c0-0.3,0-0.6,0.1-0.8c0.1-0.1,0.2-0.2,0.3-0.2
	c0.4-0.1,0.8-0.1,1.2-0.1v-0.6c-1.3,0-2.1,0.1-2.5,0.1s-1.2,0-2.6-0.1v0.6c0.4,0,0.8,0,1.2,0.1c0.1,0,0.2,0.1,0.3,0.2
	c0.1,0.3,0.1,0.7,0.1,1c0,0.8,0,1.5,0,2.3v4.6C235.9,44.5,235.9,45,236,45.7L236,45.7z M264.9,38.2c0.2,0.4,0.4,0.9,0.5,1.4
	c0.1,0.6,0.2,1.1,0.2,1.7c0,1.8-0.7,3.6-2,4.8c-1.3,1.3-3.1,2-4.9,1.9c-0.9,0-1.7-0.1-2.5-0.4c-0.8-0.3-1.4-0.7-2-1.3
	c-0.6-0.6-1-1.3-1.2-2.1c-0.3-0.8-0.4-1.6-0.4-2.4c0-0.9,0.1-1.7,0.4-2.5c0.3-0.8,0.8-1.5,1.4-2.1c0.6-0.6,1.4-1.1,2.2-1.4
	c0.9-0.3,1.8-0.5,2.7-0.5c0.9,0,1.7,0.1,2.6,0.4C263.1,36.1,264.2,37,264.9,38.2L264.9,38.2z M263.8,41.9c0-0.9-0.1-1.7-0.4-2.5
	c-0.1-0.5-0.3-0.9-0.6-1.3c-0.2-0.4-0.5-0.7-0.9-1c-0.4-0.3-0.8-0.6-1.3-0.7c-0.6-0.2-1.2-0.3-1.8-0.3c-0.8,0-1.7,0.2-2.4,0.6
	c-0.7,0.4-1.2,1-1.5,1.8c-0.4,0.8-0.5,1.7-0.5,2.6c0,0.6,0.1,1.1,0.2,1.7c0.1,0.5,0.2,1,0.4,1.5c0.2,0.6,0.6,1.2,1.1,1.7
	c0.4,0.4,0.9,0.8,1.5,1c0.6,0.2,1.2,0.3,1.8,0.3c0.9,0,1.7-0.2,2.4-0.7c0.7-0.5,1.2-1.1,1.5-1.9C263.6,43.7,263.8,42.8,263.8,41.9
	L263.8,41.9z M278.1,36.1v-0.5c-1,0-1.8,0.1-2.2,0.1s-1.2,0-2.2-0.1v0.5c0.4,0,0.7,0.1,1.1,0.2c0.2,0.3,0.3,0.6,0.3,0.9l1.7,7.1
	l0.8,3.6h0.9c0.2-0.7,0.4-1.2,0.5-1.5s0.2-0.7,0.4-1l1.1-2.8l1.7-4.3l2,5.3c0.4,1,0.9,2.4,1.5,4.3h0.9l1.1-4.2c0.3-1,0.5-1.7,0.5-2
	l0.9-2.9c0.4-1.3,0.6-2.1,0.7-2.3c0.1-0.2,0.2-0.3,0.3-0.4c0.3-0.1,0.5-0.1,0.8-0.1v-0.5c-0.9,0-1.5,0.1-1.8,0.1s-1,0-1.9-0.1v0.5
	c0.5,0,0.9,0,1.4,0.1c0.1,0.1,0.2,0.2,0.1,0.3c0,0.3-0.1,0.5-0.2,0.8c-0.2,1-0.5,2-0.7,2.9l-1.5,5.1l-2-5.6
	c-0.4-1.2-0.9-2.6-1.4-4.2h-0.5c-0.5,1.5-1.1,3-1.6,4.4l-2.1,5.3l-1.4-6c-0.1-0.3-0.2-0.9-0.4-2c-0.1-0.2-0.1-0.5-0.1-0.8
	c0-0.1,0-0.2,0.1-0.2C277.3,36,277.7,36,278.1,36.1L278.1,36.1z M303.5,46.9c-0.5,0.3-1,0.4-1.6,0.4c-0.4,0-0.8-0.1-1.2-0.2
	c-0.4-0.1-0.7-0.3-1-0.5c-0.2-0.1-0.4-0.3-0.5-0.5c-0.1-0.5-0.2-1-0.1-1.5h-0.6c0,0.9-0.1,1.8-0.2,2.7c1,0.5,2,0.7,3.1,0.7
	c1.3,0,2.6-0.4,3.6-1.3c0.9-0.7,1.4-1.8,1.4-3c0-0.4-0.1-0.9-0.3-1.3c-0.2-0.3-0.4-0.6-0.6-0.9c-0.4-0.3-0.8-0.5-1.2-0.6
	c-0.6-0.1-1.2-0.2-1.9-0.3c-0.5,0-1-0.1-1.5-0.3c-0.4-0.1-0.7-0.3-1-0.6c-0.2-0.3-0.3-0.7-0.3-1.1c0-0.7,0.2-1.5,0.8-2
	c0.5-0.5,1.3-0.8,2-0.8c0.6,0,1.3,0.2,1.9,0.5c0.2,0.1,0.4,0.3,0.6,0.6c0.1,0.5,0.1,1,0.1,1.4h0.6c0-0.6,0-1.1,0.1-1.4
	c0-0.3,0.1-0.7,0.2-1c-0.5-0.2-1.1-0.4-1.6-0.6c-0.5-0.1-1.1-0.2-1.6-0.2c-0.8,0-1.5,0.2-2.3,0.5c-0.7,0.3-1.2,0.8-1.6,1.4
	c-0.3,0.6-0.5,1.2-0.5,1.9c0,0.4,0.1,0.9,0.3,1.3c0.1,0.4,0.4,0.7,0.7,1c0.4,0.3,0.8,0.5,1.3,0.7c0.4,0.1,1,0.2,1.6,0.3
	s1.1,0.1,1.3,0.2c0.3,0.1,0.6,0.2,0.9,0.3c0.2,0.2,0.4,0.4,0.5,0.7c0.1,0.3,0.2,0.7,0.2,1c0,0.5-0.1,1-0.3,1.4
	C304.3,46.4,303.9,46.7,303.5,46.9L303.5,46.9z M327,37.2c0-0.3,0-0.6,0.1-0.8c0.1-0.1,0.2-0.2,0.3-0.2c0.4-0.1,0.8-0.1,1.2-0.1
	v-0.5h-2.5h-2.5v0.5c0.4,0,0.8,0,1.3,0.1c0.1,0,0.2,0.1,0.3,0.2c0.1,0.3,0.1,0.7,0.1,1c0,0.8,0,1.5,0,2.3v1.2c-0.8,0-1.8,0.1-3,0.1
	c-1.6,0-3,0-4.1-0.1v-1.2c0-1.5,0-2.3,0-2.4c0-0.3,0-0.6,0.1-0.8c0.1-0.1,0.2-0.2,0.3-0.2c0.4-0.1,0.8-0.1,1.2-0.1v-0.6l-2.4,0
	l-2.6-0.1v0.6c0.4,0,0.8,0,1.2,0.1c0.1,0,0.2,0.1,0.3,0.2c0.1,0.3,0.1,0.7,0.1,1c0,0.8,0,1.5,0,2.3v4c0,1.5,0,2.3,0,2.5
	c0,0.3,0,0.6-0.1,0.8c-0.1,0.1-0.2,0.2-0.3,0.2c-0.4,0.1-0.8,0.1-1.2,0.1v0.5c0.9,0,1.8-0.1,2.7-0.1s1.6,0,2.4,0.1v-0.6
	c-0.4,0-0.8,0-1.2-0.1c-0.1,0-0.2-0.1-0.3-0.2c-0.1-0.3-0.1-0.7-0.1-1c0-0.7,0-1.5,0-2.3v-2c1.4,0,2.5,0,3.5,0s2,0,3.7,0v2
	c0,1.5,0,2.3,0,2.4c0,0.3,0,0.6-0.1,0.8c-0.1,0.1-0.2,0.2-0.3,0.2c-0.4,0.1-0.8,0.1-1.2,0.1v0.6c0.8,0,1.6-0.1,2.3-0.1
	s1.6,0,2.7,0.1v-0.5c-0.4,0-0.8,0-1.2-0.1c-0.1,0-0.2-0.1-0.3-0.2c-0.1-0.3-0.1-0.7-0.1-1c0-0.7,0-1.5,0-2.3v-4
	C327,38.1,327,37.3,327,37.2L327,37.2z M340.3,37.2c0-0.3,0-0.6,0.1-0.8c0.1-0.1,0.2-0.2,0.3-0.2c0.4-0.1,0.8-0.1,1.2-0.1v-0.6
	c-1.1,0-2,0.1-2.5,0.1s-1.4,0-2.5-0.1v0.6c0.4,0,0.8,0,1.2,0.1c0.1,0,0.2,0.1,0.3,0.2c0.1,0.3,0.2,0.7,0.1,1c0,0.8,0,1.5,0,2.3v4
	c0,1.5,0,2.3,0,2.4c0,0.3,0,0.6-0.1,0.8c-0.1,0.1-0.2,0.2-0.3,0.2c-0.4,0.1-0.8,0.1-1.2,0.1v0.5l2.7-0.1c0.4,0,1.2,0,2.4,0.1v-0.6
	c-0.4,0-0.8,0-1.2-0.1c-0.1,0-0.2-0.1-0.3-0.2c-0.1-0.3-0.1-0.7-0.1-1c0-0.7,0-1.5,0-2.3v-4C340.3,38.1,340.3,37.3,340.3,37.2
	L340.3,37.2z M359.6,36.8c-0.3-0.4-0.7-0.8-1.2-1c-0.7-0.2-1.4-0.3-2.1-0.3h-0.4l-1.4,0H353c-0.7,0-1.6,0-2.7,0v0.6
	c0.4,0,0.8,0,1.2,0.1c0.1,0,0.2,0.1,0.3,0.2c0.1,0.3,0.1,0.7,0.1,1c0,0.7,0,1.5,0,2.3v4c0,1.5,0,2.3,0,2.5c0,0.3,0,0.6-0.1,0.8
	c-0.1,0.1-0.2,0.2-0.3,0.2c-0.4,0.1-0.8,0.1-1.2,0.1v0.5l2.7-0.1c0.5,0,1.3,0,2.3,0.1v-0.5c-0.4,0-0.8,0-1.3-0.1
	c-0.1,0-0.2-0.1-0.3-0.2c-0.1-0.3-0.2-0.7-0.1-1c0-0.7,0-1.5,0-2.3v-4.3c0-1.3,0-2.3,0.1-2.8c0.6-0.2,1.2-0.3,1.8-0.3
	c0.5,0,1.1,0.1,1.5,0.3c0.4,0.2,0.8,0.5,1,0.9c0.2,0.4,0.3,0.9,0.3,1.3c0,0.5-0.1,1-0.3,1.4c-0.2,0.4-0.5,0.7-0.9,1
	c-0.4,0.2-0.8,0.3-1.2,0.3c-0.4,0-0.8-0.1-1.2-0.2l0.2,0.6c0.4,0.1,0.8,0.1,1.2,0.1c0.4,0,0.8,0,1.2-0.2c0.5-0.2,1-0.4,1.5-0.8
	c0.4-0.3,0.8-0.8,1-1.3c0.2-0.5,0.4-1,0.4-1.5C360,37.8,359.9,37.2,359.6,36.8L359.6,36.8z M10.3,64.5H6.9c-1.7,0-2.8,0-3.5,0
	c-0.9,0-2,0-3.4-0.1v0.8c0.6,0,1.3,0,1.9,0.1c0.2,0.1,0.4,0.2,0.5,0.3c0.2,0.5,0.2,1,0.2,1.5c0,1.1,0,2.3,0,3.4v6c0,2.3,0,3.5,0,3.7
	c0,0.4-0.1,0.9-0.2,1.3c-0.1,0.2-0.3,0.3-0.5,0.3C1.3,82,0.6,82,0,82v0.8c1.9-0.1,3.3-0.1,4.3-0.1s2.2,0,3.3,0.1V82
	c-0.6,0-1.3,0-1.9-0.1c-0.2-0.1-0.4-0.2-0.5-0.3c-0.1-0.5-0.2-1-0.2-1.5c0-1.1,0-2.3,0-3.4v-2.5c0.7,0,1.3,0,1.9,0
	c1.1,0,2.2,0,3.4,0.2c0.2,0,0.4,0.1,0.5,0.3c0.1,0.5,0.2,1,0.2,1.5l0.1,0.8h0.8l-0.1-3.2l0.1-3h-0.8L11,71.5c0,0.4-0.1,0.7-0.2,1.1
	c-0.1,0.1-0.3,0.2-0.5,0.2c-0.9,0.1-1.8,0.2-2.6,0.2c-0.8,0-1.6,0-2.6,0v-2.9c0-1.8,0.1-2.7,0.1-3c0-0.4,0-0.8,0.1-1.3
	c0.9-0.1,1.8-0.2,2.7-0.2c0.8,0,1.5,0,2.3,0.1c0.6,0.1,1.1,0.2,1.7,0.3c0.2,0.8,0.3,1.6,0.3,2.4H13c0-1.3,0.1-2.6,0.4-3.9
	c-0.4,0-0.9-0.1-1.4-0.1S10.9,64.5,10.3,64.5z M53.4,70.6c0.2,0.8,0.3,1.7,0.3,2.6c0.1,2.7-1,5.4-2.9,7.3c-2,1.9-4.7,3-7.4,2.9
	c-1.3,0-2.6-0.2-3.8-0.7c-1.1-0.4-2.2-1.1-3-2c-0.8-0.9-1.5-2-1.8-3.2c-0.8-2.4-0.8-5.1,0-7.5c0.4-1.2,1.1-2.3,2-3.1
	c0.9-0.9,2-1.6,3.2-2.1c1.3-0.5,2.7-0.7,4.1-0.7c1.3,0,2.6,0.2,3.9,0.6c1,0.4,2,0.9,2.8,1.6C52.1,67.4,53,68.9,53.4,70.6L53.4,70.6z
	 M50.9,74c0-1.3-0.2-2.6-0.5-3.8c-0.2-0.7-0.5-1.3-0.9-1.9c-0.4-0.6-0.8-1-1.3-1.5c-0.6-0.5-1.3-0.8-2-1.1c-0.9-0.3-1.8-0.4-2.7-0.4
	c-1.3,0-2.5,0.3-3.6,0.9c-1,0.6-1.8,1.5-2.3,2.6c-0.6,1.3-0.8,2.6-0.8,4c0,0.8,0.1,1.7,0.3,2.5c0.1,0.8,0.3,1.5,0.6,2.2
	c0.4,1,0.9,1.9,1.6,2.6c0.6,0.7,1.4,1.2,2.3,1.6c0.9,0.3,1.8,0.5,2.8,0.5c1.3,0,2.6-0.3,3.6-1c1-0.7,1.8-1.7,2.3-2.9
	C50.7,76.9,51,75.5,50.9,74L50.9,74z M87.3,64.5v0.8c0.6,0,1.3,0,1.9,0.1c0.2,0.1,0.4,0.2,0.5,0.3c0.1,0.5,0.2,1,0.2,1.5
	c0,1.1,0,2.3,0,3.4v4c0,0.9,0,1.9-0.1,2.8c0,0.6-0.2,1.2-0.4,1.8c-0.2,0.4-0.5,0.8-0.8,1.2c-0.5,0.4-1.1,0.7-1.7,0.9
	c-0.8,0.3-1.7,0.4-2.6,0.3c-0.8,0-1.5-0.1-2.3-0.3c-0.6-0.1-1.1-0.4-1.6-0.7c-0.5-0.4-0.9-0.9-1.1-1.5c-0.3-1.2-0.4-2.4-0.4-3.7
	v-4.8c0-2.3,0-3.5,0-3.7c0-0.4,0.1-0.8,0.2-1.2c0.1-0.2,0.3-0.3,0.5-0.3c0.6-0.1,1.2-0.2,1.9-0.1v-0.8c-1.2,0.1-2.4,0.1-3.7,0.1
	s-2.5,0-3.9-0.1v0.8c0.6,0,1.3,0,1.9,0.1c0.2,0,0.4,0.2,0.5,0.3c0.2,0.5,0.2,1,0.2,1.5c0,1.1,0,2.3,0,3.5v5.7c0,1.2,0.1,2.4,0.4,3.6
	c0.2,0.6,0.6,1.1,1,1.6c0.6,0.6,1.4,1,2.2,1.3c2.2,0.6,4.4,0.6,6.6,0.1c0.9-0.2,1.7-0.6,2.4-1.1c0.7-0.6,1.3-1.4,1.7-2.2
	c0.4-1.5,0.5-3,0.4-4.5v-4.3c0-2.3,0-3.5,0-3.7c0-0.4,0.1-0.9,0.2-1.3c0.1-0.1,0.3-0.3,0.5-0.3c0.6-0.1,1.3-0.2,1.9-0.1v-0.8
	c-1.6,0.1-2.6,0.1-3.2,0.1S88.7,64.6,87.3,64.5L87.3,64.5z M128.8,64.5v0.8c0.6,0,1.2,0,1.8,0.2c0.1,0.1,0.2,0.2,0.3,0.3
	c0.1,0.4,0.2,0.9,0.2,1.3c0.1,1.1,0.1,2.1,0.1,3v9.5c-0.3-0.3-0.7-0.8-1.2-1.4c-0.8-0.9-1.8-2.1-3-3.6l-3.9-4.7l-2.7-3.3
	c-0.3-0.5-0.9-1.2-1.6-2.1c-0.6,0-1.3,0-1.9,0c-0.4,0-1.3,0-2.7,0v0.8c0.5,0,0.9,0,1.3,0.1c0.2,0,0.4,0.1,0.5,0.3
	c0.2,0.2,0.3,0.3,0.5,0.6c0,0.2,0,0.4,0,0.6v10.5c0,0.8,0,1.8-0.1,3c0,0.5-0.1,0.9-0.2,1.4c0,0.1-0.1,0.2-0.3,0.2
	c-0.6,0.2-1.2,0.2-1.8,0.2V83c1.2-0.1,2.3-0.1,3.3-0.1c1,0,1.8,0,2.5,0.1v-0.8c-0.6,0-1.2,0-1.8-0.2c-0.1-0.1-0.2-0.1-0.3-0.3
	c-0.1-0.4-0.2-0.9-0.2-1.3c-0.1-1.2-0.1-2.2-0.1-3v-10l9.2,11l1.7,2.1c0.3,0.4,0.9,1,1.6,1.8c0.2,0.2,0.3,0.4,0.5,0.5l0.1,0.1
	l0.3,0.1l1.3,0.4c0-3.5-0.1-5.8-0.1-7.1v-6.2c0-0.8,0-1.8,0.1-3c0-0.4,0.1-0.9,0.2-1.3c0.1-0.1,0.1-0.2,0.3-0.3
	c0.6-0.2,1.2-0.2,1.8-0.2v-0.8c-0.8,0-1.7,0.1-2.7,0.1S129.8,64.6,128.8,64.5L128.8,64.5z M172.8,68c0.9,1.4,1.4,3,1.4,4.7
	c0,1.3-0.2,2.5-0.6,3.7c-0.4,1.1-1,2.1-1.7,3c-0.7,0.8-1.4,1.5-2.3,2.1c-0.8,0.5-1.7,0.9-2.6,1.2c-1.2,0.3-2.5,0.4-3.8,0.4
	c-0.5,0-1.3,0-2.1,0l-2.3-0.1c-0.5,0-1.4,0-2.8,0.1v-0.6c0.4-0.2,0.9-0.5,1.3-0.8c0-0.6,0.1-1.4,0.1-2.4c0.1-1.8,0.1-3,0.1-3.7v-5.3
	c0-0.8,0-1.8-0.1-3c0-0.5-0.1-0.9-0.2-1.3c-0.1-0.1-0.2-0.2-0.3-0.3c-0.6-0.2-1.2-0.2-1.8-0.2v-0.8c1.3,0.1,2.4,0.1,3.4,0.1
	c0.7,0,1.8,0,3.1-0.1s2.3-0.1,3-0.1c1.7-0.1,3.5,0.2,5.1,0.8C170.8,65.9,172,66.8,172.8,68L172.8,68z M171.3,73.3
	c0-1.4-0.3-2.9-0.9-4.2c-0.6-1.1-1.5-2.1-2.7-2.7c-1.5-0.7-3.1-1-4.8-0.9c-1.1,0-2.2,0.1-3.2,0.2c0,0.4-0.1,1.2-0.1,2.3l-0.1,1.9
	v5.2v4c0,0.6,0,1.4,0.1,2.4c1,0.2,2,0.3,3,0.3c1,0,1.9-0.1,2.9-0.3c0.8-0.2,1.5-0.4,2.1-0.8c0.7-0.4,1.2-0.9,1.7-1.5
	c0.6-0.8,1-1.6,1.3-2.6C171.1,75.4,171.3,74.3,171.3,73.3L171.3,73.3z M213.1,81.9c0.4,0.1,0.9,0.2,1.3,0.2V83
	c-1.4-0.1-2.3-0.1-2.8-0.1l-4.2,0.1v-0.9c0.6,0,1.2,0,1.8-0.1c0.2,0,0.3-0.1,0.4-0.2c0.1-0.1,0.1-0.2,0.1-0.3c0-0.3-0.1-0.5-0.2-0.7
	l-1.6-4h-7.5l-1.4,3.3c-0.2,0.4-0.3,0.9-0.4,1.3c0,0.1,0,0.2,0.1,0.3c0.1,0.1,0.3,0.2,0.4,0.2c0.6,0.1,1.1,0.1,1.7,0.1v0.9
	c-1.5-0.1-2.6-0.1-3.3-0.1s-1.8,0-2.8,0.1V82c0.4,0,0.9,0,1.3-0.1c0.2-0.1,0.3-0.1,0.5-0.3c0.2-0.3,0.5-0.6,0.6-1l1.7-3.7l3.3-7.3
	c0.4-0.8,1.1-2.6,2.3-5.4h0.8l5.6,13c0.9,2.1,1.5,3.4,1.8,4C212.7,81.6,212.9,81.8,213.1,81.9L213.1,81.9z M207.4,75.7l-3.2-7.8
	l-3.3,7.8H207.4z M242.7,64.7c-0.6,0-1.6,0-3.3-0.1c-2,0-3.5-0.1-4.4-0.1c0.1,0.8,0.1,2.2,0.1,4.3h0.8l0.1-1.3c0-0.5,0.1-1,0.3-1.4
	c0.1-0.1,0.3-0.2,0.4-0.2c0.9-0.1,1.8-0.1,2.7-0.1h1.9l0.1,2.2c0,0.4,0,0.8,0,1.2v7.6c0,2.3-0.1,3.5-0.1,3.7c0,0.4-0.1,0.9-0.2,1.3
	c-0.1,0.2-0.3,0.3-0.5,0.3c-0.6,0.1-1.3,0.2-1.9,0.1V83l4.1-0.1c0.8,0,1.9,0,3.5,0.1v-0.8c-0.6,0-1.3,0-1.9-0.1
	c-0.2-0.1-0.4-0.2-0.5-0.3c-0.1-0.5-0.2-1-0.2-1.5c0-1.1,0-2.3,0-3.4v-7.6c0-1.4,0.1-2.5,0.1-3.4h1.6c0.4,0,1,0,1.8,0.1
	s1.2,0.1,1.3,0.1c0.1,0,0.2,0.1,0.2,0.1c0.1,0.1,0.1,0.1,0.1,0.2c0,0.1,0.1,0.5,0.1,1.3l0.1,1.3h0.8c0-1.9,0.1-3.3,0.2-4.3
	c-0.7,0-1.8,0.1-3.4,0.1C244.6,64.6,243.3,64.7,242.7,64.7L242.7,64.7z M318,70.6c0.2,0.8,0.3,1.7,0.3,2.6c0.1,2.7-1,5.4-2.9,7.3
	c-2,1.9-4.7,3-7.4,2.9c-1.3,0-2.6-0.2-3.8-0.7c-1.1-0.4-2.2-1.1-3-2c-0.8-0.9-1.5-2-1.9-3.2c-0.8-2.4-0.8-5.1,0-7.5
	c0.4-1.2,1.1-2.3,2-3.1c0.9-0.9,2-1.6,3.2-2.1c1.3-0.5,2.7-0.7,4.1-0.7c1.3,0,2.6,0.2,3.9,0.6c1.1,0.3,2,0.9,2.9,1.6
	C316.7,67.4,317.6,68.9,318,70.6L318,70.6z M315.5,74c0-1.3-0.2-2.6-0.5-3.8c-0.2-0.7-0.5-1.3-0.9-1.9c-0.4-0.5-0.8-1-1.3-1.5
	c-0.6-0.5-1.3-0.8-2-1.1c-0.9-0.3-1.8-0.5-2.7-0.4c-1.3,0-2.5,0.3-3.6,0.9c-1,0.6-1.9,1.5-2.4,2.6c-0.6,1.3-0.8,2.6-0.8,4
	c0,0.8,0.1,1.7,0.3,2.5c0.1,0.7,0.3,1.5,0.6,2.2c0.4,1,0.9,1.8,1.6,2.6c0.6,0.7,1.4,1.2,2.3,1.6c0.9,0.3,1.8,0.5,2.8,0.5
	c1.3,0,2.5-0.3,3.6-1c1.1-0.7,1.9-1.7,2.4-2.9C315.3,76.9,315.6,75.4,315.5,74L315.5,74z M352.9,64.5v0.8c0.6,0,1.2,0,1.8,0.2
	c0.1,0,0.2,0.1,0.3,0.3c0.1,0.4,0.2,0.9,0.2,1.3c0.1,1.2,0.1,2.1,0.1,3v9.5c-0.3-0.3-0.7-0.8-1.2-1.3c-0.8-0.9-1.8-2.1-3-3.6
	l-3.9-4.7l-2.7-3.3c-0.3-0.5-0.9-1.2-1.6-2.1c-0.6,0-1.3,0-1.9,0h-2.7v0.8c0.5,0,0.9,0,1.4,0.1c0.2,0,0.4,0.1,0.5,0.3
	c0.2,0.2,0.4,0.3,0.5,0.6c0,0.2,0.1,0.4,0,0.6v10.6c0,0.8,0,1.8-0.1,3c0,0.5-0.1,0.9-0.2,1.4c-0.1,0.1-0.1,0.2-0.3,0.3
	c-0.6,0.2-1.2,0.2-1.8,0.2V83c1.2-0.1,2.3-0.1,3.3-0.1c0.9,0,1.8,0,2.5,0.1v-0.8c-0.6,0-1.2,0-1.8-0.2c-0.1-0.1-0.2-0.1-0.3-0.3
	c-0.1-0.4-0.2-0.9-0.2-1.3c-0.1-1.2-0.1-2.2-0.1-3v-10l9.2,11l1.7,2.1c0.3,0.4,0.9,1,1.6,1.8c0.2,0.2,0.3,0.4,0.5,0.5l0.1,0.1
	l0.3,0.1l1.3,0.4c0-3.5-0.1-5.8-0.1-7.1v-6.2c0-0.8,0-1.8,0.1-3c0-0.4,0-0.9,0.2-1.3c0-0.1,0.1-0.2,0.3-0.3c0.6-0.2,1.2-0.2,1.8-0.2
	v-0.8c-0.8,0-1.7,0.1-2.7,0.1S353.9,64.6,352.9,64.5L352.9,64.5z M358.7,26.9H14.9v0.6h343.8L358.7,26.9z M0,56.5h358.6v-0.7H0
	L0,56.5z M270.5,64.5v0.8c0.6,0,1.3,0,1.9,0.1c0.2,0.1,0.4,0.2,0.5,0.4c0.2,0.5,0.2,1,0.2,1.5c0,1.1,0,2.3,0,3.5v6
	c0,2.3,0,3.5,0,3.7c0,0.4-0.1,0.9-0.2,1.3c-0.1,0.2-0.3,0.3-0.5,0.3c-0.6,0.1-1.2,0.2-1.9,0.1v0.8l4-0.1c0.6,0,1.8,0,3.6,0.1v-0.8
	c-0.6,0-1.3,0-1.9-0.1c-0.2-0.1-0.4-0.2-0.5-0.3c-0.2-0.5-0.2-1-0.2-1.5c0-1.1,0-2.3,0-3.4v-6c0-2.3,0-3.5,0-3.7
	c0-0.4,0.1-0.8,0.3-1.2c0.1-0.2,0.3-0.3,0.5-0.3c0.6-0.1,1.3-0.2,1.9-0.1v-0.8c-1.7,0.1-3,0.1-3.8,0.1S272.1,64.6,270.5,64.5
	L270.5,64.5z"/>
</svg>
