<?xml version="1.0" encoding="UTF-8"?>
<svg id="Layer_1" data-name="Layer 1" xmlns="http://www.w3.org/2000/svg" viewBox="0 0 3016.52 941.19">
  <defs>
    <style>
      .cls-1 {
        fill: #ea1d26;
      }

      .cls-2 {
        fill: #fff;
      }

      .cls-3 {
        fill: #cc2027;
      }

      .cls-4 {
        fill: #253f8c;
      }

      .cls-5 {
        fill: #650c0d;
      }

      .cls-6 {
        stroke: #a8aaad;
        stroke-width: 9px;
      }

      .cls-6, .cls-7 {
        fill: none;
      }

      .cls-7 {
        stroke: #ce202f;
      }
    </style>
  </defs>
  <line class="cls-6" x1="984.7" y1="832.1" x2="984.7" y2="65.46"/>
  <g>
    <path class="cls-4" d="M42.65,670.8v26.83h16.03v3.43h-19.96v-30.1l3.93-.16h0Z"/>
    <path class="cls-4" d="M86.65,670.8v3.43h-16.85v9.65h15.7v3.43h-15.7v10.47h17.01v3.43h-21.1v-30.1l20.94-.33h0Z"/>
    <path class="cls-4" d="M112.66,700.56c-1.8,.65-3.43,.98-5.23,.98-2.29,0-4.25-.33-6.05-1.31-1.8-.98-3.27-1.96-4.58-3.27-1.31-1.47-2.13-2.94-2.78-4.91-.65-1.96-.98-3.76-.98-5.72,0-2.13,.33-4.25,.98-6.22,.65-1.96,1.47-3.76,2.78-5.23,1.31-1.47,2.62-2.62,4.42-3.6,1.8-.82,3.93-1.31,6.22-1.31,1.64,0,3.11,.16,4.58,.49s2.78,.98,3.93,1.8c1.14,.82,2.13,1.8,2.94,3.11,.82,1.31,1.31,2.78,1.64,4.58h-3.93c-.16-1.15-.49-2.13-1.14-2.94-.65-.82-1.14-1.47-1.96-1.96-.82-.49-1.64-.98-2.62-1.15-.98-.33-2.13-.33-3.11-.33-1.8,0-3.43,.33-4.74,1.15-1.31,.82-2.45,1.64-3.27,2.94-.82,1.15-1.47,2.62-1.8,4.09-.33,1.47-.65,3.11-.65,4.74s.16,3.11,.65,4.58c.49,1.47,1.14,2.78,1.96,3.76,.82,.98,1.96,1.96,3.27,2.62,1.31,.65,2.78,.98,4.42,.98s2.94-.33,4.25-.82c1.14-.49,2.29-1.15,3.11-2.13,.82-.82,1.47-1.96,1.8-3.11s.65-2.45,.49-3.93h-9.65v-3.43h13.25v15.87h-2.62l-.98-3.76c-1.31,1.64-2.78,2.78-4.58,3.44Z"/>
    <path class="cls-4" d="M143.24,670.8l11.78,30.1h-4.42l-3.27-9h-12.76l-3.43,9h-4.09l11.78-30.1h4.42Zm2.78,17.67l-5.07-14.07h-.16l-5.07,14.07h10.3Z"/>
    <path class="cls-4" d="M165.82,670.8v26.83h16.03v3.43h-19.96v-30.1l3.93-.16h0Z"/>
    <path class="cls-4" d="M219.79,674.88c-1.31-.98-3.11-1.47-5.07-1.47-.82,0-1.64,0-2.45,.33-.82,.16-1.47,.49-2.13,.82-.65,.33-1.14,.98-1.47,1.64s-.65,1.47-.65,2.45,.33,1.64,.82,2.29c.49,.49,1.31,.98,2.13,1.47,.98,.33,1.96,.65,3.11,.82,1.14,.33,2.29,.49,3.6,.82,1.14,.33,2.29,.65,3.6,.98,1.14,.33,2.13,.82,3.11,1.47,.98,.65,1.64,1.47,2.13,2.45,.49,.98,.82,2.29,.82,3.76,0,1.64-.33,2.94-1.14,4.09s-1.64,2.13-2.78,2.78-2.45,1.31-3.76,1.64c-1.47,.33-2.78,.49-4.09,.49-1.64,0-3.27-.16-4.74-.65-1.47-.49-2.78-1.15-3.93-1.96-1.14-.82-1.96-1.96-2.62-3.27-.65-1.31-.98-2.94-.98-4.74h3.76c0,1.31,.16,2.29,.65,3.27s1.14,1.64,1.96,2.29,1.8,.98,2.78,1.31c.98,.33,2.13,.49,3.27,.49,.98,0,1.8,0,2.78-.33,.98-.16,1.8-.49,2.45-.82s1.31-.98,1.8-1.64,.65-1.64,.65-2.78c0-.98-.33-1.96-.82-2.45-.49-.65-1.31-1.15-2.13-1.64-.82-.49-1.96-.82-3.11-.98-1.14-.33-2.29-.49-3.6-.82-1.14-.33-2.29-.49-3.6-.98-1.14-.33-2.13-.82-3.11-1.31s-1.64-1.31-2.13-2.29c-.49-.98-.82-2.13-.82-3.43,0-1.47,.33-2.78,.98-3.93,.65-1.15,1.47-1.96,2.45-2.78,.98-.65,2.13-1.31,3.43-1.64,1.31-.33,2.62-.49,4.09-.49s2.94,.16,4.25,.49c1.31,.33,2.45,.98,3.43,1.8,.98,.82,1.8,1.8,2.29,2.94,.65,1.15,.98,2.62,.98,4.25h-3.76c-.33-2.29-1.15-3.76-2.45-4.74Z"/>
    <path class="cls-4" d="M256.43,670.8v3.43h-16.85v9.65h15.7v3.43h-15.7v10.47h17.01v3.43h-20.94v-30.1l20.77-.33h0Z"/>
    <path class="cls-4" d="M279.01,670.8c2.94,0,5.07,.65,6.71,2.13,1.64,1.47,2.45,3.27,2.45,5.72,0,1.8-.33,3.43-1.31,4.74-.98,1.31-2.13,2.29-3.93,2.78h0c.82,.16,1.64,.49,2.13,.82s.98,.82,1.31,1.47c.33,.49,.49,1.15,.65,1.8s.33,1.31,.33,2.13,.16,1.47,.16,2.29,.16,1.47,.16,2.29,.33,1.47,.49,2.13c.16,.65,.49,1.31,.98,1.8h-4.42c-.33-.33-.49-.82-.65-1.31-.16-.49-.16-1.15-.16-1.8s0-1.31-.16-2.13c0-.82-.16-1.47-.16-2.29-.16-.82-.33-1.47-.49-2.13-.16-.65-.49-1.31-.82-1.8-.33-.49-.82-.82-1.47-1.15s-1.31-.49-2.29-.49h-9.81v12.92h-3.93v-30.1l14.23,.16h0Zm.82,13.58c.82-.16,1.64-.33,2.29-.82,.65-.49,1.14-.98,1.47-1.64,.33-.65,.65-1.64,.65-2.62,0-1.47-.49-2.78-1.31-3.76s-2.29-1.47-4.09-1.47h-9.98v10.47h8.34c.82,.16,1.8,0,2.62-.16Z"/>
    <path class="cls-4" d="M304.2,700.89l-10.63-30.1h4.25l8.67,26.17h.16l8.67-26.17h4.25l-10.8,30.1h-4.58Z"/>
    <path class="cls-4" d="M330.53,670.8v30.1h-3.93v-30.1h3.93Z"/>
    <path class="cls-4" d="M359.16,675.05c-1.47-1.15-3.27-1.64-5.4-1.64-1.8,0-3.27,.33-4.58,.98-1.31,.65-2.29,1.64-3.11,2.78-.82,1.15-1.47,2.45-1.8,3.93-.33,1.47-.65,2.94-.65,4.58s.16,3.27,.65,4.91c.33,1.47,.98,2.94,1.8,4.09s1.96,1.96,3.27,2.78c1.31,.65,2.78,.98,4.58,.98,1.31,0,2.45-.16,3.6-.65,1.15-.49,1.96-.98,2.62-1.8,.65-.82,1.31-1.64,1.8-2.78,.49-1.15,.65-2.29,.82-3.43h4.09c-.33,3.76-1.64,6.71-3.93,8.83-2.29,2.13-5.23,3.11-9.16,3.11-2.29,0-4.42-.33-6.05-1.15-1.8-.82-3.27-1.96-4.42-3.27-1.15-1.47-1.96-3.11-2.62-4.91-.65-1.8-.82-3.93-.82-6.22s.33-4.25,.98-6.22c.65-1.96,1.47-3.6,2.78-5.07,1.31-1.47,2.62-2.62,4.42-3.43s3.93-1.31,6.22-1.31c1.64,0,3.11,.16,4.42,.65,1.31,.49,2.62,.98,3.76,1.8,1.15,.82,1.96,1.8,2.78,3.11,.82,1.31,1.15,2.62,1.47,4.25h-4.09c-.98-2.29-1.96-3.93-3.44-4.91Z"/>
    <path class="cls-4" d="M395.63,670.8v3.43h-16.85v9.65h15.7v3.43h-15.7v10.47h17.01v3.43h-20.94v-30.1l20.77-.33h0Z"/>
    <path class="cls-4" d="M418.69,674.88c-1.31-.98-3.11-1.47-5.07-1.47-.82,0-1.64,0-2.45,.33-.82,.16-1.47,.49-2.13,.82-.65,.33-1.15,.98-1.47,1.64-.33,.65-.65,1.47-.65,2.45s.33,1.64,.82,2.29c.49,.49,1.31,.98,2.13,1.47,.98,.33,1.96,.65,3.11,.82,1.15,.33,2.29,.49,3.6,.82,1.15,.33,2.45,.65,3.6,.98,1.15,.33,2.13,.82,3.11,1.47,.98,.65,1.64,1.47,2.13,2.45,.49,.98,.82,2.29,.82,3.76,0,1.64-.33,2.94-1.15,4.09-.82,1.15-1.64,2.13-2.78,2.78s-2.45,1.31-3.76,1.64c-1.47,.33-2.78,.49-4.09,.49-1.64,0-3.27-.16-4.74-.65-1.47-.49-2.78-1.15-3.93-1.96-1.15-.82-1.96-1.96-2.62-3.27-.65-1.31-.98-2.94-.98-4.74h3.76c0,1.31,.16,2.29,.82,3.27,.49,.98,1.15,1.64,1.96,2.29s1.8,.98,2.78,1.31c.98,.33,2.13,.49,3.27,.49,.82,0,1.8,0,2.78-.33,.98-.16,1.8-.49,2.45-.82,.65-.33,1.31-.98,1.8-1.64,.49-.65,.65-1.64,.65-2.78,0-.98-.33-1.96-.82-2.45-.49-.65-1.31-1.15-2.13-1.64-.82-.49-1.96-.82-3.11-.98-1.15-.33-2.29-.49-3.6-.82-1.15-.33-2.45-.49-3.6-.98s-2.13-.82-3.11-1.31c-.98-.49-1.64-1.31-2.13-2.29-.49-.98-.82-2.13-.82-3.43,0-1.47,.33-2.78,.98-3.93s1.47-1.96,2.45-2.78c.98-.82,2.13-1.31,3.43-1.64,1.31-.33,2.62-.49,4.09-.49,1.64,0,2.94,.16,4.25,.49,1.31,.33,2.45,.98,3.43,1.8s1.8,1.8,2.45,2.94c.65,1.15,.82,2.62,.98,4.25h-3.76c-.65-2.29-1.47-3.76-2.78-4.74Z"/>
    <path class="cls-4" d="M468.42,675.05c-1.47-1.15-3.27-1.64-5.4-1.64-1.8,0-3.27,.33-4.58,.98-1.31,.65-2.29,1.64-3.11,2.78-.82,1.15-1.47,2.45-1.8,3.93s-.65,2.94-.65,4.58,.16,3.27,.65,4.91c.33,1.47,.98,2.94,1.8,4.09,.82,1.15,1.96,1.96,3.27,2.78,1.31,.65,2.78,.98,4.58,.98,1.31,0,2.45-.16,3.6-.65,1.15-.49,1.96-.98,2.62-1.8,.65-.82,1.31-1.64,1.8-2.78,.49-1.15,.65-2.29,.82-3.43h4.09c-.33,3.76-1.64,6.71-3.93,8.83-2.29,2.13-5.23,3.11-9.16,3.11-2.29,0-4.42-.33-6.05-1.15-1.8-.82-3.27-1.96-4.42-3.27-1.15-1.47-1.96-3.11-2.62-4.91-.65-1.8-.82-3.93-.82-6.22s.33-4.25,.98-6.22c.65-1.96,1.47-3.6,2.78-5.07,1.31-1.47,2.62-2.62,4.42-3.43,1.8-.82,3.93-1.31,6.22-1.31,1.64,0,3.11,.16,4.42,.65,1.31,.49,2.62,.98,3.76,1.8,1.15,.82,1.96,1.8,2.78,3.11,.82,1.31,1.15,2.62,1.47,4.25h-4.09c-.82-2.29-1.8-3.93-3.44-4.91Z"/>
    <path class="cls-4" d="M483.47,679.79c.65-1.96,1.47-3.6,2.78-5.07,1.15-1.47,2.78-2.62,4.58-3.43,1.8-.82,3.93-1.31,6.38-1.31s4.58,.49,6.38,1.31c1.8,.82,3.27,1.96,4.58,3.43,1.15,1.47,2.13,3.11,2.78,5.07,.65,1.96,.98,3.93,.98,5.89s-.33,4.09-.98,5.89c-.65,1.96-1.47,3.6-2.78,5.07-1.15,1.47-2.78,2.62-4.58,3.43-1.8,.82-3.93,1.31-6.38,1.31s-4.58-.49-6.38-1.31c-1.8-.82-3.27-1.96-4.58-3.43-1.15-1.47-2.13-3.11-2.78-5.07-.65-1.96-.98-3.93-.98-5.89,.16-1.96,.49-3.93,.98-5.89Zm3.76,10.47c.33,1.47,.98,2.78,1.8,3.93s1.96,2.13,3.27,2.78,2.94,1.15,4.74,1.15,3.43-.33,4.74-1.15c1.31-.65,2.45-1.64,3.27-2.78,.82-1.15,1.47-2.45,1.8-3.93s.65-2.94,.65-4.58-.16-2.94-.65-4.58c-.49-1.64-.98-2.78-1.8-3.93-.82-1.15-1.96-2.13-3.27-2.78s-2.94-1.15-4.74-1.15-3.43,.33-4.74,1.15c-1.31,.65-2.45,1.64-3.27,2.78-.82,1.15-1.47,2.45-1.8,3.93-.33,1.47-.65,2.94-.65,4.58,0,1.64,.33,3.11,.65,4.58Z"/>
    <path class="cls-4" d="M534.17,670.8c2.94,0,5.07,.65,6.71,2.13,1.64,1.47,2.45,3.27,2.45,5.72,0,1.8-.33,3.43-1.31,4.74-.98,1.31-2.13,2.29-3.93,2.78h0c.82,.16,1.64,.49,2.13,.82,.49,.33,.98,.82,1.31,1.47,.33,.49,.49,1.15,.65,1.8,.16,.65,.33,1.31,.33,2.13s.16,1.47,.16,2.29,.16,1.47,.16,2.29,.33,1.47,.49,2.13c.16,.65,.49,1.31,.98,1.8h-4.42c-.33-.33-.49-.82-.65-1.31-.16-.49-.16-1.15-.16-1.8v-2.13c0-.82-.16-1.47-.16-2.29-.16-.82-.33-1.47-.49-2.13-.16-.65-.49-1.31-.82-1.8s-.82-.82-1.47-1.15-1.31-.49-2.45-.49h-9.81v12.92h-4.09v-30.1l14.39,.16h0Zm.98,13.58c.82-.16,1.64-.33,2.29-.82,.65-.33,1.15-.98,1.47-1.64,.33-.65,.65-1.64,.65-2.62,0-1.47-.49-2.78-1.31-3.76-.82-.98-2.29-1.47-4.09-1.47h-9.98v10.47h8.34c.82,.16,1.64,0,2.62-.16Z"/>
    <path class="cls-4" d="M565.91,670.8c3.11,0,5.4,.82,6.87,2.29,1.64,1.64,2.29,3.76,2.29,6.54s-.82,5.07-2.29,6.54c-1.64,1.64-3.93,2.29-6.87,2.29h-9.16v12.27h-4.09v-30.1h13.25v.16Zm-1.31,14.39c2.29,0,3.93-.49,5.07-1.31,.98-.98,1.64-2.29,1.64-4.09s-.49-3.11-1.64-4.09c-1.15-.98-2.78-1.47-5.07-1.47h-7.85v11.12l7.85-.16h0Z"/>
    <path class="cls-4" d="M582.75,679.79c.65-1.96,1.47-3.6,2.78-5.07,1.15-1.47,2.78-2.62,4.58-3.43,1.8-.82,3.93-1.31,6.38-1.31s4.58,.49,6.38,1.31c1.8,.82,3.27,1.96,4.58,3.43,1.15,1.47,2.13,3.11,2.78,5.07,.65,1.96,.98,3.93,.98,5.89s-.33,4.09-.98,5.89c-.65,1.96-1.47,3.6-2.78,5.07-1.15,1.47-2.78,2.62-4.58,3.43-1.8,.82-3.93,1.31-6.38,1.31s-4.58-.49-6.38-1.31c-1.8-.82-3.27-1.96-4.58-3.43-1.15-1.47-2.13-3.11-2.78-5.07-.65-1.96-.98-3.93-.98-5.89,.16-1.96,.49-3.93,.98-5.89Zm3.76,10.47c.33,1.47,.98,2.78,1.8,3.93,.82,1.15,1.96,2.13,3.27,2.78,1.31,.65,2.94,1.15,4.74,1.15s3.43-.33,4.74-1.15c1.31-.65,2.45-1.64,3.27-2.78,.82-1.15,1.47-2.45,1.8-3.93,.33-1.47,.65-2.94,.65-4.58s-.16-2.94-.65-4.58c-.49-1.64-.98-2.78-1.8-3.93s-1.96-2.13-3.27-2.78-2.94-1.15-4.74-1.15-3.43,.33-4.74,1.15c-1.31,.65-2.45,1.64-3.27,2.78-.82,1.15-1.47,2.45-1.8,3.93-.33,1.47-.65,2.94-.65,4.58s.16,3.11,.65,4.58Z"/>
    <path class="cls-4" d="M633.62,670.8c2.94,0,5.07,.65,6.71,2.13s2.45,3.27,2.45,5.72c0,1.8-.33,3.43-1.31,4.74-.98,1.31-2.13,2.29-3.93,2.78h0c.82,.16,1.64,.49,2.13,.82s.98,.82,1.31,1.47c.33,.49,.49,1.15,.65,1.8,.16,.65,.33,1.31,.33,2.13s.16,1.47,.16,2.29,.16,1.47,.16,2.29,.33,1.47,.49,2.13c.16,.65,.49,1.31,.98,1.8h-4.42c-.33-.33-.49-.82-.65-1.31-.16-.49-.16-1.15-.16-1.8v-2.13c0-.82-.16-1.47-.16-2.29-.16-.82-.16-1.47-.49-2.13-.16-.65-.49-1.31-.82-1.8s-.82-.82-1.47-1.15c-.65-.33-1.31-.49-2.45-.49h-9.81v12.92h-3.93v-30.1l14.23,.16h0Zm.82,13.58c.82-.16,1.64-.33,2.29-.82,.65-.33,1.15-.98,1.47-1.64,.33-.65,.65-1.64,.65-2.62,0-1.47-.49-2.78-1.31-3.76-.82-.98-2.29-1.47-4.09-1.47h-9.98v10.47h8.34c.82,.16,1.8,0,2.62-.16Z"/>
    <path class="cls-4" d="M665.85,670.8l11.78,30.1h-4.42l-3.27-9h-12.92l-3.43,9h-4.09l11.78-30.1h4.58Zm2.78,17.67l-5.07-14.07h0l-5.07,14.07h10.14Z"/>
    <path class="cls-4" d="M677.62,674.07v-3.43h24.21v3.43h-9.98v26.83h-4.09v-26.83h-10.14Z"/>
    <path class="cls-4" d="M712.79,670.8v30.1h-4.09v-30.1h4.09Z"/>
    <path class="cls-4" d="M722.44,679.79c.65-1.96,1.47-3.6,2.78-5.07,1.15-1.47,2.78-2.62,4.58-3.43,1.8-.82,3.93-1.31,6.38-1.31s4.58,.49,6.22,1.31c1.64,.82,3.27,1.96,4.58,3.43,1.15,1.47,2.13,3.11,2.78,5.07,.65,1.96,.98,3.93,.98,5.89s-.33,4.09-.98,5.89c-.65,1.96-1.47,3.6-2.78,5.07-1.31,1.47-2.78,2.62-4.58,3.43s-3.93,1.31-6.38,1.31-4.58-.49-6.38-1.31c-1.8-.82-3.27-1.96-4.58-3.43-1.15-1.47-2.13-3.11-2.78-5.07-.65-1.96-.98-3.93-.98-5.89,.16-1.96,.49-3.93,1.14-5.89Zm3.76,10.47c.33,1.47,.98,2.78,1.8,3.93,.82,1.15,1.96,2.13,3.27,2.78,1.31,.65,2.94,1.15,4.74,1.15s3.43-.33,4.74-1.15c1.31-.65,2.45-1.64,3.27-2.78s1.47-2.45,1.8-3.93c.33-1.47,.65-2.94,.65-4.58s-.16-2.94-.65-4.58c-.49-1.64-.98-2.78-1.8-3.93-.82-1.15-1.96-2.13-3.27-2.78s-2.94-1.15-4.74-1.15-3.43,.33-4.74,1.15c-1.31,.65-2.45,1.64-3.27,2.78-.82,1.15-1.47,2.45-1.8,3.93-.33,1.47-.65,2.94-.65,4.58,0,1.64,.16,3.11,.65,4.58Z"/>
    <path class="cls-4" d="M763.17,670.8l15.87,24.54h0v-24.54h3.76v30.1h-4.42l-15.7-24.21h0v24.21h-3.76v-30.1h4.25Z"/>
  </g>
  <g>
    <path class="cls-4" d="M84.69,408.59c-.82-2.45-1.31-2.94-4.74-2.94h-17.17c-2.94,0-3.6,.33-4.42,2.78l-3.93,11.94c-1.8,5.07-2.45,8.18-2.45,9.49s.49,2.13,3.27,2.29l3.76,.33c.82,.65,.82,2.45-.16,2.94-2.94-.16-6.54-.16-11.94-.33-3.76,0-7.85,.16-10.96,.33-.65-.49-.98-2.29-.16-2.94l3.76-.33c2.78-.16,5.23-1.47,6.87-5.56,2.13-5.23,5.23-12.76,9.98-25.52l11.61-30.75c1.64-4.09,2.29-6.22,1.96-8.18,2.78-.82,4.74-2.78,5.89-4.25,.65,0,1.47,.16,1.8,.98,1.47,5.07,3.27,10.3,5.07,15.38l15.7,45.8c3.27,9.81,4.74,11.45,9.65,12.1l3.11,.33c.82,.65,.49,2.45,0,2.94-4.74-.16-8.67-.33-13.74-.33-5.4,0-9.81,.16-13.09,.33-.98-.49-.98-2.29-.16-2.94l3.27-.33c2.45-.16,3.93-.98,3.93-2.13,0-1.31-.49-3.27-1.47-6.05l-5.23-15.38Zm-22.74-10.14c-.98,2.62-.82,2.78,2.45,2.78h14.07c3.27,0,3.6-.49,2.45-3.6l-6.22-18.65c-.98-2.78-1.96-5.89-2.62-7.2h-.16c-.33,.65-1.47,3.27-2.78,6.71l-7.2,19.96Z"/>
    <path class="cls-4" d="M183.32,405.81c0-7.69-3.43-11.78-10.63-11.78-4.25,0-7.85,1.96-9.49,3.93-1.31,1.64-1.8,2.94-1.8,6.87v17.5c0,8.18,.16,9.32,4.25,9.98l2.45,.33c.82,.65,.65,2.45-.16,2.94-3.43-.16-6.71-.33-10.8-.33s-7.2,.16-10.47,.33c-.82-.33-.98-2.29-.16-2.94l2.13-.33c4.25-.65,4.25-1.64,4.25-9.98v-16.52c0-7.69-3.43-11.78-10.47-11.78-4.74,0-7.85,2.13-9.65,4.09-1.14,1.31-1.8,2.94-1.8,6.54v17.67c0,8.18,.16,9.16,4.25,9.98l2.13,.33c.82,.65,.65,2.45-.16,2.94-3.11-.16-6.38-.33-10.47-.33s-7.52,.16-11.12,.33c-.82-.33-.98-2.29-.16-2.94l2.78-.33c4.25-.65,4.25-1.64,4.25-9.98v-19.96c0-4.42,0-5.07-3.11-7.03l-.98-.65c-.49-.49-.49-1.64,.16-2.13,2.62-.98,9.16-3.93,11.45-5.56,.49,0,.98,.16,1.31,.82-.16,2.62-.16,4.25-.16,5.4,0,.65,.49,1.31,1.31,1.31,4.25-3.11,9.65-5.89,15.21-5.89s8.83,2.13,12.1,6.71c.98,.16,1.8-.16,2.78-.98,4.58-3.27,10.14-5.89,15.54-5.89,9.16,0,13.58,6.22,13.58,14.07v19.63c0,8.18,.16,9.32,4.25,9.98l2.78,.33c.82,.65,.65,2.45-.16,2.94-3.76-.16-7.03-.33-11.12-.33s-7.2,.16-10.47,.33c-.82-.33-.98-2.29-.16-2.94l2.13-.33c4.25-.65,4.25-1.64,4.25-9.98l.16-16.36h0Z"/>
    <path class="cls-4" d="M213.42,405.98c-2.94,0-3.11,.16-3.11,3.11,0,11.45,6.71,21.26,18.97,21.26,3.76,0,7.03-1.15,10.47-5.56,1.14-.33,1.96,.33,2.13,1.31-3.76,7.69-11.94,10.63-17.99,10.63-7.36,0-13.25-3.27-16.52-7.52-3.43-4.42-4.74-9.81-4.74-14.88,0-14.07,9.16-25.84,22.9-25.84,9.81,0,16.19,6.71,16.19,13.58,0,1.64-.16,2.45-.49,2.94-.33,.65-1.96,.82-6.71,.82l-21.1,.16h0Zm7.03-3.43c8.51,0,10.96-.49,11.94-1.15,.33-.16,.65-.65,.65-2.13,0-3.27-2.13-7.2-8.83-7.2s-12.59,6.22-12.76,9.98c0,.16,0,.65,.82,.65l8.18-.16h0Z"/>
    <path class="cls-4" d="M252.51,402.38c0-4.42,0-5.07-3.11-7.03l-.98-.65c-.49-.49-.49-1.64,.16-2.13,2.62-.98,8.67-3.93,11.61-5.56,.65,.16,.98,.33,.98,.82v6.54c0,.65,.16,.98,.33,.98,3.93-3.27,8.34-6.87,12.59-6.87,2.78,0,5.07,1.8,5.07,4.58,0,3.76-3.11,5.23-4.91,5.23-1.14,0-1.8-.33-2.45-.82-1.8-1.15-3.43-1.8-5.07-1.8-1.8,0-3.11,.98-4.09,2.29-1.14,1.64-1.47,4.91-1.47,8.83v15.54c0,8.18,.16,9.65,4.58,9.98l4.09,.33c.82,.65,.65,2.45-.16,2.94-5.4-.16-8.67-.33-12.76-.33s-7.52,.16-10.47,.33c-.82-.33-.98-2.29-.16-2.94l2.13-.33c4.25-.65,4.25-1.64,4.25-9.98l-.16-19.96h0Z"/>
    <path class="cls-4" d="M289.31,402.38c0-4.42,0-5.07-3.11-7.03l-.98-.65c-.49-.49-.49-1.64,.16-2.13,2.62-.98,9.16-3.93,11.78-5.56,.65,0,.98,.16,1.14,.65-.16,3.93-.49,9.49-.49,14.07v20.61c0,8.18,.16,9.32,4.25,9.98l2.45,.33c.82,.65,.65,2.45-.16,2.94-3.43-.16-6.71-.33-10.8-.33s-7.52,.16-10.8,.33c-.82-.33-.98-2.29-.16-2.94l2.45-.33c4.25-.65,4.25-1.64,4.25-9.98v-19.96h0Zm9.49-32.55c0,4.09-2.94,5.89-6.05,5.89-3.6,0-5.89-2.62-5.89-5.72,0-3.76,2.78-6.22,6.22-6.22,3.43,.16,5.72,2.94,5.72,6.05Z"/>
    <path class="cls-4" d="M346.4,390.44c.98,.82,1.64,2.62,1.64,4.58,0,2.13-1.15,4.25-2.45,4.25-.65,0-1.15-.16-1.64-.82-2.45-3.11-6.71-6.05-11.45-6.05-8.01,0-15.7,6.22-15.7,18.32,0,8.83,6.22,19.46,18.32,19.46,6.54,0,9.98-2.94,12.76-6.87,.98-.16,1.96,.65,2.13,1.64-3.93,8.51-12.43,11.61-19.14,11.61-6.05,0-11.61-1.96-15.7-5.89-4.09-3.93-6.71-9.49-6.71-16.85,0-12.27,8.67-25.52,27.64-25.52,2.78,.33,7.2,.82,10.3,2.13Z"/>
    <path class="cls-4" d="M377.31,411.54c1.64-.65,1.96-1.64,1.96-3.27l.16-5.23c.16-4.25-1.31-9.98-8.34-9.98-3.27,0-7.03,1.64-7.36,5.07-.16,1.8-.16,3.27-1.15,3.93-1.64,1.31-4.74,2.13-6.54,2.13-.98,0-1.64-.65-1.64-1.64,0-5.89,12.92-14.07,21.26-14.07s12.27,4.74,11.94,13.41l-.65,19.79c-.16,5.23,.82,9.98,5.23,9.98,1.15,0,2.13-.33,2.94-.65,.65-.33,1.15-.82,1.47-.82,.49,0,.82,.65,.82,1.47,0,.65-3.93,5.07-9.65,5.07-2.78,0-5.56-.98-7.36-3.6-.49-.65-1.15-1.64-1.8-1.64-.82,0-2.13,.98-4.42,2.29-2.45,1.31-5.07,2.94-8.18,2.94-3.27,0-6.05-.98-8.01-2.62-2.13-1.96-3.6-4.74-3.6-8.01,0-4.42,2.13-7.03,9.49-9.65l13.41-4.91Zm-7.03,20.12c2.29,0,5.89-1.64,7.03-2.94,1.31-1.31,1.31-2.94,1.47-5.4l.16-6.71c0-1.31-.49-1.47-1.15-1.47s-2.62,.49-4.74,1.15c-6.71,2.29-9.98,3.93-9.98,8.51,0,1.96,1.47,6.87,7.2,6.87Z"/>
    <path class="cls-4" d="M411.66,366.23c0,7.85-6.22,13.41-13.41,15.54-.98-.49-1.31-1.64-.82-2.45,4.25-1.96,8.67-5.07,8.67-9.81,0-4.25-3.6-6.22-5.72-6.38-1.64-.16-3.11-.98-3.11-3.27,0-1.64,.98-4.74,5.56-4.74,4.74,.16,8.83,5.23,8.83,11.12Z"/>
    <path class="cls-4" d="M439.63,390.6c.98,2.45,1.8,6.22,1.8,9.16-.49,.82-2.13,.98-2.78,.33-1.96-5.07-5.4-8.34-9.98-8.34s-7.36,2.94-7.36,7.03c0,4.74,4.74,7.2,8.83,9.49,6.05,3.43,11.61,7.36,11.61,15.38,0,8.67-8.01,13.09-16.36,13.09-5.4,0-9.32-1.15-12.27-3.43-.98-2.13-1.64-7.85-1.31-11.45,.65-.65,2.13-.82,2.62-.16,1.96,6.22,5.56,11.78,12.1,11.78,4.09,0,7.69-2.45,7.69-7.36,0-5.23-4.58-8.18-8.83-10.47-6.54-3.76-11.29-7.69-11.29-14.07,0-8.34,6.87-13.09,15.54-13.09,4.74,.16,8.83,1.31,9.98,2.13Z"/>
    <path class="cls-4" d="M495.57,418.08c0,11.94,.16,13.41,7.52,14.23l3.11,.33c.65,.65,.49,2.45-.16,2.94-6.54-.16-10.3-.33-14.88-.33s-8.83,.16-13.9,.33c-.65-.33-.98-2.13-.16-2.94l2.45-.33c6.54-.98,6.87-2.29,6.87-14.23v-42.2c0-9.65-.16-11.61-5.4-12.27l-4.09-.49c-.82-.65-.65-2.45,.16-2.78,6.05-.82,13.09-.98,22.57-.98s16.52,1.31,21.92,4.58c5.23,3.27,9.16,9.16,9.16,17.17,0,10.47-6.54,15.7-11.45,18.16-5.07,2.45-11.12,3.43-15.7,3.43-.82-.33-.82-2.13-.16-2.29,12.27-2.29,16.85-9.16,16.85-19.14,0-11.12-6.54-18.32-18.32-18.32-6.05,0-6.22,.49-6.22,4.09l-.16,51.03h0Z"/>
    <path class="cls-4" d="M556.26,411.54c1.64-.65,1.96-1.64,1.96-3.27l.16-5.23c.16-4.25-1.31-9.98-8.34-9.98-3.27,0-7.03,1.64-7.36,5.07-.16,1.8-.16,3.27-1.15,3.93-1.64,1.31-4.74,2.13-6.54,2.13-.98,0-1.64-.65-1.64-1.64,0-5.89,12.92-14.07,21.26-14.07s12.27,4.74,11.94,13.41l-.65,19.79c-.16,5.23,.82,9.98,5.23,9.98,1.15,0,2.13-.33,2.78-.65,.65-.33,1.15-.82,1.47-.82,.49,0,.82,.65,.82,1.47,0,.65-3.93,5.07-9.65,5.07-2.78,0-5.56-.98-7.36-3.6-.49-.65-1.15-1.64-1.8-1.64-.82,0-2.13,.98-4.42,2.29-2.45,1.31-5.07,2.94-8.18,2.94-3.27,0-6.05-.98-8.01-2.62-2.13-1.96-3.6-4.74-3.6-8.01,0-4.42,2.13-7.03,9.49-9.65l13.58-4.91Zm-7.03,20.12c2.29,0,5.89-1.64,7.03-2.94,1.31-1.31,1.31-2.94,1.47-5.4l.16-6.71c0-1.31-.49-1.47-1.15-1.47s-2.62,.49-4.74,1.15c-6.71,2.29-9.98,3.93-9.98,8.51,0,1.96,1.31,6.87,7.2,6.87Z"/>
    <path class="cls-4" d="M587.17,402.38c0-4.42,0-5.07-3.11-7.03l-.98-.65c-.49-.49-.49-1.64,.16-2.13,2.62-.98,8.67-3.93,11.45-5.56,.65,.16,.98,.33,.98,.82v6.54c0,.65,.16,.98,.33,.98,3.93-3.27,8.34-6.87,12.59-6.87,2.94,0,5.07,1.8,5.07,4.58,0,3.76-3.11,5.23-4.91,5.23-1.15,0-1.64-.33-2.45-.82-1.64-1.15-3.43-1.8-5.07-1.8-1.8,0-3.27,.98-4.09,2.29-1.15,1.64-1.47,4.91-1.47,8.83v15.54c0,8.18,.16,9.65,4.58,9.98l4.09,.33c.82,.65,.65,2.45-.16,2.94-5.4-.16-8.67-.33-12.76-.33s-7.52,.16-10.47,.33c-.82-.33-.98-2.29-.16-2.94l2.13-.33c4.25-.65,4.25-1.64,4.25-9.98v-19.96h0Z"/>
    <path class="cls-4" d="M634.77,395.02c-1.96,0-2.13,.33-2.13,2.78v21.26c0,6.54,.82,12.76,8.34,12.76,1.15,0,2.13-.16,3.11-.65,.98-.33,2.45-1.64,2.94-1.64,.98,0,1.31,1.31,1.15,1.96-2.13,2.45-6.22,5.23-11.94,5.23-9.81,0-11.94-5.56-11.94-12.27v-26.17c0-3.11-.16-3.27-2.45-3.27h-3.27c-.65-.49-.82-1.64-.33-2.45,3.27-.98,6.22-2.45,7.36-3.6,1.47-1.31,3.6-4.42,4.74-6.71,.65-.16,1.96-.16,2.45,.65v5.07c0,2.13,.16,2.13,2.13,2.13h12.76c1.31,.98,1.15,4.09,.16,4.74l-13.09,.16h0Z"/>
    <path class="cls-4" d="M660.28,402.38c0-4.42,0-5.07-3.11-7.03l-.98-.65c-.49-.49-.49-1.64,.16-2.13,2.62-.98,9.16-3.93,11.45-5.56,.49,0,.98,.16,1.31,.82-.16,2.62-.16,4.25-.16,5.4,0,.65,.49,1.31,1.31,1.31,4.74-2.94,10.14-5.89,16.03-5.89,9.49,0,13.41,6.54,13.41,14.07v19.63c0,8.18,.16,9.32,4.25,9.98l2.45,.33c.82,.65,.65,2.45-.16,2.94-3.43-.16-6.71-.33-10.8-.33s-7.52,.16-10.63,.33c-.82-.33-.98-2.29-.16-2.94l2.13-.33c4.25-.65,4.25-1.64,4.25-9.98v-17.01c0-6.54-2.94-11.29-10.8-11.29-4.25,0-8.18,1.8-9.65,3.93-1.47,1.96-1.64,3.6-1.64,6.87v17.5c0,8.18,.16,9.16,4.25,9.98l2.13,.33c.82,.65,.65,2.45-.16,2.94-3.11-.16-6.38-.33-10.47-.33s-7.52,.16-10.8,.33c-.82-.33-.98-2.29-.16-2.94l2.45-.33c4.25-.65,4.25-1.64,4.25-9.98l-.16-19.96h0Z"/>
    <path class="cls-4" d="M720.64,405.98c-2.94,0-3.11,.16-3.11,3.11,0,11.45,6.71,21.26,18.97,21.26,3.76,0,7.03-1.15,10.47-5.56,1.15-.33,1.96,.33,2.13,1.31-3.76,7.69-11.94,10.63-17.99,10.63-7.36,0-13.25-3.27-16.52-7.52-3.43-4.42-4.74-9.81-4.74-14.88,0-14.07,9.16-25.84,22.9-25.84,9.81,0,16.19,6.71,16.19,13.58,0,1.64-.16,2.45-.49,2.94-.33,.65-1.96,.82-6.71,.82l-21.1,.16h0Zm7.03-3.43c8.51,0,10.96-.49,11.94-1.15,.33-.16,.65-.65,.65-2.13,0-3.27-2.13-7.2-8.83-7.2s-12.59,6.22-12.76,9.98c0,.16,0,.65,.82,.65l8.18-.16h0Z"/>
    <path class="cls-4" d="M759.73,402.38c0-4.42,0-5.07-3.11-7.03l-.98-.65c-.49-.49-.49-1.64,.16-2.13,2.62-.98,8.67-3.93,11.45-5.56,.49,.16,.98,.33,.98,.82v6.54c0,.65,.16,.98,.33,.98,3.93-3.27,8.34-6.87,12.59-6.87,2.78,0,5.07,1.8,5.07,4.58,0,3.76-3.11,5.23-4.91,5.23-1.15,0-1.64-.33-2.45-.82-1.64-1.15-3.43-1.8-5.07-1.8-1.8,0-3.27,.98-4.09,2.29-1.15,1.64-1.47,4.91-1.47,8.83v15.54c0,8.18,.16,9.65,4.58,9.98l4.09,.33c.82,.65,.49,2.45-.16,2.94-5.4-.16-8.67-.33-12.76-.33s-7.52,.16-10.47,.33c-.82-.33-.98-2.29-.16-2.94l2.13-.33c4.25-.65,4.42-1.64,4.42-9.98l-.16-19.96h0Z"/>
  </g>
  <g>
    <path class="cls-4" d="M77.33,509.84c-1.96,0-1.96,.16-1.96,3.27v24.21c0,8.18,.16,9.65,4.42,9.98l4.09,.33c.82,.49,.49,2.45-.16,2.94-5.23-.16-8.51-.33-12.43-.33s-7.52,.16-10.96,.33c-.82-.33-.98-2.29-.16-2.94l2.62-.33c4.25-.65,4.42-1.64,4.42-9.98v-24.21c0-3.11,0-3.27-2.29-3.27h-3.93c-.65-.49-.82-1.47-.33-2.13l4.91-2.45c.98-.49,1.8-1.15,1.8-2.29,0-6.71,.82-13.74,3.6-20.12,2.94-6.54,9.32-14.56,20.61-14.56,6.05,0,11.29,2.78,11.29,6.87,0,2.29-2.13,4.09-4.42,4.09-1.31,0-1.96-.49-2.78-1.31-2.13-2.45-5.4-5.07-9.16-5.07s-6.38,2.13-8.18,6.38c-2.13,5.23-2.45,13.58-2.45,19.3v3.27c0,3.11,0,3.27,1.96,3.27h13.09c1.31,1.15,.49,4.42-.82,4.74h-12.76Z"/>
    <path class="cls-4" d="M138.66,527.02c0,14.39-9.81,24.54-24.21,24.54-13.25,0-23.39-9.32-23.39-23.55s10.96-24.7,24.37-24.7c12.92,.16,23.23,9.65,23.23,23.72Zm-24.54-20.12c-7.52,0-13.25,7.2-13.25,19.79,0,10.47,4.74,21.59,14.72,21.59s13.09-10.47,13.09-19.3c.16-9.81-3.76-22.08-14.56-22.08Z"/>
    <path class="cls-4" d="M150.44,517.2c0-4.42,0-5.07-3.11-7.03l-.98-.65c-.49-.49-.49-1.64,.16-2.13,2.62-.98,8.67-3.93,11.61-5.56,.65,.16,.98,.33,.98,.82v6.71c0,.65,.16,.98,.33,.98,3.93-3.27,8.34-6.87,12.59-6.87,2.94,0,5.07,1.8,5.07,4.58,0,3.76-3.11,5.23-4.91,5.23-1.14,0-1.8-.33-2.45-.82-1.8-1.15-3.43-1.8-5.07-1.8-1.8,0-3.27,.98-4.09,2.29-1.14,1.64-1.47,4.91-1.47,8.83v15.54c0,8.18,.16,9.65,4.58,9.98l4.09,.33c.82,.49,.65,2.45-.16,2.94-5.4-.16-8.67-.33-12.76-.33s-7.52,.16-10.47,.33c-.82-.33-.98-2.29-.16-2.94l2.13-.33c4.25-.65,4.42-1.64,4.42-9.98l-.33-20.12h0Z"/>
    <path class="cls-4" d="M218.32,491.69c0-11.94-.16-13.58-7.03-14.39l-1.8-.16c-.65-.49-.49-2.45,.16-2.94,4.91,.16,8.83,.33,13.58,.33h21.59c7.36,0,14.07,0,15.38-.33,.65,1.96,1.31,10.14,1.8,15.21-.49,.65-2.29,.98-2.94,.16-1.8-5.4-2.78-9.32-8.67-10.8-2.45-.65-6.05-.65-11.12-.65h-8.18c-3.43,0-3.43,.16-3.43,4.58v22.9c0,3.27,.33,3.27,3.76,3.27h6.71c4.74,0,8.34-.16,9.65-.65,1.31-.49,2.13-1.15,2.78-4.09l.98-4.74c.65-.65,2.45-.65,2.94,.16,0,2.78-.49,7.2-.49,11.61,0,4.09,.49,8.51,.49,10.96-.49,.82-2.45,.82-2.94,.16l-.98-4.42c-.49-2.13-1.31-3.76-3.6-4.42-1.64-.49-4.42-.65-8.83-.65h-6.71c-3.43,0-3.76,.16-3.76,3.11v16.19c0,6.05,.33,9.98,2.13,11.94,1.31,1.31,3.76,2.62,13.9,2.62,8.83,0,12.1-.49,14.72-1.64,2.13-1.15,5.07-5.07,8.18-11.12,.82-.65,2.45-.16,2.94,.82-.82,4.09-3.6,12.76-5.07,15.87-10.3-.16-20.45-.33-30.75-.33h-10.3c-4.91,0-8.83,.16-15.54,.33-.65-.33-.98-2.13-.16-2.94l3.76-.33c6.54-.65,7.03-2.29,7.03-14.23l-.16-41.38h0Z"/>
    <path class="cls-4" d="M319.24,566.44c0,8.18,.33,9,4.42,9.81l3.27,.49c.82,.49,.65,2.45-.16,2.94-4.42-.16-7.69-.33-11.61-.33s-7.52,.16-11.94,.33c-.82-.33-.98-2.29-.16-2.94l3.6-.33c4.25-.49,4.42-1.64,4.42-9.98v-14.88c0-2.13-.16-2.78-.98-2.78-2.94,1.64-7.2,2.94-11.61,2.94-17.01,0-23.23-13.58-23.23-22.41,0-16.52,12.76-25.84,27.48-25.84,3.76,0,7.85,.65,9.49,1.15,1.8,.49,2.94,.82,3.93,.82s1.8-.82,3.11-1.96c.65,0,.98,.49,1.31,.98-.65,2.78-.98,6.71-.98,13.9l-.33,48.09h0Zm-8.51-42.86c0-5.89-.65-9.81-1.47-11.45-1.64-2.94-4.91-5.23-9.81-5.23-8.67,0-15.05,7.85-15.05,18.65,0,12.59,7.36,21.43,18.16,21.43,5.07,0,6.87-1.15,7.52-1.8,.65-.65,.82-2.13,.82-4.58l-.16-17.01h0Z"/>
    <path class="cls-4" d="M342.14,533.23c0,7.85,1.96,13.09,10.63,13.09,3.11,0,6.71-1.31,9.32-3.43,1.47-1.31,2.29-3.11,2.29-6.71v-18.81c0-7.36-.82-7.69-4.25-9l-1.47-.65c-.82-.49-.82-2.13,.16-2.45,4.58-.16,10.8-.98,13.41-2.13,.65,.16,.98,.33,.98,.82-.16,2.13-.33,5.72-.33,9.98v19.3c0,9,.33,12.43,3.6,12.43,1.31,0,2.94-.16,4.42-.65,.65,.65,.82,2.94-.16,3.27-4.42,.98-11.12,2.13-15.05,4.25-.65,0-1.15-.33-1.31-.82v-4.74c0-.98-.33-1.64-.98-1.64-3.43,2.13-9,5.89-15.7,5.89-10.14,0-13.9-5.07-13.9-14.23v-19.14c0-7.2,0-8.18-3.43-9.81l-1.31-.65c-.65-.65-.65-2.13,.16-2.45,5.23-.16,9.81-1.15,12.27-2.13,.65,.16,.98,.33,1.15,.82-.16,1.96-.33,4.42-.33,9.98l-.16,19.63h0Z"/>
    <path class="cls-4" d="M409.37,526.36c1.64-.65,1.96-1.64,1.96-3.27l.16-5.23c.16-4.25-1.31-9.98-8.34-9.98-3.27,0-7.03,1.64-7.36,5.07-.16,1.8-.16,3.27-1.15,3.93-1.64,1.31-4.74,2.13-6.54,2.13-.98,0-1.64-.65-1.64-1.64,0-5.89,12.92-14.07,21.26-14.07s12.27,4.74,11.94,13.41l-.65,19.96c-.16,5.23,.82,9.98,5.23,9.98,1.15,0,2.13-.33,2.94-.65,.65-.33,1.15-.82,1.47-.82,.49,0,.82,.65,.82,1.47,0,.65-4.09,5.07-9.65,5.07-2.78,0-5.56-.98-7.36-3.6-.49-.65-1.15-1.64-1.8-1.64-.82,0-2.13,.98-4.42,2.29-2.45,1.31-5.07,2.94-8.18,2.94-3.27,0-6.05-.98-8.01-2.62-2.13-1.96-3.6-4.74-3.6-8.01,0-4.42,2.13-7.03,9.49-9.81l13.41-4.91Zm-7.2,20.12c2.29,0,5.89-1.64,7.03-2.94,1.31-1.31,1.31-2.94,1.47-5.4l.16-6.71c0-1.31-.49-1.47-1.15-1.47s-2.62,.49-4.74,1.15c-6.71,2.29-10.14,4.09-10.14,8.51,.16,1.96,1.64,6.87,7.36,6.87Z"/>
    <path class="cls-4" d="M448.63,537.32c0,8.18,.16,9.32,4.42,9.98l2.78,.33c.82,.49,.65,2.45-.16,2.94-3.76-.16-7.03-.33-11.12-.33s-7.52,.16-10.96,.33c-.82-.33-.98-2.29-.16-2.94l2.62-.33c4.25-.65,4.42-1.64,4.42-9.98v-51.69c0-6.71-.16-7.36-3.6-9.49l-1.15-.65c-.65-.33-.65-1.96,0-2.29,2.94-.98,8.18-2.62,12.27-4.74,.49,0,.98,.16,1.15,.65-.16,3.43-.33,9.16-.33,14.23l-.16,53.98h0Z"/>
    <path class="cls-4" d="M501.13,492.01c0-12.76-1.15-14.07-7.85-14.72l-2.94-.16c-.65-.49-.49-2.45,.16-2.94,6.71,.16,10.47,.33,15.38,.33,4.58,0,8.51-.16,13.09-.33,.65,.33,.98,2.45,.16,2.94l-1.64,.16c-6.71,.98-7.03,2.45-7.03,14.72v42.53c0,9-.49,17.01-2.62,22.25-3.76,9.16-11.94,16.52-22.57,16.52-1.31,0-4.91-.16-4.91-2.45,0-1.96,1.64-5.23,4.09-5.23,1.31,0,2.78,.16,4.25,.65,1.64,.49,3.27,.82,4.74,.82,2.45,0,3.76-1.31,4.58-2.94,2.62-5.4,2.94-22.57,2.94-28.79l.16-43.35h0Z"/>
    <path class="cls-4" d="M536.95,533.23c0,7.85,1.96,13.09,10.63,13.09,3.11,0,6.71-1.31,9.32-3.43,1.47-1.31,2.29-3.11,2.29-6.71v-18.81c0-7.36-.82-7.69-4.25-9l-1.47-.65c-.82-.49-.82-2.13,.16-2.45,4.58-.16,10.8-.98,13.41-2.13,.65,.16,.98,.33,.98,.82-.16,2.13-.33,5.72-.33,9.98v19.3c0,9,.33,12.43,3.6,12.43,1.31,0,2.94-.16,4.42-.65,.65,.65,.82,2.94-.16,3.27-4.42,.98-11.12,2.13-15.05,4.25-.65,0-1.15-.33-1.31-.82v-4.74c0-.98-.33-1.64-.98-1.64-3.43,2.13-9,5.89-15.7,5.89-10.14,0-13.9-5.07-13.9-14.23v-19.14c0-7.2,0-8.18-3.43-9.81l-1.31-.65c-.65-.65-.65-2.13,.16-2.45,5.23-.16,9.81-1.15,12.27-2.13,.65,.16,.98,.33,1.15,.82-.16,1.96-.33,4.42-.33,9.98l-.16,19.63h0Z"/>
    <path class="cls-4" d="M608.76,505.43c.98,2.45,1.8,6.22,1.8,9.32-.49,.82-2.13,.98-2.78,.33-1.96-5.07-5.4-8.34-10.14-8.34-4.42,0-7.36,2.94-7.36,7.03,0,4.74,4.74,7.2,8.83,9.49,6.05,3.43,11.61,7.36,11.61,15.38,0,8.67-8.01,13.09-16.52,13.09-5.4,0-9.32-1.15-12.27-3.43-.98-2.13-1.64-7.85-1.31-11.61,.65-.65,2.13-.82,2.62-.16,1.96,6.38,5.56,11.78,12.1,11.78,4.09,0,7.69-2.45,7.69-7.36,0-5.23-4.58-8.18-8.83-10.47-6.71-3.76-11.29-7.85-11.29-14.07,0-8.34,6.87-13.09,15.54-13.09,5.07,.16,9.32,1.14,10.3,2.13Z"/>
    <path class="cls-4" d="M633.46,509.84c-1.96,0-2.13,.33-2.13,2.78v21.43c0,6.71,.82,12.76,8.34,12.76,1.15,0,2.13-.16,3.11-.65,.98-.33,2.45-1.64,2.94-1.64,.98,0,1.31,1.31,1.15,1.96-2.13,2.45-6.22,5.23-11.94,5.23-9.81,0-11.94-5.56-11.94-12.43v-26.17c0-3.11-.16-3.27-2.45-3.27h-3.27c-.65-.49-.82-1.64-.33-2.45,3.27-.98,6.22-2.45,7.36-3.6,1.47-1.31,3.6-4.42,4.74-6.71,.65-.16,1.96-.16,2.45,.65v5.07c0,2.13,.16,2.13,2.13,2.13h12.76c1.31,.98,1.15,4.09,.16,4.74l-13.09,.16h0Z"/>
    <path class="cls-4" d="M658.98,517.2c0-4.42,0-5.07-3.11-7.03l-.98-.65c-.49-.49-.49-1.64,.16-2.13,2.62-.98,9.16-3.93,11.78-5.56,.65,0,.98,.16,1.15,.65-.16,4.09-.49,9.49-.49,14.23v20.61c0,8.18,.16,9.32,4.42,9.98l2.45,.33c.82,.65,.65,2.45-.16,2.78-3.43-.16-6.71-.33-10.8-.33s-7.52,.16-10.8,.33c-.82-.33-.98-2.29-.16-2.94l2.45-.33c4.25-.65,4.42-1.64,4.42-9.98v-19.96h-.33Zm9.49-32.55c0,4.09-2.94,5.89-6.05,5.89-3.6,0-5.89-2.62-5.89-5.72,0-3.76,2.78-6.22,6.22-6.22s5.72,2.78,5.72,6.05Z"/>
    <path class="cls-4" d="M716.06,505.26c.98,.82,1.64,2.62,1.64,4.58,0,2.13-1.15,4.25-2.45,4.25-.65,0-1.15-.16-1.64-.82-2.45-3.11-6.71-6.05-11.45-6.05-8.01,0-15.7,6.38-15.7,18.48,0,9,6.22,19.63,18.48,19.63,6.71,0,10.14-2.94,12.76-6.87,.98-.16,1.96,.65,2.13,1.64-3.93,8.51-12.43,11.61-19.14,11.61-6.05,0-11.61-1.96-15.7-5.89-4.09-3.93-6.71-9.49-6.71-17.01,0-12.27,8.67-25.52,27.64-25.52,2.62,.16,7.03,.65,10.14,1.96Z"/>
    <path class="cls-4" d="M734.38,520.8c-2.94,0-3.11,.16-3.11,3.11,0,11.61,6.71,21.43,18.97,21.43,3.76,0,7.03-1.15,10.47-5.56,1.15-.33,1.96,.33,2.13,1.31-3.76,7.85-11.94,10.63-17.99,10.63-7.36,0-13.25-3.27-16.52-7.52-3.43-4.42-4.74-9.81-4.74-14.88,0-14.07,9.32-25.84,23.06-25.84,9.81,0,16.19,6.71,16.19,13.58,0,1.64-.16,2.45-.49,2.94-.33,.65-1.96,.82-6.71,.82h-21.26Zm7.03-3.43c8.51,0,10.96-.49,11.94-1.15,.33-.16,.65-.65,.65-2.13,0-3.27-2.13-7.2-8.83-7.2s-12.59,6.22-12.76,9.98c0,.16,0,.65,.82,.65h8.18v-.16Z"/>
  </g>
  <line class="cls-7" x1="787.87" y1="611.58" x2="38.72" y2="611.58"/>
  <g>
    <path class="cls-4" d="M85.34,75.57c0-47.6-.98-54.96-29.61-57.25l-11.29-.98c-2.78-1.8-1.8-9.98,.98-11.29,25.52,.98,40.89,1.31,59.05,1.31s33.2-.49,55.94-1.31c2.78,1.31,3.6,9.49,.98,11.29l-10.96,.98c-26.83,2.29-27.64,9.49-27.64,57.25V233.58c0,28.62,1.31,40.4,9.49,49.07,5.07,4.91,13.58,10.47,49.56,10.47,38.6,0,48.09-1.8,55.45-5.89,9.16-5.4,20.94-21.75,29.93-44.98,2.78-2.29,11.29-.49,11.29,2.78,0,4.91-12.76,51.36-19.14,63.63-23.23-.98-66.25-1.31-113.03-1.31h-41.71c-19.14,0-33.53,.49-59.05,1.31-2.78-1.31-3.6-8.67-.98-11.29l13.58-1.31c26.33-2.78,27.32-9.16,27.32-56.76l-.16-163.73h0Z"/>
    <path class="cls-4" d="M380.91,314.38c-38.11,0-62.16-11.78-70.83-16.85-5.4-9.98-11.29-42.2-12.27-63.63,2.29-3.11,9.16-4.09,10.96-1.31,6.87,23.23,25.35,67.72,78.19,67.72,38.11,0,56.76-25.03,56.76-52.18,0-19.96-4.09-42.2-37.29-63.63l-43.18-28.13c-22.74-15.05-49.07-40.89-49.07-78.19C314.17,35,347.87,0,406.75,0c14.07,0,30.42,2.78,42.2,5.89,5.89,1.8,12.27,2.78,15.87,2.78,4.09,10.96,8.18,36.31,8.18,55.45-1.8,2.78-9,4.09-11.29,1.31-5.89-21.75-18.16-51.36-61.83-51.36s-53.98,29.61-53.98,50.38c0,26.33,21.75,45.47,38.6,55.78l36.31,22.74c28.62,17.67,56.76,44,56.76,87.18,.16,50.22-37.62,84.24-96.67,84.24Z"/>
    <path class="cls-4" d="M558.05,38.77C591.26,12.92,633.46,.16,680.73,.16c24.54,0,59.05,5.07,80.31,10.96,5.4,1.31,8.67,2.29,12.76,1.8,.49,10.47,2.78,39.09,6.38,66.74-2.29,3.11-9,3.6-12.27,.98-6.87-30.91-27.32-66.25-93.07-66.25-69.52,0-128.56,44-128.56,138.05s60.36,148.03,134.78,148.03c58.56,0,84.4-38.11,94.87-64.94,3.11-2.29,9.98-1.31,11.78,1.8-3.11,23.55-15.05,53.65-21.75,62.16-5.4,.98-10.96,2.78-15.87,4.58-9.98,3.6-42.69,10.47-71.81,10.47-40.89,0-79.99-8.18-113.03-30.42-36.31-25.03-64.45-66.25-64.45-124.97,0-50.38,22.74-93.56,57.25-120.39Z"/>
  </g>
  <g>
    <path class="cls-3" d="M1170.32,431.85V229.84h86.21c9.67,0,18.49,1.99,26.46,5.98s14.94,9.2,20.91,15.65c5.98,6.45,10.57,13.75,13.8,21.91,3.22,8.16,4.84,16.5,4.84,25.04,0,11.38-2.7,22.34-8.11,32.86-5.41,10.53-12.9,19.06-22.48,25.61-9.58,6.54-20.82,9.82-33.72,9.82h-41.26v65.16h-46.66Zm46.66-106.13h38.13c3.6,0,6.87-1,9.82-2.99,2.94-1.99,5.36-5.07,7.26-9.25,1.89-4.17,2.85-9.2,2.85-15.08,0-6.45-1.04-11.71-3.13-15.79-2.09-4.08-4.79-7.06-8.11-8.96-3.32-1.89-6.78-2.85-10.39-2.85h-36.42v54.91Z"/>
    <path class="cls-3" d="M1438.62,321.46c-11,0-20.96,1.76-29.88,5.26-8.92,3.51-15.36,8.68-19.35,15.51v89.62h-45.52v-147.67h41.54v28.45c5.31-10.05,12.04-17.93,20.2-23.62,8.15-5.69,16.69-8.63,25.61-8.82h4.55c.95,0,1.89,.1,2.85,.28v40.97Z"/>
    <path class="cls-3" d="M1527.68,434.7c-12.9,0-24.23-2.01-34-6.04-9.77-4.03-18.12-9.64-25.04-16.85-6.93-7.21-12.14-15.4-15.65-24.57-3.51-9.18-5.26-18.82-5.26-28.93s1.8-20.03,5.41-29.21c3.6-9.18,8.77-17.32,15.51-24.43,6.73-7.11,15.08-12.68,25.04-16.71,9.96-4.03,21.29-6.04,34-6.04s23.99,2.01,33.86,6.04c9.86,4.03,18.21,9.6,25.04,16.71,6.83,7.11,12.04,15.26,15.65,24.43,3.6,9.18,5.41,18.91,5.41,29.21s-1.76,19.76-5.26,28.93c-3.51,9.18-8.73,17.36-15.65,24.57-6.93,7.21-15.32,12.83-25.18,16.85-9.86,4.02-21.15,6.04-33.86,6.04Zm-33.29-76.4c0,7.4,1.47,13.96,4.41,19.69,2.94,5.73,6.87,10.21,11.81,13.45,4.93,3.24,10.62,4.85,17.07,4.85s11.9-1.61,16.93-4.85c5.02-3.24,8.96-7.67,11.81-13.31s4.27-12.25,4.27-19.83-1.42-14.19-4.27-19.82c-2.85-5.64-6.78-10.12-11.81-13.45-5.03-3.33-10.67-4.99-16.93-4.99s-11.86,1.62-16.79,4.85c-4.93,3.24-8.92,7.72-11.95,13.45-3.04,5.73-4.55,12.39-4.55,19.96Z"/>
    <path class="cls-3" d="M1724.28,423.6c-3.98,1.9-8.49,3.7-13.52,5.41-5.03,1.71-10.24,3.08-15.65,4.13-5.41,1.04-10.86,1.56-16.36,1.56-7.59,0-14.51-1.26-20.77-3.78-6.26-2.53-11.29-6.68-15.08-12.48-3.8-5.79-5.69-13.46-5.69-22.99v-76.55h-19.06v-34.71h19.06v-47.8h45.52v47.8h30.16v34.71h-30.16v60.35c.19,5.01,1.42,8.58,3.7,10.71,2.28,2.13,5.41,3.2,9.39,3.2,3.41,0,6.87-.61,10.39-1.85,3.51-1.23,6.69-2.32,9.53-3.27l8.54,35.57Z"/>
    <path class="cls-3" d="M1811.92,434.7c-12.71,0-24-2.02-33.86-6.05-9.87-4.03-18.26-9.52-25.18-16.46-6.93-6.94-12.19-14.96-15.79-24.06-3.61-9.1-5.41-18.61-5.41-28.55,0-14.21,3.17-27.15,9.53-38.84,6.35-11.68,15.51-21.08,27.46-28.18,11.95-7.1,26.36-10.66,43.25-10.66s31.3,3.51,43.25,10.54c11.95,7.02,21.01,16.35,27.17,27.96,6.16,11.61,9.25,24.07,9.25,37.37,0,2.62-.14,5.2-.43,7.73-.28,2.53-.52,4.73-.71,6.6h-110.4c.38,6.46,2.18,11.89,5.41,16.32,3.22,4.43,7.3,7.74,12.23,9.96,4.93,2.21,10.05,3.32,15.36,3.32,7.02,0,13.51-1.61,19.49-4.84,5.98-3.22,10-7.49,12.09-12.8l38.7,11.1c-3.8,7.78-9.1,14.56-15.93,20.34-6.83,5.79-14.94,10.43-24.33,13.94s-19.77,5.26-31.16,5.26Zm-32.72-90.48h64.59c-.57-6.03-2.37-11.28-5.41-15.76-3.04-4.48-6.83-7.95-11.38-10.42s-9.86-3.7-15.93-3.7c-5.5,0-10.63,1.24-15.36,3.7-4.74,2.47-8.54,5.9-11.38,10.28-2.85,4.38-4.55,9.68-5.12,15.89Z"/>
    <path class="cls-3" d="M1983.76,434.7c-12.71,0-24-2.06-33.86-6.18-9.87-4.12-18.26-9.74-25.18-16.85-6.93-7.11-12.19-15.26-15.79-24.43-3.61-9.18-5.41-18.91-5.41-29.21,0-13.67,3.17-26.26,9.53-37.77,6.35-11.51,15.51-20.78,27.46-27.81,11.95-7.02,26.27-10.53,42.96-10.53s31.82,3.61,43.67,10.81c11.85,7.21,20.72,16.69,26.6,28.45l-44.39,13.37c-2.85-4.55-6.5-8.11-10.95-10.67-4.46-2.56-9.44-3.84-14.94-3.84-6.26,0-11.91,1.62-16.93,4.85-5.03,3.24-9.01,7.67-11.95,13.31-2.94,5.64-4.41,12.25-4.41,19.82s1.47,14.28,4.41,20.1c2.94,5.82,6.97,10.31,12.09,13.45,5.12,3.14,10.71,4.71,16.79,4.71,3.98,0,7.63-.61,10.95-1.85,3.32-1.23,6.35-2.99,9.1-5.26,2.75-2.28,4.88-4.74,6.4-7.4l44.1,13.37c-3.8,7.78-9.01,14.56-15.65,20.34-6.64,5.79-14.51,10.43-23.62,13.94-9.1,3.51-19.45,5.26-31.01,5.26Z"/>
    <path class="cls-3" d="M2170.98,423.6c-3.98,1.9-8.49,3.7-13.52,5.41-5.03,1.71-10.24,3.08-15.65,4.13-5.41,1.04-10.86,1.56-16.36,1.56-7.59,0-14.51-1.26-20.77-3.78-6.26-2.53-11.29-6.68-15.08-12.48-3.8-5.79-5.69-13.46-5.69-22.99v-76.55h-19.06v-34.71h19.06v-47.8h45.52v47.8h30.16v34.71h-30.16v60.35c.19,5.01,1.42,8.58,3.7,10.71,2.28,2.13,5.41,3.2,9.39,3.2,3.41,0,6.87-.61,10.39-1.85,3.51-1.23,6.69-2.32,9.53-3.27l8.54,35.57Z"/>
    <path class="cls-3" d="M2188.9,265.69v-41.54h45.52v41.54h-45.52Zm0,166.16v-149.38h45.52v149.38h-45.52Z"/>
    <path class="cls-3" d="M2409.97,431.85h-45.52v-82.45c0-9.68-1.95-16.72-5.83-21.09-3.89-4.38-8.78-6.57-14.65-6.57-4.17,0-8.44,1.1-12.8,3.3-4.37,2.21-8.35,5.23-11.95,9.08-3.61,3.85-6.26,8.26-7.97,13.21v84.52h-45.52v-147.67h40.97v25.24c3.79-5.99,8.54-11.04,14.23-15.16,5.69-4.12,12.23-7.21,19.63-9.27,7.4-2.06,15.36-3.09,23.9-3.09,9.86,0,17.78,1.69,23.76,5.05,5.98,3.37,10.53,7.82,13.66,13.34s5.26,11.56,6.4,18.11c1.14,6.55,1.71,12.92,1.71,19.09v94.35Z"/>
    <path class="cls-3" d="M2497.89,434.7c-9.87,0-18.88-1.95-27.03-5.84-8.16-3.89-15.13-9.31-20.91-16.25-5.79-6.94-10.29-14.96-13.52-24.09-3.23-9.12-4.84-18.91-4.84-29.36s1.71-20.99,5.12-30.5c3.41-9.5,8.2-17.72,14.37-24.66,6.16-6.94,13.47-12.35,21.91-16.25,8.44-3.89,17.78-5.85,28.03-5.85,11.19,0,21.06,2.33,29.59,6.97,8.54,4.65,15.36,11.24,20.49,19.77v-24.47h39.55v138.3c0,14.87-3.65,27.75-10.95,38.67-7.3,10.91-17.45,19.33-30.44,25.26-12.99,5.93-28.03,8.89-45.1,8.89-15.93,0-29.64-2.61-41.11-7.82-11.48-5.22-21.48-12.57-30.02-22.05l24.47-24.75c5.5,6.26,12.33,11.28,20.49,15.08,8.15,3.79,16.88,5.69,26.18,5.69,7.4,0,14.18-1.27,20.34-3.8,6.16-2.53,11.14-6.51,14.94-11.93,3.79-5.42,5.69-12.6,5.69-21.54v-14.8c-4.55,8.35-11.15,14.65-19.77,18.92-8.63,4.27-17.78,6.4-27.46,6.4Zm15.93-36.13c3.22,0,6.45-.52,9.67-1.57,3.22-1.05,6.16-2.48,8.82-4.29,2.65-1.81,5.12-4,7.4-6.57,2.28-2.57,4.08-5.38,5.41-8.42v-31.41c-1.9-5.33-4.65-9.94-8.25-13.85-3.61-3.9-7.59-6.95-11.95-9.14-4.37-2.19-8.92-3.29-13.66-3.29s-9.15,1.1-13.23,3.29c-4.08,2.19-7.64,5.23-10.67,9.14-3.04,3.9-5.36,8.19-6.97,12.85-1.61,4.66-2.42,9.66-2.42,14.99s.9,10.57,2.7,15.14c1.8,4.57,4.31,8.57,7.54,11.99,3.22,3.43,7.02,6.14,11.38,8.14,4.36,2,9.1,3,14.23,3Z"/>
    <path class="cls-3" d="M1233.96,700.04c-1.36,.51-3.49,1.45-6.38,2.81-2.9,1.36-6.38,2.55-10.47,3.57-4.09,1.02-8.51,1.53-13.28,1.53s-9.57-.94-13.92-2.82c-4.34-1.88-7.79-4.74-10.34-8.59-2.55-3.85-3.83-8.59-3.83-14.23v-95.64h-18.38v-13.79h18.38v-44.94h17.36v44.94h30.64v13.79h-30.64v90.83c.34,4.79,2.08,8.38,5.23,10.78,3.15,2.39,6.77,3.59,10.85,3.59,4.76,0,9.1-.81,13.02-2.43,3.91-1.62,6.3-2.76,7.15-3.45l4.6,14.04Z"/>
    <path class="cls-3" d="M1367.49,705.4h-17.36v-73.83c0-14.88-2.64-26.09-7.92-33.61-5.28-7.52-12.85-11.29-22.72-11.29-6.47,0-12.89,1.65-19.28,4.94-6.38,3.3-12,7.77-16.85,13.42-4.85,5.66-8.3,12.12-10.34,19.38v80.99h-17.36v-186.39h17.36v84.07c5.27-9.81,12.64-17.64,22.09-23.48,9.45-5.84,19.53-8.76,30.26-8.76,7.66,0,14.17,1.36,19.53,4.06,5.36,2.71,9.7,6.64,13.02,11.81,3.32,5.16,5.75,11.17,7.28,18.03,1.53,6.85,2.3,14.6,2.3,23.23v77.44Z"/>
    <path class="cls-3" d="M1461.96,707.95c-9.53,0-18.38-1.82-26.55-5.47-8.17-3.65-15.24-8.65-21.19-15.01-5.96-6.36-10.6-13.69-13.92-22s-4.98-17.21-4.98-26.71c0-12.33,2.85-23.65,8.55-33.96,5.7-10.31,13.57-18.54,23.62-24.71,10.04-6.17,21.45-9.25,34.21-9.25s24.55,3.13,34.34,9.38c9.79,6.26,17.49,14.5,23.11,24.73s8.43,21.43,8.43,33.6v3.93c0,1.27-.09,2.24-.26,2.92h-113.88c.85,9.49,3.53,17.91,8.04,25.28,4.51,7.36,10.38,13.21,17.62,17.53,7.23,4.32,15.1,6.48,23.62,6.48s16.89-2.21,24.64-6.64c7.74-4.42,13.15-10.21,16.21-17.36l15.06,4.08c-2.73,6.3-6.89,12-12.51,17.11s-12.22,9.06-19.79,11.87c-7.58,2.81-15.7,4.21-24.38,4.21Zm-49.02-75.07h98.3c-.68-9.6-3.28-18.02-7.79-25.27-4.51-7.24-10.38-12.93-17.62-17.06-7.24-4.12-15.19-6.19-23.87-6.19s-16.6,2.07-23.75,6.19c-7.15,4.13-12.98,9.85-17.49,17.18-4.51,7.33-7.11,15.71-7.79,25.14Z"/>
    <path class="cls-3" d="M1620.87,705.4v-202.01h86.21c9.67,0,18.49,1.99,26.46,5.98s14.94,9.2,20.91,15.65c5.98,6.45,10.57,13.75,13.8,21.91,3.22,8.16,4.84,16.5,4.84,25.04,0,11.38-2.7,22.34-8.11,32.86-5.41,10.53-12.9,19.06-22.48,25.61-9.58,6.54-20.82,9.82-33.72,9.82h-41.26v65.16h-46.66Zm46.66-106.13h38.13c3.6,0,6.87-1,9.82-2.99,2.94-1.99,5.36-5.07,7.26-9.25,1.89-4.17,2.85-9.2,2.85-15.08,0-6.45-1.04-11.71-3.13-15.79-2.09-4.08-4.79-7.06-8.11-8.96-3.32-1.89-6.78-2.85-10.39-2.85h-36.42v54.91Z"/>
    <path class="cls-3" d="M1889.17,595c-11,0-20.96,1.76-29.88,5.26-8.92,3.51-15.36,8.68-19.35,15.51v89.62h-45.52v-147.67h41.54v28.45c5.31-10.05,12.04-17.93,20.2-23.62,8.15-5.69,16.69-8.63,25.61-8.82h4.55c.95,0,1.89,.1,2.85,.28v40.97Z"/>
    <path class="cls-3" d="M1978.23,708.24c-12.9,0-24.23-2.01-34-6.04-9.77-4.03-18.12-9.64-25.04-16.85-6.93-7.21-12.14-15.4-15.65-24.57-3.51-9.18-5.26-18.82-5.26-28.93s1.8-20.03,5.41-29.21c3.6-9.18,8.77-17.32,15.51-24.43,6.73-7.11,15.08-12.68,25.04-16.71,9.96-4.03,21.29-6.04,34-6.04s23.99,2.01,33.86,6.04c9.86,4.03,18.21,9.6,25.04,16.71,6.83,7.11,12.04,15.26,15.65,24.43,3.6,9.18,5.41,18.91,5.41,29.21s-1.76,19.76-5.26,28.93c-3.51,9.18-8.73,17.36-15.65,24.57-6.93,7.21-15.32,12.83-25.18,16.85-9.86,4.02-21.15,6.04-33.86,6.04Zm-33.29-76.4c0,7.4,1.47,13.96,4.41,19.69,2.94,5.73,6.87,10.21,11.81,13.45,4.93,3.24,10.62,4.85,17.07,4.85s11.9-1.61,16.93-4.85c5.02-3.24,8.96-7.67,11.81-13.31s4.27-12.25,4.27-19.83-1.42-14.19-4.27-19.82c-2.85-5.64-6.78-10.12-11.81-13.45-5.03-3.33-10.67-4.99-16.93-4.99s-11.86,1.62-16.79,4.85c-4.93,3.24-8.92,7.72-11.95,13.45-3.04,5.73-4.55,12.39-4.55,19.96Z"/>
    <path class="cls-3" d="M2316.81,705.4h-45.52v-82.45c0-9.5-1.76-16.48-5.26-20.96-3.51-4.47-8.3-6.71-14.37-6.71s-11.76,2.42-17.64,7.27c-5.88,4.85-10.06,11.18-12.52,19v83.84h-45.52v-82.45c0-9.68-1.81-16.72-5.41-21.09-3.61-4.38-8.25-6.57-13.94-6.57s-11.76,2.34-17.64,7.02c-5.88,4.68-10.15,10.87-12.8,18.57v84.52h-45.52v-147.67h40.97v25.24c5.5-8.98,12.95-15.82,22.34-20.5,9.39-4.68,20.44-7.02,33.15-7.02s21.77,2.81,28.31,8.42c6.54,5.62,10.76,12.26,12.66,19.93,5.69-8.98,13.23-15.96,22.62-20.92,9.39-4.96,19.96-7.44,31.72-7.44,9.48,0,17.12,1.69,22.9,5.05,5.78,3.37,10.24,7.86,13.37,13.48s5.26,11.65,6.4,18.11,1.71,12.78,1.71,18.95v94.35Z"/>
    <path class="cls-3" d="M2346.68,539.23v-41.54h45.52v41.54h-45.52Zm0,166.16v-149.38h45.52v149.38h-45.52Z"/>
    <path class="cls-3" d="M2480.69,708.24c-12.71,0-25.09-2.13-37.13-6.4-12.05-4.27-22.34-10.48-30.87-18.64l15.93-28.45c8.91,6.64,17.69,11.62,26.32,14.94,8.63,3.32,16.74,4.98,24.33,4.98,5.69,0,10.19-.85,13.52-2.55,3.32-1.7,4.98-4.42,4.98-8.18,0-2.8-1-4.95-2.99-6.45-1.99-1.49-4.89-2.94-8.68-4.35-3.8-1.4-8.54-2.85-14.23-4.34-11.38-3.92-20.87-7.61-28.45-11.07-7.59-3.46-13.28-7.76-17.07-12.9-3.8-5.14-5.69-11.82-5.69-20.05,0-9.9,2.56-18.55,7.68-25.93,5.12-7.38,12.28-13.13,21.48-17.24,9.2-4.11,20.25-6.17,33.15-6.17,10.24,0,20.29,1.61,30.16,4.84,9.86,3.23,19.06,8.73,27.6,16.5l-17.92,28.17c-8.35-5.88-15.89-10.15-22.62-12.8-6.74-2.65-13.23-3.98-19.49-3.98-3.23,0-6.17,.37-8.82,1.12-2.66,.75-4.79,1.96-6.4,3.63-1.61,1.68-2.42,4-2.42,6.98,0,2.6,.8,4.79,2.42,6.56,1.61,1.77,4.17,3.26,7.68,4.47,3.51,1.21,7.82,2.56,12.95,4.05,12.52,3.73,22.9,7.35,31.16,10.89,8.25,3.54,14.41,8.01,18.49,13.4,4.08,5.4,6.12,12.47,6.12,21.22,0,14.89-5.5,26.57-16.5,35.04-11,8.47-25.89,12.71-44.67,12.71Z"/>
    <path class="cls-3" d="M2636.32,708.24c-12.71,0-24-2.02-33.86-6.05-9.87-4.03-18.26-9.52-25.18-16.46-6.93-6.94-12.19-14.96-15.79-24.06-3.61-9.1-5.41-18.61-5.41-28.55,0-14.21,3.17-27.15,9.53-38.84,6.35-11.68,15.51-21.08,27.46-28.18,11.95-7.1,26.36-10.66,43.25-10.66s31.3,3.51,43.25,10.54c11.95,7.02,21.01,16.35,27.17,27.96,6.16,11.61,9.25,24.07,9.25,37.37,0,2.62-.14,5.2-.43,7.73-.29,2.53-.53,4.73-.71,6.6h-110.39c.38,6.46,2.18,11.89,5.41,16.32,3.22,4.43,7.3,7.74,12.23,9.96,4.93,2.21,10.05,3.32,15.36,3.32,7.02,0,13.52-1.61,19.49-4.84,5.97-3.22,10-7.49,12.09-12.8l38.7,11.1c-3.79,7.78-9.1,14.56-15.93,20.34-6.83,5.79-14.94,10.43-24.33,13.94-9.39,3.51-19.77,5.26-31.15,5.26Zm-32.72-90.48h64.59c-.57-6.03-2.37-11.28-5.4-15.76-3.04-4.48-6.83-7.95-11.38-10.42-4.55-2.47-9.87-3.7-15.93-3.7-5.5,0-10.62,1.24-15.37,3.7-4.74,2.47-8.54,5.9-11.38,10.28-2.85,4.38-4.55,9.68-5.12,15.89Z"/>
  </g>
  <path class="cls-3" d="M2802.58,393.03c0,.44-.17,.74-.5,.92l-40.41,27.2c-.38,.22-.57,.55-.56,.98,0,.09,.21,.74,.62,1.93,.41,1.2,.97,2.76,1.67,4.7,.7,1.94,1.5,4.15,2.4,6.64,.89,2.49,1.82,5.04,2.8,7.65,.97,2.62,1.91,5.21,2.83,7.78,.92,2.57,1.77,4.91,2.55,7.03,.77,2.11,1.42,3.9,1.96,5.36,.53,1.46,.87,2.39,1.01,2.79,.05,.08,.07,.21,.08,.39,0,.31-.13,.57-.39,.79-.26,.22-.57,.33-.9,.33s-.6-.06-.79-.19l-1.65-1.11c-1.01-.65-2.34-1.53-3.99-2.63-1.66-1.11-3.49-2.34-5.5-3.68-2.01-1.34-4.14-2.75-6.4-4.23-2.25-1.47-4.48-2.94-6.68-4.38-2.21-1.45-4.32-2.84-6.33-4.16-2.02-1.32-3.81-2.49-5.39-3.51-1.58-1.01-2.86-1.82-3.85-2.4-.98-.58-1.55-.87-1.68-.87-.25,0-.5,.09-.79,.26l-40.41,27.13c-.25,.13-.5,.2-.79,.2-.34,0-.64-.11-.9-.32-.27-.22-.4-.48-.4-.79,0-.04,.2-.68,.6-1.9,.39-1.23,.94-2.81,1.62-4.76,.68-1.95,1.46-4.17,2.33-6.66,.87-2.49,1.76-5.07,2.68-7.71,.91-2.64,1.83-5.25,2.76-7.8,.91-2.56,1.74-4.91,2.47-7.06,.73-2.14,1.35-3.95,1.87-5.42,.52-1.46,.85-2.39,.99-2.79,.05-.08,.07-.22,.07-.39,0-.39-.17-.7-.5-.92l-40.76-26.78c-.34-.22-.51-.52-.51-.91,0-.35,.12-.64,.35-.86,.24-.21,.55-.33,.93-.33l50.15-.26c.57,0,.97-.28,1.21-.85l15.33-43.71c.13-.53,.54-.79,1.22-.79s1.07,.25,1.21,.78l15.7,43.55c.19,.57,.6,.84,1.22,.84l50.22-.26c.39,0,.68,.11,.9,.32,.21,.22,.32,.5,.33,.85"/>
  <path class="cls-3" d="M3016.52,319.22c0,.69-.27,1.17-.79,1.45l-64.03,43.09c-.61,.35-.9,.87-.89,1.56,0,.15,.33,1.17,.97,3.06,.65,1.9,1.53,4.38,2.65,7.45,1.11,3.08,2.37,6.58,3.8,10.52,1.42,3.94,2.89,7.98,4.44,12.12,1.53,4.15,3.02,8.26,4.48,12.33,1.46,4.07,2.8,7.78,4.04,11.14,1.22,3.34,2.25,6.18,3.11,8.49,.84,2.32,1.37,3.79,1.61,4.42,.07,.13,.12,.33,.12,.61,0,.49-.21,.9-.62,1.25-.42,.35-.9,.52-1.42,.53-.52,0-.94-.1-1.25-.3l-2.61-1.75c-1.6-1.03-3.7-2.43-6.33-4.17-2.62-1.75-5.53-3.7-8.72-5.83-3.18-2.12-6.56-4.36-10.13-6.7-3.57-2.33-7.1-4.65-10.58-6.95-3.5-2.29-6.84-4.5-10.03-6.59-3.19-2.1-6.04-3.94-8.54-5.56-2.51-1.61-4.53-2.89-6.09-3.81-1.56-.92-2.45-1.38-2.67-1.38-.39,0-.8,.14-1.25,.42l-64.03,42.99c-.39,.2-.8,.31-1.25,.31-.54,0-1.02-.17-1.43-.51-.42-.34-.63-.75-.63-1.25,0-.07,.31-1.08,.96-3.01,.61-1.94,1.49-4.46,2.56-7.55,1.07-3.09,2.31-6.6,3.69-10.55,1.37-3.94,2.79-8.03,4.25-12.22,1.45-4.18,2.91-8.32,4.37-12.36,1.45-4.06,2.75-7.79,3.91-11.18,1.16-3.39,2.13-6.26,2.96-8.58,.82-2.32,1.35-3.79,1.56-4.42,.07-.13,.11-.35,.11-.61,0-.62-.27-1.11-.79-1.46l-64.59-42.44c-.54-.34-.8-.82-.81-1.44,0-.56,.18-1.01,.56-1.36,.38-.33,.87-.52,1.48-.53l79.46-.41c.9,0,1.54-.45,1.91-1.35l24.29-69.25c.21-.84,.85-1.25,1.93-1.26,1.05,0,1.7,.4,1.92,1.24l24.88,69c.3,.9,.95,1.34,1.94,1.33l79.56-.41c.61,0,1.08,.18,1.43,.51,.34,.34,.51,.79,.52,1.35"/>
  <path class="cls-3" d="M2853.96,134.76c0,.69-.27,1.17-.79,1.45l-64.03,43.09c-.61,.35-.9,.87-.89,1.56,0,.15,.33,1.17,.97,3.06,.65,1.9,1.53,4.38,2.65,7.45,1.11,3.08,2.37,6.58,3.8,10.52,1.42,3.94,2.89,7.98,4.44,12.12,1.53,4.15,3.02,8.26,4.48,12.33,1.46,4.07,2.8,7.78,4.04,11.14,1.22,3.34,2.25,6.18,3.11,8.49,.84,2.32,1.37,3.79,1.61,4.42,.07,.13,.12,.33,.12,.61,0,.49-.21,.9-.62,1.25-.42,.35-.9,.52-1.42,.53-.52,0-.94-.1-1.25-.3l-2.61-1.75c-1.6-1.03-3.7-2.43-6.33-4.17-2.62-1.75-5.53-3.7-8.72-5.83-3.18-2.12-6.56-4.36-10.13-6.7-3.57-2.33-7.1-4.65-10.58-6.95-3.5-2.29-6.84-4.5-10.03-6.59-3.19-2.1-6.04-3.94-8.54-5.56-2.51-1.61-4.53-2.89-6.09-3.81-1.56-.92-2.45-1.38-2.67-1.38-.39,0-.8,.14-1.25,.42l-64.03,42.99c-.39,.2-.8,.31-1.25,.31-.54,0-1.02-.17-1.43-.51-.42-.34-.63-.75-.63-1.25,0-.07,.31-1.08,.96-3.01,.61-1.94,1.49-4.46,2.56-7.55,1.07-3.09,2.31-6.6,3.69-10.55,1.37-3.94,2.79-8.03,4.25-12.22,1.45-4.18,2.91-8.32,4.37-12.36,1.45-4.06,2.75-7.79,3.91-11.18,1.16-3.39,2.13-6.26,2.96-8.58,.82-2.32,1.35-3.79,1.56-4.42,.07-.13,.11-.35,.11-.61,0-.62-.27-1.11-.79-1.46l-64.59-42.44c-.54-.34-.8-.82-.81-1.44,0-.56,.18-1.01,.56-1.36,.38-.33,.87-.52,1.48-.53l79.46-.41c.9,0,1.54-.45,1.91-1.35l24.29-69.25c.21-.84,.85-1.25,1.93-1.26,1.05,0,1.7,.4,1.92,1.24l24.88,69c.3,.9,.95,1.34,1.94,1.33l79.56-.41c.61,0,1.08,.18,1.43,.51,.34,.34,.51,.79,.52,1.35"/>
  <g>
    <path class="cls-3" d="M608.38,923.65c1.58-47.34,1.83-54.85,3.42-102.19,68.39,47.79,141.34-40.77,209.73,7.01-13.77,11.51-24.88,28.74-31.94,38.9,10.34,13.38,24.34,25.89,30.33,62.4-71.98-45.83-164.1,24.57-211.53-6.13Z"/>
    <path class="cls-3" d="M211.46,935.6c1.73-51.61,2-59.79,3.72-111.41-71.57,47.21-138.16-54.22-209.72-7.01,12.94,13.49,22.81,33,29.15,44.55-11.25,13.83-26.09,26.46-34.62,65.77,75.01-44.83,143.07,34.74,211.46,8.1Z"/>
    <path class="cls-5" d="M611.8,821.46c-1.17,34.88-2.25,67.31-3.42,102.19,45.96-42.57,102.67-8.15,133.18-31.22,.87-26.03,1.63-48.75,2.5-74.78-33.15,4.42-83.67,36.6-132.26,3.81Z"/>
    <path class="cls-5" d="M215.19,824.19c-1.27,38.03-2.44,73.12-3.72,111.15-35.7-24.7-105.18-20.6-121.21-62.07,.87-26.03,1.12-33.44,1.99-59.48,42.27,15.95,83.46,37.61,122.94,10.4Z"/>
    <path class="cls-1" d="M94.06,759.79c-.44,13.08-3,89.82-3.81,114.08,248.45,76.83,403.06-58.56,651.51,18.27,1.27-38.03,2.54-76.05,3.81-114.08-248.46-76.83-403.06,58.56-651.51-18.27Z"/>
    <g>
      <path class="cls-2" d="M170.05,829.95c2.21,.37,4.21,1.08,5.99,2.13,1.78,1.05,3.24,2.36,4.39,3.91,1.15,1.56,1.95,3.33,2.42,5.32,.46,1.99,.5,4.11,.12,6.37-.4,2.39-1.2,4.49-2.39,6.29-1.19,1.8-2.68,3.27-4.46,4.4-1.78,1.13-3.8,1.91-6.06,2.33-2.25,.42-4.62,.42-7.1,0-3.45-.58-6.42-1.83-8.89-3.75-2.48-1.92-4.21-4.26-5.2-7.02l6.01-4.45c.95,1.93,2.27,3.57,3.95,4.9s3.53,2.16,5.52,2.5c2.39,.4,4.47,.01,6.24-1.17,1.77-1.18,2.85-2.97,3.26-5.36,.39-2.3-.02-4.28-1.22-5.94-1.2-1.66-2.91-2.67-5.12-3.05-1.46-.25-2.88-.14-4.25,.31-1.37,.45-2.53,1.19-3.48,2.21l-7.77-1.31c.02-.13,.2-.62,.52-1.45,.32-.83,.73-1.9,1.22-3.21,.49-1.3,1.03-2.76,1.62-4.37s1.21-3.24,1.85-4.91c1.48-3.94,3.13-8.35,4.96-13.23l23.23,3.91-1.36,8.1-16.8-2.83-3.7,10.23c.63-.49,1.49-.82,2.59-1,1.1-.18,2.4-.14,3.91,.11Z"/>
      <path class="cls-2" d="M225.82,838.44c-.29,2.95-.99,5.62-2.1,8.01s-2.53,4.42-4.24,6.08c-1.72,1.66-3.69,2.89-5.9,3.69-2.22,.8-4.56,1.08-7.01,.84-2.5-.24-4.75-.97-6.75-2.18-2-1.21-3.69-2.79-5.05-4.75s-2.36-4.22-2.99-6.78c-.63-2.56-.8-5.32-.52-8.27,.29-2.95,.99-5.62,2.1-8.01s2.53-4.42,4.24-6.08c1.72-1.66,3.67-2.9,5.87-3.72,2.2-.82,4.55-1.11,7.05-.87,2.46,.24,4.7,.98,6.72,2.21,2.02,1.23,3.72,2.83,5.08,4.79,1.37,1.96,2.36,4.22,2.99,6.78,.63,2.56,.8,5.32,.52,8.27Zm-9.05-.88c.17-1.79,.13-3.45-.12-4.98-.26-1.54-.7-2.88-1.33-4.02-.63-1.14-1.42-2.05-2.37-2.73-.95-.68-2.03-1.08-3.23-1.19-1.25-.12-2.41,.06-3.47,.54-1.06,.48-2.01,1.22-2.85,2.23-.84,1-1.54,2.23-2.08,3.69-.55,1.46-.91,3.08-1.08,4.87-.17,1.79-.13,3.44,.13,4.95s.7,2.84,1.34,3.98c.63,1.14,1.42,2.06,2.37,2.73,.95,.68,2.05,1.08,3.3,1.2,1.21,.12,2.34-.07,3.4-.55,1.06-.48,2.01-1.22,2.85-2.23,.84-1,1.54-2.22,2.08-3.65s.9-3.05,1.08-4.83Z"/>
      <path class="cls-2" d="M254.08,857.54c-1.23,.49-2.74,.96-4.51,1.42-1.77,.46-3.62,.65-5.55,.57-1.26-.05-2.43-.26-3.51-.62-1.08-.36-2.03-.91-2.83-1.64-.8-.73-1.42-1.65-1.87-2.78-.45-1.12-.64-2.46-.57-4.03l.87-20.24-4.64-.2,.3-6.93,4.64,.2,.49-11.43,9.01,.39-.49,11.43,7.4,.32-.3,6.93-7.4-.32-.74,17.22c-.05,1.26,.23,2.16,.86,2.7,.63,.54,1.41,.84,2.35,.88s1.87-.08,2.78-.35c.91-.27,1.64-.51,2.19-.71l1.51,7.21Z"/>
      <path class="cls-2" d="M292.97,859.32l-9.02,.07-.14-19.79c-.02-2.78-.55-4.83-1.59-6.15-1.04-1.32-2.51-1.97-4.39-1.95-.81,0-1.66,.19-2.55,.56-.9,.37-1.74,.88-2.55,1.53-.8,.66-1.54,1.44-2.21,2.34-.67,.9-1.15,1.89-1.46,2.97l.15,20.6-9.02,.07-.36-49.14,9.02-.07,.15,20.4c1.28-2.3,3.03-4.07,5.25-5.32,2.21-1.25,4.67-1.89,7.36-1.91,2.29-.02,4.15,.36,5.6,1.14,1.44,.78,2.57,1.81,3.39,3.11,.82,1.3,1.39,2.77,1.72,4.43,.33,1.66,.5,3.36,.51,5.11l.16,22.01Z"/>
      <path class="cls-2" d="M327.47,809.32l8.18-.72,22.31,46.01-9.52,.84-5.47-11.48-16.63,1.47-3.31,12.25-9.52,.84,13.97-49.22Zm13.24,28.3l-8.22-18.13-5.19,19.31,13.41-1.18Z"/>
      <path class="cls-2" d="M396.39,848.98l-8.93,1.31-2.87-19.58c-.41-2.8-1.2-4.77-2.36-5.91-1.17-1.14-2.61-1.59-4.35-1.34-.89,.13-1.77,.44-2.65,.93-.88,.49-1.68,1.12-2.41,1.88-.73,.76-1.36,1.64-1.89,2.62-.54,.99-.88,2.03-1.04,3.15l2.98,20.38-8.93,1.31-5.11-34.9,8.06-1.18,.95,6.46c.96-2.41,2.57-4.41,4.83-6.01,2.26-1.6,4.92-2.63,7.99-3.07,2.18-.32,4.01-.18,5.5,.42s2.71,1.49,3.66,2.66c.94,1.18,1.68,2.57,2.21,4.17,.53,1.6,.92,3.25,1.16,4.93l3.19,21.78Z"/>
      <path class="cls-2" d="M437.34,841.4l-8.88,1.59-3.49-19.48c-.5-2.78-1.35-4.73-2.55-5.84-1.2-1.11-2.66-1.51-4.39-1.2-.88,.16-1.76,.5-2.62,1.02-.86,.52-1.65,1.17-2.35,1.96-.7,.79-1.31,1.68-1.81,2.68-.5,1-.82,2.06-.94,3.18l3.63,20.28-8.88,1.59-6.21-34.72,8.02-1.43,1.15,6.43c.89-2.44,2.43-4.49,4.64-6.17,2.21-1.67,4.84-2.78,7.89-3.33,2.16-.39,4-.31,5.51,.24,1.51,.55,2.76,1.4,3.74,2.55,.98,1.15,1.76,2.51,2.34,4.1,.58,1.58,1.02,3.21,1.32,4.89l3.88,21.67Z"/>
      <path class="cls-2" d="M439.13,800.71l-1.25-8.87,8.93-1.26,1.25,8.87-8.93,1.26Zm5.62,39.79l-4.93-34.93,8.93-1.26,4.93,34.93-8.93,1.26Z"/>
      <path class="cls-2" d="M470.9,837.03l-16.96-33.55,9.23-1.07,12.11,26.72,5.75-28.79,8.43-.98-8.85,36.54-9.7,1.12Z"/>
      <path class="cls-2" d="M512.95,833.47c-2.82,.23-5.41-.04-7.77-.82-2.36-.78-4.41-1.92-6.16-3.45-1.75-1.52-3.14-3.35-4.2-5.47-1.05-2.12-1.68-4.39-1.87-6.8-.2-2.5,.03-4.9,.7-7.18,.67-2.28,1.74-4.33,3.21-6.14,1.47-1.81,3.32-3.3,5.54-4.47,2.22-1.17,4.77-1.88,7.63-2.11,2.86-.23,5.46,.05,7.8,.85,2.34,.8,4.37,1.96,6.09,3.49,1.72,1.53,3.09,3.35,4.09,5.47,1.01,2.12,1.61,4.37,1.8,6.74,.05,.58,.08,1.14,.1,1.68,.02,.54,0,.99-.06,1.36l-27.17,2.22c.25,1.38,.68,2.58,1.31,3.61,.62,1.03,1.39,1.89,2.3,2.58,.91,.69,1.92,1.19,3.03,1.51,1.11,.31,2.24,.43,3.4,.33,1.79-.15,3.44-.72,4.96-1.72s2.51-2.24,2.97-3.72l7.89,1.52c-1.08,2.79-2.97,5.16-5.67,7.12-2.7,1.95-6.02,3.09-9.95,3.41Zm7.39-21.95c-.44-2.62-1.59-4.65-3.44-6.1-1.85-1.45-4.01-2.07-6.47-1.87-1.21,.1-2.32,.4-3.34,.91-1.02,.51-1.9,1.18-2.64,2.01-.74,.83-1.33,1.8-1.75,2.91-.43,1.12-.63,2.33-.62,3.63l18.25-1.49Z"/>
      <path class="cls-2" d="M556.06,802.64c-2.73,.18-5.15,.83-7.25,1.94-2.1,1.12-3.57,2.7-4.42,4.77l1.05,21.31-9.01,.45-1.74-35.23,8.27-.41,.37,7.53c.57-1.24,1.25-2.36,2.06-3.37,.8-1.01,1.68-1.89,2.63-2.66,.95-.77,1.92-1.36,2.91-1.8,.99-.43,1.96-.67,2.9-.72,.49-.02,.86-.04,1.11-.06,.25-.01,.48,0,.71,.03l.41,8.2Z"/>
      <path class="cls-2" d="M575.42,830.34c-2.96,.05-5.86-.37-8.71-1.26s-5.29-2.2-7.34-3.91l3.27-5.71c2.18,1.49,4.3,2.61,6.35,3.36,2.05,.75,4.09,1.11,6.11,1.07,1.79-.03,3.2-.39,4.22-1.08,1.02-.69,1.52-1.67,1.5-2.92-.02-1.26-.64-2.17-1.87-2.73-1.22-.56-3.21-1.2-5.96-1.92-2.3-.59-4.26-1.16-5.89-1.71-1.63-.55-2.94-1.19-3.94-1.92s-1.73-1.56-2.2-2.52c-.47-.96-.71-2.11-.73-3.45-.03-1.79,.29-3.42,.96-4.86,.67-1.45,1.62-2.69,2.86-3.72,1.24-1.03,2.69-1.83,4.37-2.4,1.67-.57,3.5-.87,5.47-.9,2.65-.05,5.13,.29,7.46,1.01,2.32,.72,4.47,1.92,6.43,3.59l-3.54,5.52c-1.82-1.31-3.58-2.27-5.27-2.87-1.69-.6-3.37-.88-5.03-.85-1.53,.03-2.8,.36-3.82,1.01-1.02,.65-1.52,1.67-1.5,3.06,.01,.63,.14,1.14,.4,1.54s.65,.75,1.2,1.06c.54,.31,1.26,.6,2.14,.87,.88,.28,1.97,.56,3.28,.85,2.43,.59,4.52,1.18,6.26,1.77,1.74,.6,3.16,1.29,4.28,2.08,1.11,.79,1.94,1.71,2.47,2.75,.53,1.05,.82,2.31,.84,3.79,.06,3.46-1.17,6.2-3.69,8.25-2.52,2.04-5.98,3.1-10.38,3.18Z"/>
      <path class="cls-2" d="M604.62,830.34c-1.71-.05-3.29-.37-4.76-.97s-2.72-1.42-3.77-2.46c-1.05-1.04-1.86-2.24-2.43-3.6-.57-1.36-.83-2.85-.79-4.47,.04-1.66,.46-3.19,1.23-4.58,.78-1.39,1.84-2.57,3.19-3.52,1.35-.95,2.95-1.68,4.81-2.19,1.85-.51,3.88-.74,6.08-.68,1.57,.04,3.1,.22,4.6,.53,1.5,.31,2.82,.73,3.97,1.25l.05-2.02c.06-2.33-.55-4.15-1.84-5.44-1.29-1.29-3.24-1.97-5.84-2.04-1.88-.05-3.73,.24-5.54,.86-1.81,.62-3.68,1.56-5.6,2.81l-2.61-5.79c4.61-2.88,9.54-4.26,14.79-4.12,5.07,.14,8.97,1.49,11.71,4.05,2.74,2.56,4.04,6.2,3.92,10.91l-.29,10.97c-.03,.94,.12,1.62,.45,2.03,.33,.41,.87,.65,1.63,.72l-.21,7.67c-1.53,.27-2.86,.4-3.98,.36-1.71-.05-3.01-.46-3.91-1.25-.9-.79-1.44-1.81-1.63-3.07l-.15-1.96c-1.63,2.02-3.58,3.54-5.85,4.56-2.27,1.02-4.69,1.49-7.24,1.42Zm2.73-6.53c1.52,.04,2.98-.19,4.36-.69,1.38-.5,2.47-1.19,3.25-2.07,1.01-.74,1.52-1.58,1.55-2.52l.11-4.04c-1.07-.43-2.22-.79-3.47-1.07-1.25-.28-2.46-.44-3.62-.47-2.33-.06-4.25,.41-5.76,1.43-1.51,1.02-2.29,2.33-2.33,3.94-.04,1.53,.51,2.81,1.65,3.85,1.14,1.04,2.56,1.58,4.27,1.63Z"/>
      <path class="cls-2" d="M656.06,804.9c-2.73-.16-5.21,.19-7.43,1.03-2.22,.85-3.88,2.24-4.97,4.19l-1.58,21.28-9-.67,2.61-35.18,8.26,.61-.56,7.52c.72-1.16,1.54-2.19,2.46-3.09,.92-.9,1.9-1.67,2.94-2.31,1.04-.64,2.07-1.12,3.11-1.42,1.04-.3,2.02-.42,2.96-.35,.49,.04,.86,.06,1.11,.08,.25,.02,.48,.06,.7,.12l-.61,8.19Z"/>
      <path class="cls-2" d="M658.28,839.55c.73,.32,1.44,.58,2.14,.79,.7,.2,1.29,.34,1.78,.4,.58,.08,1.13,.03,1.65-.12,.52-.16,1.01-.49,1.49-.99,.47-.5,.97-1.22,1.5-2.15,.53-.93,1.11-2.1,1.75-3.51l-9.24-36.79,9.21,1.21,5.92,28.47,11.97-26.13,8.41,1.1-20.17,40c-1.17,2.34-2.88,4.15-5.12,5.44-2.25,1.29-4.89,1.74-7.92,1.34-.71-.09-1.43-.24-2.15-.45-.72-.21-1.46-.5-2.23-.87l1.01-7.74Z"/>
    </g>
  </g>
</svg>