<?xml version="1.0" encoding="UTF-8" standalone="no"?>
<!-- Created with Inkscape (http://www.inkscape.org/) -->

<svg
   xmlns:dc="http://purl.org/dc/elements/1.1/"
   xmlns:cc="http://creativecommons.org/ns#"
   xmlns:rdf="http://www.w3.org/1999/02/22-rdf-syntax-ns#"
   xmlns:svg="http://www.w3.org/2000/svg"
   xmlns="http://www.w3.org/2000/svg"
   xmlns:sodipodi="http://sodipodi.sourceforge.net/DTD/sodipodi-0.dtd"
   xmlns:inkscape="http://www.inkscape.org/namespaces/inkscape"
   width="24.63553mm"
   height="24.635883mm"
   viewBox="0 0 24.63553 24.635883"
   version="1.1"
   id="svg12484"
   inkscape:export-xdpi="300"
   inkscape:export-ydpi="300"
   inkscape:version="0.92.4 (5da689c313, 2019-01-14)"
   sodipodi:docname="logo-image.svg">
  <defs
     id="defs12478">
    <clipPath
       clipPathUnits="userSpaceOnUse"
       id="clipPath1956">
      <path
         d="m 1246.311,1788.66 h 1059.86 v 26.597 h -1059.86 z"
         id="path1954"
         inkscape:connector-curvature="0" />
    </clipPath>
    <clipPath
       clipPathUnits="userSpaceOnUse"
       id="clipPath1964">
      <path
         d="m 1243.31,1839.83 h 1067.17 v -69.9 H 1243.31 Z"
         id="path1962"
         inkscape:connector-curvature="0" />
    </clipPath>
    <clipPath
       clipPathUnits="userSpaceOnUse"
       id="clipPath1968">
      <path
         d="m 1243.311,1769.927 h 1067.172 v 69.898 H 1243.311 Z"
         id="path1966"
         inkscape:connector-curvature="0" />
    </clipPath>
    <clipPath
       clipPathUnits="userSpaceOnUse"
       id="clipPath5696">
      <path
         d="m 1246.303,1477.935 h 1059.86 v 184.586 h -1059.86 z"
         id="path5694"
         inkscape:connector-curvature="0" />
    </clipPath>
    <clipPath
       clipPathUnits="userSpaceOnUse"
       id="clipPath10868">
      <path
         d="m 1968.09,1285.36 h 112.01 v -62.31 h -112.01 z"
         id="path10866"
         inkscape:connector-curvature="0" />
    </clipPath>
    <clipPath
       clipPathUnits="userSpaceOnUse"
       id="clipPath11122">
      <path
         d="m 2003.74,1135.39 h 73.11 v -73.16 h -73.11 z"
         id="path11120"
         inkscape:connector-curvature="0" />
    </clipPath>
    <clipPath
       clipPathUnits="userSpaceOnUse"
       id="clipPath11156">
      <path
         d="m 2005.12,986.952 h 73.19 v -63.701 h -73.19 z"
         id="path11154"
         inkscape:connector-curvature="0" />
    </clipPath>
    <clipPath
       clipPathUnits="userSpaceOnUse"
       id="clipPath4198">
      <path
         d="m 1882.313,680.693 h 201.469 v 134.113 h -201.469 z"
         id="path4196"
         inkscape:connector-curvature="0" />
    </clipPath>
    <clipPath
       clipPathUnits="userSpaceOnUse"
       id="clipPath4270">
      <path
         d="M 0,2113.116 H 3819.781 V 0 H 0 Z"
         id="path4268"
         inkscape:connector-curvature="0" />
    </clipPath>
  </defs>
  <sodipodi:namedview
     id="base"
     pagecolor="#ffffff"
     bordercolor="#666666"
     borderopacity="1.0"
     inkscape:pageopacity="0.0"
     inkscape:pageshadow="2"
     inkscape:zoom="1.4"
     inkscape:cx="-6.1184013"
     inkscape:cy="106.82625"
     inkscape:document-units="mm"
     inkscape:current-layer="layer1"
     showgrid="false"
     fit-margin-top="0"
     fit-margin-left="0"
     fit-margin-right="0"
     fit-margin-bottom="0"
     inkscape:window-width="1920"
     inkscape:window-height="1017"
     inkscape:window-x="-8"
     inkscape:window-y="-8"
     inkscape:window-maximized="1"
     inkscape:pagecheckerboard="true" />
  <metadata
     id="metadata12481">
    <rdf:RDF>
      <cc:Work
         rdf:about="">
        <dc:format>image/svg+xml</dc:format>
        <dc:type
           rdf:resource="http://purl.org/dc/dcmitype/StillImage" />
        <dc:title></dc:title>
      </cc:Work>
    </rdf:RDF>
  </metadata>
  <g
     inkscape:label="Layer 1"
     inkscape:groupmode="layer"
     id="layer1"
     transform="translate(39.913524,-140.07725)">
    <g
       id="g8965"
       transform="matrix(0.35277777,0,0,-0.35277777,-32.312609,161.86545)">
      <path
         d="M 0,0 0.356,-0.722 1.153,-0.838 0.577,-1.4 0.713,-2.194 0,-1.819 l -0.713,-0.375 0.136,0.794 -0.576,0.562 0.797,0.116 z"
         style="fill:#ffffff;fill-opacity:1;fill-rule:nonzero;stroke:none"
         id="path8967"
         inkscape:connector-curvature="0" />
    </g>
    <g
       id="g8969"
       transform="matrix(0.35277777,0,0,-0.35277777,-22.628965,161.75267)">
      <path
         d="M 0,0 0.356,-0.722 1.153,-0.838 0.577,-1.4 0.713,-2.194 0,-1.819 l -0.713,-0.375 0.136,0.794 -0.576,0.562 0.796,0.116 z"
         style="fill:#ffffff;fill-opacity:1;fill-rule:nonzero;stroke:none"
         id="path8971"
         inkscape:connector-curvature="0" />
    </g>
    <g
       id="g8973"
       transform="matrix(0.35277777,0,0,-0.35277777,-25.867254,151.34353)">
      <path
         d="M 0,0 -0.519,-4.552 H 0.576 L 0.012,0 Z"
         style="fill:#ffffff;fill-opacity:1;fill-rule:nonzero;stroke:none"
         id="path8975"
         inkscape:connector-curvature="0" />
    </g>
    <g
       id="g8977"
       transform="matrix(0.35277777,0,0,-0.35277777,-25.555548,153.67017)">
      <path
         d="M 0,0 -0.203,1.362 H -1.496 L -1.682,0 h -0.799 l 1.083,7.917 h 1.009 L 0.79,0 Z m -2.793,1.832 c 0,-0.667 -0.105,-1.154 -0.314,-1.459 -0.21,-0.306 -0.572,-0.458 -1.089,-0.458 -0.516,0 -0.88,0.152 -1.094,0.458 -0.213,0.305 -0.32,0.792 -0.32,1.459 v 6.085 h 0.839 V 1.852 c 0,-0.475 0.019,-0.76 0.059,-0.853 0.039,-0.093 0.08,-0.167 0.123,-0.221 0.076,-0.103 0.207,-0.154 0.393,-0.154 0.187,0 0.325,0.057 0.414,0.17 0.089,0.114 0.137,0.283 0.144,0.507 0.006,0.224 0.01,0.407 0.01,0.547 v 6.069 h 0.835 z m -3.296,0.263 c 0,-0.748 -0.102,-1.299 -0.306,-1.651 -0.204,-0.353 -0.56,-0.529 -1.068,-0.529 -0.508,0 -0.87,0.182 -1.086,0.545 -0.216,0.363 -0.325,0.911 -0.325,1.644 v 3.754 c 0,0.54 0.045,0.937 0.134,1.191 0.089,0.254 0.187,0.441 0.292,0.56 0.23,0.259 0.565,0.39 1.005,0.393 0.616,-0.003 1.014,-0.275 1.192,-0.815 0.103,-0.311 0.154,-0.724 0.154,-1.24 V 5.156 H -6.92 v 0.795 c 0,0.456 -0.025,0.765 -0.075,0.926 -0.05,0.161 -0.11,0.268 -0.18,0.32 -0.07,0.053 -0.16,0.079 -0.268,0.079 -0.224,0 -0.379,-0.106 -0.464,-0.318 C -7.992,6.746 -8.034,6.411 -8.034,5.955 V 2.083 c 0,-0.54 0.038,-0.918 0.115,-1.133 0.077,-0.214 0.226,-0.322 0.446,-0.322 0.22,0 0.367,0.108 0.442,0.324 0.074,0.217 0.111,0.595 0.111,1.135 v 0.791 h 0.831 z M -9.462,0 h -0.616 L -11.679,5.679 -11.63,3.88 V 0 h -0.774 v 7.917 h 0.632 l 1.654,-5.639 -0.085,2.846 v 2.793 h 0.741 z m -3.731,-0.745 H 1.348 v 9.378 h -14.541 z"
         style="fill:#ffffff;fill-opacity:1;fill-rule:nonzero;stroke:none"
         id="path8979"
         inkscape:connector-curvature="0" />
    </g>
    <g
       id="g8981"
       transform="matrix(0.35277777,0,0,-0.35277777,-27.642528,143.07562)">
      <path
         d="M 0,0 0.659,-2.028 H 2.792 L 1.066,-3.282 1.725,-5.31 0,-4.057 -1.725,-5.31 l 0.659,2.028 -1.726,1.254 h 2.133 z"
         style="fill:#ffffff;fill-opacity:1;fill-rule:evenodd;stroke:none"
         id="path8983"
         inkscape:connector-curvature="0" />
    </g>
    <g
       id="g8985"
       transform="matrix(0.35277777,0,0,-0.35277777,-30.634199,144.84212)">
      <path
         d="M 0,0 0.659,-2.028 H 2.792 L 1.066,-3.282 1.725,-5.31 0,-4.057 -1.725,-5.31 l 0.659,2.028 -1.726,1.254 h 2.133 z"
         style="fill:#ffffff;fill-opacity:1;fill-rule:evenodd;stroke:none"
         id="path8987"
         inkscape:connector-curvature="0" />
    </g>
    <g
       id="g8989"
       transform="matrix(0.35277777,0,0,-0.35277777,-24.650805,144.84212)">
      <path
         d="M 0,0 -0.659,-2.028 H -2.792 L -1.066,-3.282 -1.725,-5.31 0,-4.057 1.725,-5.31 1.066,-3.282 2.792,-2.028 H 0.659 Z"
         style="fill:#ffffff;fill-opacity:1;fill-rule:evenodd;stroke:none"
         id="path8991"
         inkscape:connector-curvature="0" />
    </g>
    <g
       id="g8993"
       transform="matrix(0.35277777,0,0,-0.35277777,-27.595829,142.76457)">
      <path
         d="m 0,0 c -15.053,0 -27.299,-12.247 -27.299,-27.3 0,-15.053 12.246,-27.299 27.299,-27.299 15.053,0 27.3,12.246 27.3,27.299 C 27.3,-12.247 15.053,0 0,0 m 0,-54.889 c -15.213,0 -27.589,12.377 -27.589,27.589 0,15.213 12.376,27.589 27.589,27.589 15.212,0 27.589,-12.376 27.589,-27.589 0,-15.212 -12.377,-27.589 -27.589,-27.589"
         style="fill:#ffffff;fill-opacity:1;fill-rule:nonzero;stroke:none"
         id="path8995"
         inkscape:connector-curvature="0" />
    </g>
    <g
       id="g8997"
       transform="matrix(0.35277777,0,0,-0.35277777,-27.595935,140.28292)">
      <path
         d="m 0,0 c -9.171,0 -17.793,-3.571 -24.278,-10.056 -6.485,-6.485 -10.056,-15.107 -10.056,-24.278 0,-9.171 3.571,-17.794 10.056,-24.279 6.485,-6.484 15.107,-10.056 24.278,-10.056 9.171,0 17.793,3.572 24.278,10.056 6.485,6.485 10.056,15.108 10.056,24.279 0,9.171 -3.571,17.793 -10.056,24.278 C 17.793,-3.571 9.171,0 0,0 m 0.001,-69.251 c -9.327,0 -18.095,3.632 -24.69,10.227 -6.595,6.595 -10.227,15.363 -10.227,24.69 0,9.326 3.632,18.095 10.227,24.69 6.595,6.595 15.363,10.227 24.69,10.227 9.326,0 18.095,-3.632 24.69,-10.227 6.594,-6.595 10.226,-15.364 10.226,-24.69 0,-9.327 -3.632,-18.095 -10.226,-24.69 -6.595,-6.595 -15.364,-10.227 -24.69,-10.227"
         style="fill:#ffffff;fill-opacity:1;fill-rule:nonzero;stroke:none"
         id="path8999"
         inkscape:connector-curvature="0" />
    </g>
    <g
       id="g9001"
       transform="matrix(0.35277777,0,0,-0.35277777,-27.642475,157.43572)">
      <path
         d="M 0,0 C 0.199,0.344 0.441,0.61 0.716,0.823 V 9.554 H -0.715 V 0.823 C -0.441,0.61 -0.198,0.344 0,0"
         style="fill:#ffffff;fill-opacity:1;fill-rule:nonzero;stroke:none"
         id="path9003"
         inkscape:connector-curvature="0" />
    </g>
    <g
       id="g9005"
       transform="matrix(0.35277777,0,0,-0.35277777,-28.182913,154.06511)">
      <path
         d="M 0,0 H -1.431 V -7.848 C -0.935,-7.966 -0.447,-8.086 0,-8.271 Z"
         style="fill:#ffffff;fill-opacity:1;fill-rule:nonzero;stroke:none"
         id="path9007"
         inkscape:connector-curvature="0" />
    </g>
    <g
       id="g9009"
       transform="matrix(0.35277777,0,0,-0.35277777,-28.97587,154.06511)">
      <path
         d="M 0,0 H -1.431 V -7.092 C -0.985,-7.35 -0.497,-7.514 0,-7.647 Z"
         style="fill:#ffffff;fill-opacity:1;fill-rule:nonzero;stroke:none"
         id="path9011"
         inkscape:connector-curvature="0" />
    </g>
    <g
       id="g9013"
       transform="matrix(0.35277777,0,0,-0.35277777,-30.210151,154.06511)">
      <path
         d="m 0,0 v -1.959 c 0,-2.347 0.502,-3.68 1.251,-4.487 V 0 Z"
         style="fill:#ffffff;fill-opacity:1;fill-rule:nonzero;stroke:none"
         id="path9015"
         inkscape:connector-curvature="0" />
    </g>
    <g
       id="g9017"
       transform="matrix(0.35277777,0,0,-0.35277777,-25.516178,156.33915)">
      <path
         d="M 0,0 C 0.749,0.807 1.251,2.14 1.251,4.487 V 6.446 H 0 Z"
         style="fill:#ffffff;fill-opacity:1;fill-rule:nonzero;stroke:none"
         id="path9019"
         inkscape:connector-curvature="0" />
    </g>
    <g
       id="g9021"
       transform="matrix(0.35277777,0,0,-0.35277777,-25.804256,154.06511)">
      <path
         d="M 0,0 H -1.431 V -7.647 C -0.934,-7.514 -0.446,-7.35 0,-7.092 Z"
         style="fill:#ffffff;fill-opacity:1;fill-rule:nonzero;stroke:none"
         id="path9023"
         inkscape:connector-curvature="0" />
    </g>
    <g
       id="g9025"
       transform="matrix(0.35277777,0,0,-0.35277777,-26.597107,154.06511)">
      <path
         d="m 0,0 h -1.431 v -8.271 c 0.447,0.185 0.935,0.305 1.431,0.423 z"
         style="fill:#ffffff;fill-opacity:1;fill-rule:nonzero;stroke:none"
         id="path9027"
         inkscape:connector-curvature="0" />
    </g>
    <g
       id="g9029"
       transform="matrix(0.35277777,0,0,-0.35277777,-29.261434,156.82136)">
      <path
         d="m 0,0 c -1.789,-1.356 -4.239,-1.036 -4.239,-1.036 -1.877,1.021 -3.977,0.769 -3.977,0.769 -0.068,-0.127 0,0 0,0 1.742,-2.072 2.468,-5.079 2.468,-5.079 -0.136,-0.304 -0.797,-0.914 -0.797,-0.914 -0.342,2.563 -1.749,4.796 -1.749,4.796 0,0 -0.077,-0.525 -0.739,-0.68 -0.978,-0.23 -1.246,0.53 -1.246,0.53 0,0 -0.397,-0.112 -0.702,0.17 -0.418,0.387 -0.173,0.879 -0.173,0.879 0,0 -0.762,0.546 -0.387,1.474 0.486,1.206 1.886,0.668 1.886,0.668 0.04,0.104 0.622,0.946 1.424,0.474 0.801,-0.473 0.151,-1.609 0.151,-1.609 1.264,-0.184 2.557,0.234 2.557,0.234 0,0 0.71,1.614 2.559,3.02 C -2.499,0.841 -0.73,0.306 0,0"
         style="fill:#ffffff;fill-opacity:1;fill-rule:nonzero;stroke:none"
         id="path9031"
         inkscape:connector-curvature="0" />
    </g>
    <g
       id="g9033"
       transform="matrix(0.35277777,0,0,-0.35277777,-26.023543,156.82136)">
      <path
         d="m 0,0 c 1.79,-1.356 4.239,-1.036 4.239,-1.036 1.877,1.021 3.977,0.769 3.977,0.769 C 8.284,-0.394 8.257,-0.605 8.257,-0.605 6.806,-2.543 5.97,-5.51 5.97,-5.51 c 0.136,-0.303 0.575,-0.75 0.575,-0.75 0.342,2.563 1.749,4.796 1.749,4.796 0,0 0.078,-0.525 0.739,-0.68 0.978,-0.23 1.246,0.53 1.246,0.53 0,0 0.397,-0.112 0.702,0.17 0.418,0.387 0.173,0.879 0.173,0.879 0,0 0.762,0.546 0.387,1.474 C 11.055,2.115 9.655,1.577 9.655,1.577 9.615,1.681 9.033,2.523 8.231,2.051 7.43,1.578 8.08,0.442 8.08,0.442 6.816,0.258 5.523,0.676 5.523,0.676 c 0,0 -0.71,1.614 -2.559,3.02 C 2.499,0.841 0.73,0.306 0,0"
         style="fill:#ffffff;fill-opacity:1;fill-rule:nonzero;stroke:none"
         id="path9035"
         inkscape:connector-curvature="0" />
    </g>
    <g
       id="g9037"
       transform="matrix(0.35277777,0,0,-0.35277777,-27.641761,161.42857)">
      <path
         d="M 0,0 C 0.767,0.529 0.893,1.536 0.893,1.536 1.341,0.702 2.175,0.58 2.175,0.58 2.788,1.503 2.632,2.748 2.632,2.748 3.079,1.941 3.964,1.727 3.964,1.727 4.353,2.904 4.091,4.226 4.091,4.226 4.557,3.613 5.462,3.438 5.462,3.438 c 0,0.409 0.009,1.712 -0.574,2.917 0,0 0.457,-0.369 1.767,-0.452 -0.853,4.04 -3.674,5.911 -3.855,6.01 0.124,0.247 0.15,0.481 0.133,0.698 -1.1,-0.263 -2.213,-0.645 -2.935,-2.085 -0.722,1.44 -1.835,1.822 -2.935,2.085 -0.017,-0.217 0.009,-0.451 0.133,-0.698 -0.182,-0.099 -3.002,-1.97 -3.855,-6.01 1.31,0.083 1.767,0.452 1.767,0.452 -0.584,-1.205 -0.574,-2.508 -0.574,-2.917 0,0 0.904,0.175 1.371,0.788 0,0 -0.262,-1.322 0.126,-2.499 0,0 0.885,0.214 1.333,1.021 0,0 -0.156,-1.245 0.457,-2.168 0,0 0.834,0.122 1.282,0.956 0,0 0.13,-1.007 0.897,-1.536"
         style="fill:#ffffff;fill-opacity:1;fill-rule:evenodd;stroke:none"
         id="path9039"
         inkscape:connector-curvature="0" />
    </g>
    <g
       id="g9041"
       transform="matrix(0.35277777,0,0,-0.35277777,-35.635697,160.71038)">
      <path
         d="M 0,0 0.446,-0.253 2.994,2.779 3.511,2.466 C 3.358,1.161 3.238,-1.002 3.266,-1.907 L 5.062,0.288 4.537,0.843 4.836,1.247 6.317,0.001 5.975,-0.357 5.49,-0.073 3.313,-2.664 3.7,-3.112 3.353,-3.467 2.229,-2.521 c -0.015,0.939 0.036,2.644 0.153,3.76 L 0.875,-0.613 1.414,-1.189 1.067,-1.544 -0.342,-0.359 Z"
         style="fill:#ffffff;fill-opacity:1;fill-rule:nonzero;stroke:none"
         id="path9043"
         inkscape:connector-curvature="0" />
    </g>
    <g
       id="g9045"
       transform="matrix(0.35277777,0,0,-0.35277777,-36.166636,159.86537)">
      <path
         d="M 0,0 0.024,-0.028 C 0.437,0.168 1.338,0.545 1.665,0.677 L 0.95,1.515 C 0.65,1.021 0.251,0.386 0,0 M 2.471,2.659 2.07,2.356 1.656,2.707 C 1.522,2.462 1.45,2.31 1.245,1.963 L 2.158,0.894 c 0.265,0.111 0.55,0.2 0.799,0.289 L 2.684,1.637 3.045,1.987 4.124,0.724 3.727,0.426 3.401,0.663 c -1.06,-0.324 -2.6,-0.879 -3.975,-1.464 l -0.562,0.658 C -0.58,0.7 0.388,2.492 0.908,3.582 L 0.717,3.95 1.077,4.291 Z"
         style="fill:#ffffff;fill-opacity:1;fill-rule:nonzero;stroke:none"
         id="path9047"
         inkscape:connector-curvature="0" />
    </g>
    <g
       id="g9049"
       transform="matrix(0.35277777,0,0,-0.35277777,-37.360754,157.92319)">
      <path
         d="M 0,0 0.288,-0.325 -0.427,-0.918 0.057,-1.598 2.898,0.229 2.671,0.756 3.07,1.05 4.258,-0.797 3.825,-1.038 3.44,-0.613 0.599,-2.44 0.992,-3.126 1.853,-2.758 2.032,-3.16 0.841,-3.955 l -0.983,1.616 -1.109,1.638 z"
         style="fill:#ffffff;fill-opacity:1;fill-rule:nonzero;stroke:none"
         id="path9051"
         inkscape:connector-curvature="0" />
    </g>
    <g
       id="g9053"
       transform="matrix(0.35277777,0,0,-0.35277777,-36.486994,157.17996)">
      <path
         d="m 0,0 -0.459,-0.188 -0.332,0.468 -3.045,-1.479 0.177,-0.578 -0.461,-0.182 -0.944,1.941 0.459,0.188 0.332,-0.468 3.045,1.479 -0.163,0.55 0.432,0.244 z"
         style="fill:#ffffff;fill-opacity:1;fill-rule:nonzero;stroke:none"
         id="path9055"
         inkscape:connector-curvature="0" />
    </g>
    <g
       id="g9057"
       transform="matrix(0.35277777,0,0,-0.35277777,-38.525794,156.0535)">
      <path
         d="M 0,0 C 0.198,-0.596 0.845,-0.932 2.077,-0.523 3.246,-0.135 3.632,0.465 3.422,1.097 3.206,1.746 2.443,1.964 1.35,1.602 0.144,1.201 -0.192,0.578 0,0 M 3.975,1.214 C 4.322,0.17 3.902,-1.091 2.517,-1.55 1.012,-2.05 -0.127,-1.379 -0.535,-0.151 -0.907,0.97 -0.429,2.184 0.936,2.638 2.473,3.148 3.581,2.401 3.975,1.214"
         style="fill:#ffffff;fill-opacity:1;fill-rule:nonzero;stroke:none"
         id="path9059"
         inkscape:connector-curvature="0" />
    </g>
    <g
       id="g9061"
       transform="matrix(0.35277777,0,0,-0.35277777,-39.103617,153.25016)">
      <path
         d="m 0,0 0.165,-0.485 3.92,0.569 0.178,-0.578 C 3.281,-1.366 1.754,-2.902 1.172,-3.596 L 3.974,-3.152 3.95,-2.388 4.443,-2.285 4.721,-4.2 4.227,-4.241 4.054,-3.706 0.704,-4.192 0.695,-4.785 0.2,-4.819 -0.011,-3.366 c 0.613,0.712 1.785,1.951 2.615,2.707 L 0.246,-1.04 0.266,-1.829 -0.229,-1.863 -0.494,-0.04 Z"
         style="fill:#ffffff;fill-opacity:1;fill-rule:nonzero;stroke:none"
         id="path9063"
         inkscape:connector-curvature="0" />
    </g>
    <g
       id="g9065"
       transform="matrix(0.35277777,0,0,-0.35277777,-38.937326,152.26591)">
      <path
         d="M 0,0 -0.001,-0.037 C 0.438,-0.164 1.362,-0.482 1.694,-0.6 L 1.716,0.5 C 1.164,0.331 0.444,0.122 0,0 M 3.613,0.344 3.112,0.385 3.036,0.922 C 2.773,0.828 2.618,0.762 2.234,0.639 L 2.206,-0.766 C 2.478,-0.859 2.75,-0.983 2.995,-1.081 L 3.093,-0.56 3.595,-0.539 3.561,-2.2 3.067,-2.159 2.981,-1.765 c -1.007,0.462 -2.527,1.071 -3.942,1.548 l 0.017,0.864 c 0.976,0.261 2.89,0.956 4.003,1.425 L 3.161,2.475 3.656,2.49 Z"
         style="fill:#ffffff;fill-opacity:1;fill-rule:nonzero;stroke:none"
         id="path9067"
         inkscape:connector-curvature="0" />
    </g>
    <g
       id="g9069"
       transform="matrix(0.35277777,0,0,-0.35277777,-37.428937,150.21881)">
      <path
         d="m 0,0 c -0.026,-0.122 -0.124,-0.516 -0.156,-0.712 l -0.414,-2.573 -0.484,0.109 -0.002,0.574 -3.342,0.538 -0.188,-0.575 -0.482,0.116 0.351,2.18 0.484,-0.109 -0.006,-0.623 3.362,-0.542 0.174,1.081 -0.927,0.345 0.125,0.44 z"
         style="fill:#ffffff;fill-opacity:1;fill-rule:nonzero;stroke:none"
         id="path9071"
         inkscape:connector-curvature="0" />
    </g>
    <g
       id="g9073"
       transform="matrix(0.35277777,0,0,-0.35277777,-37.84346,148.02552)">
      <path
         d="m 0,0 -0.115,-0.448 -0.913,0.23 c -0.18,-0.16 -0.335,-0.388 -0.424,-0.627 -0.229,-0.625 0.057,-1.32 1.35,-1.796 1.061,-0.39 1.774,-0.043 2.014,0.611 0.076,0.205 0.12,0.5 0.075,0.689 l -0.86,0.529 0.207,0.427 1.312,-0.482 C 2.704,-1.293 2.562,-1.93 2.429,-2.292 c -0.43,-1.168 -1.54,-1.9 -2.928,-1.39 -1.557,0.573 -1.909,1.883 -1.506,2.981 0.149,0.403 0.45,0.988 0.759,1.285 z"
         style="fill:#ffffff;fill-opacity:1;fill-rule:nonzero;stroke:none"
         id="path9075"
         inkscape:connector-curvature="0" />
    </g>
    <g
       id="g9077"
       transform="matrix(0.35277777,0,0,-0.35277777,-36.065168,147.07718)">
      <path
         d="m 0,0 -2.725,-0.4 -0.121,-0.218 -0.389,0.387 0.253,0.387 c 0.032,0.195 -0.24,0.56 -0.573,0.745 -0.462,0.257 -0.774,0.096 -0.97,-0.258 -0.039,-0.071 -0.1,-0.208 -0.167,-0.341 l 3.005,-1.671 0.345,0.428 0.448,-0.214 -1.04,-1.87 -0.417,0.267 0.193,0.541 -2.959,1.644 -0.372,-0.476 -0.414,0.273 0.562,1.011 c 0,0 0.445,0.885 0.536,1.048 0.366,0.658 1.014,0.902 1.698,0.522 0.503,-0.279 0.714,-0.781 0.626,-1.174 l 0.018,-0.009 2.632,0.11 z"
         style="fill:#ffffff;fill-opacity:1;fill-rule:nonzero;stroke:none"
         id="path9079"
         inkscape:connector-curvature="0" />
    </g>
    <g
       id="g9081"
       transform="matrix(0.35277777,0,0,-0.35277777,-35.221042,145.82707)">
      <path
         d="m 0,0 c -0.081,-0.095 -0.399,-0.454 -0.521,-0.612 l -1.603,-2.087 -0.374,0.327 0.271,0.506 -2.684,2.064 -0.438,-0.417 -0.37,0.331 1.953,2.541 0.845,-0.744 -0.219,-0.428 -0.561,0.345 -0.633,-0.824 1.108,-0.852 0.584,0.76 -0.341,0.434 0.303,0.34 0.58,-0.508 0.693,-0.471 -0.256,-0.376 -0.55,0.25 -0.583,-0.759 1.198,-0.922 0.743,0.967 -0.497,0.594 0.327,0.337 z"
         style="fill:#ffffff;fill-opacity:1;fill-rule:nonzero;stroke:none"
         id="path9083"
         inkscape:connector-curvature="0" />
    </g>
    <g
       id="g9085"
       transform="matrix(0.35277777,0,0,-0.35277777,-35.545183,144.09853)">
      <path
         d="m 0,0 c -0.144,-0.137 -0.239,-0.254 -0.356,-0.384 l 2.382,-2.507 c 0.136,0.101 0.308,0.236 0.452,0.373 0.586,0.557 0.473,1.326 -0.315,2.156 C 1.283,0.564 0.555,0.527 0,0 M 2.951,-2.844 C 2.707,-3.075 2.016,-3.667 2.016,-3.667 l -0.753,-0.715 -0.318,0.38 0.346,0.458 -2.332,2.454 -0.497,-0.344 -0.314,0.385 0.685,0.651 c 0,0 0.599,0.634 0.848,0.87 0.969,0.921 2.221,1.049 3.235,-0.018 1.115,-1.174 0.95,-2.428 0.035,-3.298"
         style="fill:#ffffff;fill-opacity:1;fill-rule:nonzero;stroke:none"
         id="path9087"
         inkscape:connector-curvature="0" />
    </g>
    <g
       id="g9089"
       transform="matrix(0.35277777,0,0,-0.35277777,-33.811553,144.47093)">
      <path
         d="M 0,0 -0.266,0.419 0.136,0.828 -1.855,3.565 -2.393,3.289 -2.654,3.712 -0.909,4.982 -0.643,4.563 -1.045,4.154 0.946,1.417 1.459,1.674 1.776,1.292 Z"
         style="fill:#ffffff;fill-opacity:1;fill-rule:nonzero;stroke:none"
         id="path9091"
         inkscape:connector-curvature="0" />
    </g>
    <g
       id="g9093"
       transform="matrix(0.35277777,0,0,-0.35277777,-32.446885,142.29961)">
      <path
         d="M 0,0 -0.342,-0.268 -0.89,0.483 -1.599,0.041 0.05,-2.908 l 0.54,0.195 0.268,-0.417 -1.917,-1.072 -0.214,0.447 0.448,0.359 -1.648,2.948 -0.709,-0.35 0.314,-0.882 -0.413,-0.154 -0.72,1.238 1.674,0.882 1.705,1.006 z"
         style="fill:#ffffff;fill-opacity:1;fill-rule:nonzero;stroke:none"
         id="path9095"
         inkscape:connector-curvature="0" />
    </g>
    <g
       id="g9097"
       transform="matrix(0.35277777,0,0,-0.35277777,-30.230233,141.16342)">
      <path
         d="m 0,0 -0.459,-0.241 0.707,-2.28 c 0.274,-0.882 -0.039,-1.742 -1.043,-2.054 -1.206,-0.374 -1.91,-0.019 -2.237,1.036 l -0.707,2.28 -0.551,-0.073 -0.111,0.484 2.068,0.642 0.117,-0.482 -0.567,-0.274 0.692,-2.229 c 0.185,-0.595 0.476,-0.945 1.153,-0.735 0.6,0.186 0.778,0.662 0.586,1.281 l -0.006,0.02 -0.707,2.196 -0.611,-0.091 -0.105,0.485 1.664,0.517 z"
         style="fill:#ffffff;fill-opacity:1;fill-rule:nonzero;stroke:none"
         id="path9099"
         inkscape:connector-curvature="0" />
    </g>
    <g
       id="g9101"
       transform="matrix(0.35277777,0,0,-0.35277777,-28.164181,140.86487)">
      <path
         d="m 0,0 -0.488,-0.156 0.493,-3.929 -0.581,-0.167 c -0.852,0.999 -2.358,2.556 -3.041,3.151 l 0.39,-2.809 0.764,0.008 0.093,-0.494 -1.919,-0.241 -0.031,0.495 0.538,0.162 -0.422,3.359 -0.592,0.02 -0.024,0.495 1.456,0.183 c 0.7,-0.627 1.916,-1.823 2.655,-2.667 l -0.335,2.365 -0.789,-0.005 -0.025,0.496 1.827,0.229 z"
         style="fill:#ffffff;fill-opacity:1;fill-rule:nonzero;stroke:none"
         id="path9103"
         inkscape:connector-curvature="0" />
    </g>
    <g
       id="g9105"
       transform="matrix(0.35277777,0,0,-0.35277777,-27.839034,142.30949)">
      <path
         d="M 0,0 0.039,0.495 0.607,0.579 0.662,3.964 0.066,4.067 0.112,4.562 2.27,4.527 2.231,4.033 1.663,3.948 1.608,0.563 2.173,0.46 2.196,-0.035 Z"
         style="fill:#ffffff;fill-opacity:1;fill-rule:nonzero;stroke:none"
         id="path9107"
         inkscape:connector-curvature="0" />
    </g>
    <g
       id="g9109"
       transform="matrix(0.35277777,0,0,-0.35277777,-25.921308,140.98904)">
      <path
         d="m 0,0 c -0.622,0.088 -1.211,-0.342 -1.392,-1.627 -0.172,-1.219 0.194,-1.831 0.853,-1.924 0.677,-0.096 1.213,0.49 1.373,1.629 C 1.012,-0.663 0.604,-0.085 0,0 m -0.679,-4.099 c -1.091,0.154 -2.033,1.091 -1.829,2.535 0.222,1.57 1.329,2.291 2.61,2.11 C 1.273,0.381 2.148,-0.587 1.947,-2.011 1.72,-3.614 0.559,-4.274 -0.679,-4.099"
         style="fill:#ffffff;fill-opacity:1;fill-rule:nonzero;stroke:none"
         id="path9111"
         inkscape:connector-curvature="0" />
    </g>
    <g
       id="g9113"
       transform="matrix(0.35277777,0,0,-0.35277777,-23.154084,141.71735)">
      <path
         d="m 0,0 -0.508,0.068 -1.232,-3.764 -0.597,0.097 c -0.345,1.268 -1.042,3.319 -1.405,4.149 l -0.847,-2.707 0.694,-0.319 -0.126,-0.487 -1.84,0.603 0.184,0.461 0.556,-0.084 1.053,3.217 -0.527,0.271 0.19,0.459 1.395,-0.457 c 0.365,-0.866 0.954,-2.467 1.262,-3.546 l 0.708,2.281 -0.716,0.333 0.189,0.459 1.751,-0.573 z"
         style="fill:#ffffff;fill-opacity:1;fill-rule:nonzero;stroke:none"
         id="path9115"
         inkscape:connector-curvature="0" />
    </g>
    <g
       id="g9117"
       transform="matrix(0.35277777,0,0,-0.35277777,-21.844423,142.5805)">
      <path
         d="m 0,0 -0.032,0.019 c -0.327,-0.32 -1.057,-0.969 -1.323,-1.2 l 0.948,-0.56 C -0.284,-1.177 -0.112,-0.447 0,0 m -1.476,-3.316 0.282,0.416 0.505,-0.197 c 0.047,0.275 0.066,0.442 0.148,0.837 l -1.21,0.715 c -0.215,-0.192 -0.456,-0.368 -0.663,-0.533 l 0.406,-0.341 -0.228,-0.448 -1.43,0.845 0.278,0.41 0.385,-0.118 c 0.898,0.65 2.176,1.675 3.286,2.674 L 1.028,0.504 C 0.775,-0.474 0.44,-2.483 0.302,-3.683 l 0.3,-0.286 -0.23,-0.439 z"
         style="fill:#ffffff;fill-opacity:1;fill-rule:nonzero;stroke:none"
         id="path9119"
         inkscape:connector-curvature="0" />
    </g>
    <g
       id="g9121"
       transform="matrix(0.35277777,0,0,-0.35277777,-20.228004,143.51705)">
      <path
         d="M 0,0 C -0.153,0.127 -0.281,0.208 -0.423,0.309 L -2.636,-2.35 c 0.116,-0.123 0.271,-0.277 0.424,-0.405 0.621,-0.517 1.372,-0.315 2.104,0.564 C 0.71,-1.209 0.588,-0.49 0,0 m -2.481,-3.262 c -0.258,0.215 -0.926,0.832 -0.926,0.832 l -0.799,0.665 0.341,0.36 0.495,-0.29 2.166,2.602 -0.399,0.454 0.345,0.357 0.727,-0.605 c 0,0 0.699,-0.522 0.962,-0.741 1.028,-0.856 1.301,-2.084 0.359,-3.215 -1.035,-1.245 -2.3,-1.227 -3.271,-0.419"
         style="fill:#ffffff;fill-opacity:1;fill-rule:nonzero;stroke:none"
         id="path9123"
         inkscape:connector-curvature="0" />
    </g>
    <g
       id="g9125"
       transform="matrix(0.35277777,0,0,-0.35277777,-19.525482,146.28269)">
      <path
         d="M 0,0 0.404,0.288 0.892,-0.165 C 1.515,0.437 2.487,1.299 3.046,1.778 2.313,1.567 0.682,0.995 -0.416,0.512 L -0.934,1.149 C -0.307,2.043 0.629,3.501 1.027,4.273 0.463,3.832 -0.758,2.927 -1.305,2.539 l 0.304,-0.522 -0.369,-0.332 -1.122,1.381 0.404,0.288 0.41,-0.356 c 0.883,0.589 2.319,1.612 2.764,1.966 l -0.298,0.494 0.418,0.292 1,-1.231 C 1.793,3.702 1.036,2.405 0.363,1.409 1.175,1.757 2.966,2.322 3.819,2.534 L 4.812,1.312 4.437,0.968 3.994,1.385 C 3.308,0.82 2.207,-0.203 1.497,-0.908 L 1.793,-1.421 1.428,-1.758 Z"
         style="fill:#ffffff;fill-opacity:1;fill-rule:nonzero;stroke:none"
         id="path9127"
         inkscape:connector-curvature="0" />
    </g>
    <g
       id="g9129"
       transform="matrix(0.35277777,0,0,-0.35277777,-19.012905,147.01178)">
      <path
         d="M 0,0 0.443,0.222 0.809,-0.22 3.735,1.482 3.516,2.045 3.963,2.262 5.048,0.396 4.605,0.174 4.239,0.616 1.313,-1.086 1.517,-1.622 1.104,-1.898 Z"
         style="fill:#ffffff;fill-opacity:1;fill-rule:nonzero;stroke:none"
         id="path9131"
         inkscape:connector-curvature="0" />
    </g>
    <g
       id="g9133"
       transform="matrix(0.35277777,0,0,-0.35277777,-16.555931,148.82922)">
      <path
         d="m 0,0 -0.278,0.43 -3.664,-1.503 -0.313,0.517 c 0.741,1.084 1.85,2.944 2.246,3.759 l -2.61,-1.112 0.208,-0.735 -0.452,-0.219 -0.735,1.79 0.47,0.159 0.297,-0.477 3.131,1.286 -0.135,0.576 0.472,0.154 0.557,-1.359 C -1.228,2.427 -2.064,0.941 -2.686,0.007 l 2.195,0.941 -0.21,0.761 0.472,0.153 0.699,-1.703 z"
         style="fill:#ffffff;fill-opacity:1;fill-rule:nonzero;stroke:none"
         id="path9135"
         inkscape:connector-curvature="0" />
    </g>
    <g
       id="g9137"
       transform="matrix(0.35277777,0,0,-0.35277777,-17.867524,149.52267)">
      <path
         d="M 0,0 0.487,0.093 0.719,-0.432 3.997,0.411 3.939,1.013 4.428,1.1 4.966,-0.99 4.478,-1.083 4.247,-0.558 0.969,-1.402 1.019,-1.973 0.547,-2.127 Z"
         style="fill:#ffffff;fill-opacity:1;fill-rule:nonzero;stroke:none"
         id="path9139"
         inkscape:connector-curvature="0" />
    </g>
    <g
       id="g9141"
       transform="matrix(0.35277777,0,0,-0.35277777,-17.586272,150.93135)">
      <path
         d="M 0,0 C -0.072,0.499 -0.045,1.012 0.136,1.352 L 1.33,1.512 1.49,1.057 0.703,0.843 C 0.606,0.716 0.524,0.446 0.563,0.169 0.612,-0.163 0.833,-0.433 1.184,-0.383 2.13,-0.246 1.927,1.541 3.178,1.722 3.999,1.84 4.588,1.177 4.7,0.401 4.754,0.025 4.771,-0.419 4.708,-0.736 L 3.483,-0.862 3.338,-0.418 4.133,-0.215 C 4.181,-0.076 4.215,0.111 4.192,0.271 4.146,0.591 3.933,0.844 3.556,0.789 2.788,0.678 2.848,-1.192 1.564,-1.377 0.743,-1.496 0.124,-0.862 0,0"
         style="fill:#ffffff;fill-opacity:1;fill-rule:nonzero;stroke:none"
         id="path9143"
         inkscape:connector-curvature="0" />
    </g>
    <g
       id="g9145"
       transform="matrix(0.35277777,0,0,-0.35277777,-16.331829,152.9692)">
      <path
         d="M 0,0 -0.074,0.428 0.848,0.555 0.794,1.388 -2.584,1.333 -2.669,0.765 -3.163,0.726 -3.198,2.922 -2.703,2.898 -2.6,2.334 0.778,2.389 0.806,3.18 -0.12,3.32 -0.06,3.757 1.371,3.805 1.354,1.913 1.433,-0.064 Z"
         style="fill:#ffffff;fill-opacity:1;fill-rule:nonzero;stroke:none"
         id="path9147"
         inkscape:connector-curvature="0" />
    </g>
    <g
       id="g9149"
       transform="matrix(0.35277777,0,0,-0.35277777,-17.705122,154.36917)">
      <path
         d="M 0,0 2.399,1.354 2.434,1.6 2.936,1.379 2.839,0.928 C 2.88,0.734 3.264,0.491 3.642,0.438 c 0.523,-0.073 0.756,0.19 0.812,0.59 0.011,0.08 0.019,0.23 0.033,0.378 L 1.082,1.884 0.914,1.361 0.419,1.398 0.716,3.518 1.202,3.418 1.216,2.844 4.569,2.375 4.745,2.953 5.23,2.848 5.069,1.702 c 0,0 -0.098,-0.985 -0.124,-1.17 C 4.841,-0.213 4.324,-0.675 3.548,-0.566 2.979,-0.486 2.601,-0.094 2.542,0.303 L 2.522,0.306 0.105,-0.743 Z"
         style="fill:#ffffff;fill-opacity:1;fill-rule:nonzero;stroke:none"
         id="path9151"
         inkscape:connector-curvature="0" />
    </g>
    <g
       id="g9153"
       transform="matrix(0.35277777,0,0,-0.35277777,-16.616018,155.54745)">
      <path
         d="m 0,0 0.01,0.036 c -0.39,0.237 -1.199,0.785 -1.488,0.986 l -0.31,-1.057 C -1.21,-0.016 -0.46,-0.001 0,0 m -3.578,0.612 0.473,-0.171 -0.067,-0.537 c 0.278,0.022 0.445,0.044 0.848,0.063 l 0.395,1.349 c -0.239,0.16 -0.469,0.351 -0.68,0.51 L -2.84,1.349 -3.33,1.46 -2.864,3.054 -2.397,2.885 -2.417,2.483 c 0.852,-0.71 2.16,-1.695 3.402,-2.525 l -0.243,-0.83 c -1.01,0.004 -3.04,-0.167 -4.237,-0.329 l -0.204,-0.362 -0.482,0.115 z"
         style="fill:#ffffff;fill-opacity:1;fill-rule:nonzero;stroke:none"
         id="path9155"
         inkscape:connector-curvature="0" />
    </g>
    <g
       id="g9157"
       transform="matrix(0.35277777,0,0,-0.35277777,-17.589552,157.61095)">
      <path
         d="M 0,0 0.115,0.419 1.003,0.144 1.307,0.921 -1.776,2.302 -2.093,1.824 -2.557,1.998 -1.659,4.002 -1.22,3.771 -1.366,3.217 1.717,1.835 2.077,2.54 1.298,3.06 1.537,3.43 2.854,2.867 2.038,1.16 1.271,-0.665 Z"
         style="fill:#ffffff;fill-opacity:1;fill-rule:nonzero;stroke:none"
         id="path9159"
         inkscape:connector-curvature="0" />
    </g>
    <g
       id="g9161"
       transform="matrix(0.35277777,0,0,-0.35277777,-18.689372,157.28417)">
      <path
         d="M 0,0 0.408,-0.281 0.197,-0.815 3.099,-2.557 3.487,-2.093 3.892,-2.38 2.781,-4.23 2.373,-3.949 2.584,-3.416 -0.318,-1.674 -0.69,-2.111 -1.13,-1.883 Z"
         style="fill:#ffffff;fill-opacity:1;fill-rule:nonzero;stroke:none"
         id="path9163"
         inkscape:connector-curvature="0" />
    </g>
    <g
       id="g9165"
       transform="matrix(0.35277777,0,0,-0.35277777,-18.518716,159.60781)">
      <path
         d="M 0,0 C 0.391,0.492 0.318,1.217 -0.699,2.025 -1.663,2.79 -2.376,2.785 -2.79,2.264 -3.216,1.728 -2.981,0.969 -2.08,0.254 -1.084,-0.537 -0.379,-0.477 0,0 m -3.192,2.662 c 0.685,0.862 1.97,1.2 3.113,0.293 1.241,-0.986 1.303,-2.307 0.498,-3.32 -0.735,-0.926 -2.013,-1.19 -3.139,-0.295 -1.268,1.007 -1.249,2.343 -0.472,3.322"
         style="fill:#ffffff;fill-opacity:1;fill-rule:nonzero;stroke:none"
         id="path9167"
         inkscape:connector-curvature="0" />
    </g>
    <g
       id="g9169"
       transform="matrix(0.35277777,0,0,-0.35277777,-20.544366,161.62655)">
      <path
         d="m 0,0 0.315,0.404 -2.627,2.964 0.385,0.467 C -0.659,3.493 1.463,3.059 2.363,2.953 L 0.453,5.052 -0.172,4.613 -0.528,4.968 0.919,6.252 1.224,5.86 0.872,5.423 3.117,2.89 3.617,3.208 3.917,2.812 2.819,1.838 C 1.888,1.96 0.209,2.26 -0.878,2.539 l 1.612,-1.763 0.649,0.45 0.3,-0.395 -1.378,-1.222 z"
         style="fill:#ffffff;fill-opacity:1;fill-rule:nonzero;stroke:none"
         id="path9171"
         inkscape:connector-curvature="0" />
    </g>
    <g
       id="g9173"
       transform="matrix(0.35277777,0,0,-0.35277777,-29.821637,163.49204)">
      <path
         d="M 0,0 C -0.126,-0.596 -0.063,-0.705 0.527,-0.865 L 0.441,-1.27 c -0.514,0.116 -0.718,0.166 -1.186,0.265 -0.48,0.103 -0.702,0.143 -1.266,0.256 l 0.086,0.406 c 0.688,-0.105 0.813,-0.023 0.95,0.619 l 0.518,2.441 C -0.858,2.556 -1.104,2.478 -1.566,2.364 l 0.144,0.681 c 0.323,0.068 0.794,0.221 1.216,0.385 L 0.687,3.24 Z"
         style="fill:#ffffff;fill-opacity:1;fill-rule:nonzero;stroke:none"
         id="path9175"
         inkscape:connector-curvature="0" />
    </g>
    <g
       id="g9177"
       transform="matrix(0.35277777,0,0,-0.35277777,-28.397914,162.66241)">
      <path
         d="m 0,0 c -0.518,0.037 -0.874,-0.314 -0.917,-0.921 -0.042,-0.587 0.263,-0.957 0.796,-0.995 0.532,-0.038 0.902,0.305 0.942,0.872 C 0.862,-0.457 0.54,-0.038 0,0 m -1.212,-2.697 0.003,-0.155 c 0.01,-0.463 0.202,-0.631 0.756,-0.67 0.441,-0.032 0.806,0.144 1.013,0.485 0.135,0.225 0.182,0.389 0.259,0.974 -0.479,-0.395 -0.71,-0.48 -1.194,-0.445 -0.995,0.07 -1.532,0.644 -1.465,1.579 0.073,1.041 0.723,1.565 1.837,1.486 1.339,-0.095 1.886,-0.824 1.779,-2.339 -0.117,-1.642 -0.846,-2.395 -2.227,-2.297 -0.469,0.033 -0.926,0.146 -1.406,0.334 l 0.02,0.18 c 0.016,0.126 0.024,0.24 0.032,0.353 0.008,0.113 0.017,0.234 0.019,0.361 l 0.006,0.194 z"
         style="fill:#ffffff;fill-opacity:1;fill-rule:nonzero;stroke:none"
         id="path9179"
         inkscape:connector-curvature="0" />
    </g>
    <g
       id="g9181"
       transform="matrix(0.35277777,0,0,-0.35277777,-26.938419,163.14081)">
      <path
         d="M 0,0 C 0.798,0.061 1.112,0.286 1.076,0.766 1.045,1.167 0.705,1.382 0.165,1.341 -0.395,1.298 -0.558,1.132 -0.56,0.595 L -0.562,0.44 -1.136,0.396 c -0.013,0.261 -0.02,0.361 -0.034,0.541 -0.008,0.107 -0.018,0.234 -0.036,0.38 L -1.224,1.544 C -0.698,1.758 -0.269,1.865 0.2,1.901 1.335,1.987 2.019,1.603 2.078,0.836 2.117,0.316 1.881,-0.011 1.332,-0.2 1.677,-0.281 1.807,-0.332 1.973,-0.474 2.184,-0.652 2.295,-0.912 2.321,-1.252 2.388,-2.133 1.793,-2.648 0.617,-2.737 c -0.532,-0.041 -1,-0.01 -1.521,0.092 -0.011,0.234 -0.018,0.32 -0.036,0.554 -0.011,0.153 -0.023,0.3 -0.04,0.44 l -0.015,0.2 0.574,0.043 c 0.092,-0.65 0.257,-0.785 0.901,-0.736 0.567,0.043 0.874,0.362 0.837,0.849 -0.028,0.367 -0.258,0.618 -0.628,0.67 -0.2,0.032 -0.285,0.032 -0.642,0.011 z"
         style="fill:#ffffff;fill-opacity:1;fill-rule:nonzero;stroke:none"
         id="path9183"
         inkscape:connector-curvature="0" />
    </g>
    <g
       id="g9185"
       transform="matrix(0.35277777,0,0,-0.35277777,-25.052443,162.7258)">
      <path
         d="M 0,0 -0.054,0.269 -0.091,0.46 -0.109,0.572 C -0.237,0.186 -0.349,-0.08 -0.558,-0.519 l -0.497,-1.041 1.342,0.308 z m 2.092,-1.456 -0.739,-0.169 0.043,-0.19 c 0.093,-0.404 0.207,-0.46 0.717,-0.391 L 2.213,-2.643 1.849,-2.72 C 1.609,-2.775 1.361,-2.825 1.101,-2.884 0.711,-2.974 0.507,-3.027 0.002,-3.15 l -0.1,0.437 c 0.564,0.15 0.66,0.261 0.563,0.685 l -0.043,0.189 -2.088,-0.479 -0.157,0.685 1.304,2.955 1.136,0.261 0.601,-2.622 0.74,0.17 z"
         style="fill:#ffffff;fill-opacity:1;fill-rule:nonzero;stroke:none"
         id="path9187"
         inkscape:connector-curvature="0" />
    </g>
    <g
       id="g9189"
       transform="matrix(0.35277777,0,0,-0.35277777,-26.107072,150.48406)">
      <path
         d="m 0,0 h -8.291 c 0,0 0.546,2.528 3.021,3.961 0,0 0.117,0.616 -0.195,0.888 0,0 -1.102,-0.195 -1.841,0.298 -0.739,0.493 -1.011,0.324 -1.102,0.052 0,0 -2.061,2.671 2.308,1.906 0,0 -0.415,1.413 3.319,0.324 C 0.156,6.572 -0.998,1.381 0,0"
         style="fill:#ffffff;fill-opacity:1;fill-rule:nonzero;stroke:none"
         id="path9191"
         inkscape:connector-curvature="0" />
    </g>
    <g
       id="g9193"
       transform="matrix(0.35277777,0,0,-0.35277777,-30.358291,151.80557)">
      <path
         d="m 0,0 c -1.076,1.076 -1.373,2.32 -0.543,3.202 0,0 3.79,2.024 -3.8,8.128 -6.223,5.005 -8.635,3.54 -8.635,3.54 0,0 0.675,-1.478 2.723,-2.36 0,0 -0.648,-0.207 -1.037,-0.285 0,0 1.101,-1.497 2.657,-2.171 0,0 -0.764,-0.137 -1.724,-0.033 0,0 0.363,-1.219 2.801,-2.178 0,0 -1.245,-0.234 -2.049,-0.078 0,0 1.115,-1.322 2.567,-1.659 0,0 -1.167,-0.286 -2.256,-0.052 0,0 0.597,-1.115 1.893,-1.375 0,0 -0.778,-0.285 -1.607,-0.337 0,0 0.518,-0.726 1.426,-0.907 0,0 -0.7,-0.519 -1.349,-0.596 0,0 0.519,-0.649 1.634,-0.83 0,0 -0.752,-0.571 -1.4,-0.7 0,0 0.466,-0.649 1.918,-0.674 0,0 -0.363,-0.597 -1.115,-0.804 0,0 0.519,-0.467 1.712,-0.441 -0.376,-0.674 -1.206,-0.959 -1.206,-0.959 0,0 0.947,-0.493 1.815,-0.286 0,0 -0.233,-0.829 -0.959,-1.257 0,0 0.998,-0.208 1.646,0.026 0,0 -0.142,-0.7 -0.855,-1.258 0,0 0.896,-0.183 1.726,0.245 0,0 -0.015,-0.854 -0.547,-1.606 0,0 0.986,0.039 1.543,0.596 0,0 0.195,-0.739 -0.129,-1.53 0,0 0.907,0.039 1.387,0.649 0,0 0.129,-0.597 -0.026,-1.297 0,0 0.959,0.234 1.361,0.921 0,0 0,-1.089 -0.233,-1.543 0,0 0.389,0.026 0.661,0.272 z"
         style="fill:#ffffff;fill-opacity:1;fill-rule:nonzero;stroke:none"
         id="path9195"
         inkscape:connector-curvature="0" />
    </g>
    <g
       id="g9197"
       transform="matrix(0.35277777,0,0,-0.35277777,-24.926686,151.80557)">
      <path
         d="m 0,0 c 1.076,1.076 1.373,2.32 0.543,3.202 0,0 -3.79,2.024 3.8,8.128 6.223,5.005 8.635,3.54 8.635,3.54 0,0 -0.675,-1.478 -2.723,-2.36 0,0 0.648,-0.207 1.037,-0.285 0,0 -1.101,-1.497 -2.657,-2.171 0,0 0.764,-0.137 1.724,-0.033 0,0 -0.363,-1.219 -2.801,-2.178 0,0 1.245,-0.234 2.049,-0.078 0,0 -1.115,-1.322 -2.567,-1.659 0,0 1.167,-0.286 2.256,-0.052 0,0 -0.597,-1.115 -1.893,-1.375 0,0 0.778,-0.285 1.607,-0.337 0,0 -0.518,-0.726 -1.426,-0.907 0,0 0.7,-0.519 1.349,-0.596 0,0 -0.519,-0.649 -1.634,-0.83 0,0 0.752,-0.571 1.4,-0.7 0,0 -0.466,-0.649 -1.918,-0.674 0,0 0.363,-0.597 1.115,-0.804 0,0 -0.519,-0.467 -1.712,-0.441 0.376,-0.674 1.206,-0.959 1.206,-0.959 0,0 -0.947,-0.493 -1.815,-0.286 0,0 0.233,-0.829 0.959,-1.257 0,0 -0.998,-0.208 -1.646,0.026 0,0 0.142,-0.7 0.855,-1.258 0,0 -0.896,-0.183 -1.726,0.245 0,0 0.015,-0.854 0.547,-1.606 0,0 -0.986,0.039 -1.543,0.596 0,0 -0.195,-0.739 0.129,-1.53 0,0 -0.907,0.039 -1.387,0.649 0,0 -0.129,-0.597 0.026,-1.297 0,0 -0.959,0.234 -1.361,0.921 0,0 0,-1.089 0.233,-1.543 0,0 -0.389,0.026 -0.661,0.272 z"
         style="fill:#ffffff;fill-opacity:1;fill-rule:nonzero;stroke:none"
         id="path9199"
         inkscape:connector-curvature="0" />
    </g>
    <g
       id="g9201"
       transform="matrix(0.35277777,0,0,-0.35277777,-35.187651,151.91144)">
      <path
         d="m 0,0 c 0.254,-0.697 0.433,-2.311 0.176,-3.708 0,0 -1.545,1.453 -0.176,3.708"
         style="fill:#ffffff;fill-opacity:1;fill-rule:evenodd;stroke:none"
         id="path9203"
         inkscape:connector-curvature="0" />
    </g>
    <g
       id="g9205"
       transform="matrix(0.35277777,0,0,-0.35277777,-35.921764,153.17907)">
      <path
         d="M 0,0 C 0.631,-0.447 1.742,-1.725 2.35,-3.077 2.35,-3.077 0.245,-2.758 0,0"
         style="fill:#ffffff;fill-opacity:1;fill-rule:evenodd;stroke:none"
         id="path9207"
         inkscape:connector-curvature="0" />
    </g>
    <g
       id="g9209"
       transform="matrix(0.35277777,0,0,-0.35277777,-35.815613,154.54619)">
      <path
         d="M 0,0 C 0.762,-0.133 2.314,-0.81 3.443,-1.77 3.443,-1.77 1.344,-2.332 0,0"
         style="fill:#ffffff;fill-opacity:1;fill-rule:evenodd;stroke:none"
         id="path9211"
         inkscape:connector-curvature="0" />
    </g>
    <g
       id="g9213"
       transform="matrix(0.35277777,0,0,-0.35277777,-35.066922,155.74437)">
      <path
         d="M 0,0 C 0.748,0.196 2.441,0.223 3.867,-0.18 3.867,-0.18 2.178,-1.528 0,0"
         style="fill:#ffffff;fill-opacity:1;fill-rule:evenodd;stroke:none"
         id="path9215"
         inkscape:connector-curvature="0" />
    </g>
    <g
       id="g9217"
       transform="matrix(0.35277777,0,0,-0.35277777,-35.023504,154.14117)">
      <path
         d="M 0,0 C -0.419,1.738 -0.005,3.024 0.577,3.969 3.042,4.312 3.021,6.128 3.021,6.128 0.917,5.585 -1.222,3.189 -0.375,-0.167 c 0.936,-3.71 3.772,-4.022 6.46,-6.418 l 0.741,0.383 C 4.137,-3.806 0.834,-3.459 0,0"
         style="fill:#ffffff;fill-opacity:1;fill-rule:evenodd;stroke:none"
         id="path9219"
         inkscape:connector-curvature="0" />
    </g>
    <g
       id="g9221"
       transform="matrix(0.35277777,0,0,-0.35277777,-35.137592,153.75188)">
      <path
         d="M 0,0 C 2.326,0.318 2.562,2.154 2.562,2.154 2.562,2.154 0.623,1.563 0,0"
         style="fill:#ffffff;fill-opacity:1;fill-rule:evenodd;stroke:none"
         id="path9223"
         inkscape:connector-curvature="0" />
    </g>
    <g
       id="g9225"
       transform="matrix(0.35277777,0,0,-0.35277777,-34.756539,154.85843)">
      <path
         d="M 0,0 C 1.687,1.587 0.929,3.216 0.929,3.216 0.929,3.216 -0.353,1.645 0,0"
         style="fill:#ffffff;fill-opacity:1;fill-rule:evenodd;stroke:none"
         id="path9227"
         inkscape:connector-curvature="0" />
    </g>
    <g
       id="g9229"
       transform="matrix(0.35277777,0,0,-0.35277777,-33.954931,155.54173)">
      <path
         d="M 0,0 C 0.944,2.254 -0.458,3.316 -0.458,3.316 -0.458,3.316 -0.991,1.359 0,0"
         style="fill:#ffffff;fill-opacity:1;fill-rule:evenodd;stroke:none"
         id="path9231"
         inkscape:connector-curvature="0" />
    </g>
    <g
       id="g9233"
       transform="matrix(0.35277777,0,0,-0.35277777,-35.307269,153.25309)">
      <path
         d="m 0,0 c 0.071,-0.266 -0.017,-0.52 -0.196,-0.567 -0.179,-0.048 -0.381,0.129 -0.452,0.394 -0.071,0.266 0.017,0.52 0.196,0.568 C -0.273,0.442 -0.071,0.266 0,0"
         style="fill:#ffffff;fill-opacity:1;fill-rule:evenodd;stroke:none"
         id="path9235"
         inkscape:connector-curvature="0" />
    </g>
    <g
       id="g9237"
       transform="matrix(0.35277777,0,0,-0.35277777,-34.710819,154.02718)">
      <path
         d="m 0,0 c -0.053,-0.27 -0.243,-0.46 -0.424,-0.424 -0.182,0.035 -0.287,0.283 -0.234,0.552 0.053,0.27 0.242,0.46 0.424,0.425 C -0.052,0.517 0.053,0.27 0,0"
         style="fill:#ffffff;fill-opacity:1;fill-rule:evenodd;stroke:none"
         id="path9239"
         inkscape:connector-curvature="0" />
    </g>
    <g
       id="g9241"
       transform="matrix(0.35277777,0,0,-0.35277777,-34.659358,153.07493)">
      <path
         d="M 0,0 C -0.186,-0.203 -0.447,-0.266 -0.583,-0.141 -0.72,-0.016 -0.68,0.25 -0.495,0.453 -0.309,0.656 -0.048,0.719 0.089,0.594 0.225,0.469 0.186,0.203 0,0"
         style="fill:#ffffff;fill-opacity:1;fill-rule:evenodd;stroke:none"
         id="path9243"
         inkscape:connector-curvature="0" />
    </g>
    <g
       id="g9245"
       transform="matrix(0.35277777,0,0,-0.35277777,-34.290952,154.81197)">
      <path
         d="m 0,0 c 0.029,-0.273 -0.096,-0.511 -0.28,-0.531 -0.184,-0.02 -0.357,0.186 -0.387,0.459 -0.029,0.273 0.096,0.511 0.28,0.531 C -0.203,0.479 -0.029,0.273 0,0"
         style="fill:#ffffff;fill-opacity:1;fill-rule:evenodd;stroke:none"
         id="path9247"
         inkscape:connector-curvature="0" />
    </g>
    <g
       id="g9249"
       transform="matrix(0.35277777,0,0,-0.35277777,-35.205537,154.39153)">
      <path
         d="M 0,0 C 0.217,-0.169 0.301,-0.424 0.187,-0.57 0.073,-0.717 -0.195,-0.698 -0.412,-0.529 -0.629,-0.36 -0.713,-0.105 -0.599,0.041 -0.485,0.187 -0.217,0.169 0,0"
         style="fill:#ffffff;fill-opacity:1;fill-rule:evenodd;stroke:none"
         id="path9251"
         inkscape:connector-curvature="0" />
    </g>
    <g
       id="g9253"
       transform="matrix(0.35277777,0,0,-0.35277777,-34.68317,155.34075)">
      <path
         d="M 0,0 C 0.274,-0.018 0.487,-0.183 0.474,-0.368 0.462,-0.553 0.229,-0.687 -0.045,-0.669 -0.319,-0.651 -0.532,-0.486 -0.519,-0.301 -0.507,-0.116 -0.274,0.018 0,0"
         style="fill:#ffffff;fill-opacity:1;fill-rule:evenodd;stroke:none"
         id="path9255"
         inkscape:connector-curvature="0" />
    </g>
    <g
       id="g9257"
       transform="matrix(0.35277777,0,0,-0.35277777,-20.486237,154.84729)">
      <path
         d="m 0,0 c 0.668,0.001 1.644,0.281 1.799,0.352 0.23,0.104 0.506,-0.485 0.639,-0.611 0.134,-0.126 0.209,0.003 0.357,-0.055 0.149,-0.057 0.328,-0.09 0.291,0.166 C 3.049,0.108 3.286,0.146 3.032,0.276 2.777,0.405 2.78,0.591 2.984,0.531 3.187,0.471 3.292,0.466 3.641,0.435 3.868,0.416 3.729,0.628 3.987,0.79 4.245,0.953 3.794,1.438 3.568,1.412 3.341,1.387 3.384,1.41 3.76,1.806 4.021,2.08 4.167,2.667 3.918,2.562 3.847,2.532 3.807,2.602 3.834,2.701 3.925,3.031 3.84,3.447 3.712,3.432 3.596,3.418 3.485,2.835 3.402,2.967 3.324,3.089 3.215,3.288 3.165,2.6 3.114,1.911 3.053,1.678 2.94,1.725 2.826,1.771 3.046,2.047 2.979,2.266 2.912,2.484 2.878,2.242 2.719,2.614 2.632,2.819 2.303,2.311 2.372,1.822 2.458,1.206 2.313,1.154 2.262,1.355 2.212,1.556 2.097,2.002 1.981,1.884 1.866,1.765 1.978,1.574 1.843,1.47 1.709,1.365 1.705,1.103 1.808,0.807 1.911,0.511 0.549,0.411 0.337,0.415 0.125,0.418 0,0 0,0"
         style="fill:#ffffff;fill-opacity:1;fill-rule:evenodd;stroke:none"
         id="path9259"
         inkscape:connector-curvature="0" />
    </g>
    <g
       id="g9261"
       transform="matrix(0.35277777,0,0,-0.35277777,-20.383129,152.66793)">
      <path
         d="M 0,0 C -0.076,0.226 0.538,0.395 0.679,0.5 0.819,0.605 0.701,0.692 0.775,0.821 0.849,0.949 0.903,1.109 0.646,1.112 0.388,1.115 0.378,1.34 0.22,1.124 0.063,0.908 -0.121,0.938 -0.038,1.116 0.046,1.295 0.063,1.392 0.134,1.708 0.18,1.914 -0.046,1.817 -0.176,2.078 -0.306,2.339 -0.839,1.994 -0.84,1.782 -0.841,1.57 -0.86,1.612 -1.207,2.017 -1.447,2.297 -2.01,2.516 -1.935,2.272 -1.914,2.202 -1.988,2.175 -2.082,2.214 -2.398,2.345 -2.819,2.328 -2.819,2.208 -2.82,2.099 -2.256,1.912 -2.396,1.855 -2.526,1.801 -2.735,1.729 -2.061,1.583 -1.387,1.437 -1.163,1.347 -1.223,1.249 -1.282,1.151 -1.647,1.39 -1.871,1.36 -2.095,1.33 -1.86,1.264 -2.247,1.172 -2.459,1.121 -1.996,0.745 -1.504,0.737 -0.885,0.727 -0.733,0.589 -0.937,0.572 -1.141,0.554 -1.596,0.513 -1.492,0.39 -1.388,0.266 -1.187,0.341 -1.1,0.202 -1.012,0.063 -0.753,0.022 -0.449,0.074 Z"
         style="fill:#ffffff;fill-opacity:1;fill-rule:evenodd;stroke:none"
         id="path9263"
         inkscape:connector-curvature="0" />
    </g>
    <g
       id="g9265"
       transform="matrix(0.35277777,0,0,-0.35277777,-20.282323,154.46876)">
      <path
         d="M 0,0 C -0.102,0.728 -0.323,1.037 -0.406,1.201 -0.53,1.442 -0.072,1.793 0.015,1.95 0.102,2.106 -0.019,2.176 0.007,2.343 0.034,2.51 0.034,2.708 -0.177,2.646 -0.389,2.584 -0.458,2.839 -0.529,2.551 -0.6,2.262 -0.759,2.25 -0.738,2.477 c 0.02,0.226 0.008,0.342 -0.019,0.724 -0.018,0.25 -0.177,0.08 -0.354,0.347 -0.177,0.268 -0.52,-0.265 -0.464,-0.51 0.056,-0.245 0.03,-0.2 -0.364,0.177 -0.272,0.261 -0.792,0.37 -0.665,0.108 C -2.568,3.248 -2.621,3.198 -2.709,3.219 -3.003,3.289 -3.344,3.162 -3.312,3.024 -3.282,2.898 -2.77,2.827 -2.87,2.725 -2.962,2.63 -3.113,2.494 -2.522,2.498 -1.93,2.501 -1.722,2.455 -1.745,2.327 -1.767,2.199 -2.13,2.381 -2.306,2.289 -2.482,2.197 -2.271,2.182 -2.563,1.977 -2.723,1.864 -2.242,1.549 -1.838,1.665 -1.328,1.812 -1.166,1.692 -1.328,1.62 -1.491,1.548 -1.853,1.384 -1.734,1.268 -1.615,1.152 -1.471,1.291 -1.362,1.153 -1.253,1.015 -1.029,1.034 -0.794,1.172 -0.558,1.309 -0.295,0.075 -0.266,-0.157 -0.236,-0.389 0,0 0,0"
         style="fill:#ffffff;fill-opacity:1;fill-rule:evenodd;stroke:none"
         id="path9267"
         inkscape:connector-curvature="0" />
    </g>
    <g
       id="g9269"
       transform="matrix(0.35277777,0,0,-0.35277777,-21.851805,156.00574)">
      <path
         d="m 0,0 c 0.868,-0.292 1.559,-0.325 1.784,-0.327 0.331,-0.001 0.502,-0.681 0.635,-0.859 0.133,-0.178 0.271,-0.089 0.445,-0.208 0.175,-0.12 0.397,-0.23 0.431,0.029 0.034,0.259 0.355,0.191 0.065,0.425 -0.289,0.234 -0.225,0.41 0.02,0.263 0.244,-0.146 0.38,-0.197 0.823,-0.379 0.289,-0.118 0.176,0.144 0.563,0.185 0.387,0.04 -0.043,0.698 -0.346,0.773 C 4.118,-0.023 4.181,-0.019 4.797,0.19 5.224,0.335 5.601,0.827 5.244,0.837 5.142,0.84 5.112,0.924 5.179,1.005 5.402,1.278 5.426,1.71 5.255,1.752 5.099,1.79 4.769,1.286 4.703,1.448 4.641,1.598 4.563,1.833 4.277,1.203 3.991,0.574 3.837,0.379 3.705,0.473 3.572,0.568 3.954,0.853 3.937,1.09 3.92,1.326 3.799,1.112 3.712,1.534 3.664,1.766 3.074,1.429 3.007,0.936 2.922,0.314 2.708,0.208 2.706,0.421 2.705,0.633 2.699,1.107 2.51,1.045 2.322,0.983 2.407,0.753 2.198,0.713 1.99,0.673 1.902,0.426 1.941,0.101 1.98,-0.225 0.58,0.163 0.306,0.26 0.031,0.356 0,0 0,0"
         style="fill:#ffffff;fill-opacity:1;fill-rule:evenodd;stroke:none"
         id="path9271"
         inkscape:connector-curvature="0" />
    </g>
    <g
       id="g9273"
       transform="matrix(0.35277777,0,0,-0.35277777,-20.096559,153.83862)">
      <path
         d="M 0,0 C 0.527,0.58 0.798,1.117 0.88,1.295 1,1.558 1.563,1.438 1.743,1.477 1.922,1.515 1.906,1.659 2.057,1.753 2.208,1.846 2.368,1.981 2.189,2.106 2.01,2.23 2.175,2.459 1.898,2.318 1.621,2.176 1.514,2.292 1.71,2.432 1.906,2.571 1.992,2.66 2.285,2.943 2.476,3.129 2.242,3.138 2.35,3.46 2.458,3.783 1.818,3.688 1.654,3.476 1.49,3.264 1.51,3.315 1.575,3.884 1.62,4.278 1.391,4.762 1.256,4.482 1.218,4.402 1.145,4.41 1.108,4.494 0.986,4.774 0.675,4.955 0.583,4.835 0.499,4.725 0.754,4.274 0.61,4.282 0.477,4.289 0.275,4.316 0.639,3.852 1.003,3.388 1.092,3.192 0.975,3.122 0.858,3.052 0.783,3.463 0.602,3.539 0.42,3.614 0.536,3.438 0.192,3.527 0.003,3.576 0.041,2.981 0.383,2.742 0.812,2.441 0.814,2.23 0.656,2.309 0.499,2.388 0.146,2.561 0.125,2.388 0.103,2.215 0.303,2.196 0.258,2.016 0.213,1.835 0.326,1.685 0.581,1.594 0.836,1.503 0.128,0.707 -0.042,0.524 -0.211,0.342 0,0 0,0"
         style="fill:#ffffff;fill-opacity:1;fill-rule:evenodd;stroke:none"
         id="path9275"
         inkscape:connector-curvature="0" />
    </g>
    <g
       id="g9277"
       transform="matrix(0.35277777,0,0,-0.35277777,-20.570877,152.54908)">
      <path
         d="m 0,0 c 0.145,-0.159 0.276,-0.322 0.384,-0.488 0.581,-0.945 0.877,-2.287 0.459,-4.025 -0.834,-3.459 -4.138,-3.806 -6.826,-6.202 l 0.74,-0.383 c 2.689,2.396 5.524,2.708 6.461,6.418 0.545,2.162 -0.116,3.897 -1.219,5.003 z"
         style="fill:#ffffff;fill-opacity:1;fill-rule:evenodd;stroke:none"
         id="path9279"
         inkscape:connector-curvature="0" />
    </g>
    <g
       id="g9281"
       transform="matrix(0.35277777,0,0,-0.35277777,-19.949953,153.97885)">
      <path
         d="M 0,0 C 0.201,-0.289 0.454,-0.232 0.579,-0.136 0.635,-0.093 0.625,-0.051 0.628,0.03 0.837,0.226 0.923,0.469 0.821,0.603 0.719,0.737 0.462,0.717 0.217,0.568 0.139,0.587 0.103,0.604 0.047,0.561 -0.062,0.478 -0.179,0.27 0,0"
         style="fill:#ffffff;fill-opacity:1;fill-rule:evenodd;stroke:none"
         id="path9283"
         inkscape:connector-curvature="0" />
    </g>
    <g
       id="g9285"
       transform="matrix(0.35277777,0,0,-0.35277777,-20.461763,153.00727)">
      <path
         d="M 0,0 C 0.15,0.319 -0.026,0.509 -0.171,0.57 -0.236,0.597 -0.268,0.568 -0.339,0.53 -0.614,0.612 -0.867,0.566 -0.932,0.411 -0.997,0.255 -0.852,0.043 -0.601,-0.095 -0.578,-0.173 -0.575,-0.212 -0.51,-0.24 -0.383,-0.293 -0.145,-0.29 0,0"
         style="fill:#ffffff;fill-opacity:1;fill-rule:evenodd;stroke:none"
         id="path9287"
         inkscape:connector-curvature="0" />
    </g>
    <g
       id="g9289"
       transform="matrix(0.35277777,0,0,-0.35277777,-21.541607,155.78031)">
      <path
         d="M 0,0 C 0.336,0.739 0.448,1.354 0.478,1.555 0.521,1.852 0.992,1.851 1.147,1.947 1.302,2.042 1.25,2.178 1.365,2.319 1.479,2.459 1.593,2.643 1.396,2.708 1.2,2.773 1.293,3.052 1.075,2.824 0.857,2.596 0.729,2.676 0.873,2.876 1.017,3.076 1.074,3.191 1.27,3.563 1.399,3.807 1.181,3.741 1.198,4.093 1.215,4.445 0.651,4.147 0.555,3.886 0.459,3.625 0.464,3.682 0.379,4.262 0.32,4.664 -0.014,5.068 -0.067,4.749 -0.082,4.658 -0.151,4.643 -0.206,4.714 -0.389,4.95 -0.721,5.029 -0.775,4.881 -0.824,4.747 -0.474,4.384 -0.608,4.346 -0.732,4.311 -0.925,4.272 -0.473,3.932 -0.02,3.592 0.112,3.427 0.022,3.321 -0.068,3.215 -0.241,3.596 -0.427,3.612 -0.613,3.628 -0.461,3.491 -0.8,3.469 -0.986,3.458 -0.799,2.884 -0.425,2.758 0.047,2.599 0.102,2.392 -0.063,2.42 -0.228,2.447 -0.596,2.504 -0.572,2.327 -0.547,2.15 -0.359,2.195 -0.354,2.003 -0.349,1.812 -0.168,1.699 0.089,1.691 0.347,1.682 -0.004,0.759 -0.114,0.525 -0.223,0.292 0,0 0,0"
         style="fill:#ffffff;fill-opacity:1;fill-rule:evenodd;stroke:none"
         id="path9291"
         inkscape:connector-curvature="0" />
    </g>
    <g
       id="g9293"
       transform="matrix(0.35277777,0,0,-0.35277777,-20.669964,154.62306)">
      <path
         d="M 0,0 C 0.323,0.142 0.315,0.401 0.245,0.542 0.214,0.605 0.171,0.604 0.092,0.622 -0.061,0.865 -0.282,0.996 -0.433,0.922 -0.584,0.848 -0.615,0.592 -0.516,0.323 -0.549,0.249 -0.573,0.218 -0.542,0.154 -0.481,0.031 -0.299,-0.124 0,0"
         style="fill:#ffffff;fill-opacity:1;fill-rule:evenodd;stroke:none"
         id="path9295"
         inkscape:connector-curvature="0" />
    </g>
    <g
       id="g9297"
       transform="matrix(0.35277777,0,0,-0.35277777,-20.449751,155.11512)">
      <path
         d="m 0,0 c -0.054,-0.348 0.168,-0.481 0.324,-0.499 0.071,-0.007 0.093,0.03 0.151,0.086 0.286,-0.002 0.516,0.114 0.535,0.281 C 1.029,0.035 0.83,0.199 0.55,0.26 0.506,0.328 0.492,0.365 0.422,0.373 0.285,0.388 0.057,0.319 0,0"
         style="fill:#ffffff;fill-opacity:1;fill-rule:evenodd;stroke:none"
         id="path9299"
         inkscape:connector-curvature="0" />
    </g>
  </g>
</svg>
