<?xml version="1.0" encoding="utf-8"?>
<!-- Generator: Adobe Illustrator 28.0.0, SVG Export Plug-In . SVG Version: 6.00 Build 0)  -->
<svg version="1.1" id="Layer_1" xmlns="http://www.w3.org/2000/svg" xmlns:xlink="http://www.w3.org/1999/xlink" x="0px" y="0px"
	 viewBox="0 0 189 31" style="enable-background:new 0 0 189 31;" xml:space="preserve">
<style type="text/css">
	.st0{fill:#FFFFFF;}
	.st1{fill:#0E8B44;}
	.st2{fill:#757575;}
	.st3{fill:#005527;}
	.st4{fill:#000099;}
</style>
<rect x="-1.8" y="-2.2" class="st0" width="193.1" height="35.7"/>
<path class="st1" d="M9.9,9C9.1,9.1,8.3,9.4,7.5,9.8c-0.7,0.4-1.4,1-1.9,1.7c-0.5,0.7-0.8,1.5-0.9,2.4c-0.1,0.9,0,1.7,0.2,2.5
	c0.3,0.8,0.7,1.6,1.3,2.2c0.6,0.6,1.3,1.1,2.1,1.4s1.7,0.4,2.5,0.3c0.9-0.1,1.7-0.4,2.4-0.9c-0.1,0-0.3,0-0.4,0
	c-1.2,0-2.4-0.4-3.4-1.1c-1-0.7-1.7-1.8-2-2.9c-0.3-1.2-0.3-2.4,0.1-3.6C8.1,10.7,8.9,9.7,9.9,9L9.9,9z M12.9,4.3
	c-1.5,0-2.9,0.3-4.2,1c1.4-0.2,2.8-0.2,4.1,0.2c1.3,0.4,2.6,1,3.6,1.9c1.1,0.9,1.9,2,2.5,3.3c0.6,1.3,0.9,2.6,0.9,4
	c0,1.8-0.5,3.5-1.4,5c-0.9,1.5-2.2,2.7-3.8,3.5c2.2-0.4,4.2-1.5,5.6-3.3c1.4-1.7,2.2-3.9,2.2-6.1c0-2.5-1-5-2.8-6.8
	C17.9,5.3,15.5,4.3,12.9,4.3"/>
<path class="st2" d="M12.9,8.2c-1.1,0-2.1,0.3-3,0.9c0.1,0,0.3,0,0.4,0c1.5,0,2.9,0.6,4,1.7c1.1,1.1,1.7,2.5,1.7,4
	c0,0.9-0.2,1.9-0.7,2.7c-0.5,0.8-1.1,1.5-1.9,2c1.4-0.1,2.7-0.7,3.7-1.8c1-1,1.5-2.4,1.5-3.8c0-1.5-0.6-2.9-1.7-4
	C15.8,8.8,14.4,8.2,12.9,8.2L12.9,8.2z M8.7,5.3C6.5,5.7,4.5,6.8,3.1,8.6c-1.4,1.7-2.2,3.9-2.2,6.2c0,1.3,0.2,2.5,0.7,3.7
	c0.5,1.2,1.2,2.2,2,3.1c0.9,0.9,1.9,1.6,3.1,2.1s2.4,0.7,3.6,0.7c1.5,0,3-0.3,4.3-1c-0.6,0.1-1.2,0.2-1.7,0.2
	c-1.2,0-2.5-0.2-3.6-0.7c-1.2-0.5-2.2-1.2-3.1-2.1c-0.9-0.9-1.6-1.9-2-3.1c-0.5-1.2-0.7-2.4-0.7-3.7c0-1.8,0.5-3.5,1.4-5
	C5.8,7.3,7.1,6.1,8.7,5.3"/>
<path class="st3" d="M9.9,9c0.9-0.6,1.9-0.9,3-0.9c1.5,0,2.9,0.6,4,1.7c1,1.1,1.6,2.5,1.7,4c0,1.4-0.5,2.8-1.5,3.8
	c-1,1-2.3,1.7-3.7,1.8c-0.7,0.5-1.5,0.7-2.4,0.8c-0.8,0.1-1.7,0-2.5-0.3c-0.8-0.3-1.5-0.8-2.1-1.4c-0.6-0.6-1-1.4-1.3-2.2
	c-0.3-0.8-0.3-1.7-0.2-2.5c0.1-0.9,0.4-1.7,0.9-2.4c0.5-0.7,1.1-1.3,1.8-1.7C8.3,9.4,9.1,9.1,9.9,9z M10.3,5.1c-0.5,0-1.1,0-1.6,0.1
	c-1.6,0.8-2.9,2-3.8,3.5c-0.9,1.5-1.4,3.3-1.4,5c0,1.3,0.2,2.5,0.7,3.7c0.5,1.2,1.2,2.2,2,3.1c0.9,0.9,1.9,1.6,3.1,2.1
	c1.2,0.5,2.4,0.7,3.6,0.7c0.6,0,1.2-0.1,1.7-0.2c1.6-0.8,2.9-2,3.8-3.5c0.9-1.5,1.4-3.2,1.4-5c0-2.5-1-5-2.8-6.8
	C15.3,6.2,12.9,5.2,10.3,5.1z"/>
<path class="st4" d="M38.3,24L30.4,6.7c-0.1-0.1-0.1-0.2-0.3-0.3c-0.1-0.1-0.3-0.1-0.4-0.1h-0.3c-0.1,0-0.3,0-0.4,0.1
	c-0.1,0.1-0.2,0.2-0.3,0.3l-8,17.3c-0.1,0.1-0.1,0.2-0.1,0.4c0,0.1,0,0.2,0.1,0.4c0.1,0.1,0.2,0.2,0.3,0.3c0.1,0.1,0.2,0.1,0.4,0.1
	h2.2c0.2,0,0.4-0.1,0.6-0.2c0.2-0.1,0.3-0.3,0.4-0.5l1.2-2.6h7.3l1.2,2.6c0.1,0.2,0.2,0.4,0.4,0.5c0.2,0.1,0.4,0.2,0.6,0.2h2.2
	c0.1,0,0.3,0,0.4-0.1c0.1-0.1,0.2-0.1,0.3-0.3c0.1-0.1,0.1-0.2,0.1-0.4C38.4,24.2,38.4,24.1,38.3,24z M27.4,18.4l2.1-4.8l2.2,4.8
	H27.4z"/>
<path class="st4" d="M51.2,19.9c0,2.6-2.2,5.4-6.2,5.4c-3.4,0-5.3-1.6-5.8-2.1c-0.1-0.1-0.2-0.1-0.2-0.2C39,22.9,39,22.8,39,22.7
	c0-0.1,0-0.2,0-0.3c0-0.1,0.1-0.2,0.1-0.3l0.9-1.6c0.1-0.1,0.1-0.2,0.2-0.3c0.1-0.1,0.2-0.1,0.3-0.1c0.1,0,0.2,0,0.4,0
	c0.1,0,0.2,0.1,0.3,0.2c0,0,0,0,0.1,0c1.4,1,2.7,1.5,3.6,1.5c1.2,0,2.1-0.7,2.1-1.7c0-1.1-0.9-2-3.1-2.8c-2.2-0.9-5-2.4-5-5.8
	c0-2.5,1.9-5.2,6-5.2c1.9,0,3.7,0.7,5.3,1.8c0.1,0.1,0.2,0.1,0.2,0.2c0.1,0.1,0.1,0.2,0.1,0.3c0,0.1,0,0.2,0,0.4
	c0,0.1-0.1,0.2-0.1,0.3l-1,1.5c-0.1,0.2-0.3,0.4-0.5,0.4c-0.1,0.1-0.2,0.1-0.4,0.1c-0.1,0-0.3-0.1-0.4-0.1c-1.4-0.9-2.6-1.4-3.4-1.4
	c-1.4,0-2,0.9-2,1.5c0,1,0.8,1.8,2.9,2.6C48.4,15,51.2,16.6,51.2,19.9z"/>
<path class="st4" d="M69.6,7.2v17.1c0,0.2-0.1,0.4-0.2,0.5C69.2,25,69,25,68.8,25.1h-2.4c-0.2,0-0.4-0.1-0.5-0.2
	c-0.1-0.1-0.2-0.3-0.2-0.5v-6.8h-7.8v6.8c0,0.2-0.1,0.4-0.2,0.5c-0.1,0.1-0.3,0.2-0.5,0.2h-2.4c-0.2,0-0.4-0.1-0.5-0.2
	c-0.1-0.1-0.2-0.3-0.2-0.5V7.2c0-0.2,0.1-0.4,0.2-0.5c0.1-0.1,0.3-0.2,0.5-0.2h2.4c0.2,0,0.4,0.1,0.5,0.2c0.1,0.1,0.2,0.3,0.2,0.5
	v6.6h7.8V7.2c0-0.2,0.1-0.4,0.2-0.5c0.1-0.1,0.3-0.2,0.5-0.2h2.4c0.2,0,0.4,0.1,0.5,0.2C69.5,6.9,69.5,7,69.6,7.2z"/>
<path class="st4" d="M12.1,6.2c-2.5,0-4.9,1-6.7,2.8c-1.8,1.8-2.8,4.2-2.8,6.8c0,1.3,0.2,2.5,0.7,3.7s1.2,2.2,2,3.1s1.9,1.6,3.1,2.1
	c1.2,0.5,2.4,0.7,3.6,0.7c1.2,0,2.5-0.2,3.6-0.7c1.2-0.5,2.2-1.2,3.1-2.1c0.9-0.9,1.6-1.9,2.1-3.1c0.5-1.2,0.7-2.4,0.7-3.7
	c0-2.5-1-5-2.8-6.8C17,7.2,14.6,6.2,12.1,6.2z M12.1,10.1c1.5,0,2.9,0.6,4,1.7c1.1,1.1,1.6,2.5,1.7,4c0,1.1-0.3,2.2-1,3.1
	c-0.6,0.9-1.5,1.6-2.5,2.1c-1,0.4-2.2,0.5-3.2,0.3c-1.1-0.2-2.1-0.8-2.9-1.5C7.4,19,6.8,18,6.6,16.9s-0.1-2.2,0.3-3.3
	c0.4-1,1.1-1.9,2.1-2.5C9.9,10.5,11,10.1,12.1,10.1z"/>
<path class="st2" d="M86.7,4.4c0-2.1,1.5-3.7,3.6-3.7c2.1,0,3.6,1.6,3.6,3.7c0,2.1-1.5,3.7-3.6,3.7C88.2,8.1,86.7,6.5,86.7,4.4z
	 M92.7,4.4c0-1.5-0.9-2.5-2.3-2.5c-1.4,0-2.3,1.1-2.3,2.6C88,5.9,88.9,7,90.3,7C91.8,7,92.7,5.9,92.7,4.4z"/>
<path class="st2" d="M95.4,7.9V3.8h-0.8v-1h0.8V2.5c0-1.1,0.7-1.8,1.6-1.8c0.2,0,0.5,0,0.7,0.1C97.8,0.9,98,1,98.2,1.2l-0.4,0.7
	c-0.2-0.2-0.4-0.2-0.6-0.2c-0.4,0-0.7,0.3-0.7,0.9v0.3h1v1h-1v4.1H95.4z M98.6,7.9V3.8h-0.8v-1h0.9V2.5c0-1.1,0.7-1.8,1.6-1.8
	c0.3,0,0.6,0.1,0.9,0.2l-0.2,0.8c-0.1-0.1-0.3-0.1-0.4-0.1c-0.4,0-0.7,0.3-0.7,0.9v0.3h1v1h-1v4.2H98.6z M101.5,1.5
	c0-0.1,0-0.3,0.1-0.4c0.1-0.1,0.2-0.2,0.3-0.3c0.1-0.1,0.3-0.1,0.4,0c0.1,0,0.3,0.1,0.4,0.2c0.1,0.1,0.2,0.2,0.2,0.4
	c0,0.1,0,0.3,0,0.4c-0.1,0.1-0.1,0.2-0.3,0.3c-0.1,0.1-0.2,0.1-0.4,0.1c-0.1,0-0.2,0-0.3-0.1c-0.1,0-0.2-0.1-0.2-0.2
	c-0.1-0.1-0.1-0.1-0.1-0.2C101.5,1.7,101.5,1.6,101.5,1.5L101.5,1.5z M101.6,7.9V2.8h1.1v5.1H101.6z"/>
<path class="st2" d="M103.9,5.4c0-0.4,0-0.7,0.2-1c0.1-0.3,0.3-0.6,0.6-0.9c0.2-0.3,0.5-0.5,0.9-0.6c0.3-0.1,0.7-0.2,1-0.2
	c0.4,0,0.8,0,1.1,0.2c0.3,0.2,0.6,0.4,0.9,0.7l-0.7,0.7c-0.1-0.2-0.3-0.3-0.5-0.5c-0.2-0.1-0.4-0.2-0.7-0.2c-0.9,0-1.5,0.7-1.5,1.7
	c0,1,0.6,1.7,1.5,1.7c0.2,0,0.5-0.1,0.7-0.2c0.2-0.1,0.4-0.3,0.5-0.5l0.7,0.7c-0.2,0.3-0.5,0.5-0.9,0.7c-0.3,0.2-0.7,0.2-1.1,0.2
	c-0.4,0-0.7-0.1-1-0.2c-0.3-0.1-0.6-0.3-0.9-0.6c-0.2-0.3-0.4-0.6-0.6-0.9C103.9,6.1,103.8,5.7,103.9,5.4z"/>
<path class="st2" d="M109.1,5.4c0-0.4,0-0.7,0.2-1c0.1-0.3,0.3-0.6,0.6-0.9c0.2-0.3,0.5-0.5,0.9-0.6c0.3-0.1,0.7-0.2,1-0.2
	c1.5,0,2.5,1.2,2.5,2.8v0.3h-3.9c0,0.4,0.2,0.8,0.5,1c0.3,0.3,0.7,0.4,1.1,0.4c0.5,0,1.1-0.2,1.4-0.6l0.5,0.7
	c-0.6,0.5-1.3,0.8-2.1,0.7c-0.4,0-0.7,0-1-0.2c-0.3-0.1-0.6-0.3-0.9-0.6c-0.3-0.3-0.5-0.6-0.6-0.9C109.2,6.1,109.1,5.7,109.1,5.4z
	 M111.7,3.6c-0.4,0-0.7,0.1-1,0.4c-0.3,0.3-0.4,0.6-0.4,1h2.9c0-0.2,0-0.4-0.1-0.5c-0.1-0.2-0.2-0.3-0.3-0.5
	c-0.1-0.1-0.3-0.2-0.5-0.3C112.1,3.6,111.9,3.6,111.7,3.6L111.7,3.6z"/>
<path class="st2" d="M117.7,5.4c0-0.7,0.3-1.4,0.8-1.9c0.5-0.5,1.2-0.8,1.9-0.8s1.4,0.3,1.9,0.8c0.5,0.5,0.8,1.2,0.8,1.9
	c0,1.5-1,2.7-2.6,2.7S117.7,6.8,117.7,5.4z M121.8,5.4c0-0.9-0.5-1.7-1.5-1.7c-1,0-1.5,0.8-1.5,1.7c0,0.9,0.5,1.7,1.5,1.7
	C121.3,7.1,121.8,6.3,121.8,5.4z"/>
<path class="st2" d="M124.4,7.9V3.8h-0.8v-1h0.8V2.5c0-1.1,0.7-1.8,1.6-1.8c0.2,0,0.4,0,0.7,0.1c0.2,0.1,0.4,0.2,0.6,0.4l-0.4,0.7
	c-0.2-0.2-0.4-0.2-0.6-0.2c-0.4,0-0.7,0.3-0.7,0.9v0.3h1v1h-1v4.2H124.4z"/>
<path class="st2" d="M87,19.4v-7.1h2.6c2.2,0,3.7,1.5,3.7,3.6s-1.5,3.5-3.7,3.5H87z M92.1,15.8c0-1.4-0.8-2.5-2.4-2.5h-1.4v4.9h1.4
	c0.3,0,0.6,0,0.9-0.2c0.3-0.1,0.6-0.3,0.8-0.5c0.2-0.2,0.4-0.5,0.5-0.8C92,16.5,92.1,16.2,92.1,15.8z"/>
<path class="st2" d="M94.4,12.9c0-0.2,0.1-0.4,0.2-0.5c0.1-0.1,0.3-0.2,0.5-0.2c0.2,0,0.4,0.1,0.5,0.2c0.1,0.1,0.2,0.3,0.2,0.5
	c0,0.2-0.1,0.4-0.2,0.5c-0.1,0.1-0.3,0.2-0.5,0.2c-0.2,0-0.4-0.1-0.5-0.2C94.4,13.3,94.4,13.1,94.4,12.9z M94.5,19.4v-5.1h1.1v5.1
	H94.5z"/>
<path class="st2" d="M96.6,18.7l0.5-0.8c0.5,0.4,1.1,0.7,1.7,0.7c0.7,0,1-0.3,1-0.7c0-1-3.1-0.3-3.1-2.3c0-0.8,0.7-1.6,2-1.6
	c0.7,0,1.4,0.2,2,0.7l-0.5,0.8c-0.2-0.2-0.4-0.4-0.7-0.5c-0.3-0.1-0.5-0.2-0.8-0.2c-0.6,0-1,0.3-1,0.6c0,0.9,3.1,0.2,3.1,2.3
	c0,0.9-0.8,1.6-2.1,1.6C98,19.5,97.2,19.3,96.6,18.7z"/>
<path class="st2" d="M101.7,16.8c0-0.4,0-0.7,0.2-1c0.1-0.3,0.3-0.6,0.6-0.9c0.2-0.3,0.5-0.5,0.9-0.6s0.7-0.2,1-0.2
	c1.5,0,2.5,1.2,2.5,2.8v0.3h-4c0,0.4,0.2,0.8,0.5,1s0.7,0.4,1.1,0.4c0.5,0,1.1-0.2,1.4-0.6l0.5,0.7c-0.6,0.5-1.3,0.8-2.1,0.7
	c-0.4,0-0.7,0-1-0.2c-0.3-0.1-0.6-0.3-0.9-0.6c-0.3-0.3-0.5-0.6-0.6-0.9C101.8,17.5,101.7,17.2,101.7,16.8z M104.3,15
	c-0.4,0-0.7,0.1-1,0.4c-0.3,0.3-0.4,0.6-0.4,1h2.9c0-0.2,0-0.4-0.1-0.5c-0.1-0.2-0.2-0.3-0.3-0.4c-0.1-0.1-0.3-0.2-0.5-0.3
	C104.7,15.1,104.5,15,104.3,15L104.3,15z"/>
<path class="st2" d="M111.1,19.4v-0.6c-0.2,0.2-0.5,0.4-0.7,0.5c-0.3,0.1-0.6,0.2-0.9,0.2c-0.2,0-0.5,0-0.7-0.1
	c-0.2-0.1-0.4-0.2-0.6-0.4c-0.2-0.2-0.3-0.4-0.4-0.6c-0.1-0.2-0.1-0.4-0.1-0.7c0-1.2,0.9-1.7,1.8-1.7c0.3,0,0.6,0,0.9,0.1
	c0.3,0.1,0.5,0.3,0.7,0.5V16c0-0.6-0.5-1-1.2-1c-0.3,0-0.6,0.1-0.8,0.2c-0.3,0.1-0.5,0.3-0.7,0.5l-0.5-0.8c0.6-0.5,1.4-0.8,2.1-0.8
	c1.1,0,2.1,0.5,2.1,1.9v3.4H111.1z M111.1,18.2v-0.8c-0.1-0.2-0.3-0.3-0.5-0.4s-0.4-0.1-0.7-0.1c-0.6,0-1.1,0.4-1.1,0.9
	c0,0.6,0.5,0.9,1.1,0.9c0.2,0,0.5,0,0.7-0.1S110.9,18.4,111.1,18.2z"/>
<path class="st2" d="M113.2,18.7l0.5-0.8c0.5,0.4,1.1,0.7,1.7,0.7c0.7,0,1-0.3,1-0.7c0-1-3.1-0.3-3.1-2.3c0-0.8,0.7-1.6,2-1.6
	c0.7,0,1.4,0.2,2,0.7l-0.5,0.8c-0.2-0.2-0.4-0.4-0.7-0.5c-0.3-0.1-0.5-0.2-0.8-0.2c-0.6,0-1,0.3-1,0.6c0,0.9,3.1,0.2,3.1,2.3
	c0,0.9-0.8,1.6-2.1,1.6C114.6,19.5,113.8,19.3,113.2,18.7z"/>
<path class="st2" d="M118.3,16.8c0-0.4,0-0.7,0.2-1c0.1-0.3,0.3-0.6,0.6-0.9c0.2-0.3,0.5-0.5,0.9-0.6c0.3-0.1,0.7-0.2,1-0.2
	c1.5,0,2.5,1.2,2.5,2.8v0.3h-3.9c0,0.4,0.2,0.8,0.5,1c0.3,0.3,0.7,0.4,1.1,0.4c0.5,0,1-0.2,1.4-0.6l0.5,0.7
	c-0.6,0.5-1.3,0.8-2.1,0.7c-0.4,0-0.7,0-1-0.2c-0.3-0.1-0.6-0.3-0.9-0.6c-0.2-0.3-0.4-0.6-0.6-0.9C118.4,17.5,118.3,17.2,118.3,16.8
	z M120.9,15c-0.4,0-0.7,0.1-1,0.4c-0.3,0.3-0.4,0.6-0.4,1h2.9c0-0.2,0-0.4-0.1-0.5c-0.1-0.2-0.2-0.3-0.3-0.4
	c-0.1-0.1-0.3-0.2-0.5-0.3C121.3,15.1,121.1,15,120.9,15L120.9,15z"/>
<path class="st2" d="M127.3,19.4v-7.1h3.1c1.5,0,2.3,1,2.3,2.2s-0.8,2.2-2.3,2.2h-1.9v2.6L127.3,19.4z M131.4,14.5
	c0-0.2,0-0.3-0.1-0.4c-0.1-0.1-0.2-0.3-0.3-0.4c-0.1-0.1-0.2-0.2-0.4-0.2c-0.1,0-0.3-0.1-0.5-0.1h-1.7v2.3h1.7c0.2,0,0.3,0,0.5-0.1
	c0.1-0.1,0.3-0.1,0.4-0.2c0.1-0.1,0.2-0.2,0.3-0.4C131.4,14.8,131.4,14.7,131.4,14.5z"/>
<path class="st2" d="M133.7,19.4v-5.1h1.1V15c0.2-0.3,0.4-0.5,0.7-0.6c0.3-0.2,0.6-0.2,0.9-0.2v1.1c-0.1,0-0.2,0-0.3,0
	c-0.3,0-0.5,0.1-0.7,0.2c-0.2,0.1-0.4,0.3-0.6,0.5v3.5H133.7z"/>
<path class="st2" d="M137,16.8c0-0.4,0-0.7,0.2-1c0.1-0.3,0.3-0.6,0.6-0.9c0.2-0.3,0.5-0.5,0.9-0.6c0.3-0.1,0.7-0.2,1-0.2
	c1.5,0,2.5,1.2,2.5,2.8v0.3h-3.9c0,0.4,0.2,0.8,0.5,1c0.3,0.3,0.7,0.4,1.1,0.4c0.5,0,1.1-0.2,1.4-0.6l0.5,0.7
	c-0.6,0.5-1.3,0.8-2.1,0.7c-0.4,0-0.7,0-1-0.2c-0.3-0.1-0.6-0.3-0.9-0.6c-0.3-0.3-0.5-0.6-0.6-0.9C137.1,17.5,137,17.2,137,16.8z
	 M139.6,15.1c-0.4,0-0.7,0.1-1,0.4c-0.3,0.3-0.4,0.6-0.4,1h2.9c0-0.2,0-0.4-0.1-0.5c-0.1-0.2-0.2-0.3-0.3-0.5
	c-0.1-0.1-0.3-0.2-0.5-0.3C140,15.1,139.8,15,139.6,15.1z"/>
<path class="st2" d="M144.6,19.4l-2.1-5.1h1.2l1.5,3.9l1.5-3.9h1.2l-2.1,5.1H144.6z"/>
<path class="st2" d="M148.2,16.8c0-0.4,0-0.7,0.2-1c0.1-0.3,0.3-0.6,0.6-0.9c0.2-0.3,0.5-0.5,0.9-0.6c0.3-0.1,0.7-0.2,1-0.2
	c1.5,0,2.5,1.2,2.5,2.8v0.3h-3.9c0,0.4,0.2,0.8,0.5,1c0.3,0.3,0.7,0.4,1.1,0.4c0.5,0,1-0.2,1.4-0.6l0.5,0.7
	c-0.6,0.5-1.3,0.8-2.1,0.7c-0.4,0-0.7,0-1-0.2c-0.3-0.1-0.6-0.3-0.9-0.6c-0.3-0.3-0.4-0.6-0.6-0.9C148.3,17.5,148.2,17.2,148.2,16.8
	z M150.8,15.1c-0.4,0-0.7,0.1-1,0.4c-0.3,0.3-0.4,0.6-0.4,1h2.9c0-0.2,0-0.4-0.1-0.5c-0.1-0.2-0.2-0.3-0.3-0.5
	c-0.1-0.1-0.3-0.2-0.5-0.3C151.2,15.1,151,15,150.8,15.1z"/>
<path class="st2" d="M157.9,19.4v-3.2c0-0.8-0.4-1.1-1-1.1c-0.3,0-0.5,0.1-0.7,0.2c-0.2,0.1-0.4,0.3-0.6,0.5v3.6h-1.1v-5.1h1.1v0.7
	c0.2-0.3,0.5-0.5,0.8-0.6c0.3-0.1,0.6-0.2,1-0.2c1.1,0,1.6,0.6,1.6,1.7v3.6L157.9,19.4z"/>
<path class="st2" d="M160.7,18.2v-3h-0.8v-1h0.8v-1.4h1.1v1.4h1v1h-1v2.7c0,0.4,0.2,0.6,0.5,0.6c0.2,0,0.4-0.1,0.5-0.2l0.3,0.8
	c-0.3,0.2-0.7,0.4-1.1,0.3C161.1,19.5,160.7,19,160.7,18.2z"/>
<path class="st2" d="M163.7,12.9c0-0.1,0-0.3,0.1-0.4c0.1-0.1,0.2-0.2,0.3-0.3c0.1-0.1,0.3-0.1,0.4,0c0.1,0,0.3,0.1,0.4,0.2
	c0.1,0.1,0.2,0.2,0.2,0.4c0,0.1,0,0.3,0,0.4c-0.1,0.1-0.1,0.2-0.3,0.3c-0.1,0.1-0.2,0.1-0.4,0.1c-0.2,0-0.4-0.1-0.5-0.2
	C163.8,13.3,163.7,13.1,163.7,12.9z M163.8,19.4v-5.1h1.1v5.1H163.8z"/>
<path class="st2" d="M166.1,16.8c0-1.5,1-2.7,2.6-2.7c1.6,0,2.6,1.2,2.6,2.7s-1,2.7-2.6,2.7C167,19.5,166.1,18.3,166.1,16.8z
	 M170.2,16.8c0-0.9-0.5-1.7-1.5-1.7c-1,0-1.5,0.8-1.5,1.7c0,0.9,0.5,1.7,1.5,1.7C169.6,18.5,170.1,17.7,170.2,16.8L170.2,16.8z"/>
<path class="st2" d="M175.9,19.4v-3.2c0-0.8-0.4-1.1-1-1.1c-0.3,0-0.5,0.1-0.7,0.2c-0.2,0.1-0.4,0.3-0.6,0.5v3.6h-1.1v-5.1h1.1v0.7
	c0.2-0.3,0.5-0.5,0.8-0.6c0.3-0.1,0.6-0.2,1-0.2c1.1,0,1.6,0.6,1.6,1.7v3.6L175.9,19.4z"/>
<path class="st2" d="M90.1,30.8v-0.6c-0.2,0.2-0.5,0.4-0.7,0.5c-0.3,0.1-0.6,0.2-0.9,0.2c-0.2,0-0.5,0-0.7-0.1
	c-0.2-0.1-0.4-0.2-0.6-0.4c-0.2-0.2-0.3-0.4-0.4-0.6c-0.1-0.2-0.1-0.4-0.1-0.7c0-1.2,0.9-1.7,1.8-1.7c0.3,0,0.6,0,0.9,0.1
	c0.3,0.1,0.5,0.3,0.7,0.5v-0.8c0-0.6-0.5-1-1.2-1c-0.3,0-0.6,0.1-0.8,0.2c-0.3,0.1-0.5,0.3-0.7,0.5L87,26.4c0.6-0.6,1.4-0.9,2.2-0.8
	c1.1,0,2.1,0.5,2.1,1.9v3.4H90.1z M90.1,29.7v-0.8c-0.1-0.2-0.3-0.3-0.5-0.4c-0.2-0.1-0.4-0.1-0.7-0.1c-0.6,0-1.1,0.4-1.1,0.9
	c0,0.6,0.5,0.9,1.1,0.9c0.2,0,0.5,0,0.7-0.1C89.8,30,90,29.8,90.1,29.7z"/>
<path class="st2" d="M96.1,30.8v-3.2c0-0.8-0.4-1.1-1-1.1c-0.3,0-0.5,0.1-0.7,0.2c-0.2,0.1-0.4,0.3-0.6,0.5v3.6h-1.1v-5.1h1.1v0.7
	c0.2-0.3,0.5-0.5,0.8-0.6c0.3-0.1,0.6-0.2,1-0.2c1.1,0,1.6,0.6,1.6,1.7v3.6L96.1,30.8z"/>
<path class="st2" d="M102.3,30.8v-0.7c-0.2,0.3-0.4,0.5-0.7,0.6c-0.3,0.1-0.6,0.2-0.9,0.2c-1.3,0-2.3-1-2.3-2.7c0-1.7,1-2.7,2.3-2.7
	c0.3,0,0.6,0.1,0.9,0.2c0.3,0.1,0.5,0.4,0.7,0.6v-2.7h1.1v7.1H102.3z M102.3,29.3v-2c-0.2-0.2-0.3-0.4-0.6-0.5
	c-0.2-0.1-0.5-0.2-0.7-0.2c-0.9,0-1.4,0.7-1.4,1.7s0.6,1.7,1.4,1.7c0.3,0,0.5-0.1,0.7-0.2C101.9,29.7,102.1,29.5,102.3,29.3z"/>
<path class="st2" d="M112.5,30.8v-3.1h-3.7v3.1h-1.2v-7.1h1.2v2.9h3.7v-2.9h1.2v7.1H112.5z"/>
<path class="st2" d="M114.9,28.3c0-0.4,0-0.7,0.2-1s0.3-0.6,0.6-0.9c0.2-0.3,0.5-0.5,0.9-0.6c0.3-0.1,0.7-0.2,1-0.2
	c1.5,0,2.5,1.2,2.5,2.8v0.3H116c0,0.4,0.2,0.8,0.5,1c0.3,0.3,0.7,0.4,1.1,0.4c0.5,0,1.1-0.2,1.5-0.6l0.5,0.8
	c-0.6,0.5-1.3,0.8-2.1,0.7c-0.4,0-0.7,0-1.1-0.2s-0.6-0.3-0.9-0.6s-0.4-0.6-0.6-0.9C114.9,29,114.8,28.6,114.9,28.3z M117.5,26.5
	c-0.4,0-0.7,0.1-1,0.4c-0.3,0.3-0.4,0.6-0.4,1h2.9c0-0.2,0-0.4-0.1-0.5c-0.1-0.2-0.2-0.3-0.3-0.5c-0.1-0.1-0.3-0.2-0.5-0.3
	C117.8,26.5,117.6,26.5,117.5,26.5L117.5,26.5z"/>
<path class="st2" d="M124.2,30.8v-0.6c-0.2,0.2-0.5,0.4-0.7,0.5c-0.3,0.1-0.6,0.2-0.9,0.2c-0.2,0-0.5,0-0.7-0.1
	c-0.2-0.1-0.4-0.2-0.6-0.4c-0.2-0.2-0.3-0.4-0.4-0.6c-0.1-0.2-0.1-0.4-0.1-0.7c0-1.2,0.9-1.7,1.8-1.7c0.3,0,0.6,0,0.9,0.1
	c0.3,0.1,0.5,0.3,0.7,0.5v-0.8c0-0.6-0.5-1-1.2-1c-0.3,0-0.6,0.1-0.8,0.2c-0.3,0.1-0.5,0.3-0.7,0.5l-0.5-0.8
	c0.6-0.5,1.4-0.8,2.1-0.8c1.1,0,2.1,0.5,2.1,1.9v3.4H124.2z M124.2,29.7v-0.8c-0.1-0.2-0.3-0.3-0.5-0.4c-0.2-0.1-0.4-0.1-0.7-0.1
	c-0.6,0-1.1,0.4-1.1,0.9c0,0.6,0.5,0.9,1.1,0.9c0.2,0,0.5,0,0.7-0.1C123.9,30,124.1,29.8,124.2,29.7z"/>
<path class="st2" d="M126.8,30.8v-7.1h1.1v7.1H126.8z"/>
<path class="st2" d="M129.5,29.6v-3h-0.8v-1h0.8v-1.4h1.1v1.4h1v1h-1v2.7c0,0.3,0.2,0.6,0.5,0.6c0.2,0,0.4-0.1,0.5-0.2l0.3,0.8
	c-0.3,0.2-0.7,0.4-1,0.3C130,31,129.5,30.5,129.5,29.6z"/>
<path class="st2" d="M136.1,30.8v-3.2c0-0.8-0.4-1-1-1c-0.3,0-0.5,0.1-0.7,0.2c-0.2,0.1-0.4,0.3-0.6,0.5v3.6h-1.1v-7.1h1.1v2.7
	c0.2-0.3,0.5-0.5,0.8-0.6c0.3-0.1,0.6-0.2,1-0.2c1.1,0,1.6,0.6,1.6,1.6v3.6L136.1,30.8z"/>
<path class="st2" d="M141.4,30.8v-7.1h3.1c1.5,0,2.3,1,2.3,2.2s-0.8,2.2-2.3,2.2h-1.9v2.6L141.4,30.8z M145.6,26
	c0-0.2,0-0.3-0.1-0.5c-0.1-0.1-0.2-0.3-0.3-0.4c-0.1-0.1-0.2-0.2-0.4-0.2c-0.1-0.1-0.3-0.1-0.5-0.1h-1.7v2.3h1.7
	c0.2,0,0.3,0,0.5-0.1c0.1-0.1,0.3-0.1,0.4-0.2c0.1-0.1,0.2-0.2,0.3-0.4C145.5,26.3,145.6,26.1,145.6,26z"/>
<path class="st2" d="M147.8,30.8v-5.1h1.1v0.8c0.2-0.3,0.4-0.5,0.7-0.6c0.3-0.2,0.6-0.2,0.9-0.2v1.1c-0.1,0-0.2,0-0.3,0
	c-0.3,0-0.5,0.1-0.7,0.2c-0.2,0.1-0.4,0.3-0.6,0.5v3.5H147.8z"/>
<path class="st2" d="M151.2,28.3c0-0.7,0.3-1.4,0.8-1.9c0.5-0.5,1.2-0.8,1.9-0.8c0.7,0,1.4,0.3,1.9,0.8c0.5,0.5,0.8,1.2,0.8,1.9
	c0,1.5-1,2.7-2.6,2.7C152.2,31,151.2,29.7,151.2,28.3z M155.3,28.3c0-0.9-0.5-1.7-1.5-1.7c-1,0-1.5,0.8-1.5,1.7
	c0,0.9,0.5,1.7,1.5,1.7C154.8,30,155.3,29.2,155.3,28.3z"/>
<path class="st2" d="M163.8,30.8v-3.4c0-0.6-0.2-0.9-0.8-0.9c-0.2,0-0.5,0.1-0.7,0.2c-0.2,0.1-0.4,0.3-0.5,0.5v3.6h-1.1v-3.4
	c0-0.6-0.2-0.9-0.8-0.9c-0.2,0-0.5,0.1-0.7,0.2c-0.2,0.1-0.4,0.3-0.5,0.5v3.6h-1.1v-5.1h1.1v0.7c0.2-0.3,0.5-0.5,0.7-0.6
	c0.3-0.1,0.6-0.2,0.9-0.2c0.3,0,0.6,0,0.9,0.2c0.3,0.2,0.4,0.4,0.5,0.7c0.2-0.3,0.5-0.5,0.8-0.7c0.3-0.2,0.6-0.3,1-0.3
	c0.9,0,1.5,0.5,1.5,1.6v3.7H163.8z"/>
<path class="st2" d="M166.1,28.3c0-0.3,0.1-0.7,0.2-1c0.1-0.3,0.3-0.6,0.6-0.9c0.2-0.2,0.5-0.4,0.9-0.6c0.3-0.1,0.7-0.2,1-0.2
	c0.3,0,0.7,0.1,1,0.2c0.3,0.1,0.6,0.3,0.9,0.6c0.2,0.2,0.4,0.5,0.6,0.9c0.1,0.3,0.2,0.7,0.2,1c0,1.5-1,2.7-2.6,2.7
	S166.1,29.7,166.1,28.3z M170.2,28.3c0-0.9-0.5-1.7-1.5-1.7c-1,0-1.5,0.8-1.5,1.7c0,0.9,0.5,1.7,1.5,1.7
	C169.6,30,170.2,29.2,170.2,28.3z"/>
<path class="st2" d="M172.7,29.6v-3h-0.8v-1h0.8v-1.4h1.1v1.4h1v1h-1v2.7c0,0.3,0.2,0.6,0.5,0.6c0.2,0,0.4-0.1,0.5-0.2l0.3,0.8
	c-0.3,0.2-0.7,0.4-1,0.3C173.1,31,172.7,30.5,172.7,29.6z"/>
<path class="st2" d="M175.7,24.4c0-0.1,0-0.3,0.1-0.4s0.2-0.2,0.3-0.3c0.1-0.1,0.3-0.1,0.4,0c0.1,0,0.3,0.1,0.4,0.2
	c0.1,0.1,0.2,0.2,0.2,0.4c0,0.1,0,0.3,0,0.4c-0.1,0.1-0.1,0.2-0.3,0.3c-0.1,0.1-0.2,0.1-0.4,0.1c-0.2,0-0.4-0.1-0.5-0.2
	C175.8,24.7,175.7,24.6,175.7,24.4z M175.8,30.8v-5.1h1.1v5.1H175.8z"/>
<path class="st2" d="M178.1,28.3c0-0.4,0-0.7,0.2-1c0.1-0.3,0.3-0.6,0.6-0.9c0.2-0.3,0.5-0.5,0.9-0.6c0.3-0.1,0.7-0.2,1-0.2
	c1.6,0,2.6,1.2,2.6,2.7c0,1.5-1,2.7-2.6,2.7S178.1,29.7,178.1,28.3z M182.2,28.3c0-0.9-0.5-1.7-1.5-1.7c-1,0-1.5,0.8-1.5,1.7
	c0,0.9,0.5,1.7,1.5,1.7C181.6,30,182.2,29.2,182.2,28.3z"/>
<path class="st2" d="M187.9,30.8v-3.2c0-0.8-0.4-1.1-1-1.1c-0.3,0-0.5,0.1-0.7,0.2c-0.2,0.1-0.4,0.3-0.6,0.5v3.6h-1.1v-5.1h1.1v0.7
	c0.2-0.3,0.5-0.5,0.8-0.6c0.3-0.1,0.6-0.2,1-0.2c1.1,0,1.6,0.6,1.6,1.7v3.6L187.9,30.8z"/>
<path class="st1" d="M82.1,0.8h-1.1v30h1.1V0.8z"/>
</svg>
