<svg xmlns="http://www.w3.org/2000/svg" viewBox="0 0 422.41 44.66" width="407" height="43"><path d="M.18.19H2.62V6.81A2.4,2.4,0,0,0,5.24,9.44,2.37,2.37,0,0,0,7.82,6.81V.19h2.44V6.9c0,2.76-1.61,4.69-5,4.69S.18,9.66.18,6.9ZM12.92,8.84a1.38,1.38,0,1,1-1.38,1.38v-.05A1.48,1.48,0,0,1,12.92,8.84ZM16.74,8a4.94,4.94,0,0,0,3.54,1.52c1.29,0,1.93-.6,1.93-1.24,0-.83-1-1.11-2.25-1.43-1.84-.41-4.19-.92-4.19-3.4C15.77,1.62,17.38.1,20,.1a6.23,6.23,0,0,1,4.36,1.56L23,3.41a4.79,4.79,0,0,0-3.22-1.24c-1.06,0-1.65.46-1.65,1.15s.92,1,2.25,1.29c1.84.41,4.18,1,4.18,3.45,0,2-1.47,3.58-4.46,3.58a6.38,6.38,0,0,1-4.73-1.79Zm10.58.83a1.38,1.38,0,1,1-1.38,1.38A1.4,1.4,0,0,1,27.32,8.84ZM34.86.19h4.41c3.5,0,5.94,2.21,5.94,5.61s-2.44,5.57-5.94,5.57H34.86ZM39.27,9.3a3.36,3.36,0,0,0,3.5-3.22h0V5.79a3.26,3.26,0,0,0-3.5-3.49H37.21v7ZM46.91.19h7.91V2.26H49.25V4.7h5.43V6.77H49.25V9.39h5.57v2.07H46.91Zm9.75,0H61.9a3.5,3.5,0,0,1,3.77,3.59A3.5,3.5,0,0,1,61.9,7.37H59.05v4H56.66Zm4.92,2.07H59.05V5.34h2.53a1.54,1.54,0,0,0,1.65-1.43V3.78A1.48,1.48,0,0,0,61.58,2.26ZM73,9.48H68l-.69,1.93H64.71L69,.24h3l4.32,11.17H73.72ZM68.66,7.41h3.68L70.5,2.26Zm12.83,0H79.75v4h-2.4V.19H82.6a3.48,3.48,0,0,1,3.77,3.59,3.19,3.19,0,0,1-2.44,3.31l2.53,4.28H83.7l-2.21-4Zm.78-5.11H79.79V5.34h2.48A1.53,1.53,0,0,0,83.93,4V3.78a1.52,1.52,0,0,0-1.51-1.52Zm8.33,0H87.33V.19h8.93V2.3H93v9.11H90.6Zm16.88,1-3.13,8h-1.06l-3.17-8v8H97.73V.19h3.35l2.72,7,2.71-7h3.36V11.37h-2.39ZM112.12.19H120V2.26h-5.52V4.7h5.43V6.77h-5.43V9.39H120v2.07h-7.91Zm12.14,3.68v7.5h-2.39V.19h2.44l5.2,7.27V.19h2.39V11.37h-2.3ZM136.73,2.3h-3.27V.19h8.92V2.3h-3.26v9.11h-2.39V2.3ZM153.47,0a5.62,5.62,0,0,1,5.84,5.8,5.65,5.65,0,0,1-5.49,5.79h-.35a5.62,5.62,0,0,1-5.85-5.79A5.66,5.66,0,0,1,153.11,0Zm0,2.12a3.39,3.39,0,0,0-3.41,3.68,3.42,3.42,0,1,0,6.81,0,3.41,3.41,0,0,0-3.4-3.68ZM161,.19h7.91V2.26H163.4V4.7h5.43V6.77H163.4v4.64H161Zm13.93,8.46a2.62,2.62,0,0,0,1.8.83,1.66,1.66,0,0,0,1.75-1.55V.19h2.39v7.5c0,2.66-1.66,3.86-4,3.86a4.15,4.15,0,0,1-3-1.1ZM183,.19h2.43V6.81a2.4,2.4,0,0,0,2.63,2.63,2.36,2.36,0,0,0,2.57-2.63V.19h2.44V6.9c0,2.76-1.61,4.69-5,4.69S183,9.66,183,6.9ZM195.78,8a4.92,4.92,0,0,0,3.54,1.52c1.28,0,1.93-.6,1.93-1.24,0-.83-1-1.11-2.26-1.43-1.83-.41-4.18-.92-4.18-3.4,0-1.84,1.61-3.36,4.23-3.36a6.26,6.26,0,0,1,4.37,1.56l-1.33,1.75a4.81,4.81,0,0,0-3.22-1.24c-1.06,0-1.66.46-1.66,1.15s.92,1,2.25,1.29c1.84.41,4.19,1,4.19,3.45,0,2-1.47,3.58-4.46,3.58a6.42,6.42,0,0,1-4.74-1.79L195.78,8Zm12-5.71h-3.27V.19h8.93V2.3h-3.27v9.11h-2.39ZM215,.19h2.39V11.37H215Zm4.1,5.61A5.64,5.64,0,0,1,224.89,0a5.29,5.29,0,0,1,4.78,2.72l-2.07,1a3,3,0,0,0-2.71-1.61,3.48,3.48,0,0,0-3.41,3.68,3.47,3.47,0,0,0,3.41,3.68,3,3,0,0,0,2.71-1.61l2.07,1a5.24,5.24,0,0,1-4.78,2.76,5.76,5.76,0,0,1-5.84-5.88Zm12-5.61H239V2.26h-5.57V4.7h5.43V6.77h-5.43V9.39H239v2.07H231.1ZM9.7,24.66c5.75,0,9.71,4.23,9.71,10s-4,10-9.71,10S0,40.39,0,34.64,4,24.66,9.7,24.66Zm0,2.57C5.56,27.23,3,30.36,3,34.64S5.61,42,9.7,42s6.72-3.17,6.72-7.4S13.8,27.23,9.7,27.23ZM22.9,25H35.83v2.53h-10v5.6h9.84v2.53H25.8V44.2H22.9ZM39,25H51.92v2.53H41.85v5.6h9.84v2.53H41.85V44.2H39V25Zm16,0H58V44.25h-2.9Zm6.39,9.66a9.64,9.64,0,0,1,9.89-10A8.65,8.65,0,0,1,79,28.75L76.53,30a6.21,6.21,0,0,0-5.2-2.81c-3.91,0-6.9,3.08-6.9,7.41s3,7.4,6.9,7.4a6.2,6.2,0,0,0,5.2-2.8L79,40.52a8.73,8.73,0,0,1-7.63,4.09,9.69,9.69,0,0,1-9.89-10ZM81.86,25H94.78v2.53H84.71v5.6h9.84v2.53H84.71v6H94.78V44.2H81.86Zm32.88-.32c5.75,0,9.71,4.23,9.71,10s-4,10-9.71,10-9.7-4.23-9.7-10,3.95-10,9.7-10Zm0,2.57c-4.14,0-6.71,3.13-6.71,7.41s2.62,7.4,6.71,7.4,6.72-3.17,6.72-7.4S118.84,27.23,114.74,27.23ZM127.94,25h12.92v2.53H130.79v5.6h9.89v2.53h-9.84V44.2h-2.9ZM151,40.29A4.53,4.53,0,0,0,154.48,42a3.45,3.45,0,0,0,3.58-3.77V25H161V38.32c0,4.27-2.71,6.3-6.3,6.3a6.34,6.34,0,0,1-5.06-2.12L151,40.29ZM165.28,25h2.9V36.61c0,3.32,1.84,5.39,5.2,5.39s5.15-2.12,5.15-5.39V25h2.9V36.66c0,4.78-2.67,7.91-8.1,7.91s-8.09-3.13-8.09-7.86V25Zm21,14.3A8.13,8.13,0,0,0,192.33,42c3.12,0,4.23-1.61,4.23-3,0-2-2.21-2.63-4.65-3.22-3.08-.83-6.67-1.7-6.67-5.61,0-3.18,2.81-5.48,6.81-5.48a9.58,9.58,0,0,1,7,2.67l-1.66,2.12a7.47,7.47,0,0,0-5.56-2.26c-2.12,0-3.64,1.11-3.64,2.72s2.07,2.3,4.46,2.89c3.13.83,6.81,1.84,6.81,5.94,0,3-2.07,5.79-7.27,5.79a9.76,9.76,0,0,1-7.58-3.08Zm21.06-11.77h-6V25h14.81v2.53h-5.93V44.25h-2.9V27.51ZM219.14,25H222V44.25h-2.9Zm6.39,9.66a9.64,9.64,0,0,1,9.89-10,8.65,8.65,0,0,1,7.63,4.09L240.61,30a6.18,6.18,0,0,0-5.19-2.81c-3.91,0-6.9,3.08-6.9,7.41s3,7.4,6.9,7.4a6.17,6.17,0,0,0,5.19-2.8l2.44,1.28a8.73,8.73,0,0,1-7.63,4.09A9.72,9.72,0,0,1,225.53,34.64ZM246,25h12.92v2.53H248.8v5.6h9.84v2.53H248.8v6h10.07V44.2H246Zm24,0h8.14a5.76,5.76,0,0,1,6.16,5.93c0,3.22-2.25,5.88-6.16,5.88h-5.25V44.2H270Zm7.77,2.53h-4.88v6.76h4.88a3.32,3.32,0,0,0,3.54-3.4,3.28,3.28,0,0,0-3.54-3.36Zm16,9.28h-3.58V44.2h-2.9V25h8.09c3.68,0,6.16,2.39,6.16,5.93a5.42,5.42,0,0,1-4.78,5.66l4.92,7.68h-3.35ZM295,27.5H290.1v6.76H295a3.36,3.36,0,0,0,3.59-3.4A3.32,3.32,0,0,0,295,27.51Zm19-2.85c5.75,0,9.7,4.23,9.7,10s-3.95,10-9.7,10-9.71-4.23-9.71-10,4-10,9.71-10Zm0,2.58c-4.14,0-6.72,3.13-6.72,7.4S309.87,42,314,42s6.71-3.18,6.71-7.41-2.67-7.4-6.71-7.4Zm22.39-2.58A9.06,9.06,0,0,1,344,28.47l-2.35,1.38a6.61,6.61,0,0,0-5.29-2.62c-4,0-7,3.08-7,7.4s3,7.41,7,7.41a7.62,7.62,0,0,0,4.88-1.89V36.7h-6.16V34.17h9.06v7.08a10.26,10.26,0,0,1-7.78,3.41,9.69,9.69,0,0,1-10-10,9.73,9.73,0,0,1,10-10ZM354.3,36.79h-3.59V44.2h-2.89V25h8.09c3.68,0,6.16,2.39,6.16,5.93a5.42,5.42,0,0,1-4.78,5.66l4.92,7.72h-3.36Zm1.24-9.29h-4.87v6.76h4.87a3.36,3.36,0,0,0,3.59-3.4,3.3,3.3,0,0,0-3.59-3.35Zm22.31,12.74h-9.43l-1.57,4h-3.17L371.36,25H375l7.63,19.27h-3.17l-1.56-4Zm-8.6-2.57H377l-3.91-10.21Zm32.23-8.74-6.25,15.31H394l-6.25-15.31V44.24h-2.9V25H389l5.61,13.84L400.24,25h4.14V44.25h-2.9V28.93Zm7.64,10.35A8.12,8.12,0,0,0,415.19,42c3.13,0,4.23-1.61,4.23-3,0-2-2.21-2.62-4.64-3.22-3.09-.83-6.67-1.7-6.67-5.61,0-3.17,2.8-5.47,6.8-5.47a9.55,9.55,0,0,1,7,2.67l-1.66,2.11a7.47,7.47,0,0,0-5.56-2.25c-2.12,0-3.59,1.1-3.59,2.71s2.07,2.3,4.46,2.9c3.13.83,6.81,1.84,6.81,5.93,0,3-2.07,5.8-7.27,5.8a9.75,9.75,0,0,1-7.58-3.09l1.56-2.2Z" fill="#fff"/></svg>