<svg id="Layer_1" data-name="Layer 1" xmlns="http://www.w3.org/2000/svg" viewBox="0 0 158.33 158.33"><defs><style>.cls-1,.cls-5{fill:#fff;}.cls-1,.cls-7{stroke:#011e41;stroke-width:0.5px;}.cls-2{fill:#011e41;}.cls-3{fill:#c40d3c;}.cls-4,.cls-7{fill:none;}.cls-4{stroke:#231f20;stroke-miterlimit:10;stroke-width:1.33px;}.cls-6{fill:#231f20;}.cls-7{fill-rule:evenodd;}</style></defs><title>ACHP_LogoFinalColor_012820</title><circle class="cls-1" cx="85.04" cy="85.04" r="75.88" transform="translate(-41.1 79.17) rotate(-45)"/><path class="cls-2" d="M85,29.37a55.7,55.7,0,0,1,53.4,39.95H31.64A55.7,55.7,0,0,1,85,29.37Z" transform="translate(-5.88 -5.87)"/><path class="cls-2" d="M85,29.37a55.7,55.7,0,0,0-53.4,39.95h106.8A55.7,55.7,0,0,0,85,29.37Z" transform="translate(-5.88 -5.87)"/><path class="cls-3" d="M92.36,103.58v36.64a55.07,55.07,0,0,0,14.94-4.16V103.58Z" transform="translate(-5.88 -5.87)"/><path class="cls-3" d="M137.53,103.58H122.24v22.85A55.72,55.72,0,0,0,137.53,103.58Z" transform="translate(-5.88 -5.87)"/><path class="cls-3" d="M62.48,103.58v32.35a55.2,55.2,0,0,0,14.94,4.25v-36.6Z" transform="translate(-5.88 -5.87)"/><path class="cls-3" d="M32.55,103.58a55.67,55.67,0,0,0,15,22.58V103.58Z" transform="translate(-5.88 -5.87)"/><path class="cls-4" d="M163.54,85A78.5,78.5,0,1,1,85,6.54,78.53,78.53,0,0,1,163.54,85Z" transform="translate(-5.88 -5.87)"/><path class="cls-5" d="M86.21,35.84H91.7l-4.42,3L89,43.5l-4.4-2.89-4.4,2.89,1.74-4.69-4.46-3h5.47l1.65-4.57Z" transform="translate(-5.88 -5.87)"/><path class="cls-5" d="M71.8,47.74h5.5l-4.43,3,1.72,4.71-4.41-2.9-4.41,2.9,1.73-4.71-4.47-3h5.49l1.66-4.59Z" transform="translate(-5.88 -5.87)"/><path class="cls-5" d="M101.46,47.74H107l-4.43,3,1.72,4.72-4.41-2.91-4.42,2.91,1.74-4.72-4.47-3h5.48l1.67-4.59Z" transform="translate(-5.88 -5.87)"/><path class="cls-5" d="M57,59.67h5.5l-4.43,3,1.72,4.71-4.41-2.9-4.41,2.9,1.73-4.71-4.46-3h5.48l1.66-4.59Z" transform="translate(-5.88 -5.87)"/><path class="cls-5" d="M86.63,59.67h5.5l-4.43,3,1.72,4.71L85,64.45l-4.42,2.9,1.74-4.71-4.47-3h5.48L85,55.08Z" transform="translate(-5.88 -5.87)"/><path class="cls-5" d="M116.32,59.69h5.53l-4.45,3,1.72,4.73-4.43-2.92-4.43,2.92L112,62.67l-4.49-3H113l1.67-4.61Z" transform="translate(-5.88 -5.87)"/><path class="cls-6" d="M74.54,147.7a9.8,9.8,0,0,0,2.13-.86l1.39.19-1,7.48-1.61-.22.78-5.82a8,8,0,0,1-1.88.72Z" transform="translate(-5.88 -5.87)"/><path class="cls-6" d="M80.82,153a.76.76,0,0,0,.76.77c1.12.05,1.26-1.11,1.28-2.15a1.92,1.92,0,0,1-1.39.46,2.23,2.23,0,0,1-2.21-2.47A2.44,2.44,0,0,1,82,147.25c2.59.12,2.54,2.58,2.49,3.79-.15,3.18-1.27,4-3.1,4-.42,0-2.33-.1-2.24-2.08Zm2.09-3.33a1,1,0,0,0-1-1.19c-.76,0-1.07.56-1.1,1.14,0,.26,0,1.19,1,1.23S82.89,150.19,82.91,149.66Z" transform="translate(-5.88 -5.87)"/><path class="cls-6" d="M88.89,149.17a.73.73,0,0,0-.82-.71c-1.08,0-1.06,1.39-1,2.16a2,2,0,0,1,1.45-.67,2.18,2.18,0,0,1,2.26,2.29,2.42,2.42,0,0,1-.71,2,2.62,2.62,0,0,1-1.89.79c-2.6.11-2.71-2.41-2.75-3.31-.07-1.51.06-3.08,1-3.88a3,3,0,0,1,1.71-.61,2,2,0,0,1,2.33,1.87Zm.27,3.25c0-.83-.49-1.27-1-1.25-.27,0-1.08.21-1,1.37,0,.93.55,1.3,1.08,1.28S89.2,153.45,89.16,152.42Z" transform="translate(-5.88 -5.87)"/><path class="cls-6" d="M94.69,148.56a.72.72,0,0,0-.88-.64c-1.07.15-.92,1.48-.84,2.25a2.07,2.07,0,0,1,1.39-.8,2.17,2.17,0,0,1,2.46,2.08,2.45,2.45,0,0,1-.53,2.06,2.59,2.59,0,0,1-1.81,1c-2.58.35-2.92-2.15-3-3-.21-1.5-.22-3.08.69-4a3,3,0,0,1,1.66-.76,2,2,0,0,1,2.49,1.65Zm.57,3.21c-.11-.82-.6-1.22-1.14-1.15-.27,0-1.06.3-.9,1.46.12.92.67,1.24,1.19,1.17S95.4,152.79,95.26,151.77Z" transform="translate(-5.88 -5.87)"/><path class="cls-6" d="M57.76,143.14H62l-3.45,2.31,1.34,3.67-3.44-2.26-3.43,2.26,1.35-3.67-3.48-2.31H55.2l1.29-3.57Z" transform="translate(-5.88 -5.87)"/><path class="cls-6" d="M114.86,143.14h4.29l-3.45,2.31,1.34,3.67-3.44-2.26-3.44,2.26,1.36-3.67L108,143.14h4.27l1.29-3.57Z" transform="translate(-5.88 -5.87)"/><path class="cls-6" d="M39.81,139.84l-1.12-.93,3.48-10.29,1.13,1-.88,2.69,3.48,2.93,2.5-1.33,1.07.9Zm5-4.05L42,133.4l-1.81,5Z" transform="translate(-5.88 -5.87)"/><path class="cls-6" d="M34.22,134.84l-1.88-2.13c-.87-1-1.89-2.15-1.63-3.83a6,6,0,0,1,2.07-3.44A5.29,5.29,0,0,1,37,123.92c1.25.18,2.05,1.08,3,2.16l1.82,2.07Zm5.82-7-.88-1A4.23,4.23,0,0,0,37,125.34a4,4,0,0,0-3.26,1.15,5.19,5.19,0,0,0-1.73,2.8,3.09,3.09,0,0,0,1.06,2.54l1.08,1.22Z" transform="translate(-5.88 -5.87)"/><path class="cls-6" d="M33.83,118.12l.83,1.24-6.5,8.5-.83-1.26L33,119.51l-8.82,2.32-.76-1.14Z" transform="translate(-5.88 -5.87)"/><path class="cls-6" d="M22.55,118.91l-.63-1.2L30.85,113l.64,1.2Z" transform="translate(-5.88 -5.87)"/><path class="cls-6" d="M26.81,111.51c.64-.29,1.81-.86,1-3-.77-1.88-2.08-1.63-2.54-1.43-1,.43-.92,1.33-.72,2.73a8.84,8.84,0,0,1,.18,2.8,2.3,2.3,0,0,1-1.45,1.7c-1.91.78-3.45-.62-4.16-2.33a3.78,3.78,0,0,1-.13-2.93,2.66,2.66,0,0,1,1.37-1.2l.54,1.3c-1.14.54-1,1.6-.64,2.5.51,1.25,1.41,1.77,2.34,1.38s.9-1,.71-2.2c-.32-2.39-.36-2.65-.22-3.33a2.35,2.35,0,0,1,1.5-1.67c1.65-.68,3.43.06,4.39,2.38a3.89,3.89,0,0,1,.09,3.25,3.16,3.16,0,0,1-1.67,1.3Z" transform="translate(-5.88 -5.87)"/><path class="cls-6" d="M17.86,104.89a4.3,4.3,0,0,1-2.1-2.85c-.65-2.64.68-4.73,4-5.55,2.62-.64,5.49-.27,6.32,3.12.8,3.24-1.32,4.88-4,5.55A6,6,0,0,1,17.86,104.89Zm6.68-2.7a2.6,2.6,0,0,0,.38-2.33A2.63,2.63,0,0,0,23.51,98a5.7,5.7,0,0,0-3.41-.08c-2.23.55-3.74,1.68-3.2,3.85.59,2.42,2.74,2.55,4.75,2.05A5.2,5.2,0,0,0,24.54,102.19Z" transform="translate(-5.88 -5.87)"/><path class="cls-6" d="M14.59,95l-.32-3.49a4.2,4.2,0,0,1,.27-2.29,2.42,2.42,0,0,1,1.95-1.27,2.59,2.59,0,0,1,1.85.53,2.4,2.4,0,0,1,.76,1.09c.16-1,.56-1.42,1.8-1.67A13.72,13.72,0,0,0,24,87l.13,1.45a17,17,0,0,1-2.62.69c-1.45.3-1.84.67-1.69,2.31L20,93.1l4.54-.41L24.66,94Zm4.22-1.71-.2-2.14a2.94,2.94,0,0,0-.34-1.26,1.44,1.44,0,0,0-1.37-.54c-1.63.15-1.51,1.55-1.46,2.09l.2,2.14Z" transform="translate(-5.88 -5.87)"/><path class="cls-6" d="M20.14,83.29l-6.27,3.6.06-1.68L19,82.5l-4.85-3.11.06-1.52,6.06,4,3.9.14-.05,1.37Z" transform="translate(-5.88 -5.87)"/><path class="cls-6" d="M19.1,66.9a1.88,1.88,0,0,0-2.18,1.66c-.54,2.3,1.79,3.28,3.42,3.66,1.86.44,4,.39,4.49-1.79a2.09,2.09,0,0,0-.22-1.69,2,2,0,0,0-.93-.7L24,66.58c1.89.65,2.29,2.58,1.9,4.22-.78,3.36-4,3.29-5.9,2.84-2.07-.48-5-2-4.18-5.39.31-1.34,1.32-3.12,3.59-2.77Z" transform="translate(-5.88 -5.87)"/><path class="cls-6" d="M18.85,62.1a4.27,4.27,0,0,1-.05-3.54c1-2.52,3.31-3.45,6.49-2.18,2.5,1,4.62,3,3.32,6.21s-3.91,3.21-6.49,2.18A6,6,0,0,1,18.85,62.1Zm7,1.69a2.62,2.62,0,0,0,1.66-1.68,2.65,2.65,0,0,0-.05-2.36,5.68,5.68,0,0,0-2.73-2c-2.13-.85-4-.81-4.84,1.27-.92,2.31.75,3.67,2.67,4.43A5.22,5.22,0,0,0,25.86,63.79Z" transform="translate(-5.88 -5.87)"/><path class="cls-6" d="M22.71,50.8,28.07,54a3,3,0,0,0,1.79.56,2.67,2.67,0,0,0,2-1.41c1.36-2.27-.48-3.37-1.1-3.75l-5.32-3.19.67-1.12,5.35,3.2a4.21,4.21,0,0,1,1.89,2.07,3.93,3.93,0,0,1-.43,3.43A4.15,4.15,0,0,1,29.77,56a4.07,4.07,0,0,1-2.48-.82L22,52Z" transform="translate(-5.88 -5.87)"/><path class="cls-6" d="M28.1,42.34l1.21-1.44,9.5,1.69-6.39-5.38.8-1L41,42.77,39.84,44.1l-9.78-1.72,6.57,5.53-.8.94Z" transform="translate(-5.88 -5.87)"/><path class="cls-6" d="M41.79,32.08a1.89,1.89,0,0,0-2.75.09c-1.77,1.56-.43,3.71.68,5,1.26,1.43,3,2.62,4.69,1.14a2.11,2.11,0,0,0,.8-1.51,2.06,2.06,0,0,0-.35-1.11l1.12-1c1.16,1.63.37,3.42-.89,4.54-2.58,2.28-5.16.37-6.45-1.1s-2.91-4.51-.3-6.82c1-.91,2.89-1.78,4.54-.17Z" transform="translate(-5.88 -5.87)"/><path class="cls-6" d="M42.88,27.83,44,27l5.93,8.2-1.1.79Z" transform="translate(-5.88 -5.87)"/><path class="cls-6" d="M46.38,25.36l1.15-.69,4.56,7.6L56,29.92,56.65,31l-5.07,3Z" transform="translate(-5.88 -5.87)"/><path class="cls-6" d="M58.34,20.28A4.25,4.25,0,0,1,61,17.9c2.55-.92,4.76.18,5.92,3.41.91,2.53.84,5.42-2.44,6.6s-5-.8-5.93-3.41A6,6,0,0,1,58.34,20.28Zm3.38,6.37a3,3,0,0,0,4.09-1.47,5.64,5.64,0,0,0-.29-3.4c-.77-2.16-2-3.54-4.15-2.78-2.34.84-2.25,3-1.55,4.94A5.28,5.28,0,0,0,61.72,26.65Z" transform="translate(-5.88 -5.87)"/><path class="cls-6" d="M68.05,15.91l1.85-.34,6.27,7.33-1.53-8.21,1.23-.23,1.85,9.93L76,24.71l-6.47-7.52,1.57,8.43-1.21.23Z" transform="translate(-5.88 -5.87)"/><path class="cls-6" d="M84.58,14l-.11,4.34,4.66.12.11-4.34,1.36,0-.27,10.1-1.36,0,.12-4.56-4.65-.12-.12,4.56L83,24l.26-10.1Z" transform="translate(-5.88 -5.87)"/><path class="cls-6" d="M93.51,14.48l1.34.18-1.29,10-1.34-.17Z" transform="translate(-5.88 -5.87)"/><path class="cls-6" d="M97.1,22.23c-.13.69-.34,2,1.86,2.48,2,.46,2.52-.75,2.64-1.25.25-1.1-.56-1.52-1.82-2.16a8.78,8.78,0,0,1-2.39-1.47,2.3,2.3,0,0,1-.55-2.17c.46-2,2.5-2.45,4.3-2a3.79,3.79,0,0,1,2.46,1.58,2.67,2.67,0,0,1,.2,1.82l-1.38-.32c.22-1.24-.72-1.75-1.66-2-1.33-.3-2.26.13-2.49,1.11s.29,1.3,1.39,1.85c2.14,1.13,2.38,1.24,2.84,1.75a2.35,2.35,0,0,1,.51,2.18c-.4,1.75-2,2.77-4.48,2.2A3.87,3.87,0,0,1,95.82,24a3.26,3.26,0,0,1-.09-2.12Z" transform="translate(-5.88 -5.87)"/><path class="cls-6" d="M105.63,27.66l3.09-8.37-3.08-1.14.41-1.12,7.43,2.75-.42,1.12L110,19.75l-3.09,8.37Z" transform="translate(-5.88 -5.87)"/><path class="cls-6" d="M115,21.73a4.32,4.32,0,0,1,3.52.34c2.4,1.28,3.07,3.66,1.46,6.69-1.26,2.37-3.46,4.27-6.54,2.63s-2.76-4.24-1.45-6.69A6.07,6.07,0,0,1,115,21.73Zm-2.45,6.79a3,3,0,0,0,3.84,2,5.69,5.69,0,0,0,2.33-2.49c1.07-2,1.24-3.9-.74-4.95-2.19-1.17-3.72.35-4.7,2.18A5.27,5.27,0,0,0,112.59,28.52Z" transform="translate(-5.88 -5.87)"/><path class="cls-6" d="M124.62,25.93,127.43,28A4.34,4.34,0,0,1,129,29.74a2.41,2.41,0,0,1-.35,2.3,2.62,2.62,0,0,1-1.63,1,2.5,2.5,0,0,1-1.32-.16,1.82,1.82,0,0,1,0,2.45,13.74,13.74,0,0,0-1.4,2.92l-1.17-.87A17.14,17.14,0,0,1,124.37,35c.74-1.28.72-1.82-.6-2.8l-1.37-1-2.72,3.67-1.08-.8Zm-1.54,4.28,1.73,1.28a3.08,3.08,0,0,0,1.17.59,1.44,1.44,0,0,0,1.31-.67,1.63,1.63,0,0,0-.59-2.48L125,27.66Z" transform="translate(-5.88 -5.87)"/><path class="cls-6" d="M132.14,31.84l1,.91-6.78,7.5-1-.91Z" transform="translate(-5.88 -5.87)"/><path class="cls-6" d="M137.28,40.93a1.9,1.9,0,0,0-.13-2.75c-1.6-1.74-3.72-.38-5,.76-1.41,1.28-2.57,3.06-1.06,4.71a2.06,2.06,0,0,0,1.51.77,2,2,0,0,0,1.11-.36l1,1.1c-1.61,1.19-3.42.43-4.55-.81-2.33-2.55-.46-5.16,1-6.48s4.46-3,6.81-.4c.93,1,1.83,2.86.25,4.53Z" transform="translate(-5.88 -5.87)"/><path class="cls-6" d="M144.07,45.35l1.72,2.8c.62,1,1,1.75.71,2.7a2.77,2.77,0,0,1-1.3,1.64,2.72,2.72,0,0,1-2.09.38c-.72-.16-1.36-.56-2.29-2.07L140,49.45l-3.83,2.36-.71-1.16ZM141,48.83l.85,1.38c.47.76,1.25,1.89,2.66,1s.68-1.92.31-2.52l-1-1.62Z" transform="translate(-5.88 -5.87)"/><path class="cls-6" d="M148.59,53.05l1.43,3.2a4.2,4.2,0,0,1,.48,2.25,2.38,2.38,0,0,1-1.43,1.83,2.57,2.57,0,0,1-1.92.1,2.41,2.41,0,0,1-1.07-.79c.15,1-.08,1.52-1.17,2.16a13.8,13.8,0,0,0-2.65,1.85l-.6-1.32a17.72,17.72,0,0,1,2.26-1.5c1.28-.75,1.52-1.23.85-2.73l-.69-1.57-4.17,1.86-.55-1.22Zm-3.44,3,.88,2a2.94,2.94,0,0,0,.73,1.09,1.42,1.42,0,0,0,1.47.07,1.62,1.62,0,0,0,.7-2.45l-.88-2Z" transform="translate(-5.88 -5.87)"/><path class="cls-6" d="M152.31,61.89l1.74,5.91-1.14.33-1.36-4.6-3,.9,1.29,4.37-1.12.34-1.3-4.38-3.22.95,1.39,4.7-1.18.35-1.77-6Z" transform="translate(-5.88 -5.87)"/><path class="cls-6" d="M147.81,72.78c-.69.13-2,.42-1.62,2.64.32,2,1.65,2.07,2.14,2,1.12-.17,1.21-1.08,1.34-2.49a8.62,8.62,0,0,1,.48-2.76A2.33,2.33,0,0,1,152,70.84c2-.31,3.21,1.41,3.49,3.24A3.74,3.74,0,0,1,154.9,77a2.62,2.62,0,0,1-1.61.86l-.22-1.4c1.23-.26,1.35-1.32,1.2-2.27-.21-1.34-1-2-2-1.9s-1.1.75-1.21,2c-.25,2.4-.26,2.66-.56,3.29a2.34,2.34,0,0,1-1.85,1.27c-1.77.28-3.32-.85-3.71-3.34a3.9,3.9,0,0,1,.67-3.18,3.22,3.22,0,0,1,1.93-.87Z" transform="translate(-5.88 -5.87)"/><path class="cls-6" d="M156,80.18l.15,6.15-1.19,0-.11-4.79-3.15.07.11,4.56-1.18,0-.11-4.56-3.36.08.12,4.9-1.23,0-.15-6.26Z" transform="translate(-5.88 -5.87)"/><path class="cls-6" d="M156,89.27l-.37,3.48a4.18,4.18,0,0,1-.71,2.19,2.4,2.4,0,0,1-2.16.87,2.52,2.52,0,0,1-1.7-.88,2.49,2.49,0,0,1-.54-1.22c-.35.91-.82,1.28-2.09,1.28a13.79,13.79,0,0,0-3.22.27l.15-1.44a18.17,18.17,0,0,1,2.71-.17c1.47,0,1.93-.3,2.1-1.93l.18-1.7-4.53-.48L146,88.2Zm-4.46.85-.23,2.13a3.11,3.11,0,0,0,.09,1.31,1.44,1.44,0,0,0,1.24.8c1.62.17,1.77-1.23,1.83-1.77l.23-2.14Z" transform="translate(-5.88 -5.87)"/><path class="cls-6" d="M144.13,100l.35-1.45,10.65-1L154.78,99l-9.06.68,7.71,4.88-.32,1.33Z" transform="translate(-5.88 -5.87)"/><path class="cls-6" d="M151.54,110.11l-.52,1.36-10.86,0,.54-1.38,2.83,0,1.65-4.24-2.07-1.94.5-1.3Zm-5.46-3.44-1.34,3.45,5.27.11Z" transform="translate(-5.88 -5.87)"/><path class="cls-6" d="M139.07,113.27l7.86,4.21,1.56-2.9,1,.57-3.73,7-1.05-.56,1.55-2.9-7.86-4.21Z" transform="translate(-5.88 -5.87)"/><path class="cls-6" d="M144.76,123.58l-.75,1.13-8.44-5.58.75-1.13Z" transform="translate(-5.88 -5.87)"/><path class="cls-6" d="M141,127.16a4.32,4.32,0,0,1-1,3.39c-1.74,2.09-4.21,2.26-6.85.07-2.08-1.71-3.49-4.24-1.26-6.92s4.71-1.85,6.85-.08A6.06,6.06,0,0,1,141,127.16Zm-6.16-3.76a3,3,0,0,0-2.78,3.35,5.71,5.71,0,0,0,2,2.78c1.76,1.46,3.57,2,5,.28,1.59-1.91.41-3.72-1.19-5A5.31,5.31,0,0,0,134.84,123.4Z" transform="translate(-5.88 -5.87)"/><path class="cls-6" d="M134.87,135.86l-1.42,1.24L124.31,134l5.51,6.29-.94.82-6.66-7.6,1.31-1.14,9.4,3.16-5.66-6.45.93-.82Z" transform="translate(-5.88 -5.87)"/><path class="cls-2" d="M55.46,74.46l8.35,24H58.62l-1.73-5.18H47.38l-1.79,5.18H40.67l8.68-24Zm.14,15L52.27,79.18,48.71,89.42Z" transform="translate(-5.88 -5.87)"/><path class="cls-2" d="M79.68,82.3c-.1-.83-.4-4.22-3.9-4.22-3.82,0-5.42,4-5.42,8.94,0,1.43,0,8.25,5,8.25,2.16,0,4.22-1.36,4.32-4.56h5.42A8.29,8.29,0,0,1,83,96.37a9.45,9.45,0,0,1-7,2.69c-8.28,0-11-6.12-11-12.07,0-7.61,4.25-12.67,11-12.67,5.26,0,9,3.2,9,8Z" transform="translate(-5.88 -5.87)"/><path class="cls-2" d="M88.25,74.46H93.4v9.6h9.08v-9.6h5.22v24h-5.15V88H93.4V98.49H88.25Z" transform="translate(-5.88 -5.87)"/><path class="cls-2" d="M112.19,74.52h7.41c3.46,0,6.35.24,8.35,2.63a6.86,6.86,0,0,1,1.46,4.49A7.41,7.41,0,0,1,126.35,88c-1.76,1.13-4.19,1.13-5.45,1.13h-3.49v9.34h-5.22Zm5.08,10.81h2.07c1.66,0,4.75,0,4.75-3.66,0-3.26-2.76-3.26-4.22-3.26h-2.6Z" transform="translate(-5.88 -5.87)"/><path class="cls-7" d="M85,140.7a55.68,55.68,0,0,1-52.49-37.12h105A55.68,55.68,0,0,1,85,140.7Z" transform="translate(-5.88 -5.87)"/></svg>