<?xml version="1.0" encoding="UTF-8"?>
<svg id="Layer_1" data-name="Layer 1" xmlns="http://www.w3.org/2000/svg" version="1.1" viewBox="0 0 126.4 58">
  <defs>
    <style>
      .cls-1 {
        fill: #fff;
        fill-rule: evenodd;
        stroke-width: 0px;
      }
    </style>
  </defs>
  <path class="cls-1" d="M31.1,8.7c-1-4.3-1.2-5-1.8-8.4-.7.2-1.4.2-2.2.2s-1,0-1.8-.2c-2.3,4.4-2.8,4.9-6.9,12l-4.7,8.2c-3.1,5.4-6.3,10.6-9.6,15.9,1-.2,2-.3,2.7-.3s1.7.1,2.3.3c1.8-3.7,3.7-7.4,5.8-11,2.2,0,4.5,0,6.7,0s3.9,0,5.8,0c.9,3.6,1.3,7.3,1.6,11,1.4-.2,3.3-.3,4.4-.3s2.9.2,4.3.3c-.8-2.7-1.1-3.6-1.8-6.7l-1.4-6.2-3.4-14.9h0ZM24.1,10.1l1.4,6.3,1.2,6c-1.9,0-3.7,0-5.5,0s-2.6,0-4.6,0l7.5-12.4h0Z"/>
  <path class="cls-1" d="M48.2,13.4v-2.4c.6,0,.8,0,1.1,0,1.6,0,3.5.2,6.4.5-.1-.7-.1-1-.1-1.5s0-1.2.1-2.1c-3.8.2-7.6.3-11.5.3s-6.6-.2-9.9-.3c.2.7.2.9.2,1.8s0,1-.2,1.9c2.5-.3,5.1-.5,7.6-.5,0,1.8,0,3.5,0,5.3v6.6c0,4.4-.3,8.8-.5,13.3,1.3-.2,1.8-.2,3.1-.2s2.2,0,3.8.2c-.2-4.4-.3-11.3-.3-13.2l.2-9.7h0Z"/>
  <path class="cls-1" d="M69.8,13.5c.5-2.1.7-2.8,1.4-4-2.1-1.4-4-2-6.8-2-5.7,0-9.4,3.4-9.4,8.6,0,9.1,12.3,8,12.3,14.1s-2.1,4.2-4.9,4.2-5.2-1.7-5.8-4.5h-.9c-.2,1.6-.7,3.5-1.2,5.2,2.3,1.3,4.2,1.8,6.8,1.8,6.7,0,10.9-3.6,10.9-9.2,0-9.1-12.3-8-12.3-13.9s1.9-3.7,4.4-3.7,4.1,1.3,4.8,3.6h.7Z"/>
  <path class="cls-1" d="M73.8,36.3c1.5-.2,2.2-.2,3.8-.2,2.6,0,5.3.2,7.9.2,8.8,0,15.4-6,15.4-14.9s-1.8-8.6-4.9-10.9c-2.5-1.9-5.3-2.5-10.6-2.5s-5.6.2-8.3.2-1.7,0-3.3-.2c.3,5.2.4,7,.4,13.2s0,7.8-.4,15.2h0ZM92.8,28.4c-1.6,3.8-4.6,5.5-9.5,5.5s-1.7,0-3.1-.1c0-3.6-.1-7.3-.1-10.9s0-8.2.2-12.3c1.7-.2,2.5-.2,3.4-.2,2.4,0,4.2.4,5.6,1.1,3,1.6,4.7,5.3,4.7,10.4s-.6,5-1.3,6.6h0Z"/>
  <path class="cls-1" d="M102.5,30.7c0,1.9-.1,2.9-.4,5.5,1.4-.2,2-.2,3.2-.2s2,0,3.4.3c-.2-2.4-.2-3.2-.2-4.5v-4.2c0-1.3-.1-2.6-.1-3.9s.1-.5.3-.5.2,0,.5.6c2.4,4.1,4.9,8.3,7,12.5,1.5,0,2.1-.1,3.3-.1s2.1,0,4.2.1l-1.8-2.9-3.7-5.7c-1.8-2.9-2.2-3.4-3.3-5.3,3.7-1,6.7-3.1,6.7-7.3s-4.3-7.1-8.9-7.1-4.4.2-6.6.2-1.4,0-3.7-.2c.2,4.3.3,6.7.3,10.9,0,8.8,0,11.4,0,11.9h0ZM108.5,21.5c.1-3.7,0-7.5.2-11.2.8,0,1,0,1.3,0,3.5,0,5.1,1.7,5.1,5.2s-2.4,6-6.6,6h0Z"/>
  <path class="cls-1" d="M1.8,47.3h2.1l.4,1.1h1.3l-2-5.6h-1.3l-2,5.6h1.2l.4-1.1h0ZM2.8,44.2h0l.7,2.2h-1.4l.7-2.2h0Z"/>
  <path class="cls-1" d="M8.3,46.4h1.3c-.2,1.1-1.1,1.2-1.3,1.2-.8,0-1.6-.4-1.6-1.9s.8-2,1.6-2,1.2.7,1.2.9h1.2c0-.8-.7-1.9-2.4-1.9-1.9,0-2.7,1.4-2.7,2.9s1.2,2.9,2.6,2.9,1.4-.5,1.7-.8v.7h.9v-3h-2.3v.9h0Z"/>
  <polygon class="cls-1" points="15.6 42.9 11.5 42.9 11.5 48.5 15.7 48.5 15.7 47.5 12.6 47.5 12.6 46.1 15.3 46.1 15.3 45.1 12.6 45.1 12.6 43.9 15.6 43.9 15.6 42.9 15.6 42.9 15.6 42.9"/>
  <polygon class="cls-1" points="19.9 46.8 19.9 46.8 17.7 42.9 16.4 42.9 16.4 48.5 17.5 48.5 17.5 44.5 17.5 44.5 19.8 48.5 21 48.5 21 42.9 19.9 42.9 19.9 46.8 19.9 46.8 19.9 46.8"/>
  <path class="cls-1" d="M26.6,44.7c0-.8-.7-2-2.4-2s-2.6,1-2.6,2.9,1.1,2.9,2.5,2.9,2.2-.8,2.4-2.1h-1.2c-.1.7-.6,1.1-1.2,1.1-1,0-1.4-.9-1.4-1.9,0-1.6.8-1.9,1.4-1.9,1,0,1.1.6,1.2,1h1.2Z"/>
  <polygon class="cls-1" points="29.9 46.4 31.8 42.9 30.5 42.9 29.4 45.3 28.2 42.9 26.9 42.9 28.8 46.4 28.8 48.5 29.9 48.5 29.9 46.4 29.9 46.4 29.9 46.4"/>
  <polygon class="cls-1" points="35.6 46.1 38 46.1 38 45.2 35.6 45.2 35.6 43.9 38.4 43.9 38.4 42.9 34.4 42.9 34.4 48.5 35.6 48.5 35.6 46.1 35.6 46.1 35.6 46.1"/>
  <path class="cls-1" d="M38.8,45.7c0,2.6,1.9,2.9,2.7,2.9s2.7-.3,2.7-2.9-1.9-2.9-2.7-2.9-2.7.3-2.7,2.9h0ZM39.9,45.7c0-1.6.9-1.9,1.5-1.9s1.5.4,1.5,1.9-.9,1.9-1.5,1.9-1.5-.4-1.5-1.9h0Z"/>
  <path class="cls-1" d="M44.9,48.5h1.1v-2.2h1.2c.9,0,.9.3.9,1.1s0,.9.1,1.1h1.3v-.2c-.2,0-.2-.3-.2-1.1s-.2-1.2-.7-1.4c.6-.2.9-.7.9-1.3s-.3-1.6-1.8-1.6h-2.8v5.6h0ZM46,45.4v-1.5h1.5c.7,0,.8.4.8.7,0,.5-.3.8-.9.8h-1.4Z"/>
  <polygon class="cls-1" points="53.9 43.9 55.6 43.9 55.6 42.9 51.1 42.9 51.1 43.9 52.8 43.9 52.8 48.5 53.9 48.5 53.9 43.9 53.9 43.9 53.9 43.9"/>
  <path class="cls-1" d="M55.6,45.7c0,2.6,1.9,2.9,2.7,2.9s2.7-.3,2.7-2.9-1.9-2.9-2.7-2.9-2.7.3-2.7,2.9h0ZM56.8,45.7c0-1.6.9-1.9,1.5-1.9s1.5.4,1.5,1.9-.9,1.9-1.5,1.9-1.5-.4-1.5-1.9h0Z"/>
  <polygon class="cls-1" points="64 45.6 65.7 42.9 64.3 42.9 63.3 44.7 62.3 42.9 60.9 42.9 62.6 45.6 60.8 48.5 62.2 48.5 63.3 46.6 64.4 48.5 65.8 48.5 64 45.6 64 45.6 64 45.6"/>
  <polygon class="cls-1" points="67.4 42.9 66.2 42.9 66.2 48.5 67.4 48.5 67.4 42.9 67.4 42.9 67.4 42.9"/>
  <path class="cls-1" d="M73.1,44.7c0-.8-.7-2-2.4-2s-2.6,1-2.6,2.9,1.1,2.9,2.5,2.9,2.2-.8,2.4-2.1h-1.2c-.1.7-.6,1.1-1.2,1.1-1,0-1.4-.9-1.4-1.9,0-1.6.8-1.9,1.4-1.9,1,0,1.1.6,1.2,1h1.2Z"/>
  <path class="cls-1" d="M75.6,46.8c0,.7.4,1.9,2.4,1.9s2.2-.1,2.2-1.8-.7-1.3-1.5-1.5l-1.4-.3c-.2,0-.6-.1-.6-.6s.5-.7,1-.7c1,0,1.1.6,1.1.8h1.1c0-.7-.5-1.8-2.2-1.8s-2.1,1.1-2.1,1.7c0,1.2.9,1.4,1.8,1.6h.6c.6.3,1,.4,1,.8s-.6.7-1.2.7c-1,0-1.2-.6-1.2-.9h-1.1Z"/>
  <path class="cls-1" d="M85.4,42.9h-1.2v3.7c0,.7-.3,1.1-1.1,1.1s-1-.3-1-1.1v-3.6h-1.2v3.7c0,.6.1,1,.4,1.3.5.6,1.3.7,1.8.7,1.4,0,2.3-.6,2.3-2.1v-3.6h0Z"/>
  <path class="cls-1" d="M86.3,48.5h2.4c1.1,0,1.4-.2,1.8-.5.3-.3.5-.7.5-1.1s-.2-1.1-.9-1.4c.2-.1.7-.3.7-1.1s-.4-1.4-1.7-1.4h-2.7v5.6h0ZM87.4,46h1.5c.4,0,.8.2.8.7s-.3.8-.9.8h-1.4v-1.5h0ZM87.4,43.9h1.3c.5,0,.9.1.9.6s-.4.6-.8.6h-1.4v-1.2h0Z"/>
  <path class="cls-1" d="M91.5,46.8c0,.7.4,1.9,2.4,1.9s2.2-.1,2.2-1.8-.7-1.3-1.5-1.5l-1.4-.3c-.2,0-.6-.1-.6-.6s.5-.7,1-.7c1,0,1.1.6,1.1.8h1.1c0-.7-.5-1.8-2.2-1.8s-2.1,1.1-2.1,1.7c0,1.2.9,1.4,1.8,1.6h.6c.6.3,1,.4,1,.8s-.6.7-1.2.7c-1,0-1.2-.6-1.2-.9h-1.1Z"/>
  <polygon class="cls-1" points="99.1 43.9 100.8 43.9 100.8 42.9 96.3 42.9 96.3 43.9 98 43.9 98 48.5 99.1 48.5 99.1 43.9 99.1 43.9 99.1 43.9"/>
  <path class="cls-1" d="M101.8,47.3h2.1l.4,1.1h1.3l-2-5.6h-1.3l-2,5.6h1.2l.4-1.1h0ZM102.8,44.2h0l.7,2.2h-1.4l.7-2.2h0Z"/>
  <polygon class="cls-1" points="109.5 46.8 109.4 46.8 107.2 42.9 106 42.9 106 48.5 107.1 48.5 107.1 44.5 107.1 44.5 109.4 48.5 110.5 48.5 110.5 42.9 109.5 42.9 109.5 46.8 109.5 46.8 109.5 46.8"/>
  <path class="cls-1" d="M116.2,44.7c0-.8-.7-2-2.4-2s-2.6,1-2.6,2.9,1.1,2.9,2.5,2.9,2.2-.8,2.4-2.1h-1.2c-.1.7-.6,1.1-1.2,1.1-1,0-1.4-.9-1.4-1.9,0-1.6.8-1.9,1.4-1.9,1,0,1.1.6,1.2,1h1.2Z"/>
  <polygon class="cls-1" points="121 42.9 116.9 42.9 116.9 48.5 121.1 48.5 121.1 47.5 118 47.5 118 46.1 120.7 46.1 120.7 45.1 118 45.1 118 43.9 121 43.9 121 42.9 121 42.9 121 42.9"/>
  <path class="cls-1" d="M121.6,46.8c0,.7.3,1.9,2.4,1.9s2.2-.1,2.2-1.8-.7-1.3-1.5-1.5l-1.4-.3c-.2,0-.6-.1-.6-.6s.5-.7,1-.7c1,0,1.1.6,1.1.8h1.1c0-.7-.5-1.8-2.2-1.8s-2.1,1.1-2.1,1.7c0,1.2.9,1.4,1.8,1.6h.6c.6.3,1,.4,1,.8s-.6.7-1.2.7c-1,0-1.2-.6-1.2-.9h-1.1Z"/>
  <path class="cls-1" d="M19.3,56.6h2.1l.4,1.1h1.3l-2-5.6h-1.3l-2,5.6h1.2l.4-1.1h0ZM20.3,53.4h0l.7,2.2h-1.4l.7-2.2h0Z"/>
  <polygon class="cls-1" points="26.9 56 26.9 56 24.7 52.1 23.4 52.1 23.4 57.7 24.5 57.7 24.5 53.7 24.5 53.7 26.8 57.7 28 57.7 28 52.1 26.9 52.1 26.9 56 26.9 56 26.9 56"/>
  <path class="cls-1" d="M28.9,57.7h2.4c1.8,0,2.3-1.7,2.3-2.9s-.4-2.6-2.3-2.6h-2.5v5.6h0ZM30.1,53.1h1.1c.5,0,1.3.1,1.3,1.8s-.3,1.9-1.3,1.9h-1.1v-3.6h0Z"/>
  <path class="cls-1" d="M36.4,57.7h2.4c1.8,0,2.3-1.7,2.3-2.9s-.4-2.6-2.3-2.6h-2.5v5.6h0ZM37.6,53.1h1.1c.5,0,1.3.1,1.3,1.8s-.3,1.9-1.3,1.9h-1.1v-3.6h0Z"/>
  <polygon class="cls-1" points="42.9 52.1 41.7 52.1 41.7 57.7 42.9 57.7 42.9 52.1 42.9 52.1 42.9 52.1"/>
  <path class="cls-1" d="M43.6,56c0,.7.3,1.9,2.4,1.9s2.2-.1,2.2-1.8-.7-1.3-1.5-1.5l-1.4-.3c-.2,0-.6-.1-.6-.6s.5-.7,1-.7c1,0,1.1.6,1.1.8h1.1c0-.7-.5-1.8-2.2-1.8s-2.1,1.1-2.1,1.7c0,1.2.9,1.4,1.8,1.6h.6c.6.3,1,.4,1,.8s-.6.7-1.2.7c-1,0-1.2-.6-1.2-.9h-1.1Z"/>
  <polygon class="cls-1" points="53 52.1 48.9 52.1 48.9 57.7 53.2 57.7 53.2 56.7 50.1 56.7 50.1 55.3 52.8 55.3 52.8 54.3 50.1 54.3 50.1 53.1 53 53.1 53 52.1 53 52.1 53 52.1"/>
  <path class="cls-1" d="M55.1,56.6h2.1l.4,1.1h1.3l-2-5.6h-1.3l-2,5.6h1.2l.4-1.1h0ZM56.1,53.4h0l.7,2.2h-1.4l.7-2.2h0Z"/>
  <path class="cls-1" d="M59.1,56c0,.7.3,1.9,2.4,1.9s2.2-.1,2.2-1.8-.7-1.3-1.5-1.5l-1.4-.3c-.2,0-.6-.1-.6-.6s.5-.7,1-.7c1,0,1.1.6,1.1.8h1.1c0-.7-.5-1.8-2.2-1.8s-2.1,1.1-2.1,1.7c0,1.2.9,1.4,1.8,1.6h.6c.6.3,1,.4,1,.8s-.6.7-1.2.7c-1,0-1.2-.6-1.2-.9h-1.1Z"/>
  <polygon class="cls-1" points="68.4 52.1 64.4 52.1 64.4 57.7 68.6 57.7 68.6 56.7 65.5 56.7 65.5 55.3 68.2 55.3 68.2 54.3 65.5 54.3 65.5 53.1 68.4 53.1 68.4 52.1 68.4 52.1 68.4 52.1"/>
  <path class="cls-1" d="M71.4,57.7h1.1v-2.2h1.2c.9,0,.9.3.9,1.1s0,.9.1,1.1h1.3c-.2-.2-.2-.4-.2-1.3s-.3-1.2-.7-1.4c.6-.2.9-.7.9-1.3s-.3-1.6-1.7-1.6h-2.8v5.6h0ZM72.6,54.6v-1.5h1.4c.7,0,.8.4.8.7,0,.6-.3.8-.9.8h-1.4Z"/>
  <polygon class="cls-1" points="81 52.1 76.9 52.1 76.9 57.7 81.1 57.7 81.1 56.7 78 56.7 78 55.3 80.7 55.3 80.7 54.3 78 54.3 78 53.1 81 53.1 81 52.1 81 52.1 81 52.1"/>
  <path class="cls-1" d="M84.5,55.7h1.3c-.2,1.1-1.1,1.2-1.4,1.2-.8,0-1.6-.4-1.6-1.9s.8-2,1.6-2,1.2.7,1.2.9h1.2c0-.8-.7-1.9-2.4-1.9-1.9,0-2.7,1.4-2.7,2.9s1.2,2.9,2.6,2.9,1.4-.5,1.7-.8v.7h.9v-3h-2.3v.9h0Z"/>
  <polygon class="cls-1" points="88.8 52.1 87.6 52.1 87.6 57.7 88.8 57.7 88.8 52.1 88.8 52.1 88.8 52.1"/>
  <path class="cls-1" d="M89.5,56c0,.7.3,1.9,2.4,1.9s2.2-.1,2.2-1.8-.7-1.3-1.5-1.5l-1.4-.3c-.2,0-.6-.1-.6-.6s.5-.7,1-.7c1,0,1.1.6,1.1.8h1.1c0-.7-.5-1.8-2.2-1.8s-2.1,1.1-2.1,1.7c0,1.2.9,1.4,1.8,1.6h.6c.6.3,1,.4,1,.8s-.6.7-1.2.7c-1,0-1.2-.6-1.2-.9h-1.1Z"/>
  <polygon class="cls-1" points="97.2 53.1 98.9 53.1 98.9 52.1 94.3 52.1 94.3 53.1 96 53.1 96 57.7 97.2 57.7 97.2 53.1 97.2 53.1 97.2 53.1"/>
  <path class="cls-1" d="M99.4,57.7h1.1v-2.2h1.2c.9,0,.9.3.9,1.1s0,.9.1,1.1h1.3c-.2-.2-.2-.4-.2-1.3s-.2-1.2-.7-1.4c.6-.2.9-.7.9-1.3s-.3-1.6-1.7-1.6h-2.8v5.6h0ZM100.5,54.6v-1.5h1.5c.7,0,.8.4.8.7,0,.6-.3.8-.9.8h-1.4Z"/>
  <polygon class="cls-1" points="107 55.6 108.9 52.1 107.6 52.1 106.5 54.6 105.3 52.1 104 52.1 105.9 55.6 105.9 57.7 107 57.7 107 55.6 107 55.6 107 55.6"/>
</svg>