<svg width="936" height="939" viewBox="0 0 936 939" fill="none" xmlns="http://www.w3.org/2000/svg">
<circle cx="468" cy="468" r="392" stroke="white" stroke-width="30"/>
<circle cx="468" cy="468" r="301.5" stroke="white" stroke-width="15"/>
<path d="M257.032 491.827L261.958 502.739L250.701 509.352L270.411 542.903L259.927 549.063L220.571 482.072L218.915 483.044L213.989 472.132L239.593 457.09L244.519 468.002L231.055 475.912L244.671 499.089L257.032 491.827ZM316.175 502.805C317.991 505.895 318.504 508.958 317.715 511.995C316.883 514.958 314.921 517.348 311.831 519.163L303.885 523.831C300.795 525.647 297.753 526.197 294.759 525.481C291.723 524.692 289.296 522.753 287.481 519.662L253.636 462.053C251.82 458.962 251.329 455.936 252.161 452.972C252.95 449.936 254.89 447.509 257.98 445.694L265.926 441.026C269.017 439.21 272.08 438.697 275.117 439.486C278.11 440.202 280.515 442.105 282.33 445.195L316.175 502.805ZM264.672 455.569C264.304 455.785 264.228 456.077 264.445 456.445L297.641 512.951C297.857 513.319 298.149 513.395 298.517 513.179L305.139 509.288C305.507 509.072 305.583 508.78 305.367 508.412L272.17 451.906C271.954 451.538 271.662 451.462 271.294 451.679L264.672 455.569ZM355.32 479.808C357.136 482.898 357.649 485.961 356.86 488.998C356.027 491.961 354.066 494.351 350.976 496.166L343.03 500.835C339.939 502.65 336.898 503.2 333.904 502.484C330.867 501.695 328.441 499.756 326.626 496.665L292.78 439.056C290.965 435.965 290.473 432.939 291.306 429.975C292.095 426.939 294.035 424.513 297.125 422.697L305.071 418.029C308.161 416.213 311.225 415.7 314.261 416.489C317.255 417.205 319.66 419.108 321.475 422.198L355.32 479.808ZM303.817 432.572C303.449 432.788 303.373 433.08 303.589 433.448L336.786 489.954C337.002 490.322 337.294 490.398 337.662 490.182L344.284 486.291C344.652 486.075 344.727 485.783 344.511 485.415L311.315 428.909C311.099 428.541 310.807 428.466 310.439 428.682L303.817 432.572ZM394.205 456.369C396.021 459.459 396.534 462.523 395.745 465.56C394.912 468.523 392.951 470.912 389.861 472.728L371.541 483.491L332.184 416.5L330.529 417.473L325.603 406.56L344.475 395.473C347.565 393.658 350.629 393.145 353.665 393.934C356.659 394.649 359.063 396.552 360.879 399.642L394.205 456.369ZM349.843 406.126L342.669 410.341L375.995 467.067L383.169 462.853C383.537 462.637 383.613 462.345 383.397 461.977L350.719 406.354C350.502 405.986 350.21 405.91 349.843 406.126ZM433.013 417.686L439.885 429.384C440.101 429.752 440.393 429.828 440.761 429.612L445.176 427.018C445.544 426.802 445.62 426.51 445.404 426.142L433.733 406.277L422.745 407.536C421.953 407.705 420.817 407.877 419.337 408.054C417.814 408.157 416.25 407.937 414.645 407.396C413.114 406.811 411.787 405.562 410.663 403.649L395.88 378.486C394.064 375.396 393.573 372.369 394.405 369.406C395.194 366.369 397.134 363.943 400.224 362.127L405.963 358.756C409.053 356.94 412.117 356.427 415.154 357.216C418.147 357.932 420.552 359.835 422.367 362.925L431.963 379.259L420.96 384.535L412.207 369.636C411.991 369.268 411.699 369.193 411.331 369.409L406.916 372.002C406.548 372.218 406.473 372.51 406.689 372.878L420.24 395.944L431.228 394.685C432.063 394.59 433.22 394.454 434.7 394.278C436.18 394.101 437.685 394.305 439.217 394.89C440.821 395.432 442.186 396.659 443.31 398.572L456.212 420.535C458.028 423.625 458.541 426.688 457.752 429.725C456.919 432.688 454.958 435.078 451.868 436.893L446.129 440.265C443.039 442.08 439.997 442.63 437.003 441.915C433.967 441.126 431.54 439.186 429.725 436.096L422.528 423.845L433.013 417.686ZM480.788 419.309L470.303 425.469L436.907 354.977L434.92 356.144L429.994 345.232L450.19 333.367L502.419 406.601L491.934 412.761L482.94 400.23L474.221 405.353L480.788 419.309ZM469.074 394.57L476.027 390.485L450.042 354.089L469.074 394.57ZM508.303 344.208L513.229 355.12L501.972 361.734L521.683 395.284L511.198 401.444L471.842 334.453L470.186 335.426L465.26 324.513L490.864 309.471L495.791 320.383L482.326 328.293L495.942 351.47L508.303 344.208ZM565.162 355.934L570.309 366.717L546.139 380.916L506.783 313.925L505.128 314.898L500.201 303.986L525.806 288.944L530.732 299.856L517.268 307.766L530.883 330.942L543.244 323.68L548.17 334.593L536.913 341.206L550.594 364.493L565.162 355.934ZM540.647 294.031L534.617 283.767L564.967 265.937L570.997 276.201L561.064 282.036L600.42 349.027L589.936 355.186L550.579 288.196L540.647 294.031ZM621.488 290.777L641.523 324.879L631.038 331.039L611.004 296.937L572.74 261.37L583.224 255.211L606.057 276.387L598.565 246.199L609.049 240.039L621.488 290.777Z" fill="white"/>
<path d="M322.43 618.602L311.792 622.017L308.181 616.021L328.653 602.889L340.699 595.633C348.445 590.968 355.559 589.092 362.041 590.003C368.503 590.878 373.582 594.385 377.28 600.524C383.75 611.268 383.292 621.248 375.904 630.464C378.577 630.945 382.761 632.925 388.455 636.402L407.608 648.579L416.435 645.67L420.401 652.256L403.965 662.155L382.428 647.474C378.4 644.744 375.189 642.884 372.793 641.895C370.376 640.87 368.214 640.47 366.306 640.695C364.377 640.884 362.164 641.731 359.665 643.235L354.739 646.202L369.604 670.884L380.242 667.468L384.209 674.054L354.066 692.208L350.1 685.622L358.093 677.817L322.43 618.602ZM358.051 633.045C363.369 629.842 366.807 626.142 368.365 621.944C369.902 617.711 369.369 613.436 366.768 609.117C364.575 605.476 361.474 603.234 357.464 602.39C353.489 601.525 349.485 602.307 345.452 604.736L333.941 611.669L349.806 638.01L358.051 633.045ZM445.817 576.464L451.073 585.191L425.856 600.379L442.044 627.256L467.261 612.068L462.845 599.771L469.966 595.482L481.865 615.238L426.451 648.612L422.485 642.027L430.479 634.221L394.816 575.006L384.178 578.422L380.566 572.425L401.092 559.261L434.501 539.139L445.754 557.825L438.633 562.113L429.938 553.853L406.38 568.041L420.6 591.652L445.817 576.464ZM504.768 511.046C504.361 511.097 503.436 511.338 501.993 511.769C500.565 512.143 498.701 512.804 496.401 513.751C494.138 514.676 491.792 515.87 489.365 517.332C481.977 521.782 477.907 527.905 477.155 535.703C476.418 543.443 479.091 552.363 485.175 562.464C490.893 571.959 497.323 577.79 504.465 579.957C511.607 582.125 518.766 581.048 525.94 576.727C529.367 574.664 532.306 571.993 534.759 568.716C537.212 565.44 539.136 562.335 540.531 559.403C541.963 556.449 542.635 554.901 542.549 554.758L551.228 559.235C551.357 559.449 550.714 561.369 549.298 564.994C547.896 568.562 545.677 572.428 542.639 576.592C539.602 580.756 535.639 584.311 530.749 587.256C519.648 593.941 509.072 595.885 499.021 593.086C488.969 590.287 480.267 582.784 472.915 570.577C467.906 562.261 465.042 554.112 464.321 546.132C463.579 538.115 464.946 530.774 468.422 524.109C471.933 517.422 477.419 511.832 484.879 507.339C488.448 505.189 492.3 503.428 496.436 502.057C500.585 500.628 504.352 499.575 507.738 498.897C511.103 498.184 512.807 497.863 512.85 497.935L523.536 516.889L515.291 521.855L504.768 511.046ZM545.629 473.013L556.25 465.813L621.626 519.244L631.985 515.85L635.952 522.436L604.149 541.59L600.183 535.004L609.098 526.79L597.602 517.151L569.119 534.306L572.156 549.039L583.693 544.936L587.659 551.521L557.516 569.675L553.55 563.09L561.287 555.585L545.629 473.013ZM558.423 483.839L566.776 523.752L589.369 510.144L558.423 483.839ZM669.612 473.052L677.268 468.441L690.134 489.803L636.969 521.823L633.003 515.238L640.997 507.432L605.333 448.217L594.695 451.633L591.084 445.636L620.872 426.893L624.838 433.479L616.844 441.284L652.508 500.499L674.994 486.956L669.612 473.052ZM727.756 438.034L735.412 433.423L748.278 454.785L695.113 486.805L691.147 480.219L699.141 472.413L663.477 413.199L652.839 416.614L649.228 410.618L679.016 391.875L682.982 398.46L674.988 406.266L710.652 465.481L733.138 451.938L727.756 438.034Z" fill="white"/>
<circle cx="468" cy="126" r="16" fill="white"/>
<circle cx="812" cy="468" r="16" fill="white"/>
<circle cx="126" cy="468" r="16" fill="white"/>
<circle cx="224" cy="228" r="16" fill="white"/>
<circle cx="729" cy="244" r="16" fill="white"/>
<circle cx="729" cy="695" r="16" fill="white"/>
<circle cx="224" cy="711" r="16" fill="white"/>
<circle cx="158" cy="608" r="16" fill="white"/>
<circle cx="785" cy="608" r="16" fill="white"/>
<circle cx="796" cy="365" r="16" fill="white"/>
<circle cx="148" cy="365" r="16" fill="white"/>
<circle cx="330" cy="158" r="16" fill="white"/>
<circle cx="614" cy="158" r="16" fill="white"/>
<circle cx="614" cy="779" r="16" fill="white"/>
<circle cx="614" cy="779" r="16" fill="white"/>
<circle cx="330" cy="779" r="16" fill="white"/>
<circle cx="468" cy="811" r="16" fill="white"/>
<path d="M461 0L499.971 67.5H422.029L461 0Z" fill="white"/>
<path d="M461 939L499.971 871.5H422.029L461 939Z" fill="white"/>
<path d="M935.251 451.999L867.534 413.408L867.971 491.349L935.251 451.999Z" fill="white"/>
<path d="M0.252601 450.999L67.9703 412.408L67.5328 490.349L0.252601 450.999Z" fill="white"/>
<path d="M145.239 126.654L219.999 148.695L163.53 202.419L145.239 126.654Z" fill="white"/>
<path d="M782.41 812.175L708.448 787.583L766.726 735.827L782.41 812.175Z" fill="white"/>
<path d="M191.339 760.858L115.273 777.857L138.585 703.482L191.339 760.858Z" fill="white"/>
<path d="M784.508 125.873L765.175 201.379L709.451 146.882L784.508 125.873Z" fill="white"/>
<path d="M341.214 237.833L359.162 255.847L381.841 244.343L370.255 266.98L388.203 284.993L363.095 280.97L351.509 303.606L347.577 278.483L322.468 274.459L345.146 262.956L341.214 237.833Z" fill="white"/>
<path d="M282.296 315.309L295.116 328.176L311.315 319.96L303.039 336.128L315.859 348.995L297.925 346.121L289.649 362.29L286.84 344.345L268.906 341.471L285.105 333.254L282.296 315.309Z" fill="white"/>
<path d="M433.296 234.309L446.116 247.176L462.315 238.96L454.039 255.128L466.859 267.995L448.925 265.121L440.649 281.29L437.84 263.345L419.906 260.471L436.105 252.254L433.296 234.309Z" fill="white"/>
<path d="M511.377 234.786L519.07 242.506L528.789 237.576L523.824 247.277L531.516 254.997L520.755 253.273L515.79 262.974L514.104 252.207L503.343 250.483L513.063 245.553L511.377 234.786Z" fill="white"/>
<path d="M253.377 381.786L261.07 389.506L270.789 384.576L265.824 394.277L273.516 401.997L262.755 400.273L257.79 409.974L256.104 399.207L245.343 397.483L255.063 392.553L253.377 381.786Z" fill="white"/>
<path d="M619.07 698.608L600.005 681.781L578.11 694.712L588.223 671.38L569.158 654.553L594.473 656.961L604.586 633.629L610.118 658.449L635.433 660.857L613.538 673.789L619.07 698.608Z" fill="white"/>
<path d="M672.908 617.519L659.29 605.499L643.65 614.736L650.874 598.071L637.256 586.051L655.338 587.771L662.562 571.106L666.513 588.834L684.595 590.554L668.956 599.791L672.908 617.519Z" fill="white"/>
<path d="M527.403 708.02L513.785 696L498.145 705.236L505.369 688.571L491.751 676.551L509.833 678.271L517.057 661.606L521.009 679.334L539.09 681.054L523.451 690.291L527.403 708.02Z" fill="white"/>
<path d="M449.451 712.543L441.28 705.331L431.896 710.873L436.23 700.874L428.06 693.662L438.909 694.694L443.243 684.694L445.614 695.332L456.463 696.364L447.08 701.906L449.451 712.543Z" fill="white"/>
<path d="M697.511 549.328L689.341 542.116L679.957 547.658L684.291 537.659L676.12 530.447L686.97 531.479L691.304 521.48L693.675 532.117L704.524 533.149L695.14 538.691L697.511 549.328Z" fill="white"/>
</svg>
