<svg xmlns="http://www.w3.org/2000/svg" viewBox="0 0 665.1 202.27"><defs><style>.cls-1{fill:#fff;}</style></defs><title>fs-logo-full-white</title><g id="Layer_2" data-name="Layer 2"><g id="Layer_1-2" data-name="Layer 1"><path class="cls-1" d="M46.24,111.83C30.14,100.72,17.92,87.5,9,77.42,16.37,93.6,51.31,159.19,148,202l14.63-31.85C106.36,153,71.11,129,46.24,111.83Z"/><path class="cls-1" d="M35.78,50.75l-4.24,13,11.05-8,11,8-4.2-12.93,11-8H46.8L42.59,29.63,38.38,42.74H24.7Z"/><path class="cls-1" d="M211.91,169.58l19.87-47.23s-67.55,0-129.8-16.42S0,62.8,0,62.8,53,138.78,211.91,169.58Z"/><path class="cls-1" d="M255.86,71.91h31.31v9.67h-19.8v26H286v9.67H267.37V155H255.86Z"/><rect class="cls-1" x="290.73" y="97.23" width="10.82" height="57.79"/><path class="cls-1" d="M324.46,115.88v-5.52c0-4.49-.92-6.22-3.8-6.22s-3.69,1.27-3.69,5.29c0,5.87.47,6.22,7.72,12.56,8.41,7.36,10,9.77,10,18.18,0,11.28-3.91,15.54-15.42,15.54-8.29,0-12.89-3.46-12.89-11.86v-8.17h10.13v7.94c0,3.57,1.5,4.49,4,4.49,3.57,0,4-1.84,4-6.44,0-6.22-.34-7.14-6.55-12.44l-2.43-2.07c-8.63-7.37-8.74-8.29-8.74-16.23,0-10.94,5.29-14.39,15-14.39,8.06,0,12.32,3.57,12.32,10.48v8.86Z"/><path class="cls-1" d="M337.7,112.08c0-9.79,5.63-15.54,15.19-15.54,9.78,0,14,4.84,14,11.51v8.64H356.81v-4.82c0-4.37-1.62-6.21-4.15-6.21s-4.15,2.3-4.15,6.78v28.75c0,3.45,1.27,5.4,4.15,5.4s4.15-2.07,4.15-5.64v-5.39h10.12v8.75c0,8.75-7.25,11.4-13.93,11.4-8.17,0-15.3-3.68-15.3-14.39Z"/><path class="cls-1" d="M373,109.09c0-8.52,5.18-12.55,15.42-12.55,9.91,0,15.32,3.91,15.32,14V155H393.63v-6c-1.26,1.26-1.95,2.42-3.1,3.57a11.28,11.28,0,0,1-7.71,3.11c-6.45,0-10.6-2-10.6-15.77,0-11.63.93-14.27,3.92-17.38,2.53-2.65,4.37-3.57,16.8-3.57v-7.81c0-3.33-.8-5.52-4.49-5.52-3,0-4.6,1.26-4.6,4.83v3.78H373Zm16.47,17.5c-5.07,0-6.46,2.76-6.46,11.85,0,8.52.81,8.15,4.27,8.15,3.68,0,5.63-2.76,5.63-6.67V126.59Z"/><path class="cls-1" d="M409.63,71.91h10.82V155H409.63Z"/><path class="cls-1" d="M442.2,131h11.52v6.79c0,5.53,2.07,9,6.67,9,6.11,0,7.6-4.14,7.6-9.55,0-7-.35-9.33-12.31-21.18-7.38-7.37-13.48-14-13.48-25.33,0-13.58,6.34-19.45,18.88-19.45,6.22,0,10.71,2.07,13.47,4.61,1.95,1.83,3.34,4.71,3.34,10.58v7.83H467.06V87.68c0-4.72-1.95-7.48-6.44-7.48-4.71,0-6.9,2.65-6.9,9.09,0,5.64,1.15,9.09,11.73,20.14,11.29,11.75,13.36,15.77,13.36,25.79,0,13-5.06,20.49-18.76,20.49-10.6,0-17.85-4.49-17.85-14.85Z"/><path class="cls-1" d="M483,112.08c0-9.79,5.64-15.54,15.66-15.54,8.63,0,15.76,3.69,15.76,14.39v18.66h-20.6v10.79c0,5.41,1.85,6.91,5.3,6.91,4,0,5.18-2.88,5.18-7.49V136h10.12v8.17c0,5.87-4.14,11.51-16.11,11.51-8.17,0-15.31-3.68-15.31-14.39ZM493.77,122h10.48v-9.78c0-5.17-1.5-7.25-5.18-7.25-4,0-5.3,2.19-5.3,6.33Z"/><path class="cls-1" d="M519.44,97.23h10.13v6h.23c2.53-5.41,4.37-6.68,9.67-6.68v10.82c-5.41,0-9.21,1.5-9.21,7.49V155H519.44Z"/><polygon class="cls-1" points="579.07 97.23 579.06 97.23 568.24 97.23 567.9 97.23 560.47 140.81 553.05 97.23 552.71 97.23 541.88 97.23 541.88 97.23 541.9 97.3 553.51 155.02 554.77 155.02 566.17 155.02 567.43 155.02 579.05 97.3 579.07 97.23"/><rect class="cls-1" x="581.59" y="97.23" width="10.82" height="57.79"/><path class="cls-1" d="M597.93,112.08c0-9.78,5.65-15.54,15.2-15.54,9.79,0,14,4.84,14,11.51v8.63H617.05v-4.81c0-4.37-1.61-6.21-4.15-6.21s-4.15,2.3-4.15,6.78v28.75c0,3.45,1.28,5.4,4.15,5.4s4.15-2.06,4.15-5.64v-5.38h10.13v8.74c0,8.75-7.26,11.39-13.93,11.39-8.18,0-15.32-3.67-15.32-14.38Z"/><path class="cls-1" d="M631.89,112.08c0-9.78,5.64-15.54,15.65-15.54,8.64,0,15.77,3.69,15.77,14.39v18.66h-20.6v10.79c0,5.41,1.84,6.91,5.3,6.91,4,0,5.17-2.88,5.17-7.49V136h10.13v8.17c0,5.87-4.14,11.5-16.11,11.5-8.17,0-15.31-3.67-15.31-14.38ZM642.71,122h10.47v-9.78c0-5.17-1.49-7.25-5.17-7.25-4,0-5.3,2.19-5.3,6.33Z"/><path class="cls-1" d="M580.59,85.65a6.41,6.41,0,0,1,12.82,0,6.41,6.41,0,1,1-12.82,0Z"/><path class="cls-1" d="M289.74,85.65a6.41,6.41,0,0,1,12.81,0,6.41,6.41,0,1,1-12.81,0Z"/><path class="cls-1" d="M257.11,44.94c0-2.46,0-2.77-1.27-2.9l-.69-.08a.5.5,0,0,1,0-.71c1.19-.11,3.12-.23,6-.23a11,11,0,0,1,5.18.87,3.48,3.48,0,0,1,1.85,3.33c0,1.51-1.14,2.67-3,3.26a.19.19,0,0,0-.16.15s.06.1.21.15c2,.31,4.26,1.57,4.26,4.46a4.19,4.19,0,0,1-1.61,3.41c-1.24,1-3,1.44-6,1.44-1.16,0-2.27-.08-3.28-.08-1.16,0-2.4,0-3.56.08a.53.53,0,0,1,0-.74l.58-.08c1.24-.16,1.48-.23,1.48-3Zm3.06,2.82c0,.66.08.69,1.14.69,2.48,0,3.61-1,3.61-3.26A3.06,3.06,0,0,0,261.57,42c-1.32,0-1.4.05-1.4,1.08Zm0,6c0,2.33.26,3.28,2.56,3.28a3.25,3.25,0,0,0,3.44-3.43c0-2.64-1.85-4.21-4.78-4.21-1.17,0-1.22.16-1.22.67Z"/><path class="cls-1" d="M273.3,44.78c0-2.71-.24-2.76-1.48-3l-.45-.08a.49.49,0,0,1,.05-.71c1.06,0,2.25.07,3.41.07s2.38,0,3.54-.07a.49.49,0,0,1,.05.71l-.58.08c-1.24.15-1.48.26-1.48,3v5.87c0,3.54,1.11,6.52,4.78,6.52,3.46,0,4.89-2.54,4.89-6.44v-3.2c0-1.93,0-4.31-.5-5.05a1.69,1.69,0,0,0-1.32-.67l-.53-.08c-.24-.18-.21-.64.05-.71.9,0,1.9.07,2.93.07s1.82,0,2.8-.07a.47.47,0,0,1,.05.71l-.58.13c-.5.1-1,.21-1.16.62-.37.77-.37,3-.37,5.05v3c0,2.33-.37,4.48-1.74,5.92a7.07,7.07,0,0,1-5.18,1.92c-2.48,0-4.22-.51-5.44-1.64s-1.74-2.9-1.74-5.48Z"/><path class="cls-1" d="M293.37,44.94c0-2.46,0-2.77-1.27-2.9l-.69-.08a.5.5,0,0,1,0-.71c1.67-.16,3.91-.23,6.08-.23a11.34,11.34,0,0,1,5,.87,4,4,0,0,1,2.32,3.74,4.46,4.46,0,0,1-3.17,4c-.16.08-.11.28,0,.44,2.11,3.46,3.43,5.64,4.68,6.64a3.45,3.45,0,0,0,1.82.79.45.45,0,0,1,.05.51,7.1,7.1,0,0,1-1.74.16c-2.54,0-3.91-1-5.52-3.39-.72-1.07-1.46-2.48-2.09-3.48a1.49,1.49,0,0,0-1.64-.87c-.79,0-.82,0-.82.56v3.28c0,2.72.24,2.79,1.48,3l.58.08a.53.53,0,0,1-.05.74c-1.16-.05-2.35-.08-3.51-.08s-2.35,0-3.57.08a.49.49,0,0,1-.05-.74l.58-.08c1.24-.16,1.48-.23,1.48-3Zm3.06,3.69c0,.82,0,.87,1.27.87,2.59,0,3.78-1.23,3.78-3.67A3.59,3.59,0,0,0,297.83,42c-1.37,0-1.4.08-1.4,1.26Z"/><path class="cls-1" d="M312,44.78c0-2.71-.24-2.82-1.48-3l-.43-.05c-.18-.18-.15-.64.06-.74,1,0,2.24.07,3.4.07h5.05c1.69,0,3.22,0,3.57-.07.1.43.26,2.46.42,3.56a.73.73,0,0,1-.85.1c-.42-1.49-.82-2.1-1.66-2.33a8.86,8.86,0,0,0-2.11-.23h-1.77c-1.14,0-1.14.05-1.14,1.51V48c0,.67,0,.69.63.69H317c2.3,0,2.7,0,2.93-1.12l.19-.88c.21-.17.71-.17.84,0,0,.69-.08,1.62-.08,2.56s.06,1.88.08,2.7a.75.75,0,0,1-.84,0l-.19-1c-.18-1.08-.63-1.13-2.93-1.13h-1.27c-.6,0-.63,0-.63.69v3.26c0,1.3.05,2.23.45,2.66s.76.54,3,.57c3.36,0,3.94-.7,4.86-2.77a.64.64,0,0,1,.85.15,16.06,16.06,0,0,1-1.11,3.72C322,58,319.68,58,316.59,58h-3c-1.16,0-2.77,0-4,.08a.53.53,0,0,1-.05-.74l1-.11c1.24-.13,1.48-.2,1.48-2.92Z"/><path class="cls-1" d="M331,51.73c-.69,0-.66,0-.9.69L329,55.5c-.52,1.51-.42,1.56.56,1.72l.77.13a.54.54,0,0,1-.06.74c-.84-.05-1.71-.05-2.8-.08-.87,0-1.69,0-2.61.08a.56.56,0,0,1,0-.74l.79-.13A1.64,1.64,0,0,0,327.1,56c.31-.67.74-1.75,1.29-3.13L332,43.78a4.25,4.25,0,0,0,.5-1.87,4.57,4.57,0,0,0,1.85-1.23.54.54,0,0,1,.45.21c.42,1.15.77,2.36,1.19,3.51l3.8,10.74c.61,1.72.74,1.87,2.09,2.13l.39.08a.52.52,0,0,1,0,.74c-1.08-.05-2.06-.08-3.43-.08-1.14,0-2.3.05-3.23.08a.57.57,0,0,1-.07-.74l.58-.08c.95-.13,1.08-.28.68-1.36l-1.24-3.49c-.24-.69-.34-.69-1.08-.69Zm3.16-1.15c.74,0,.85,0,.64-.67l-1.11-3.08a17.14,17.14,0,0,0-.74-2h0a21.1,21.1,0,0,0-.79,2l-1.11,3c-.27.75-.22.75.42.75Z"/><path class="cls-1" d="M343.42,44.78c0-2.71-.24-2.76-1.48-3l-.45-.08c-.18-.18-.16-.61.05-.71,1.06,0,2.25.07,3.41.07s2.38,0,3.54-.07a.49.49,0,0,1,.05.71l-.58.08c-1.24.15-1.48.26-1.48,3v5.87c0,3.54,1.11,6.52,4.78,6.52,3.46,0,4.89-2.54,4.89-6.44v-3.2c0-1.93,0-4.31-.5-5.05a1.69,1.69,0,0,0-1.32-.67l-.53-.08c-.24-.18-.21-.64.05-.71.9,0,1.9.07,2.93.07s1.83,0,2.8-.07a.48.48,0,0,1,.06.71l-.58.13c-.51.1-1,.21-1.17.62-.37.77-.37,3-.37,5.05v3c0,2.33-.37,4.48-1.74,5.92a7.06,7.06,0,0,1-5.18,1.92c-2.48,0-4.22-.51-5.44-1.64s-1.74-2.9-1.74-5.48Z"/><path class="cls-1" d="M387.42,49.6c0,5-4,8.82-9.3,8.82-6,0-9.4-4.07-9.4-8.64,0-5.23,3.91-9.1,9.46-9.1C384.28,40.68,387.42,44.94,387.42,49.6ZM372.31,49c0,3.54,1.56,8.36,6.08,8.36,3,0,5.44-2.18,5.44-7.33,0-3.88-1.8-8.36-6-8.36C375.19,41.71,372.31,43.58,372.31,49Z"/><path class="cls-1" d="M397.91,41.09c1.69,0,3.17,0,3.72-.07,0,.56,0,2.48.05,3.69-.1.2-.58.25-.84.1-.27-1.49-.69-2.23-1.69-2.49a8.74,8.74,0,0,0-2.22-.2h-1.35c-1.11,0-1.11.05-1.11,1.48v4.59c0,.64,0,.7.64.7h1.55c2.3,0,2.7-.06,3-1.13l.21-.87a.63.63,0,0,1,.8,0c0,.67-.08,1.62-.08,2.57s.05,1.87.08,2.66a.62.62,0,0,1-.8,0l-.21-1c-.23-1.08-.66-1.13-3-1.13h-1.55c-.61,0-.64.05-.64.69v3.59c0,2.72.24,2.74,1.48,2.9l1.11.13a.53.53,0,0,1-.05.74c-1.69-.05-2.88-.08-4-.08s-2.35,0-3.57.08a.53.53,0,0,1,0-.74l.58-.08c1.24-.16,1.48-.23,1.48-3V44.78c0-2.71-.24-2.79-1.48-3l-.34-.05a.53.53,0,0,1,.05-.74c.92,0,2.11.07,3.27.07Z"/><path class="cls-1" d="M418.37,43.25c0-1.08,0-1.13-.71-1.13h-1.48c-2.43,0-3.14.28-4.12,2.36a.68.68,0,0,1-.84-.18c.45-1.39.84-3,1-3.87a.33.33,0,0,1,.29-.11.3.3,0,0,1,.26.11c.13.64.5.66,2.3.66h10.78c1.29,0,1.69-.07,2-.66a.68.68,0,0,1,.32-.11.4.4,0,0,1,.34.13,17.71,17.71,0,0,0-.39,4.08.65.65,0,0,1-.82.07c-.34-2-.85-2.48-3.67-2.48h-1.51c-.69,0-.71.05-.71,1.13V54.32c0,2.72.24,2.79,1.48,2.92l.95.11c.18.17.16.64-.05.74-1.54-.05-2.73-.08-3.89-.08s-2.4,0-4.09.08a.53.53,0,0,1,0-.74l1.11-.13c1.24-.16,1.47-.18,1.47-2.9Z"/><path class="cls-1" d="M437.26,49.81c-1.35,0-1.43,0-1.43.74v3.77c0,2.72.24,2.77,1.48,2.92l.79.11a.53.53,0,0,1-.05.74c-1.37-.05-2.56-.08-3.72-.08s-2.35,0-3.36.08a.53.53,0,0,1-.05-.74l.37-.06c1.24-.18,1.48-.25,1.48-3V44.78c0-2.71-.24-2.79-1.48-2.94l-.58-.08a.53.53,0,0,1,.05-.74c1.16,0,2.4.07,3.57.07s2.35,0,3.38-.07a.53.53,0,0,1,.05.74l-.45.08c-1.24.2-1.48.23-1.48,2.94v3.11c0,.71.08.76,1.43.76h6.18c1.35,0,1.43,0,1.43-.76V44.78c0-2.71-.24-2.79-1.48-2.94l-.59-.08a.54.54,0,0,1,.06-.74c1.21,0,2.4.07,3.56.07s2.35,0,3.41-.07a.53.53,0,0,1,.05.74l-.47.08c-1.24.2-1.48.23-1.48,2.94v9.54c0,2.72.24,2.79,1.48,3l.58.08c.18.17.16.64-.05.74-1.17-.05-2.35-.08-3.52-.08s-2.4,0-3.56.08a.54.54,0,0,1-.06-.74l.59-.08c1.24-.16,1.48-.23,1.48-3V50.55c0-.69-.08-.74-1.43-.74Z"/><path class="cls-1" d="M455,44.78c0-2.71-.24-2.82-1.48-3l-.42-.05a.53.53,0,0,1,.05-.74c1,0,2.24.07,3.41.07h5c1.69,0,3.22,0,3.57-.07.1.43.26,2.46.42,3.56a.73.73,0,0,1-.85.1c-.42-1.49-.82-2.1-1.66-2.33a8.86,8.86,0,0,0-2.11-.23h-1.77c-1.14,0-1.14.05-1.14,1.51V48c0,.67,0,.69.63.69H460c2.3,0,2.7,0,2.94-1.12l.18-.88c.21-.17.71-.17.84,0,0,.69-.07,1.62-.07,2.56s.05,1.88.07,2.7a.75.75,0,0,1-.84,0l-.18-1c-.19-1.08-.64-1.13-2.94-1.13H458.7c-.6,0-.63,0-.63.69v3.26c0,1.3.05,2.23.45,2.66s.77.54,3,.57c3.36,0,3.94-.7,4.87-2.77a.63.63,0,0,1,.84.15,16.06,16.06,0,0,1-1.11,3.72c-1.16-.05-3.43-.08-6.52-.08h-3c-1.17,0-2.78,0-4,.08-.21-.1-.23-.57-.05-.74l1-.11c1.24-.13,1.48-.2,1.48-2.92Z"/><polygon class="cls-1" points="141.19 7.1 141.18 7.1 71.47 24.43 210.91 24.43 141.19 7.1"/><path class="cls-1" d="M66.82,23.46a2.47,2.47,0,0,0,.6-.08L141.19,5.05,215,23.38a2.45,2.45,0,1,0,1.18-4.76L141.19,0h0L66.23,18.62a2.46,2.46,0,0,0,.59,4.84Z"/><polygon class="cls-1" points="98.02 32.61 112.01 32.61 134.45 32.61 148.44 32.61 170.88 32.61 184.88 32.61 207.31 32.61 210.88 32.61 210.88 26.54 71.49 26.54 71.49 32.61 75.58 32.61 98.02 32.61"/><path class="cls-1" d="M145,37.65h.65a2.23,2.23,0,0,0,2.4,2.23v.52a.72.72,0,0,0,.75.67h.16v64.19c7.05,1.09,13.93,2,20.52,2.79v-67h.2a.72.72,0,0,0,.75-.67v-.52a2.17,2.17,0,0,0,2.39-2.23h.61a.37.37,0,0,0,.38-.34V35.07a.36.36,0,0,0-.38-.34H145a.36.36,0,0,0-.38.34v2.24A.37.37,0,0,0,145,37.65Z"/><path class="cls-1" d="M181,37.65h.64a2.24,2.24,0,0,0,2.4,2.23v.52a.72.72,0,0,0,.76.67H185v68.61c7.52.7,14.45,1.2,20.53,1.58V41.07h.19a.72.72,0,0,0,.76-.67v-.52a2.17,2.17,0,0,0,2.39-2.23h.6a.37.37,0,0,0,.38-.34V35.07a.36.36,0,0,0-.38-.34H181a.36.36,0,0,0-.38.34v2.24A.37.37,0,0,0,181,37.65Z"/><path class="cls-1" d="M73,37.65h.65A2.23,2.23,0,0,0,76,39.88v.52a.73.73,0,0,0,.76.67h.15V87.75C83.39,90,90.24,92.16,97.43,94.2V41.07h.19a.72.72,0,0,0,.76-.67v-.52a2.18,2.18,0,0,0,2.4-2.23h.59a.38.38,0,0,0,.39-.34V35.07a.37.37,0,0,0-.39-.34H73a.36.36,0,0,0-.38.34v2.24A.37.37,0,0,0,73,37.65Z"/><path class="cls-1" d="M109,37.65h.65a2.23,2.23,0,0,0,2.4,2.23v.52a.72.72,0,0,0,.76.67h.15v57.2c6.84,1.63,13.72,3.07,20.53,4.34V41.07h.19a.71.71,0,0,0,.75-.67v-.52a2.17,2.17,0,0,0,2.4-2.23h.6a.37.37,0,0,0,.38-.34V35.07a.36.36,0,0,0-.38-.34H109a.36.36,0,0,0-.37.34v2.24A.36.36,0,0,0,109,37.65Z"/><path class="cls-1" d="M271.74,186.4h0c-.8,0-1.41.07-2.41.07s-1.75,0-2.62-.07h0l0,0a.43.43,0,0,0-.18.32.51.51,0,0,0,.11.41l0,0,.63.05a1.38,1.38,0,0,1,1.05.42c.27.48.42,2.15.42,4.7V195c0,2.73-.78,6-4.48,6-3.1,0-4.54-1.91-4.54-6v-5c0-2.4,0-2.67,1.27-2.78l.58,0,0,0a.39.39,0,0,0,.13-.38.43.43,0,0,0-.19-.39l0,0h0c-1.08,0-1.85.07-2.83.07s-1.77,0-2.84-.07h0l0,0a.46.46,0,0,0-.2.39.42.42,0,0,0,.14.38l0,0,.61,0c1.22.11,1.27.38,1.27,2.78v5.42c0,2.77.56,4.47,1.83,5.53a6.65,6.65,0,0,0,4.38,1.29,6.21,6.21,0,0,0,4.49-1.72c1.1-1.18,1.64-3,1.64-5.58v-2.6a20.84,20.84,0,0,1,.31-4.64,1.29,1.29,0,0,1,1-.48l.6-.05,0,0a.6.6,0,0,0,.11-.44.4.4,0,0,0-.19-.29Z"/><path class="cls-1" d="M275,199.35a1.41,1.41,0,0,0-1.41,1.48,1.36,1.36,0,0,0,1.41,1.39,1.34,1.34,0,0,0,1.41-1.39A1.42,1.42,0,0,0,275,199.35Z"/><path class="cls-1" d="M285.25,193.37l-1.84-1.15a3.53,3.53,0,0,1-1.9-2.72,2.3,2.3,0,0,1,2.62-2.43,2.88,2.88,0,0,1,3,2.51l0,0a.38.38,0,0,0,.34.12.55.55,0,0,0,.43-.2l0,0v0a10.07,10.07,0,0,0-.42-2.84l0-.09h-.09a3.05,3.05,0,0,1-.77-.13,8.94,8.94,0,0,0-2.17-.3c-2.88,0-4.82,1.64-4.82,4.08a5,5,0,0,0,2.54,4.06l2.19,1.42a3.35,3.35,0,0,1,1.83,3.12,2.5,2.5,0,0,1-2.75,2.52c-2.36,0-3.39-1.82-3.84-3.34v0a.35.35,0,0,0-.3-.14h0a.57.57,0,0,0-.45.2l0,0v0a10.59,10.59,0,0,0,.63,3.27l0,0h0a7.21,7.21,0,0,0,3.65.87c3,0,5-1.76,5-4.38C288.18,196.07,287.22,194.59,285.25,193.37Z"/><path class="cls-1" d="M292.25,199.35a1.42,1.42,0,0,0-1.42,1.48,1.37,1.37,0,0,0,1.42,1.39,1.34,1.34,0,0,0,1.41-1.39A1.42,1.42,0,0,0,292.25,199.35Z"/><path class="cls-1" d="M313.35,187.1a14.32,14.32,0,0,0-5.1-.69c-1.8,0-3.64.05-5.78.18h0a.41.41,0,0,0-.24.35.52.52,0,0,0,.2.45l.56.08c.82.12,1,.44,1,2.11v8.74c0,2.45-.06,2.58-1.27,2.75l-.57.07,0,0a.52.52,0,0,0-.11.46.4.4,0,0,0,.19.32h.06c1,0,1.84-.07,2.87-.07.33,0,.79,0,1.32.07.74.06,1.57.12,2.42.12A11.37,11.37,0,0,0,314,201a7.7,7.7,0,0,0,4.09-7A7,7,0,0,0,313.35,187.1Zm-4.13,14c-1.51,0-2.27-.25-2.73-.89a4.16,4.16,0,0,1-.43-2.43v-8.49c0-.45,0-1.51.18-1.64a4.83,4.83,0,0,1,2.2-.3c6.6,0,7.11,5.11,7.11,6.68C315.55,198.61,313.3,201.12,309.22,201.12Z"/><path class="cls-1" d="M332.13,198.33a.5.5,0,0,0-.42.06l0,0a6,6,0,0,1-1.58,2.18,6.79,6.79,0,0,1-2.89.33c-2,0-2.45-.25-2.69-.49s-.4-1.12-.4-2.31V194.9c0-.49,0-.49.63-.49h1.34a7.39,7.39,0,0,1,1.74.11c.39.09.53.38.62.78l.21.89,0,.06a.59.59,0,0,0,.46.14.4.4,0,0,0,.34-.19l0,0v0c0-.22,0-.51,0-.85s-.05-.89-.05-1.35,0-1,.05-1.42,0-.66,0-.91v0l0,0a.4.4,0,0,0-.34-.18.53.53,0,0,0-.46.14l-.21,1c-.11.55-.25.64-.47.71a8.85,8.85,0,0,1-1.91.13h-1.34c-.63,0-.63,0-.63-.52v-4.6c0-.79,0-.79.57-.79h1.65a11.08,11.08,0,0,1,2.2.13c1.08.27,1.29,1,1.62,2l0,.13,0,0a.48.48,0,0,0,.37.13.54.54,0,0,0,.41-.18l0,0,0-.34a21.55,21.55,0,0,0-.35-2.79l0-.11-.11,0c-.27.07-1.7.07-3.08.07h-4.32c-.9,0-1.66,0-2.71-.07h0l0,0a.48.48,0,0,0-.2.4.42.42,0,0,0,.14.39l.42.07c1.25.14,1.29.41,1.29,2.77v8.28c0,2.41-.11,2.64-1.31,2.75l-.8.07,0,0a.52.52,0,0,0-.11.46.42.42,0,0,0,.18.32H320c1.39-.05,2.15-.07,3.12-.07h2.07c2,0,4.08,0,6.16.07h.08l0-.07a19.72,19.72,0,0,0,1.05-3.23v0l0,0A.5.5,0,0,0,332.13,198.33Z"/><path class="cls-1" d="M342.82,187.34a8.34,8.34,0,0,0-4.48-.93,37,37,0,0,0-4.57.18h0a.44.44,0,0,0-.22.35.46.46,0,0,0,.15.43l0,0,.86.1c.92.1,1,.36,1,2.33v8.49c0,2.45-.06,2.58-1.27,2.75l-.52.07,0,0a.55.55,0,0,0-.12.46.46.46,0,0,0,.19.32h.07c1.08-.05,1.89-.07,2.8-.07s1.64,0,3,.07h.06a.45.45,0,0,0,.19-.36.44.44,0,0,0-.12-.42l0,0-.66-.07c-1.37-.15-1.4-.34-1.4-2.75V188.07c0-.67,0-.7,1.11-.7a3.28,3.28,0,0,1,3.58,3.55c0,2.14-1,3.33-3.29,3.75a.31.31,0,0,0-.19.3.4.4,0,0,0,.2.39h.05a7.9,7.9,0,0,0,3.23-.7,4,4,0,0,0,2.37-3.77A4.11,4.11,0,0,0,342.82,187.34Z"/><path class="cls-1" d="M359.24,201.15l-.65-.07c-.89-.11-1.17-.33-1.85-2.36l-3.29-9.64c-.3-.89-.61-1.8-.87-2.68a.45.45,0,0,0-.47-.29h-.06l0,0a2.51,2.51,0,0,1-1.14.84l-.11,0,0,.11a3.08,3.08,0,0,1-.38,1.56l-2.35,6.21c-.66,1.78-1.19,3.07-1.57,4L346,200a1.41,1.41,0,0,1-1.27,1.05l-.8.07,0,0a.43.43,0,0,0-.13.37.54.54,0,0,0,.18.4l0,0,.52,0c.54,0,1.15,0,1.72,0l.78,0c.68,0,1.17,0,1.6.05h.06a.44.44,0,0,0,.24-.36.48.48,0,0,0-.17-.43l0,0-.79-.07c-.55-.05-.55-.18-.55-.34a8.43,8.43,0,0,1,.5-1.87l.8-2.41c.14-.42.22-.47.76-.47h3.47c.65,0,.68,0,.82.49l1,3.13a5,5,0,0,1,.29,1.18c0,.13-.27.25-.69.29l-.7.07,0,0a.47.47,0,0,0-.16.41.45.45,0,0,0,.22.38h0l.47,0c.59,0,1.33,0,2.2,0s1.77,0,2.78.07h.05l0,0a.51.51,0,0,0,.15-.42.43.43,0,0,0-.15-.35Zm-6.12-6.4c-.05.07-.36.07-.48.07h-2.83a1.77,1.77,0,0,1-.45,0,1,1,0,0,1,.09-.35h0l1.45-4c.18-.5.35-.92.45-1.15.13.31.29.79.44,1.23l1.24,3.75C353.07,194.41,353.17,194.69,353.12,194.75Z"/><path class="cls-1" d="M374.56,201.48h0a2.57,2.57,0,0,1-1.51-.62c-1.59-1.33-2.86-3.27-4.6-6.08-.14-.23-.16-.34-.14-.39a4.38,4.38,0,0,0,2.92-3.94,3.55,3.55,0,0,0-2-3.33,8.32,8.32,0,0,0-3.89-.7c-2.1,0-3.73.05-5.14.18h-.05a.45.45,0,0,0-.21.36.51.51,0,0,0,.17.43l.8.12c.81.1.9.34.9,2.56v8.26c0,2.45-.07,2.6-1.27,2.75l-.63.07,0,0a.61.61,0,0,0-.1.48.42.42,0,0,0,.19.29H360c1,0,1.84-.07,2.87-.07s1.77,0,2.73.07h.06a.45.45,0,0,0,.19-.36.47.47,0,0,0-.12-.42l0,0-.52-.07c-1.21-.17-1.27-.3-1.27-2.75v-2.9c0-.38,0-.38,1-.38a1.53,1.53,0,0,1,1.53.68c.35.51.76,1.17,1.16,1.8s.79,1.24,1.09,1.67c1.57,2.24,2.75,3,4.86,3a3.67,3.67,0,0,0,1.06-.12l0,0a.32.32,0,0,0,.12-.3A.26.26,0,0,0,374.56,201.48Zm-9.11-7.37a9.42,9.42,0,0,1-1.48-.06,2.16,2.16,0,0,1-.05-.69V188c0-.54,0-.61,1.37-.61a3.58,3.58,0,0,1,2.46,6.17A3.85,3.85,0,0,1,365.45,194.11Z"/><path class="cls-1" d="M387.37,185.84l0,0,0,0c-.31.54-.45.59-1.69.59h-9.41c-1,0-1.62,0-1.73-.62v0l0,0a.65.65,0,0,0-.59,0l-.05,0v.06a24.93,24.93,0,0,1-.86,3.4l0,0,0,.05a.59.59,0,0,0,.38.28.52.52,0,0,0,.41-.08l0,0,0,0a4.11,4.11,0,0,1,1-1.54,4.57,4.57,0,0,1,2.74-.54h1.27c.56,0,.56,0,.56.61v10.28c0,2.41-.11,2.64-1.31,2.75l-.82.07h-.06a.47.47,0,0,0-.18.42.46.46,0,0,0,.19.38h.06c1.46,0,2.26-.07,3.19-.07s1.61,0,3,.07h.06a.5.5,0,0,0,.2-.41.4.4,0,0,0-.14-.38l-.79-.09c-1.19-.1-1.27-.28-1.27-2.75V188a1.26,1.26,0,0,1,0-.54c.05-.05.23-.05.49-.05h1.63a4.5,4.5,0,0,1,2.6.55,2.68,2.68,0,0,1,.52,1.59v0l0,0a.56.56,0,0,0,.46.14.45.45,0,0,0,.35-.21v-.07a13.68,13.68,0,0,1,.34-3.45V186l0,0C387.85,185.79,387.52,185.78,387.37,185.84Z"/><path class="cls-1" d="M408.31,201.15l-.78-.07c-.92-.08-.95-.55-1-1.57v-.18c-.14-2.58-.19-5.81-.22-8.16,0-.68,0-1.3,0-1.84,0-1.55.11-1.92,1.5-2.05l.52-.05,0,0a.58.58,0,0,0,0-.77l0,0h0c-.66,0-1.42.07-2,.07a16.74,16.74,0,0,1-1.71-.07h-.13v.12a11.44,11.44,0,0,1-1.51,3.91l-2.56,5.2c-.48,1-1,2-1.51,2.94-.44-.82-.84-1.65-1.27-2.54l-2.85-5.76a9.13,9.13,0,0,1-1.18-3.73l0-.15-.16,0c-.75.07-1.36.07-1.89.07s-1.1,0-1.81-.07h0l0,0a.42.42,0,0,0-.21.32.56.56,0,0,0,.08.45l0,0,.42.06c1.29.17,1.48.41,1.43,1.84,0,1.15-.13,3.1-.25,5.13-.14,2.32-.26,3.59-.39,5.06s-.4,1.64-1.32,1.77l-.54.07,0,0a.4.4,0,0,0-.13.32.58.58,0,0,0,.18.44l0,0h0c.76,0,1.59-.07,2.34-.07.9,0,1.78,0,2.55.07h.06a.4.4,0,0,0,.2-.31.54.54,0,0,0-.15-.47l0,0-.92-.07c-.74-.06-.92-.25-.92-2s.09-3.88.17-5.39v-.19c.05-1.13.11-2.29.19-3.5.24.51.47,1.05.7,1.57s.4.94.6,1.38l2.08,4.44.28.6a42.62,42.62,0,0,1,1.73,4l0,0a.38.38,0,0,0,.31.15.36.36,0,0,0,.34-.17c.39-1,1.37-3,2.48-5.23l2-4c.2-.38.47-.94.74-1.48s.42-.86.57-1.16l.06,9.19c0,1.46,0,1.72-1,1.83l-.71.07,0,0a.53.53,0,0,0-.13.4.48.48,0,0,0,.19.37l0,0h.05c.89,0,1.92-.07,2.77-.07s1.78,0,2.71.07h0l0,0a.42.42,0,0,0,.19-.33.51.51,0,0,0-.12-.44Z"/><path class="cls-1" d="M422.25,198.33a.52.52,0,0,0-.43.06l0,0a5.85,5.85,0,0,1-1.58,2.18,6.76,6.76,0,0,1-2.88.33c-2,0-2.46-.25-2.7-.49s-.4-1.12-.4-2.31V194.9c0-.49,0-.49.64-.49h1.33a7.3,7.3,0,0,1,1.74.11c.39.09.53.38.62.78l.21.89,0,.06a.6.6,0,0,0,.46.14.44.44,0,0,0,.35-.19v-.06c0-.22,0-.51,0-.85s-.06-.89-.06-1.35,0-1,.06-1.42,0-.66,0-.91v-.06a.43.43,0,0,0-.35-.18.53.53,0,0,0-.46.14l-.21,1c-.11.55-.25.64-.46.71a9,9,0,0,1-1.92.13h-1.33c-.64,0-.64,0-.64-.52v-4.6c0-.79,0-.79.57-.79h1.65a11.08,11.08,0,0,1,2.2.13c1.08.27,1.29,1,1.62,2l0,.13,0,.05a.46.46,0,0,0,.37.12.5.5,0,0,0,.4-.18l0,0,0-.32a21.8,21.8,0,0,0-.34-2.81l0-.11-.11,0a30.6,30.6,0,0,1-3.08.07H413.2c-.9,0-1.66,0-2.71-.07h0l0,0a.48.48,0,0,0-.2.4.43.43,0,0,0,.14.39l.42.07c1.25.14,1.3.41,1.3,2.77v8.28c0,2.41-.11,2.64-1.32,2.75l-.8.07,0,0a.52.52,0,0,0-.11.46.4.4,0,0,0,.19.32h.06c1.39-.05,2.15-.07,3.12-.07h2.07c2,0,4.09,0,6.16.07h.08l0-.07a19.72,19.72,0,0,0,1-3.23v0l0,0A.48.48,0,0,0,422.25,198.33Z"/><path class="cls-1" d="M440.07,186.4h0c-.75,0-1.34.07-2.36.07-.82,0-1.58,0-2.71-.07h0a.39.39,0,0,0-.22.31.51.51,0,0,0,.14.48l0,0,.43.05c.81.1,1.21.22,1.33.4.29.45.44,2.11.44,4.69v4.92c0,.29,0,.6,0,.77-.84-.85-1.71-1.83-2.81-3.06l-3.14-3.53c-2.28-2.55-3.59-4.23-3.88-5l0-.09-.1,0a7.46,7.46,0,0,1-1,.07c-.41,0-1.63,0-2.59-.07h0l0,0a.42.42,0,0,0-.21.31.59.59,0,0,0,.13.46l0,0,.44.05a2.23,2.23,0,0,1,1.34.51,2,2,0,0,1,.48,1.57v6.85a21,21,0,0,1-.29,4.48c-.09.19-.39.32-.91.39l-.67.07,0,0a.49.49,0,0,0-.12.4.51.51,0,0,0,.18.37l0,0h0c.79,0,1.4-.07,2.39-.07.8,0,1.57,0,2.68.07H429l0,0a.45.45,0,0,0,.18-.31.53.53,0,0,0-.11-.44l0,0-.77-.07c-.58-.05-1-.18-1.07-.38-.26-.44-.4-2.16-.4-4.69v-5a8.07,8.07,0,0,1,.07-1.28c.35.39,1,1.16,1.59,1.85.37.45.72.87.95,1.12l5.33,6.08c2.08,2.36,2.68,3.09,2.94,3.46l0,.05h.06a.55.55,0,0,0,.56-.34v-.05c0-.27-.07-1.19-.07-4v-5.81a16.67,16.67,0,0,1,.34-4.37c0-.09.35-.28,1.19-.41l.36-.06,0,0a.5.5,0,0,0,.13-.42.43.43,0,0,0-.19-.34Z"/><path class="cls-1" d="M455.43,185.84l0,0,0,0c-.3.54-.45.59-1.68.59h-9.45c-1,0-1.59,0-1.7-.62v0l0,0a.65.65,0,0,0-.59,0l-.05,0v.06a23.64,23.64,0,0,1-.87,3.4l0,0,0,.05a.56.56,0,0,0,.38.28.49.49,0,0,0,.4-.08l0,0v0a4.14,4.14,0,0,1,1-1.54,4.57,4.57,0,0,1,2.74-.54h1.27c.56,0,.56,0,.56.61v10.28c0,2.41-.11,2.64-1.31,2.75l-.83.07h-.05a.47.47,0,0,0-.18.42.44.44,0,0,0,.19.38h.06c1.46,0,2.26-.07,3.19-.07s1.61,0,3,.07h.06a.49.49,0,0,0,.19-.41.38.38,0,0,0-.13-.38l-.8-.09c-1.18-.1-1.26-.28-1.26-2.75V188a1.26,1.26,0,0,1,.05-.54c0-.05.22-.05.49-.05h1.63a4.46,4.46,0,0,1,2.59.55,2.6,2.6,0,0,1,.53,1.59v0l0,0a.55.55,0,0,0,.45.14.42.42,0,0,0,.35-.21l0,0v0a13.72,13.72,0,0,1,.35-3.45V186l0,0C455.91,185.79,455.57,185.78,455.43,185.84Z"/><path class="cls-1" d="M471.34,186.11a8.1,8.1,0,0,0-8.31,8.24c0,3.94,2.86,7.92,8.31,7.92a8,8,0,0,0,8.11-8.15,8.22,8.22,0,0,0-2-5.55A8,8,0,0,0,471.34,186.11Zm.3,15.2c-4.78,0-6.06-4.84-6.06-7.7,0-4.83,2.9-6.54,5.37-6.54,4.39,0,5.95,4.18,5.95,7.76C476.9,199.61,474.07,201.31,471.64,201.31Z"/><path class="cls-1" d="M491.87,186.53v-.16l-.16,0a30.13,30.13,0,0,1-3.07.07h-4.23c-.88,0-1.65,0-2.66-.07h0l0,0c-.14.06-.19.25-.2.4a.45.45,0,0,0,.13.39l.43.07c1.2.14,1.27.3,1.27,2.77v8.28c0,2.45-.07,2.6-1.27,2.75l-.62.07,0,0a.56.56,0,0,0-.11.46.4.4,0,0,0,.19.32h.06c1,0,1.83-.07,2.87-.07s1.66,0,3,.07h.06a.5.5,0,0,0,.2-.41.4.4,0,0,0-.14-.38l-.84-.09c-1.25-.11-1.29-.34-1.29-2.75v-3.2c0-.49,0-.49.64-.49h1.56a8.07,8.07,0,0,1,1.73.1,1,1,0,0,1,.66.79l.24.94,0,0a.66.66,0,0,0,.5.13.43.43,0,0,0,.28-.15l0,0v0c0-.24,0-.54,0-.89s-.05-.89-.05-1.34,0-1,.05-1.4,0-.68,0-.93v0l0,0a.41.41,0,0,0-.35-.15.53.53,0,0,0-.45.14l-.23,1c-.14.59-.3.65-.49.72a9,9,0,0,1-1.92.13h-1.56c-.64,0-.64,0-.64-.5v-4.85c0-.79,0-.79.57-.79h1.4a10.11,10.11,0,0,1,2.2.13c1,.26,1.31.94,1.52,2.09v0l0,0a.51.51,0,0,0,.44.09.42.42,0,0,0,.3-.2l0,0v0C491.89,188.72,491.87,187.62,491.87,186.53Z"/><path class="cls-1" d="M512.3,185.84l0,0,0,0c-.3.54-.45.59-1.68.59h-9.45c-1,0-1.59,0-1.7-.62v0l0,0a.67.67,0,0,0-.6,0l0,0v.06a23.64,23.64,0,0,1-.87,3.4l0,0,0,.05a.56.56,0,0,0,.38.28.49.49,0,0,0,.4-.08l0,0v0a4.14,4.14,0,0,1,1-1.54,4.53,4.53,0,0,1,2.74-.54h1.27c.56,0,.56,0,.56.61v10.28c0,2.41-.11,2.64-1.31,2.75l-.83.07h-.05a.44.44,0,0,0-.18.42.45.45,0,0,0,.18.38h.07c1.46,0,2.26-.07,3.19-.07s1.61,0,3,.07h.06a.49.49,0,0,0,.19-.41.42.42,0,0,0-.13-.38l-.8-.09c-1.18-.1-1.26-.28-1.26-2.75V188c0-.29,0-.48,0-.54s.22-.05.49-.05h1.63a4.46,4.46,0,0,1,2.59.55,2.6,2.6,0,0,1,.53,1.59v0l0,0a.54.54,0,0,0,.45.14.42.42,0,0,0,.35-.21l0,0v0a13.72,13.72,0,0,1,.35-3.45V186l0,0C512.79,185.79,512.45,185.78,512.3,185.84Z"/><path class="cls-1" d="M530.1,201.08c-1.2-.15-1.27-.3-1.27-2.75v-8.28c0-2.47.08-2.65,1.27-2.77l.48-.05.06,0a.45.45,0,0,0,.13-.39c0-.15-.06-.34-.19-.4l0,0h0c-1.1.05-1.85.07-2.7.07s-1.64,0-2.78-.07h0l0,0a.48.48,0,0,0-.2.4.43.43,0,0,0,.14.39l.49.07c1.25.12,1.29.39,1.29,2.77v2.64c0,.61,0,.61-1,.61h-6.58c-1,0-1,0-1-.61v-2.64c0-2.47.08-2.65,1.26-2.77l.44-.05.06,0a.43.43,0,0,0,.14-.39.48.48,0,0,0-.2-.4l0,0h0c-1,0-1.81.07-2.66.07-.61,0-1.14,0-1.7,0-.37,0-.76,0-1.2,0h0l0,0a.45.45,0,0,0-.19.4.39.39,0,0,0,.13.39l.66.07c1,.08,1.24.29,1.24,2.77v8.28c0,2.41-.06,2.54-1.23,2.75l-.43.07,0,0a.59.59,0,0,0-.11.46.46.46,0,0,0,.19.32h.06l.87,0c.56,0,1.14,0,1.8,0,.88,0,1.64,0,2.91.07H520a.5.5,0,0,0,.2-.41.4.4,0,0,0-.14-.38l-.72-.09c-1.18-.13-1.29-.36-1.29-2.75v-3.24c0-.62,0-.62,1-.62h6.58c1,0,1,0,1,.62v3.24c0,2.39,0,2.54-1.29,2.75l-.48.07,0,0a.56.56,0,0,0-.11.46.4.4,0,0,0,.19.32H525c1.08-.05,1.89-.07,2.78-.07s1.72,0,2.77.07h.07a.49.49,0,0,0,.19-.41.42.42,0,0,0-.13-.38Z"/><path class="cls-1" d="M544.74,198.33a.5.5,0,0,0-.42.06l0,0a6,6,0,0,1-1.58,2.18,6.79,6.79,0,0,1-2.89.33c-2,0-2.45-.25-2.69-.49s-.4-1.12-.4-2.31V194.9c0-.49,0-.49.63-.49h1.34a7.39,7.39,0,0,1,1.74.11c.39.09.53.38.62.78l.21.89,0,.06a.58.58,0,0,0,.45.14.41.41,0,0,0,.35-.19l0,0v0c0-.22,0-.51,0-.85s0-.89,0-1.35,0-1,0-1.42,0-.66,0-.91v0l0,0a.4.4,0,0,0-.35-.18.52.52,0,0,0-.45.14l-.21,1c-.11.55-.25.64-.47.71a8.85,8.85,0,0,1-1.91.13h-1.34c-.63,0-.63,0-.63-.52v-4.6c0-.79,0-.79.56-.79h1.66a11.08,11.08,0,0,1,2.2.13c1.08.27,1.29,1,1.62,2l0,.13,0,.05a.49.49,0,0,0,.37.12.54.54,0,0,0,.41-.18l0,0,0-.32a21.41,21.41,0,0,0-.35-2.81l0-.11-.12,0a30.48,30.48,0,0,1-3.07.07H535.7c-.9,0-1.66,0-2.71-.07h0l0,0a.48.48,0,0,0-.2.4.43.43,0,0,0,.14.39l.42.07c1.25.14,1.29.41,1.29,2.77v8.28c0,2.41-.11,2.64-1.31,2.75l-.8.07,0,0a.52.52,0,0,0-.11.46.42.42,0,0,0,.18.32h.06c1.4-.05,2.16-.07,3.13-.07h2.07c2,0,4.08,0,6.16.07H544l0-.07a20.73,20.73,0,0,0,1.05-3.23v-.07A.5.5,0,0,0,544.74,198.33Z"/><path class="cls-1" d="M564.63,185.84l0,0,0,0c-.31.54-.45.59-1.69.59h-9.44c-1.05,0-1.6,0-1.7-.62v0l0,0a.65.65,0,0,0-.59,0l-.05,0v.06a24.93,24.93,0,0,1-.86,3.4l0,0,0,.05a.59.59,0,0,0,.38.28.52.52,0,0,0,.41-.08l0,0,0,0a4.11,4.11,0,0,1,1-1.54,4.57,4.57,0,0,1,2.74-.54H556c.56,0,.56,0,.56.61v10.28c0,2.41-.11,2.64-1.31,2.75l-.82.07h-.06a.47.47,0,0,0-.18.42.46.46,0,0,0,.19.38h.06c1.46,0,2.26-.07,3.19-.07s1.61,0,3,.07h.06a.5.5,0,0,0,.2-.41.4.4,0,0,0-.14-.38l-.79-.09c-1.19-.1-1.27-.28-1.27-2.75V188a1.26,1.26,0,0,1,0-.54c.05-.05.23-.05.49-.05h1.63a4.5,4.5,0,0,1,2.6.55,2.68,2.68,0,0,1,.52,1.59v0l0,0a.56.56,0,0,0,.46.14.45.45,0,0,0,.35-.21v-.07a13.68,13.68,0,0,1,.34-3.45V186l0,0C565.11,185.79,564.78,185.78,564.63,185.84Z"/><path class="cls-1" d="M593.72,198.64l0,0a.5.5,0,0,0-.33-.27.52.52,0,0,0-.43.06l0,0a6,6,0,0,1-1.58,2.18,6.76,6.76,0,0,1-2.88.33c-2,0-2.46-.25-2.7-.49s-.4-1.12-.4-2.31V194.9c0-.49,0-.49.64-.49h1.33a7.35,7.35,0,0,1,1.74.11c.39.09.53.38.62.78l.21.89,0,.06a.6.6,0,0,0,.46.14.44.44,0,0,0,.35-.19v-.06c0-.22,0-.51,0-.85s0-.89,0-1.35,0-1,0-1.42,0-.66,0-.91v-.06a.43.43,0,0,0-.35-.18.53.53,0,0,0-.46.14l-.21,1c-.11.55-.25.64-.47.71a8.85,8.85,0,0,1-1.91.13H586c-.64,0-.64,0-.64-.52v-4.6c0-.79,0-.79.57-.79h1.65a11.08,11.08,0,0,1,2.2.13c1.08.27,1.29,1,1.62,2l0,.13,0,.05a.5.5,0,0,0,.38.12.5.5,0,0,0,.4-.18l0,0,0-.32a21.8,21.8,0,0,0-.34-2.81l0-.11-.11,0a30.6,30.6,0,0,1-3.08.07h-4.32c-.9,0-1.66,0-2.71-.07h0l0,0a.48.48,0,0,0-.2.4.43.43,0,0,0,.14.39l.42.07c1.25.14,1.3.41,1.3,2.77v8.28c0,2.41-.11,2.64-1.32,2.75l-.8.07,0,0a.43.43,0,0,0-.11.28,2.6,2.6,0,0,1-1.47-.61c-1.59-1.33-2.86-3.27-4.6-6.08-.14-.23-.16-.34-.14-.39a4.38,4.38,0,0,0,2.92-3.94,3.55,3.55,0,0,0-2-3.33,8.34,8.34,0,0,0-3.9-.7c-2.09,0-3.72.05-5.13.18h0a.45.45,0,0,0-.21.36.48.48,0,0,0,.17.43l.79.12c.82.1.91.34.91,2.56v8.26c0,2.45-.08,2.6-1.27,2.75l-.63.07,0,0a.57.57,0,0,0-.1.48.42.42,0,0,0,.19.29h.06c1,0,1.84-.07,2.87-.07s1.76,0,2.73.07h.06a.45.45,0,0,0,.19-.36.47.47,0,0,0-.12-.42l0,0-.52-.07c-1.21-.17-1.27-.3-1.27-2.75v-2.9c0-.38,0-.38,1-.38a1.53,1.53,0,0,1,1.53.68c.35.51.76,1.17,1.16,1.8s.79,1.24,1.09,1.67c1.57,2.24,2.75,3,4.86,3a3.55,3.55,0,0,0,1-.12l0,0s0,0,0-.06h.07c1.39-.05,2.15-.07,3.12-.07h2.07c2,0,4.09,0,6.16.07h.08l0-.07a19.72,19.72,0,0,0,1.05-3.23Zm-21.8-4.53a9.42,9.42,0,0,1-1.48-.06,2.16,2.16,0,0,1-.05-.69V188c0-.54,0-.61,1.37-.61a3.58,3.58,0,0,1,2.46,6.17A3.85,3.85,0,0,1,571.92,194.11Z"/><path class="cls-1" d="M608.65,201.15l-.65-.07c-.89-.11-1.17-.33-1.85-2.36l-3.29-9.64c-.3-.89-.61-1.8-.87-2.68a.45.45,0,0,0-.47-.29h-.06l0,0a2.51,2.51,0,0,1-1.14.84l-.11,0,0,.11a3.08,3.08,0,0,1-.38,1.56l-2.35,6.21c-.66,1.78-1.18,3.07-1.57,4l-.45,1.13a1.41,1.41,0,0,1-1.27,1.05l-.8.07,0,0a.43.43,0,0,0-.13.37.54.54,0,0,0,.18.4l0,0,.52,0c.54,0,1.15,0,1.72,0l.78,0c.68,0,1.17,0,1.6.05h.06a.44.44,0,0,0,.24-.36.48.48,0,0,0-.17-.43l0,0-.79-.07c-.55-.05-.55-.18-.55-.34a8.43,8.43,0,0,1,.5-1.87l.8-2.41c.14-.42.22-.47.76-.47h3.47c.65,0,.69,0,.82.49l1,3.13a5,5,0,0,1,.29,1.18c0,.13-.27.25-.69.29l-.7.07,0,0a.47.47,0,0,0-.16.41.45.45,0,0,0,.22.38h0l.47,0c.59,0,1.33,0,2.2,0s1.77,0,2.78.07h0l0,0a.51.51,0,0,0,.15-.42.43.43,0,0,0-.15-.35Zm-6.12-6.4c0,.07-.36.07-.48.07h-2.83a1.77,1.77,0,0,1-.45,0,1,1,0,0,1,.09-.35h0l1.45-4c.18-.5.35-.92.45-1.15.13.31.29.79.44,1.23l1.24,3.75C602.48,194.41,602.58,194.69,602.53,194.75Z"/><path class="cls-1" d="M615.62,193.37l-1.84-1.15a3.53,3.53,0,0,1-1.9-2.72,2.3,2.3,0,0,1,2.61-2.43,2.88,2.88,0,0,1,3,2.51l0,0a.37.37,0,0,0,.34.12.57.57,0,0,0,.43-.2l0,0v0a10.44,10.44,0,0,0-.42-2.84l0-.09h-.09a3.05,3.05,0,0,1-.77-.13,8.94,8.94,0,0,0-2.17-.3c-2.88,0-4.82,1.64-4.82,4.08a5,5,0,0,0,2.54,4.06l2.19,1.42a3.35,3.35,0,0,1,1.83,3.12,2.5,2.5,0,0,1-2.75,2.52c-2.36,0-3.39-1.82-3.84-3.34v0a.35.35,0,0,0-.3-.14h0a.57.57,0,0,0-.45.2l0,0v0a10.53,10.53,0,0,0,.63,3.27l0,0h0a7.21,7.21,0,0,0,3.65.87c3,0,5-1.76,5-4.38C618.55,196.07,617.59,194.59,615.62,193.37Z"/><path class="cls-1" d="M636.6,186.4h0c-.8,0-1.41.07-2.41.07s-1.75,0-2.62-.07h0l0,0a.43.43,0,0,0-.18.32.51.51,0,0,0,.11.41l0,0,.63.05a1.4,1.4,0,0,1,1.05.42c.27.48.42,2.15.42,4.7V195c0,2.73-.78,6-4.48,6-3.1,0-4.54-1.91-4.54-6v-5c0-2.4,0-2.67,1.27-2.78l.58,0,0,0a.42.42,0,0,0,.13-.38.45.45,0,0,0-.19-.39l0,0h0c-1.08,0-1.85.07-2.83.07s-1.77,0-2.84-.07h0l0,0a.45.45,0,0,0-.19.39.44.44,0,0,0,.13.38l0,0,.61,0c1.22.11,1.26.38,1.26,2.78v5.42c0,2.77.57,4.47,1.84,5.53a6.63,6.63,0,0,0,4.38,1.29,6.21,6.21,0,0,0,4.49-1.72c1.1-1.18,1.64-3,1.64-5.58v-2.6a20.84,20.84,0,0,1,.31-4.64,1.29,1.29,0,0,1,1.05-.48l.6-.05,0,0a.56.56,0,0,0,.12-.44.48.48,0,0,0-.19-.3Z"/><path class="cls-1" d="M652.6,201.48h0a2.62,2.62,0,0,1-1.52-.62c-1.59-1.33-2.85-3.27-4.59-6.08-.15-.23-.16-.34-.14-.39a4.39,4.39,0,0,0,2.91-3.94,3.54,3.54,0,0,0-2-3.33,8.34,8.34,0,0,0-3.9-.7c-2.1,0-3.73.05-5.14.18h0a.42.42,0,0,0-.21.36.46.46,0,0,0,.17.43l.79.12c.82.1.9.34.9,2.56v8.26c0,2.45-.07,2.6-1.27,2.75l-.62.07,0,0a.57.57,0,0,0-.1.48.38.38,0,0,0,.18.29h.06c1,0,1.84-.07,2.87-.07s1.77,0,2.73.07h.06a.43.43,0,0,0,.2-.36.47.47,0,0,0-.13-.42l0,0-.52-.07c-1.21-.17-1.27-.3-1.27-2.75v-2.9c0-.38,0-.38.95-.38a1.53,1.53,0,0,1,1.53.68c.36.51.77,1.17,1.17,1.8s.78,1.24,1.09,1.67c1.57,2.24,2.75,3,4.86,3a3.55,3.55,0,0,0,1-.12l0,0a.34.34,0,0,0,.12-.3A.27.27,0,0,0,652.6,201.48Zm-9.1-7.37a9.51,9.51,0,0,1-1.49-.06,2.68,2.68,0,0,1,0-.69V188c0-.54,0-.61,1.37-.61a3.58,3.58,0,0,1,2.45,6.17A3.84,3.84,0,0,1,643.5,194.11Z"/><path class="cls-1" d="M664.88,186.42l0,0h0c-.81,0-1.45.07-2.13.07s-1.35,0-2.2-.07h0l0,0a.41.41,0,0,0-.21.32.49.49,0,0,0,.14.45l0,0,.45.05a1.89,1.89,0,0,1,.86.24,22.47,22.47,0,0,1-1.37,2.78l-.11.2c-.56,1.07-1.21,2.25-2.05,3.69-.62-1.12-1.23-2.36-1.82-3.56l-.67-1.35a12.17,12.17,0,0,1-.7-1.71c0-.09.1-.19.86-.29l.34-.06,0,0a.56.56,0,0,0,.12-.5.38.38,0,0,0-.24-.28H656c-.56,0-1.38.07-2.45.07s-1.91,0-2.66-.07h0l0,0a.45.45,0,0,0-.19.31.6.6,0,0,0,.11.46l0,0,.69.12c.63.11.94.16,1.73,1.68l2.71,5.29a4.54,4.54,0,0,1,.72,2.8v1.17c0,2.52-.07,2.67-1.26,2.8l-.76.07,0,0a.52.52,0,0,0-.11.46.42.42,0,0,0,.18.32h.07c1.19,0,2-.07,3-.07s1.71,0,3.13.07h.06a.46.46,0,0,0,.19-.32.59.59,0,0,0-.11-.46l0,0-.92-.07c-1.09-.08-1.26-.28-1.26-2.8v-1.19a5.19,5.19,0,0,1,1.06-3.67l1.45-2.5.38-.66c.91-1.59,1.57-2.74,2.57-2.92l.68-.12,0,0a.44.44,0,0,0,.15-.4A.49.49,0,0,0,664.88,186.42Z"/></g></g></svg>