<svg id="Group_674" data-name="Group 674" xmlns="http://www.w3.org/2000/svg" width="342.667" height="132.798" viewBox="0 0 342.667 132.798">
  <g id="Group_78" data-name="Group 78" transform="translate(14.351)">
    <g id="Group_74" data-name="Group 74" transform="translate(46.209)">
      <circle id="Ellipse_18" data-name="Ellipse 18" cx="4.145" cy="4.145" r="4.145" transform="translate(0 47.376)" fill="#fff"/>
      <circle id="Ellipse_19" data-name="Ellipse 19" cx="3.73" cy="3.73" r="3.73" transform="translate(0.414 37.534)" fill="#fff"/>
      <circle id="Ellipse_20" data-name="Ellipse 20" cx="3.264" cy="3.264" r="3.264" transform="translate(0.88 28.157)" fill="#fff"/>
      <circle id="Ellipse_21" data-name="Ellipse 21" cx="2.694" cy="2.694" r="2.694" transform="translate(1.451 18.676)" fill="#fff"/>
      <circle id="Ellipse_22" data-name="Ellipse 22" cx="2.254" cy="2.254" r="2.254" transform="translate(1.891 9.636)" fill="#fff"/>
      <circle id="Ellipse_23" data-name="Ellipse 23" cx="1.942" cy="1.942" r="1.942" transform="translate(2.202)" fill="#fff"/>
    </g>
    <g id="Group_75" data-name="Group 75" transform="translate(2.531 19.073)">
      <circle id="Ellipse_24" data-name="Ellipse 24" cx="4.145" cy="4.145" r="4.145" transform="translate(33.254 32.453)" fill="#fff"/>
      <circle id="Ellipse_25" data-name="Ellipse 25" cx="3.73" cy="3.73" r="3.73" transform="translate(26.332 25.697)" fill="#fff"/>
      <circle id="Ellipse_26" data-name="Ellipse 26" cx="3.264" cy="3.264" r="3.264" transform="translate(19.76 19.283)" fill="#fff"/>
      <circle id="Ellipse_27" data-name="Ellipse 27" cx="2.694" cy="2.694" r="2.694" transform="translate(13.142 12.828)" fill="#fff"/>
      <circle id="Ellipse_28" data-name="Ellipse 28" cx="2.254" cy="2.254" r="2.254" transform="translate(6.802 6.641)" fill="#fff"/>
      <circle id="Ellipse_29" data-name="Ellipse 29" cx="1.942" cy="1.942" r="1.942" fill="#fff"/>
    </g>
    <g id="Group_76" data-name="Group 76" transform="translate(29.631 13.762)">
      <circle id="Ellipse_30" data-name="Ellipse 30" cx="2.942" cy="2.942" r="2.942" transform="translate(8.56 26.322)" fill="#fff"/>
      <circle id="Ellipse_31" data-name="Ellipse 31" cx="2.694" cy="2.694" r="2.694" transform="translate(5.544 18.14)" fill="#fff"/>
      <circle id="Ellipse_32" data-name="Ellipse 32" cx="2.339" cy="2.339" r="2.339" transform="translate(3.205 8.755)" fill="#fff"/>
      <circle id="Ellipse_33" data-name="Ellipse 33" cx="1.709" cy="1.709" r="1.709" fill="#fff"/>
    </g>
    <g id="Group_77" data-name="Group 77" transform="translate(0 42.568)">
      <circle id="Ellipse_34" data-name="Ellipse 34" cx="2.942" cy="2.942" r="2.942" transform="translate(25.455 10.722)" fill="#fff"/>
      <circle id="Ellipse_35" data-name="Ellipse 35" cx="2.694" cy="2.694" r="2.694" transform="translate(17.352 7.506)" fill="#fff"/>
      <circle id="Ellipse_36" data-name="Ellipse 36" cx="2.339" cy="2.339" r="2.339" transform="translate(8.804 3.082)" fill="#fff"/>
      <circle id="Ellipse_37" data-name="Ellipse 37" cx="1.709" cy="1.709" r="1.709" fill="#fff"/>
    </g>
  </g>
  <g id="Group_79" data-name="Group 79" transform="translate(0 62.255)">
    <circle id="Ellipse_38" data-name="Ellipse 38" cx="4.145" cy="4.145" r="4.145" transform="translate(47.376)" fill="#fff"/>
    <circle id="Ellipse_39" data-name="Ellipse 39" cx="3.73" cy="3.73" r="3.73" transform="translate(37.534 0.414)" fill="#fff"/>
    <circle id="Ellipse_40" data-name="Ellipse 40" cx="3.264" cy="3.264" r="3.264" transform="translate(28.157 0.88)" fill="#fff"/>
    <circle id="Ellipse_41" data-name="Ellipse 41" cx="2.694" cy="2.694" r="2.694" transform="translate(18.676 1.451)" fill="#fff"/>
    <circle id="Ellipse_42" data-name="Ellipse 42" cx="2.254" cy="2.254" r="2.254" transform="translate(9.636 1.891)" fill="#fff"/>
    <circle id="Ellipse_43" data-name="Ellipse 43" cx="1.942" cy="1.942" r="1.942" transform="translate(0 2.202)" fill="#fff"/>
  </g>
  <g id="Group_84" data-name="Group 84" transform="translate(14.351 72.984)">
    <g id="Group_80" data-name="Group 80" transform="translate(46.209 4.149)">
      <circle id="Ellipse_44" data-name="Ellipse 44" cx="4.145" cy="4.145" r="4.145" fill="#fff"/>
      <circle id="Ellipse_45" data-name="Ellipse 45" cx="3.73" cy="3.73" r="3.73" transform="translate(0.414 10.672)" fill="#fff"/>
      <circle id="Ellipse_46" data-name="Ellipse 46" cx="3.264" cy="3.264" r="3.264" transform="translate(0.88 20.981)" fill="#fff"/>
      <circle id="Ellipse_47" data-name="Ellipse 47" cx="2.694" cy="2.694" r="2.694" transform="translate(1.451 31.601)" fill="#fff"/>
      <circle id="Ellipse_48" data-name="Ellipse 48" cx="2.254" cy="2.254" r="2.254" transform="translate(1.891 41.523)" fill="#fff"/>
      <circle id="Ellipse_49" data-name="Ellipse 49" cx="1.942" cy="1.942" r="1.942" transform="translate(2.202 51.78)" fill="#fff"/>
    </g>
    <g id="Group_81" data-name="Group 81" transform="translate(2.531)">
      <circle id="Ellipse_50" data-name="Ellipse 50" cx="4.145" cy="4.145" r="4.145" transform="translate(33.254)" fill="#fff"/>
      <circle id="Ellipse_51" data-name="Ellipse 51" cx="3.73" cy="3.73" r="3.73" transform="translate(26.332 7.584)" fill="#fff"/>
      <circle id="Ellipse_52" data-name="Ellipse 52" cx="3.264" cy="3.264" r="3.264" transform="translate(19.76 14.93)" fill="#fff"/>
      <circle id="Ellipse_53" data-name="Ellipse 53" cx="2.694" cy="2.694" r="2.694" transform="translate(13.142 22.526)" fill="#fff"/>
      <circle id="Ellipse_54" data-name="Ellipse 54" cx="2.254" cy="2.254" r="2.254" transform="translate(6.802 29.593)" fill="#fff"/>
      <circle id="Ellipse_55" data-name="Ellipse 55" cx="1.942" cy="1.942" r="1.942" transform="translate(0 36.856)" fill="#fff"/>
    </g>
    <g id="Group_82" data-name="Group 82" transform="translate(29.631 13.848)">
      <circle id="Ellipse_56" data-name="Ellipse 56" cx="2.942" cy="2.942" r="2.942" transform="translate(8.56)" fill="#fff"/>
      <circle id="Ellipse_57" data-name="Ellipse 57" cx="2.694" cy="2.694" r="2.694" transform="translate(5.544 8.678)" fill="#fff"/>
      <circle id="Ellipse_58" data-name="Ellipse 58" cx="2.339" cy="2.339" r="2.339" transform="translate(3.205 18.772)" fill="#fff"/>
      <circle id="Ellipse_59" data-name="Ellipse 59" cx="1.709" cy="1.709" r="1.709" transform="translate(0 28.786)" fill="#fff"/>
    </g>
    <g id="Group_83" data-name="Group 83" transform="translate(0 0.641)">
      <circle id="Ellipse_60" data-name="Ellipse 60" cx="2.942" cy="2.942" r="2.942" transform="translate(25.455)" fill="#fff"/>
      <circle id="Ellipse_61" data-name="Ellipse 61" cx="2.694" cy="2.694" r="2.694" transform="translate(17.352 3.711)" fill="#fff"/>
      <circle id="Ellipse_62" data-name="Ellipse 62" cx="2.339" cy="2.339" r="2.339" transform="translate(8.804 8.846)" fill="#fff"/>
      <circle id="Ellipse_63" data-name="Ellipse 63" cx="1.709" cy="1.709" r="1.709" transform="translate(0 13.186)" fill="#fff"/>
    </g>
  </g>
  <g id="Group_651" data-name="Group 651" transform="translate(82.485 55.318)">
    <path id="Path_485" data-name="Path 485" d="M616.354,504.3l-6.5-18.716h-.122q.26,4.17.26,7.817v10.9h-3.326v-22.41h5.165l6.224,17.827h.091l6.408-17.827h5.181V504.3H626.21V493.217q0-1.67.085-4.353t.146-3.25h-.123L619.588,504.3Z" transform="translate(-606.666 -481.889)" fill="#fff"/>
    <path id="Path_486" data-name="Path 486" d="M645.676,504.062l-.506-2.222h-.184a5.116,5.116,0,0,1-2.139,1.856,7.162,7.162,0,0,1-3.164.673,6.21,6.21,0,0,1-4.6-1.532,6.352,6.352,0,0,1-1.518-4.645V487.109H637.2v10.455a4.538,4.538,0,0,0,.8,2.92,3.046,3.046,0,0,0,2.5.972,3.986,3.986,0,0,0,3.335-1.355q1.065-1.358,1.065-4.545v-8.447h3.617v16.953Z" transform="translate(-605.445 -481.652)" fill="#fff"/>
    <path id="Path_487" data-name="Path 487" d="M663.91,499.248a4.436,4.436,0,0,1-1.809,3.808,8.667,8.667,0,0,1-5.181,1.326,12.239,12.239,0,0,1-5.442-1.027v-3.111a13.373,13.373,0,0,0,5.565,1.379q3.326,0,3.325-2.007a1.59,1.59,0,0,0-.367-1.073,4.328,4.328,0,0,0-1.212-.89,20.549,20.549,0,0,0-2.345-1.042,10.869,10.869,0,0,1-3.963-2.268,4.2,4.2,0,0,1-1.034-2.944,3.866,3.866,0,0,1,1.754-3.38,8.337,8.337,0,0,1,4.775-1.2,13.526,13.526,0,0,1,5.657,1.211l-1.164,2.714a12.569,12.569,0,0,0-4.614-1.134q-2.851,0-2.851,1.625a1.631,1.631,0,0,0,.743,1.349,16.326,16.326,0,0,0,3.242,1.518,14.766,14.766,0,0,1,3.05,1.488,4.423,4.423,0,0,1,1.41,1.556A4.5,4.5,0,0,1,663.91,499.248Z" transform="translate(-604.633 -481.665)" fill="#fff"/>
    <path id="Path_488" data-name="Path 488" d="M674.24,504.382a8.2,8.2,0,0,1-6.186-2.306,8.763,8.763,0,0,1-2.23-6.354,9.605,9.605,0,0,1,2.07-6.53,7.148,7.148,0,0,1,5.687-2.376,6.984,6.984,0,0,1,5.3,2.039,7.789,7.789,0,0,1,1.948,5.611v1.947h-11.3a5.57,5.57,0,0,0,1.333,3.795,4.648,4.648,0,0,0,3.542,1.325,13.051,13.051,0,0,0,2.8-.283,14.6,14.6,0,0,0,2.783-.943v2.928a11.046,11.046,0,0,1-2.667.889A16.386,16.386,0,0,1,674.24,504.382Zm-.659-14.837a3.618,3.618,0,0,0-2.752,1.088,5.187,5.187,0,0,0-1.235,3.173h7.7a4.7,4.7,0,0,0-1.011-3.18A3.463,3.463,0,0,0,673.582,489.544Z" transform="translate(-603.981 -481.665)" fill="#fff"/>
    <path id="Path_489" data-name="Path 489" d="M695.758,504.062l-.5-2.222h-.184a5.116,5.116,0,0,1-2.139,1.856,7.162,7.162,0,0,1-3.164.673,6.211,6.211,0,0,1-4.6-1.532,6.352,6.352,0,0,1-1.518-4.645V487.109h3.633v10.455a4.538,4.538,0,0,0,.8,2.92,3.046,3.046,0,0,0,2.5.972,3.986,3.986,0,0,0,3.335-1.355q1.066-1.358,1.065-4.545v-8.447h3.617v16.953Z" transform="translate(-603.172 -481.652)" fill="#fff"/>
    <path id="Path_490" data-name="Path 490" d="M716.844,504.075h-3.618V493.622a4.741,4.741,0,0,0-.736-2.9,2.717,2.717,0,0,0-2.3-.959,3.5,3.5,0,0,0-3.057,1.357,7.947,7.947,0,0,0-.974,4.515v8.445h-3.6V487.122h2.819l.506,2.222h.184a4.7,4.7,0,0,1,2.046-1.87,6.608,6.608,0,0,1,2.951-.659q3.908,0,5.181,2.667h.246a5.174,5.174,0,0,1,2.115-1.962,6.721,6.721,0,0,1,3.127-.7,5.7,5.7,0,0,1,4.423,1.533,6.787,6.787,0,0,1,1.387,4.675v11.052h-3.6V493.622a4.7,4.7,0,0,0-.744-2.9,2.736,2.736,0,0,0-2.306-.959,3.577,3.577,0,0,0-3.074,1.311,6.755,6.755,0,0,0-.972,4.024Z" transform="translate(-602.313 -481.665)" fill="#fff"/>
  </g>
  <g id="Group_652" data-name="Group 652" transform="translate(240.069 53.878)">
    <path id="Path_491" data-name="Path 491" d="M757.407,504.3v-22.41h3.664v19.268h9.488V504.3Z" transform="translate(-757.407 -480.448)" fill="#fff"/>
    <path id="Path_492" data-name="Path 492" d="M772.812,482.9a1.989,1.989,0,0,1,.528-1.487,2.063,2.063,0,0,1,1.511-.522,2.022,2.022,0,0,1,1.479.522,1.994,1.994,0,0,1,.529,1.487,1.961,1.961,0,0,1-.529,1.449,2,2,0,0,1-1.479.529,2.045,2.045,0,0,1-1.511-.529A1.957,1.957,0,0,1,772.812,482.9Zm3.816,21.444h-3.6V487.391h3.6Z" transform="translate(-756.708 -480.494)" fill="#fff"/>
    <path id="Path_493" data-name="Path 493" d="M789.75,487.1a5.884,5.884,0,0,1,4.944,2.3,12.648,12.648,0,0,1-.023,12.944,6.529,6.529,0,0,1-9.979.007h-.245l-.66,2.008h-2.7V480.511h3.6v5.671q0,.629-.061,1.87t-.092,1.579h.153A5.722,5.722,0,0,1,789.75,487.1Zm-.936,2.943a3.667,3.667,0,0,0-3.135,1.28,7.463,7.463,0,0,0-.988,4.285v.246a7.927,7.927,0,0,0,.982,4.484,3.648,3.648,0,0,0,3.2,1.386,3.245,3.245,0,0,0,2.9-1.517,8.042,8.042,0,0,0,.99-4.383Q792.77,490.045,788.814,490.045Z" transform="translate(-756.332 -480.511)" fill="#fff"/>
    <path id="Path_494" data-name="Path 494" d="M808.1,486.816a8.728,8.728,0,0,1,1.793.153l-.351,3.358a6.842,6.842,0,0,0-1.6-.184,4.613,4.613,0,0,0-3.5,1.41,5.1,5.1,0,0,0-1.342,3.663v8.86h-3.6V487.122h2.82l.475,2.99h.184a6.7,6.7,0,0,1,2.2-2.406A5.228,5.228,0,0,1,808.1,486.816Z" transform="translate(-755.496 -480.225)" fill="#fff"/>
    <path id="Path_495" data-name="Path 495" d="M822.806,504.075l-.72-2.36h-.123a6.924,6.924,0,0,1-2.467,2.107,7.8,7.8,0,0,1-3.188.559,5.4,5.4,0,0,1-3.9-1.349,5.048,5.048,0,0,1-1.4-3.817,4.481,4.481,0,0,1,1.947-3.955,11.235,11.235,0,0,1,5.932-1.456l2.928-.091v-.905a3.427,3.427,0,0,0-.759-2.43,3.1,3.1,0,0,0-2.353-.8,8.134,8.134,0,0,0-2.5.384,18.929,18.929,0,0,0-2.3.9l-1.165-2.575a12.545,12.545,0,0,1,3.02-1.1,13.927,13.927,0,0,1,3.1-.375,7.341,7.341,0,0,1,4.883,1.41,5.524,5.524,0,0,1,1.648,4.43v11.419Zm-5.365-2.452a4.465,4.465,0,0,0,3.151-1.1,3.975,3.975,0,0,0,1.188-3.073v-1.472l-2.176.092a7.454,7.454,0,0,0-3.7.851,2.585,2.585,0,0,0-1.157,2.323,2.26,2.26,0,0,0,.675,1.754A2.894,2.894,0,0,0,817.441,501.623Z" transform="translate(-754.974 -480.225)" fill="#fff"/>
    <path id="Path_496" data-name="Path 496" d="M837.864,486.816a8.732,8.732,0,0,1,1.794.153l-.352,3.358a6.826,6.826,0,0,0-1.594-.184,4.617,4.617,0,0,0-3.5,1.41,5.1,5.1,0,0,0-1.341,3.663v8.86h-3.6V487.122h2.82l.475,2.99h.184a6.711,6.711,0,0,1,2.2-2.406A5.228,5.228,0,0,1,837.864,486.816Z" transform="translate(-754.145 -480.225)" fill="#fff"/>
    <path id="Path_497" data-name="Path 497" d="M839.449,487.109h3.924l3.449,9.611a18.2,18.2,0,0,1,1.042,3.864h.122a15.994,15.994,0,0,1,.507-2.047q.367-1.2,3.893-11.428h3.894l-7.252,19.206q-1.976,5.289-6.59,5.289a10.384,10.384,0,0,1-2.33-.26v-2.852a8.389,8.389,0,0,0,1.855.185q2.606,0,3.663-3.019l.629-1.6Z" transform="translate(-753.683 -480.211)" fill="#fff"/>
  </g>
  <g id="Group_653" data-name="Group 653" transform="translate(240.157 84.658)">
    <path id="Path_498" data-name="Path 498" d="M765.266,519.478a3.02,3.02,0,0,1-1.158,2.5,4.8,4.8,0,0,1-3.078.922,9.638,9.638,0,0,1-3.539-.508v-.878a8.951,8.951,0,0,0,3.471.577,3.884,3.884,0,0,0,2.457-.711,2.251,2.251,0,0,0,.908-1.864,2.144,2.144,0,0,0-.3-1.183,2.742,2.742,0,0,0-.981-.856,12.073,12.073,0,0,0-2-.835,6.828,6.828,0,0,1-2.665-1.434,3.072,3.072,0,0,1,.37-4.356,4.389,4.389,0,0,1,2.846-.892,8.333,8.333,0,0,1,3.332.672l-.318.757a7.782,7.782,0,0,0-3-.654,3.511,3.511,0,0,0-2.221.646,2.108,2.108,0,0,0-.827,1.756,2.024,2.024,0,0,0,1.085,1.95,11.277,11.277,0,0,0,1.98.857,10.643,10.643,0,0,1,2.212.986,3.161,3.161,0,0,1,1.081,1.085A2.97,2.97,0,0,1,765.266,519.478Z" transform="translate(-757.491 -509.955)" fill="#fff"/>
    <path id="Path_499" data-name="Path 499" d="M775.7,522.716h-6.879V510.128H775.7v.809h-6V515.7h5.665v.809H769.7v5.4h6Z" transform="translate(-756.977 -509.947)" fill="#fff"/>
    <path id="Path_500" data-name="Path 500" d="M780.356,517.231v5.484h-.877V510.128h3a5.642,5.642,0,0,1,3.46.866,3.086,3.086,0,0,1,1.12,2.6,3.405,3.405,0,0,1-.667,2.136,3.715,3.715,0,0,1-2.029,1.248l3.418,5.734h-1.049l-3.246-5.484Zm0-.758h2.4a3.828,3.828,0,0,0,2.47-.71,2.536,2.536,0,0,0,.878-2.1,2.461,2.461,0,0,0-.86-2.093,4.7,4.7,0,0,0-2.806-.654h-2.085Z" transform="translate(-756.493 -509.947)" fill="#fff"/>
    <path id="Path_501" data-name="Path 501" d="M798.366,510.128h.956l-4.71,12.588h-.775l-4.692-12.588h.938l3.169,8.567q.723,1.938.973,2.909.171-.646.68-2.005Z" transform="translate(-756.054 -509.947)" fill="#fff"/>
    <path id="Path_502" data-name="Path 502" d="M801.935,522.716V510.128h.877v12.588Z" transform="translate(-755.474 -509.947)" fill="#fff"/>
    <path id="Path_503" data-name="Path 503" d="M812.934,510.747a4.761,4.761,0,0,0-3.729,1.515,5.991,5.991,0,0,0-1.359,4.15,6.216,6.216,0,0,0,1.283,4.185,4.577,4.577,0,0,0,3.667,1.49,9.93,9.93,0,0,0,2.91-.4v.775a9.526,9.526,0,0,1-3.116.439,5.3,5.3,0,0,1-4.175-1.714,6.945,6.945,0,0,1-1.524-4.787,7.5,7.5,0,0,1,.728-3.383,5.264,5.264,0,0,1,2.092-2.26,6.178,6.178,0,0,1,3.173-.8,7.618,7.618,0,0,1,3.3.689l-.353.792A6.386,6.386,0,0,0,812.934,510.747Z" transform="translate(-755.249 -509.955)" fill="#fff"/>
    <path id="Path_504" data-name="Path 504" d="M826.237,522.716h-6.879V510.128h6.879v.809h-6V515.7H825.9v.809h-5.665v5.4h6Z" transform="translate(-754.683 -509.947)" fill="#fff"/>
    <path id="Path_505" data-name="Path 505" d="M837,519.478a3.022,3.022,0,0,1-1.157,2.5,4.8,4.8,0,0,1-3.079.922,9.636,9.636,0,0,1-3.538-.508v-.878a8.946,8.946,0,0,0,3.47.577,3.888,3.888,0,0,0,2.458-.711,2.251,2.251,0,0,0,.909-1.864,2.152,2.152,0,0,0-.3-1.183,2.745,2.745,0,0,0-.982-.856,12,12,0,0,0-2-.835,6.844,6.844,0,0,1-2.665-1.434,3.07,3.07,0,0,1,.371-4.356,4.386,4.386,0,0,1,2.844-.892,8.338,8.338,0,0,1,3.333.672l-.319.757a7.782,7.782,0,0,0-3-.654,3.511,3.511,0,0,0-2.221.646,2.111,2.111,0,0,0-.827,1.756,2.3,2.3,0,0,0,.254,1.146,2.33,2.33,0,0,0,.831.8,11.26,11.26,0,0,0,1.981.857,10.7,10.7,0,0,1,2.212.986,3.167,3.167,0,0,1,1.08,1.085A2.959,2.959,0,0,1,837,519.478Z" transform="translate(-754.235 -509.955)" fill="#fff"/>
  </g>
  <g id="Group_654" data-name="Group 654" transform="translate(210.923 66.549)">
    <path id="Path_506" data-name="Path 506" d="M734.959,503.674l-.237-1.121h-.057a3.308,3.308,0,0,1-1.175,1,3.58,3.58,0,0,1-1.461.262,2.634,2.634,0,0,1-1.836-.6,2.2,2.2,0,0,1-.665-1.718q0-2.385,3.816-2.5l1.336-.043v-.488a1.994,1.994,0,0,0-.4-1.37,1.638,1.638,0,0,0-1.274-.441,5.2,5.2,0,0,0-2.228.6l-.367-.913a5.6,5.6,0,0,1,1.276-.5,5.54,5.54,0,0,1,1.389-.18,3,3,0,0,1,2.088.625,2.61,2.61,0,0,1,.678,2.005v5.373Zm-2.694-.841a2.423,2.423,0,0,0,1.749-.61,2.258,2.258,0,0,0,.637-1.71V499.8l-1.194.05a4.336,4.336,0,0,0-2.051.442,1.331,1.331,0,0,0-.628,1.218,1.227,1.227,0,0,0,.392.984A1.618,1.618,0,0,0,732.265,502.833Z" transform="translate(-729.527 -492.494)" fill="#fff"/>
    <path id="Path_507" data-name="Path 507" d="M743.73,503.674v-5.093a2.058,2.058,0,0,0-.438-1.437,1.782,1.782,0,0,0-1.372-.475,2.263,2.263,0,0,0-1.812.669,3.374,3.374,0,0,0-.575,2.206v4.13h-1.192V495.8h.97l.193,1.079h.057a2.431,2.431,0,0,1,1.028-.9,3.333,3.333,0,0,1,1.472-.32,2.99,2.99,0,0,1,2.142.687,2.919,2.919,0,0,1,.719,2.194v5.137Z" transform="translate(-729.127 -492.495)" fill="#fff"/>
    <path id="Path_508" data-name="Path 508" d="M752.782,502.756h-.064a2.806,2.806,0,0,1-2.472,1.2,2.924,2.924,0,0,1-2.4-1.057,4.65,4.65,0,0,1-.859-3,4.729,4.729,0,0,1,.864-3.025,2.9,2.9,0,0,1,2.4-1.078,2.864,2.864,0,0,1,2.458,1.165h.093l-.05-.568-.028-.554v-3.2h1.192v11.179h-.969Zm-2.386.2a2.17,2.17,0,0,0,1.771-.665,3.356,3.356,0,0,0,.551-2.145V499.9a3.954,3.954,0,0,0-.557-2.39,2.114,2.114,0,0,0-1.779-.714,1.826,1.826,0,0,0-1.606.815,4.064,4.064,0,0,0-.556,2.3,3.891,3.891,0,0,0,.553,2.277A1.871,1.871,0,0,0,750.4,502.957Z" transform="translate(-728.735 -492.632)" fill="#fff"/>
  </g>
  <g id="Group_655" data-name="Group 655" transform="translate(110.462 41.245)">
    <path id="Path_509" data-name="Path 509" d="M633.428,481.188V468.6h.878v12.588Z" transform="translate(-633.428 -468.419)" fill="#fff"/>
    <path id="Path_510" data-name="Path 510" d="M647.335,481.188h-.886l-7.456-11.175h-.069q.1,2,.1,3.013v8.162h-.844V468.6h.878l7.447,11.159h.051q-.077-1.549-.077-2.944V468.6h.852Z" transform="translate(-633.212 -468.419)" fill="#fff"/>
    <path id="Path_511" data-name="Path 511" d="M657.838,477.951a3.021,3.021,0,0,1-1.158,2.5,4.8,4.8,0,0,1-3.078.922,9.638,9.638,0,0,1-3.539-.508v-.878a8.949,8.949,0,0,0,3.47.577,3.885,3.885,0,0,0,2.458-.711,2.251,2.251,0,0,0,.908-1.864,2.153,2.153,0,0,0-.3-1.183,2.737,2.737,0,0,0-.982-.856,12.078,12.078,0,0,0-2-.835,6.829,6.829,0,0,1-2.664-1.434,3.069,3.069,0,0,1,.37-4.356,4.387,4.387,0,0,1,2.846-.892,8.333,8.333,0,0,1,3.332.672l-.318.757a7.786,7.786,0,0,0-3-.654,3.516,3.516,0,0,0-2.221.647,2.108,2.108,0,0,0-.827,1.755,2.3,2.3,0,0,0,.254,1.146,2.349,2.349,0,0,0,.831.8,11.315,11.315,0,0,0,1.981.856,10.755,10.755,0,0,1,2.212.986,3.158,3.158,0,0,1,1.08,1.085A2.96,2.96,0,0,1,657.838,477.951Z" transform="translate(-632.673 -468.427)" fill="#fff"/>
    <path id="Path_512" data-name="Path 512" d="M663.905,481.188h-.888V469.427h-4.09V468.6h9.067v.827h-4.09Z" transform="translate(-632.27 -468.419)" fill="#fff"/>
    <path id="Path_513" data-name="Path 513" d="M669.894,481.188V468.6h.878v12.588Z" transform="translate(-631.773 -468.419)" fill="#fff"/>
    <path id="Path_514" data-name="Path 514" d="M678,481.188h-.888V469.427h-4.09V468.6h9.067v.827H678Z" transform="translate(-631.63 -468.419)" fill="#fff"/>
    <path id="Path_515" data-name="Path 515" d="M693.254,468.6v8.145A4.51,4.51,0,0,1,692,480.137a4.809,4.809,0,0,1-3.5,1.223,4.257,4.257,0,0,1-4.642-4.649V468.6h.888v8.145a3.51,3.51,0,0,0,3.857,3.841,3.443,3.443,0,0,0,3.779-3.754V468.6Z" transform="translate(-631.139 -468.419)" fill="#fff"/>
    <path id="Path_516" data-name="Path 516" d="M699.983,481.188H699.1V469.427h-4.09V468.6h9.067v.827h-4.09Z" transform="translate(-630.633 -468.419)" fill="#fff"/>
    <path id="Path_517" data-name="Path 517" d="M712.852,481.188h-6.879V468.6h6.879v.81h-6v4.761h5.665v.81h-5.665v5.4h6Z" transform="translate(-630.135 -468.419)" fill="#fff"/>
  </g>
  <g id="Group_656" data-name="Group 656" transform="translate(199.844 41.305)">
    <path id="Path_518" data-name="Path 518" d="M726.536,475.9c0,2.318-1.689,5.31-4.483,5.31-2.1,0-3.125-1.683-3.125-3.458,0-2.715,1.873-5.39,4.469-5.39C725.684,472.363,726.536,474.2,726.536,475.9Zm-6.788,1.789c0,1.617.935,2.842,2.411,2.842,1.931,0,3.556-2.348,3.556-4.65,0-1.114-.528-2.841-2.375-2.841C721.265,473.041,719.749,475.355,719.749,477.69Z" transform="translate(-718.929 -468.308)" fill="#fff"/>
    <path id="Path_519" data-name="Path 519" d="M728,481.194l1.484-7.8h-1.15l.133-.661h1.154l.084-.464a5.585,5.585,0,0,1,1.361-3.07,2.613,2.613,0,0,1,1.754-.715,1.9,1.9,0,0,1,1.066.234l-.241.652a1.982,1.982,0,0,0-.882-.181c-1.37,0-1.974,1.4-2.278,3.142l-.07.4h2.027l-.137.661h-2.027l-1.49,7.8Z" transform="translate(-718.517 -468.484)" fill="#fff"/>
  </g>
</svg>
