<svg xmlns="http://www.w3.org/2000/svg" width="163.122" height="64.889" viewBox="0 0 163.122 64.889">
  <g id="Header" transform="translate(-80 -32)">
    <g id="Lockup" transform="translate(80 32.007)">
      <g id="Layer_1" data-name="Layer 1" transform="translate(0 -0.007)">
        <path id="Path_399" data-name="Path 399" d="M185.3,36.8v4.967h-.642V36.8Z" transform="translate(-102.33 -20.39)" fill="#0071bc"/>
        <path id="Path_400" data-name="Path 400" d="M194.4,41.767V36.8h.713l1.592,2.515a14.387,14.387,0,0,1,.892,1.614h0c-.058-.66-.076-1.266-.076-2.042V36.8h.606v4.967h-.646L195.9,39.248a16.076,16.076,0,0,1-.932-1.659h0c.036.624.049,1.222.049,2.046v2.122Z" transform="translate(-107.727 -20.39)" fill="#0071bc"/>
        <path id="Path_401" data-name="Path 401" d="M211.3,37.335H209.79V36.8h3.66v.535h-1.516v4.423h-.651Z" transform="translate(-116.256 -20.39)" fill="#0071bc"/>
        <path id="Path_402" data-name="Path 402" d="M227.633,39.439H225.7v1.783h2.149v.535H225.06V36.8h2.675v.535H225.7V38.9h1.931Z" transform="translate(-124.718 -20.39)" fill="#0071bc"/>
        <path id="Path_403" data-name="Path 403" d="M239,36.86a6.647,6.647,0,0,1,1.231-.1,2.046,2.046,0,0,1,1.436.4,1.253,1.253,0,0,1,.388.95,1.293,1.293,0,0,1-.932,1.262v.022a1.257,1.257,0,0,1,.731,1.008,7.915,7.915,0,0,0,.379,1.338h-.66a6.43,6.43,0,0,1-.334-1.186c-.143-.687-.415-.941-.994-.967h-.6v2.153H239Zm.633,2.229h.655c.687,0,1.119-.375,1.119-.941,0-.642-.446-.923-1.141-.932a2.7,2.7,0,0,0-.633.062Z" transform="translate(-132.443 -20.36)" fill="#0071bc"/>
        <path id="Path_404" data-name="Path 404" d="M254.94,41.767V36.8h.7l1.6,2.515a14.375,14.375,0,0,1,.892,1.614h0c-.058-.66-.071-1.266-.071-2.042V36.8h.6v4.967h-.646l-1.578-2.519a16.017,16.017,0,0,1-.927-1.659h-.022c.036.624.053,1.222.053,2.046v2.122Z" transform="translate(-141.276 -20.39)" fill="#0071bc"/>
        <path id="Path_405" data-name="Path 405" d="M271.931,40.206l-.517,1.56h-.664l1.694-4.967h.771l1.694,4.967h-.687l-.531-1.56Zm1.627-.5-.468-1.431c-.111-.321-.187-.615-.263-.892h0c-.076.294-.156.6-.25.892l-.486,1.436Z" transform="translate(-150.037 -20.39)" fill="#0071bc"/>
        <path id="Path_406" data-name="Path 406" d="M286.489,37.335H285V36.8h3.674v.535h-1.516v4.423h-.651Z" transform="translate(-157.934 -20.39)" fill="#0071bc"/>
        <path id="Path_407" data-name="Path 407" d="M300.358,36.8v4.967h-.638V36.8Z" transform="translate(-166.091 -20.39)" fill="#0071bc"/>
        <path id="Path_408" data-name="Path 408" d="M313.364,39.135a2.324,2.324,0,0,1-2.305,2.613,2.3,2.3,0,0,1-2.229-2.519,2.359,2.359,0,0,1,2.309-2.608A2.283,2.283,0,0,1,313.364,39.135Zm-3.852.08c0,1.061.575,2.011,1.583,2.011s1.6-.936,1.6-2.064c0-.99-.517-2.02-1.587-2.02s-1.605.985-1.605,2.073Z" transform="translate(-171.139 -20.29)" fill="#0071bc"/>
        <path id="Path_409" data-name="Path 409" d="M326.63,41.767V36.8h.7l1.592,2.515a13.707,13.707,0,0,1,.892,1.614h0c-.058-.66-.071-1.266-.071-2.042V36.8h.62v4.967h-.646l-1.583-2.519a16.029,16.029,0,0,1-.927-1.659h-.022c.036.624.049,1.222.049,2.046v2.122Z" transform="translate(-181.003 -20.39)" fill="#0071bc"/>
        <path id="Path_410" data-name="Path 410" d="M343.627,40.206l-.517,1.56h-.66l1.685-4.967h.789l1.694,4.967h-.687l-.562-1.56Zm1.627-.5-.482-1.431c-.111-.321-.187-.615-.259-.892h0c-.076.294-.16.6-.254.892l-.486,1.436Z" transform="translate(-189.77 -20.39)" fill="#0071bc"/>
        <path id="Path_411" data-name="Path 411" d="M359.45,36.8h.642v4.432h2.122v.535H359.45Z" transform="translate(-199.19 -20.39)" fill="#0071bc"/>
        <path id="Path_412" data-name="Path 412" d="M186.012,63.159H183.48V60.93h7.78v2.229h-2.581v7.709H186Z" transform="translate(-101.676 -33.761)" fill="#0071bc"/>
        <path id="Path_413" data-name="Path 413" d="M223.833,60.974a22.294,22.294,0,0,1,3.21-.205,5.556,5.556,0,0,1,3.362.767,2.564,2.564,0,0,1,.985,2.167,2.639,2.639,0,0,1-1.694,2.4v.058a2.419,2.419,0,0,1,1.266,1.783c.312,1.017.633,2.461.825,2.844h-2.724a13.376,13.376,0,0,1-.7-2.3c-.263-1.195-.633-1.445-1.458-1.445h-.446v3.732H223.82Zm2.635,4.173h.7c1,0,1.578-.5,1.578-1.239s-.49-1.164-1.373-1.181a4.391,4.391,0,0,0-.892.062Z" transform="translate(-124.031 -33.672)" fill="#0071bc"/>
        <path id="Path_414" data-name="Path 414" d="M266.467,68.567l-.557,2.3h-2.76l2.889-9.938h3.54l2.96,9.938h-2.871l-.633-2.3Zm2.2-1.975-.446-1.783c-.147-.562-.339-1.369-.486-1.962h-.027c-.152.593-.294,1.418-.446,1.975l-.446,1.783Z" transform="translate(-145.825 -33.761)" fill="#0071bc"/>
        <path id="Path_415" data-name="Path 415" d="M307.2,60.974a21.682,21.682,0,0,1,3.17-.205,6.768,6.768,0,0,1,4.084.99,4.336,4.336,0,0,1,1.783,3.816,4.894,4.894,0,0,1-1.739,4.08,7.531,7.531,0,0,1-4.659,1.239,16.758,16.758,0,0,1-2.653-.174Zm2.675,7.816a3.677,3.677,0,0,0,.566.027c1.721.031,2.987-.927,2.987-3.17a2.554,2.554,0,0,0-2.738-2.845,3.849,3.849,0,0,0-.816.062Z" transform="translate(-170.23 -33.672)" fill="#0071bc"/>
        <path id="Path_416" data-name="Path 416" d="M357.1,66.86h-3.567v1.828h4.013v2.18H350.86V60.93h6.456V63.1h-3.79v1.61h3.567Z" transform="translate(-194.43 -33.761)" fill="#0071bc"/>
        <path id="Path_417" data-name="Path 417" d="M184.607,99.712l-.513,1.565h-.664l1.69-4.967h.794l1.694,4.967h-.682l-.566-1.565Zm1.632-.5-.495-1.431c-.1-.321-.178-.62-.25-.892h-.027c-.062.285-.147.6-.241.892l-.486,1.44Z" transform="translate(-101.648 -53.367)" fill="#0071bc"/>
        <path id="Path_418" data-name="Path 418" d="M199.17,96.32a9.478,9.478,0,0,1,1.369-.1,2.831,2.831,0,0,1,2.011.611,2.278,2.278,0,0,1,.709,1.783,2.644,2.644,0,0,1-.718,1.931,3.072,3.072,0,0,1-2.2.718,8.858,8.858,0,0,1-1.168-.058Zm.646,4.4a4.581,4.581,0,0,0,.651.027,1.909,1.909,0,0,0,2.113-2.109,1.766,1.766,0,0,0-2.011-1.913,3.419,3.419,0,0,0-.753.067Z" transform="translate(-110.371 -53.31)" fill="#0071bc"/>
        <path id="Path_419" data-name="Path 419" d="M219.022,99.1c-.036-.7-.08-1.534-.08-2.145h0c-.178.575-.379,1.2-.629,1.886l-.892,2.408h-.49l-.807-2.363a17.128,17.128,0,0,1-.566-1.931h0c0,.615-.054,1.445-.094,2.194l-.134,2.131h-.611l.343-4.967h.82l.847,2.4c.205.611.37,1.159.5,1.672h0c.134-.5.308-1.043.531-1.672l.892-2.4h.816l.312,4.967h-.633Z" transform="translate(-118.988 -53.367)" fill="#0071bc"/>
        <path id="Path_420" data-name="Path 420" d="M233.7,96.31v4.967h-.642V96.31Z" transform="translate(-129.151 -53.367)" fill="#0071bc"/>
        <path id="Path_421" data-name="Path 421" d="M241.81,101.277V96.31h.709l1.605,2.537a14.512,14.512,0,0,1,.892,1.609h0c-.062-.664-.076-1.266-.076-2.033V96.31h.606v4.967H244.9l-1.578-2.519a15.608,15.608,0,0,1-.923-1.659h0c.036.629.045,1.226.045,2.051v2.122Z" transform="translate(-134 -53.367)" fill="#0071bc"/>
        <path id="Path_422" data-name="Path 422" d="M258.116,96.31v4.967h-.647V96.31Z" transform="translate(-142.678 -53.367)" fill="#0071bc"/>
        <path id="Path_423" data-name="Path 423" d="M265.789,100.406a2.229,2.229,0,0,0,1.141.321c.66,0,1.043-.334,1.043-.847s-.267-.727-.941-.976c-.807-.3-1.311-.727-1.311-1.418a1.425,1.425,0,0,1,1.609-1.338,2.2,2.2,0,0,1,1.088.241l-.174.526a1.819,1.819,0,0,0-.936-.236c-.678,0-.936.4-.936.745,0,.446.3.691.985.959.843.33,1.262.727,1.262,1.458s-.557,1.436-1.73,1.436a2.559,2.559,0,0,1-1.271-.325Z" transform="translate(-147.194 -53.277)" fill="#0071bc"/>
        <path id="Path_424" data-name="Path 424" d="M279.411,96.854H277.9V96.31h3.674v.544h-1.516v4.423h-.646Z" transform="translate(-153.999 -53.367)" fill="#0071bc"/>
        <path id="Path_425" data-name="Path 425" d="M292.18,96.325a7.1,7.1,0,0,1,1.231-.107,2.051,2.051,0,0,1,1.445.41,1.235,1.235,0,0,1,.388.945,1.306,1.306,0,0,1-.932,1.257h0a1.266,1.266,0,0,1,.727,1,9.183,9.183,0,0,0,.374,1.364h-.638a5.873,5.873,0,0,1-.325-1.186c-.147-.687-.419-.945-1-.967h-.6V101.2H292.2Zm.642,2.256h.655c.682,0,1.119-.375,1.119-.941,0-.646-.446-.923-1.141-.923a2.813,2.813,0,0,0-.633.058Z" transform="translate(-161.912 -53.311)" fill="#0071bc"/>
        <path id="Path_426" data-name="Path 426" d="M306.281,99.712l-.517,1.565H305.1l1.69-4.967h.776l1.694,4.967h-.687l-.531-1.565Zm1.627-.5-.49-1.431c-.107-.321-.178-.62-.254-.892h-.022c-.067.285-.147.6-.241.892l-.486,1.44Z" transform="translate(-169.072 -53.367)" fill="#0071bc"/>
        <path id="Path_427" data-name="Path 427" d="M319.791,96.854H318.28V96.31h3.678v.544h-1.516v4.423h-.651Z" transform="translate(-176.376 -53.367)" fill="#0071bc"/>
        <path id="Path_428" data-name="Path 428" d="M333.2,96.31v4.967h-.646V96.31Z" transform="translate(-184.284 -53.367)" fill="#0071bc"/>
        <path id="Path_429" data-name="Path 429" d="M342.879,101.257a2.259,2.259,0,0,1-2.229-2.519,2.353,2.353,0,0,1,2.3-2.608,2.273,2.273,0,0,1,2.229,2.51,2.329,2.329,0,0,1-2.3,2.617Zm.031-.522c1.017,0,1.592-.936,1.592-2.064,0-.99-.517-2.02-1.583-2.02s-1.6.994-1.6,2.073.575,2.011,1.583,2.011Z" transform="translate(-188.772 -53.267)" fill="#0071bc"/>
        <path id="Path_430" data-name="Path 430" d="M357.48,101.277V96.31h.709l1.587,2.515a13.185,13.185,0,0,1,.892,1.61h.022c-.058-.664-.076-1.266-.076-2.033V96.31h.606v4.967h-.651L359,98.758a14.848,14.848,0,0,1-.923-1.659h0c.036.629.04,1.226.04,2.051v2.122Z" transform="translate(-198.099 -53.367)" fill="#0071bc"/>
        <path id="Path_431" data-name="Path 431" d="M65.1,66.37l2.818.3c0,.036-.192.178-.263.272a1.516,1.516,0,0,0-.236,1.431l-.027.107a1.4,1.4,0,0,1,.227-1.721l-2.492-.25Z" transform="translate(-36.075 -36.776)" fill="#0071bc"/>
        <path id="Path_432" data-name="Path 432" d="M75,61.7h-.178l-.067,1.7c-.263.1-.2.116-.33.2.294.036.794.076.794.076-.08-.134-.089-.192-.218-.241Z" transform="translate(-41.24 -34.188)" fill="#0071bc"/>
        <path id="Path_433" data-name="Path 433" d="M70.471,31.326a1.337,1.337,0,0,0-.584-.2c-.655-.067-.446.95-.446.95-.446-.843-.067-1.061.357-1.106a.749.749,0,0,1,.758.285,1.159,1.159,0,0,1,.758.232c.192.169,0,.049-.245.022a3.749,3.749,0,0,1-.415-.12,1.337,1.337,0,0,1-.2-.062" transform="translate(-38.37 -17.149)" fill="#0071bc"/>
        <path id="Path_434" data-name="Path 434" d="M72.07,31.82a3.923,3.923,0,0,1,.357.446c.031.071.218-.111.218-.111a.192.192,0,0,0-.116-.147l-.41-.152" transform="translate(-39.938 -17.63)" fill="#0071bc"/>
        <path id="Path_435" data-name="Path 435" d="M71.764,30.941a.856.856,0,0,1,.918-.165,9.067,9.067,0,0,1,1.034.495.66.66,0,0,0-.379.638c.067.446,0,.263,0,.263l-.25-.147a.892.892,0,0,1,.169-.691,5.213,5.213,0,0,0-.624-.343s-.544-.214-.771,0S71.764,30.941,71.764,30.941Z" transform="translate(-39.748 -17.014)" fill="#0071bc"/>
        <path id="Path_436" data-name="Path 436" d="M70.12,32.71c.031-.41.325-.615.785-.227.1.08-.049.1-.049.1a.544.544,0,0,0-.325-.1c-.165,0-.268.031-.33.214C70.169,32.8,70.12,32.71,70.12,32.71Z" transform="translate(-38.857 -17.883)" fill="#0071bc"/>
        <path id="Path_437" data-name="Path 437" d="M70.45,32.91c.178.134.49.294.374.655a3.383,3.383,0,0,1-.276.642s0,.361.539-.036c-.245,0-.375.165-.2-.259s.214-.624-.08-.856-.294-.227-.294-.214S70.45,32.91,70.45,32.91Z" transform="translate(-39.04 -18.194)" fill="#0071bc"/>
        <path id="Path_438" data-name="Path 438" d="M74.27,33.653l.276.08a2.792,2.792,0,0,0-.272-.094Z" transform="translate(-41.157 -18.638)" fill="#0071bc"/>
        <path id="Path_439" data-name="Path 439" d="M73.46,34.418c.214.263.348.446.446,0-.067.1-.067.281-.379-.031C73.478,34.351,73.46,34.418,73.46,34.418Z" transform="translate(-40.708 -19.047)" fill="#0071bc"/>
        <path id="Path_440" data-name="Path 440" d="M74.382,34.5c.178.183.33.33.557.183v.049c-.192.294-.446.143-.62-.183" transform="translate(-41.185 -19.115)" fill="#0071bc"/>
        <path id="Path_441" data-name="Path 441" d="M74.623,34.322l-.263.085s.107.357.174.508-.138.071-.343-.027-.027,0-.027,0h0c-.214.178-.187-.027-.383-.174.178.446.321.339.383.174.031.263.446.375.642.263s0-.232-.1-.41a5.534,5.534,0,0,1-.214-.954l.1.424s-.125.161-.4-.08c0,0,.134.1.134,0a3.38,3.38,0,0,0-.1-.446c.08-.161.232,0,.263.085" transform="translate(-40.885 -18.625)" fill="#0071bc"/>
        <path id="Path_442" data-name="Path 442" d="M72.4,36a1.927,1.927,0,0,0,.236.12S72.614,36,72.4,36Z" transform="translate(-40.121 -19.946)" fill="#0071bc"/>
        <path id="Path_443" data-name="Path 443" d="M70.389,36.2c-.41.276-.816.473-.1.557a.682.682,0,0,0,.348-.232c-.25.067-.691.183-.183-.259S70.389,36.2,70.389,36.2Z" transform="translate(-38.734 -19.973)" fill="#0071bc"/>
        <path id="Path_444" data-name="Path 444" d="M72.1,37.19a1.034,1.034,0,0,1-.446.263v.263C72.163,37.435,72.1,37.19,72.1,37.19Z" transform="translate(-39.705 -20.606)" fill="#0071bc"/>
        <path id="Path_445" data-name="Path 445" d="M72.91,37.458c0,.361.152.361.4.129s.129-.3.031-.477a.892.892,0,0,1-.2.4c-.08.08-.116,0-.165-.049S72.91,37.458,72.91,37.458Z" transform="translate(-40.403 -20.561)" fill="#0071bc"/>
        <path id="Path_446" data-name="Path 446" d="M74.372,28.211a.446.446,0,0,1-.232.379c-.08.049.165.116.245.08.232-.08.183-.116.348-.031s.245.152,0,.361h-.227c.2.165.308.165.606-.134.2-.2.111.049.111.147s-.031.41-.236.232c0,.254.272.361.4.116s.2-.348.446-.361a.807.807,0,0,0,.736-.892c0-.446-.294-.655-.424-1.248a1.387,1.387,0,0,1,.473-1.592c.95-.718,2.675-1.587,3.246-1.966.807-.477,1.708-.985,2.283-1.378s.111-.1.111-.1,0,.1-.21.33a12.332,12.332,0,0,1-2.63,1.859c-1.538.892-1.935,1.338-1.948,1.275a1.551,1.551,0,0,0-.535,1.837,1.877,1.877,0,0,1-.941,2.2,1.643,1.643,0,0,0,1.338-1.783,3.094,3.094,0,0,0-.192-1.132c-.08-.245.276-.731.33-.771a15.328,15.328,0,0,1,2.015-1.311,8.957,8.957,0,0,0,2.229-1.511c.343-.4.918-.785,1.066-1.44a.446.446,0,0,0-.129-.446,4.035,4.035,0,0,1-1.427,1.3c-1.066.673-3.79,2.167-3.79,2.167a11.24,11.24,0,0,0-1.137.834,1.694,1.694,0,0,0-.245,2.162c.687,1.181-.294,1.886-.892,1L75,28.13l-.165.031c0,.312.049.357-.379.1Z" transform="translate(-41.076 -11.595)" fill="#0071bc"/>
        <path id="Path_447" data-name="Path 447" d="M73.741,39.1a.49.49,0,0,1-.281.094.383.383,0,0,0,.2.085C73.759,39.278,73.741,39.1,73.741,39.1Z" transform="translate(-40.708 -21.664)" fill="#0071bc"/>
        <path id="Path_448" data-name="Path 448" d="M72.279,41.485s.116-.036.116.116C72.395,41.6,72.23,41.65,72.279,41.485Z" transform="translate(-40.048 -22.984)" fill="#0071bc"/>
        <path id="Path_449" data-name="Path 449" d="M72.42,39.4s.116-.036.116.111C72.536,39.507,72.376,39.556,72.42,39.4Z" transform="translate(-40.128 -21.826)" fill="#0071bc"/>
        <path id="Path_450" data-name="Path 450" d="M74.184,40c-.049,0-.094.129-.089.125-.187.187-.334-.049-.334-.049s0,.339.294.285C74.152,40.352,74.184,40,74.184,40Z" transform="translate(-40.874 -22.163)" fill="#0071bc"/>
        <path id="Path_451" data-name="Path 451" d="M72.62,40.65h.33a.138.138,0,0,1-.116.1C72.731,40.761,72.62,40.65,72.62,40.65Z" transform="translate(-40.243 -22.523)" fill="#0071bc"/>
        <path id="Path_452" data-name="Path 452" d="M72.9,42.376c0-.053.174.187.352.036s-.027.111-.094.147S72.9,42.474,72.9,42.376Z" transform="translate(-40.398 -23.474)" fill="#0071bc"/>
        <path id="Path_453" data-name="Path 453" d="M73.938,41.3c.12.232.205.04.285-.04s.067.076.067.076c0,.375-.321.495-.392.062C73.862,41.2,73.938,41.3,73.938,41.3Z" transform="translate(-40.946 -22.849)" fill="#0071bc"/>
        <path id="Path_454" data-name="Path 454" d="M75.8,40.32c-.053,0-.094.125-.089.12-.187.125-.334-.1-.334-.1s0,.388.294.334C75.772,40.663,75.8,40.32,75.8,40.32Z" transform="translate(-41.772 -22.34)" fill="#0071bc"/>
        <path id="Path_455" data-name="Path 455" d="M76.576,39.55a.12.12,0,0,1-.174-.027c-.089-.174-.1-.1-.1-.1s0,.388.294.334c.183-.129.165-.147.183-.852s-.1-.08-.1-.08l-.062.276v.361Z" transform="translate(-42.282 -21.369)" fill="#0071bc"/>
        <path id="Path_456" data-name="Path 456" d="M75.978,41.369c-.053,0-.12.111-.116.107a.227.227,0,0,1-.375-.116s-.134.446.334.352C75.92,41.7,75.978,41.369,75.978,41.369Z" transform="translate(-41.822 -22.917)" fill="#0071bc"/>
        <path id="Path_457" data-name="Path 457" d="M73.77,43.268c-.169.241-.3,0-.3,0s-.071.281.156.245c.214.036.147-.263.147-.263" transform="translate(-40.706 -23.964)" fill="#0071bc"/>
        <path id="Path_458" data-name="Path 458" d="M73.19,44.629H73.3l-.107-.049Z" transform="translate(-40.558 -24.701)" fill="#0071bc"/>
        <path id="Path_459" data-name="Path 459" d="M75.017,41.938c.062.08.129.245.312.049s.161-.067.227-.116-.1-.08-.1-.129,0-.312-.183.031c-.589.116-.468-.285-.468-.285a.272.272,0,0,0,.495-.058c.138-.3.08-.1.08-.1l.116.058s.08.129.156-.027a1.012,1.012,0,0,0,.125-.4c.031-.223.12-.147.12-.147a5.35,5.35,0,0,1-.606,2.073c-.1.067-.08,0-.08-.129s-.147.049-.116-.263c.294.067.446-.294.245-.294s-.343.147-.375-.214Z" transform="translate(-41.449 -22.607)" fill="#0071bc"/>
        <path id="Path_460" data-name="Path 460" d="M74.16,44.4h.085a.214.214,0,0,0,.352-.058h.089s-.062.214-.165.232a.4.4,0,0,1-.263-.031Z" transform="translate(-41.096 -24.568)" fill="#0071bc"/>
        <path id="Path_461" data-name="Path 461" d="M81.844,27.165a.624.624,0,0,1-.116.1s-.04-.022.045-.125a6.245,6.245,0,0,1,2.35-1.614,4.454,4.454,0,0,0,2.461-2.051,1.221,1.221,0,0,1,.41-.553c.08-.067.111-.129.062.08a1.783,1.783,0,0,1-.473,1.07,4.837,4.837,0,0,1-1.708,1.422,10.5,10.5,0,0,1-1.556.731,3.758,3.758,0,0,0-1.476.941Z" transform="translate(-45.285 -12.663)" fill="#0071bc"/>
        <path id="Path_462" data-name="Path 462" d="M90.684,25.627a8.89,8.89,0,0,1-1.19,1.181c.1,0,.04.027.156-.04a6.91,6.91,0,0,0,.589-.486c-.111.566-1.1,1.168-1.418,1.338a.393.393,0,0,0,.29-.031,2.773,2.773,0,0,0,1.632-1.632.629.629,0,0,0,0-.4Z" transform="translate(-49.22 -14.161)" fill="#0071bc"/>
        <path id="Path_463" data-name="Path 463" d="M84.873,29.11c-.794.446-1.017.535-1.81,1.061a1.164,1.164,0,0,0,.446-.165c1.1-.664.633-.143.753-.245a5.35,5.35,0,0,1-2.314,1.262c-.3.031-.169.054-.218.08a1.873,1.873,0,0,0,.6-.08,4.356,4.356,0,0,0,2.461-1.4A.4.4,0,0,0,84.873,29.11Z" transform="translate(-45.291 -16.128)" fill="#0071bc"/>
        <path id="Path_464" data-name="Path 464" d="M81.08,33.925a2.577,2.577,0,0,0,.838-.1c.3-.067-.589.2-.767.281S81.08,33.925,81.08,33.925Z" transform="translate(-44.913 -18.736)" fill="#0071bc"/>
        <path id="Path_465" data-name="Path 465" d="M81.227,35.61a1.231,1.231,0,0,0,.49,0c.2,0-.312.116-.473.116S81.227,35.61,81.227,35.61Z" transform="translate(-44.98 -19.73)" fill="#0071bc"/>
        <path id="Path_466" data-name="Path 466" d="M80.956,37.107a.343.343,0,0,0,.325-.049c.165-.085-.116.161-.2.178s-.165-.067-.165-.067Z" transform="translate(-44.842 -20.523)" fill="#0071bc"/>
        <path id="Path_467" data-name="Path 467" d="M87.606,29.62a2.724,2.724,0,0,0,1.409-1.048c.085-.031.067.067.067.067a1.338,1.338,0,0,1-.446,1.1,3.121,3.121,0,0,1-1.948.869c-.477-.049-.129-.049-.129-.049l.178-.027a4.713,4.713,0,0,0,1.819-1.07c.169-.169.321-.424-.031-.192C87.829,29.727,87.579,29.651,87.606,29.62Z" transform="translate(-47.899 -15.827)" fill="#0071bc"/>
        <path id="Path_468" data-name="Path 468" d="M84.27,32.139c.094-.183-.624.308-.673.308-.116.214.04.183-.655.526a3.237,3.237,0,0,1-1.1.312c-.2.049-.031.08-.031.08a3.063,3.063,0,0,0,1.592-.375,2.1,2.1,0,0,0,.869-.852Z" transform="translate(-45.299 -17.784)" fill="#0071bc"/>
        <path id="Path_469" data-name="Path 469" d="M86.022,33.025a6.942,6.942,0,0,0,1.552-.655.64.64,0,0,1-.169.285,2.867,2.867,0,0,1-2.136,1.074c-.031-.08-.08-.062.067-.116a3.411,3.411,0,0,0,1.017-.424c.312-.187.152-.223,0-.183C86.062,33.1,86.022,33.025,86.022,33.025Z" transform="translate(-47.233 -17.935)" fill="#0071bc"/>
        <path id="Path_470" data-name="Path 470" d="M83.24,34.6c.04-.062-.522.183-.6.183a.843.843,0,0,1-.339.4,1.369,1.369,0,0,1-.745.272c-.107.027-.031.08-.031.08a1.28,1.28,0,0,0,1.048-.214A1.676,1.676,0,0,0,83.24,34.6Z" transform="translate(-45.164 -19.163)" fill="#0071bc"/>
        <path id="Path_471" data-name="Path 471" d="M84.428,35.487a10.067,10.067,0,0,0,1.239-.531c.308-.165,0,.294-.486.611a1.783,1.783,0,0,1-1.391.41c-.049-.062-.067-.1.031-.1a1.208,1.208,0,0,0,.526,0,.731.731,0,0,0,.446-.3c.053-.045.125-.218-.111-.12S84.428,35.487,84.428,35.487Z" transform="translate(-46.411 -19.349)" fill="#0071bc"/>
        <path id="Path_472" data-name="Path 472" d="M82.087,36.84l-.446.071a1.409,1.409,0,0,1-.95.446c-.25,0-.1.067-.1.067s.522.045.606.031C81.556,37.415,81.73,37.152,82.087,36.84Z" transform="translate(-44.636 -20.412)" fill="#0071bc"/>
        <path id="Path_473" data-name="Path 473" d="M85.017,36.922a.963.963,0,0,0-.4.165,4.324,4.324,0,0,1-.517.276c-.085.049,0,.085,0,.085.317-.223.446-.147.276,0a1.088,1.088,0,0,1-.526.272c-.169.08-.272.111-.12.111a1.708,1.708,0,0,0,.655-.156,2.274,2.274,0,0,0,.589-.526C85.146,36.922,85.146,36.9,85.017,36.922Z" transform="translate(-46.357 -20.453)" fill="#0071bc"/>
        <path id="Path_474" data-name="Path 474" d="M82.7,37.81l-.3.147s.152.66-.375.807c0,0-.147.111,0,.08a.82.82,0,0,0,.513-.379A1.253,1.253,0,0,0,82.7,37.81Z" transform="translate(-45.42 -20.949)" fill="#0071bc"/>
        <path id="Path_475" data-name="Path 475" d="M84.515,38.25a3.183,3.183,0,0,1-1.146.611c.067.08.294,0,.446-.076s0,.125-.049.156c-.37.343-.2.223-.7.3,0,0-.16.04,0,.089a1.177,1.177,0,0,0,.731-.2C84.564,38.629,84.515,38.25,84.515,38.25Z" transform="translate(-45.989 -21.193)" fill="#0071bc"/>
        <path id="Path_476" data-name="Path 476" d="M83.967,39.75c-.227.2-.276.325-.589.4a3.178,3.178,0,0,1-.486.268c-.071.036.134.036.254,0s.08.08.045.12c-.125.076-.446.29-.642.174-.12-.067-.1,0-.04.071.116.165.446.2.771-.049a2.122,2.122,0,0,0,.606-.664C84.039,39.83,83.967,39.75,83.967,39.75Z" transform="translate(-45.696 -22.024)" fill="#0071bc"/>
        <path id="Path_477" data-name="Path 477" d="M81.536,42.612a.254.254,0,0,1-.076-.08,2.676,2.676,0,0,0,.651-.036c.392-.071.392-.285.419-.343a4.209,4.209,0,0,0,.49-.223.838.838,0,0,1-.187.419,1.592,1.592,0,0,1-.669.343c-.419.036-.557-.027-.629-.08" transform="translate(-45.141 -23.232)" fill="#0071bc"/>
        <path id="Path_478" data-name="Path 478" d="M82.624,42.781h.12V42.75Z" transform="translate(-45.734 -23.687)" fill="#0071bc"/>
        <path id="Path_479" data-name="Path 479" d="M82.2,43.55a.914.914,0,0,1-.486.129c-.031.214,0,.33-.276.361a1.828,1.828,0,0,1-.633,0v.071a.807.807,0,0,0,.589.156,1.137,1.137,0,0,0,.78-.548C82.271,43.541,82.2,43.55,82.2,43.55Z" transform="translate(-44.776 -24.13)" fill="#0071bc"/>
        <path id="Path_480" data-name="Path 480" d="M81.19,44.19c.138.071.085.094.272.094.071,0-.152,0-.169-.049S81.19,44.19,81.19,44.19Z" transform="translate(-44.992 -24.485)" fill="#0071bc"/>
        <path id="Path_481" data-name="Path 481" d="M79.537,38.884c.2.1.312,0,.522-.1l.33-.134c.049,0,.41-.062.41-.062a1.641,1.641,0,0,1-.49.343.892.892,0,0,1-.918.049" transform="translate(-43.994 -21.382)" fill="#0071bc"/>
        <path id="Path_482" data-name="Path 482" d="M79.607,39.91l-.41.08a1.578,1.578,0,0,1-1.1.232c.165.147.245.254.8.165a1.039,1.039,0,0,0,.7-.477Z" transform="translate(-43.279 -22.113)" fill="#0071bc"/>
        <path id="Path_483" data-name="Path 483" d="M78.779,41.27l-.446.067a.847.847,0,0,1-.753.245c.2.147.1.214.41.214a.95.95,0,0,0,.789-.526Z" transform="translate(-42.991 -22.867)" fill="#0071bc"/>
        <path id="Path_484" data-name="Path 484" d="M81.557,40.28l-.325.049a1.382,1.382,0,0,1-.673.526c-.178.049.41,0,.526-.067A1.257,1.257,0,0,0,81.557,40.28Z" transform="translate(-44.623 -22.318)" fill="#0071bc"/>
        <path id="Path_485" data-name="Path 485" d="M77.8,42.731h-.21a1.025,1.025,0,0,1-.508.263c-.085,0,.129.165.227.165s.232,0,.446-.245S77.8,42.731,77.8,42.731Z" transform="translate(-42.707 -23.672)" fill="#0071bc"/>
        <path id="Path_486" data-name="Path 486" d="M80.572,41.82H80.26c.116.134.116.245,0,.33a3.7,3.7,0,0,1-.5.227h.655C80.608,42.279,80.755,41.9,80.572,41.82Z" transform="translate(-44.196 -23.171)" fill="#0071bc"/>
        <path id="Path_487" data-name="Path 487" d="M79.92,45.17c.089.1.085.116.156.156s-.071,0-.1-.049Z" transform="translate(-44.288 -25.028)" fill="#0071bc"/>
        <path id="Path_488" data-name="Path 488" d="M79.244,43.26c-.049.361-.165.446-.526.446-.031.049.312.263.624.116.12-.058.116-.325.08-.41S79.244,43.26,79.244,43.26Z" transform="translate(-43.62 -23.969)" fill="#0071bc"/>
        <path id="Path_489" data-name="Path 489" d="M77.572,43.942c-.116.308-.165.535-.691.638-.165.036.361.067.446.067a.352.352,0,0,0,.361-.477C77.572,43.741,77.572,43.942,77.572,43.942Z" transform="translate(-42.586 -24.321)" fill="#0071bc"/>
        <path id="Path_490" data-name="Path 490" d="M79.8,45.124c-.152-.165.762.263.1.539a1.338,1.338,0,0,1-.892-.312,1.017,1.017,0,0,0,.642.116C79.835,45.419,79.951,45.289,79.8,45.124Z" transform="translate(-43.784 -24.982)" fill="#0071bc"/>
        <path id="Path_491" data-name="Path 491" d="M77.4,45.8a1.757,1.757,0,0,0,.869.308c.067-.049.544-.085.343.214a1.092,1.092,0,0,1-.655-.031C77.431,46.108,77.4,45.8,77.4,45.8Z" transform="translate(-42.891 -25.377)" fill="#0071bc"/>
        <path id="Path_492" data-name="Path 492" d="M51.677,19.94a1.859,1.859,0,0,0,.66,1.966,31.6,31.6,0,0,0,3.8,2.425A2.341,2.341,0,0,1,57.322,26.4c0,.557.2,2.2,1.935,2l.1-.134c-.722-.031-1.476-.129-1.641-1.28-.2-1.382-.036-1.231-.722-2.194-.49-.691-4.9-2.858-4.9-3.808a20.166,20.166,0,0,0,2.626,1.739c.718.446,1.975,1.262,2.523,1.574,1.543.892,1.244,1.708.985,2.363s.161,1.868,1.574,1.146c.147-.067-.036-.165-.036-.165-.446.624-1.868.036-1.244-1.213.263-.852.361-1.409-1.115-2.394-2.283-1.52-5.479-3.121-5.644-4.013" transform="translate(-28.6 -11.047)" fill="#0071bc"/>
        <path id="Path_493" data-name="Path 493" d="M52,23.62c.263.294.66.522.691.687s.031.526,1.783,1.311c.963.446,2.363,1.409,2.2,1.248.2.2-.263-.067-.82-.361s-2.457-1.226-2.778-1.378A1.988,1.988,0,0,1,52,23.62Z" transform="translate(-28.816 -13.086)" fill="#0071bc"/>
        <path id="Path_494" data-name="Path 494" d="M54.012,27.15l-.669-.446s-.125-.129-.178-.08-.129.161.241.508a5.943,5.943,0,0,0,1.507.918,2.844,2.844,0,0,1-1.476-.664c-.869-.749-.794-1.186-.771-1.3,0,0,.143-.04.477.383Z" transform="translate(-29.178 -14.453)" fill="#0071bc"/>
        <path id="Path_495" data-name="Path 495" d="M61.66,31.38a7.393,7.393,0,0,0,.95.325c.232.036.134.165.134.165Z" transform="translate(-34.169 -17.386)" fill="#0071bc"/>
        <path id="Path_496" data-name="Path 496" d="M57.075,28.956l-.495-.036a4.253,4.253,0,0,0,1.935,1.511,1.28,1.28,0,0,0,.789.161,10.745,10.745,0,0,1-1.338-.687C57.017,29.361,57.075,28.956,57.075,28.956Z" transform="translate(-31.354 -16.023)" fill="#0071bc"/>
        <path id="Path_497" data-name="Path 497" d="M63.171,33.511a.82.82,0,0,1-.4,0,2.193,2.193,0,0,1-.575-.232l-.049-.049a1.7,1.7,0,0,0,.954.25" transform="translate(-34.441 -18.411)" fill="#0071bc"/>
        <path id="Path_498" data-name="Path 498" d="M62.69,35.06a3.687,3.687,0,0,0,.8.045c.178-.031.067.1.067.1a.847.847,0,0,0-.232,0A5.379,5.379,0,0,1,62.69,35.06Z" transform="translate(-34.74 -19.425)" fill="#0071bc"/>
        <path id="Path_499" data-name="Path 499" d="M63.741,36.956c-.254,0,.446,0,.548-.031s0,.116,0,.116Z" transform="translate(-35.292 -20.456)" fill="#0071bc"/>
        <path id="Path_500" data-name="Path 500" d="M64.93,38.26c.245-.036.379-.049.446-.152s.263.134.263.134Z" transform="translate(-35.981 -21.1)" fill="#0071bc"/>
        <path id="Path_501" data-name="Path 501" d="M54.912,29.562c-.2-.183-.183-.116-.446-.232a3.286,3.286,0,0,1-.856-.624c-.031-.08-.111-.08-.049.263a1.431,1.431,0,0,0,.446.66c.183.129.789.522.789.522a2.5,2.5,0,0,0,1.15.325,5.181,5.181,0,0,1-1.462-.865c-.268-.214-.41-.321-.41-.321s-.022-.147.067-.089a5.239,5.239,0,0,0,.771.361Z" transform="translate(-29.668 -15.88)" fill="#0071bc"/>
        <path id="Path_502" data-name="Path 502" d="M59.089,31.678a.379.379,0,0,0-.379-.1,1.632,1.632,0,0,0,.923.967,2.349,2.349,0,0,0,1.262.245,2.907,2.907,0,0,1-1.338-.49C59.125,31.942,59.107,31.826,59.089,31.678Z" transform="translate(-32.534 -17.488)" fill="#0071bc"/>
        <path id="Path_503" data-name="Path 503" d="M56.595,32.522a4.877,4.877,0,0,0-.758-.4c-.049,0-.205-.169-.272-.205a1.73,1.73,0,0,0-.495-.245c0,.089,0,.21.3.593a2.755,2.755,0,0,0,1.311.767,1.213,1.213,0,0,0,.571.1,6.835,6.835,0,0,1-1.338-.687c-.147-.1-.223-.361,0-.227s-.089-.036,0,0c.205.08.629.317.651.325S56.595,32.522,56.595,32.522Z" transform="translate(-30.517 -17.547)" fill="#0071bc"/>
        <path id="Path_504" data-name="Path 504" d="M60,33.84c.134.049.482.2.482.2.241.312.357.624.967.74.143,0,.406.031.406.031l-.111.049a2.466,2.466,0,0,1-1.083-.178,2.229,2.229,0,0,1-.606-.593A1.111,1.111,0,0,1,60,33.84Z" transform="translate(-33.249 -18.749)" fill="#0071bc"/>
        <path id="Path_505" data-name="Path 505" d="M57.993,34.963a2.541,2.541,0,0,1-.446-.169c-.49-.214-.268.089-.062.214a5.457,5.457,0,0,0,.892.4c-.343,0-.174.04-.86-.192a2.9,2.9,0,0,1-1.052-.736c-.08-.085-.2-.4.147-.183s.985.446,1.378.642" transform="translate(-31.242 -18.963)" fill="#0071bc"/>
        <path id="Path_506" data-name="Path 506" d="M61.2,36.12H60.92c.147.361.138.357.495.575a1.828,1.828,0,0,0,1.195.2c.1-.049.147-.1,0-.116a3.665,3.665,0,0,0-.446,0,.807.807,0,0,1-.557-.227C61.4,36.365,61.5,36.187,61.2,36.12Z" transform="translate(-33.759 -20.013)" fill="#0071bc"/>
        <path id="Path_507" data-name="Path 507" d="M57.87,36.373c0-.1.236.062.606.25.263.129.7.147.638.178a1.5,1.5,0,0,1-.446-.067c-.089-.018-.183-.031-.067.094s.334.334,1.124.446v.049a5.7,5.7,0,0,1-.852-.062C58.093,36.953,57.928,36.587,57.87,36.373Z" transform="translate(-32.069 -20.137)" fill="#0071bc"/>
        <path id="Path_508" data-name="Path 508" d="M62.612,38.14H62.3c.446.446.517.58,1.106.58s.722-.2.722-.2a1.739,1.739,0,0,1-.325.058,1.369,1.369,0,0,1-.838-.107A1.6,1.6,0,0,1,62.612,38.14Z" transform="translate(-34.524 -21.132)" fill="#0071bc"/>
        <path id="Path_509" data-name="Path 509" d="M61.934,38.483s-.187-.116-.3-.049c-.036,0,.062.125.214.486a.446.446,0,0,0,.624.187c.125-.049-.156.027-.321-.067S61.965,38.809,61.934,38.483Z" transform="translate(-34.149 -21.284)" fill="#0071bc"/>
        <path id="Path_510" data-name="Path 510" d="M66,39.212a1.119,1.119,0,0,0,.473-.272c.339.272.513.183.66-.129s0-.116,0-.116h.116a1.448,1.448,0,0,1-.058.375c-.058.245-.169.281-.419.245a.315.315,0,0,1-.294-.245A.517.517,0,0,1,66,39.212Z" transform="translate(-36.574 -21.406)" fill="#0071bc"/>
        <path id="Path_511" data-name="Path 511" d="M63.9,39.91h.41c.245.33.589.33,1.034.1h.361C65.113,40.467,64.083,40.418,63.9,39.91Z" transform="translate(-35.41 -22.113)" fill="#0071bc"/>
        <path id="Path_512" data-name="Path 512" d="M67.459,40.155c0,.312-.129.294-.539.178a.388.388,0,0,0,.522.33.317.317,0,0,0,.1-.526C67.4,39.941,67.459,40.155,67.459,40.155Z" transform="translate(-37.084 -22.193)" fill="#0071bc"/>
        <path id="Path_513" data-name="Path 513" d="M59.23,38.47c0-.054.606.178.606.178.049.361.263.557.82.589V39.3C60.215,39.335,59.346,39.255,59.23,38.47Z" transform="translate(-32.822 -21.311)" fill="#0071bc"/>
        <path id="Path_514" data-name="Path 514" d="M60.74,40.426c.08-.147.446-.174.446.036.031.522.134.62.8.638a.8.8,0,0,1-1.132-.214Z" transform="translate(-33.659 -22.335)" fill="#0071bc"/>
        <path id="Path_515" data-name="Path 515" d="M62.877,40.42c.263.348.227.544.892.3.241-.089.178.2.178.2-.446.178-1.066.294-1.1-.446" transform="translate(-34.829 -22.396)" fill="#0071bc"/>
        <path id="Path_516" data-name="Path 516" d="M65.585,41.237c-.094-.1-.33.1-.214.214a1.507,1.507,0,0,0,1.213.165l-.058-.116C66.107,41.464,65.812,41.482,65.585,41.237Z" transform="translate(-36.208 -22.834)" fill="#0071bc"/>
        <path id="Path_517" data-name="Path 517" d="M67.815,41.974c.165.08.245.031.3-.134,0,.049.174.361-.058.41a.375.375,0,0,1-.375-.178C67.6,41.911,67.815,41.974,67.815,41.974Z" transform="translate(-37.497 -23.183)" fill="#0071bc"/>
        <path id="Path_518" data-name="Path 518" d="M67.989,42.56c0,.312.165.477.361.263.085-.089.116.147.085.227s-.263.232-.446-.067S67.989,42.56,67.989,42.56Z" transform="translate(-37.631 -23.582)" fill="#0071bc"/>
        <path id="Path_519" data-name="Path 519" d="M66.868,42.1c-.04.205-.058.352.281.41s.1.08.1.08a1.569,1.569,0,0,1-.446-.04c-.085-.045-.379-.2-.071-.446S66.868,42.1,66.868,42.1Z" transform="translate(-36.902 -23.267)" fill="#0071bc"/>
        <path id="Path_520" data-name="Path 520" d="M64.46,42.19c.165.236.317.21.446.1a.256.256,0,0,1,.294,0c.129.259-.669.553-.82-.049Z" transform="translate(-35.676 -23.376)" fill="#0071bc"/>
        <path id="Path_521" data-name="Path 521" d="M65.676,43c0,.183,0,.3.3.348a.357.357,0,0,0,.312-.067.544.544,0,0,1,.2,0c-.058.325-.8.446-1.057,0a.446.446,0,0,1,0-.232Z" transform="translate(-36.25 -23.825)" fill="#0071bc"/>
        <path id="Path_522" data-name="Path 522" d="M62.572,42.93c.125.325.339.41.745.294.254-.076.263,0,.263,0a.74.74,0,0,1-1.164.129c-.2-.245-.116-.406-.116-.406Z" transform="translate(-34.515 -23.787)" fill="#0071bc"/>
        <path id="Path_523" data-name="Path 523" d="M63.28,44.531h.473c.232.129.3.08.495,0a.66.66,0,0,1,.325-.031C64.1,44.959,63.391,45.165,63.28,44.531Z" transform="translate(-35.067 -24.652)" fill="#0071bc"/>
        <path id="Path_524" data-name="Path 524" d="M64.926,45.39l-.446.2c.357.294.624.2,1.048-.129C65.207,45.519,64.926,45.622,64.926,45.39Z" transform="translate(-35.732 -25.15)" fill="#0071bc"/>
        <path id="Path_525" data-name="Path 525" d="M65.677,45.773c.4.227.575.2.936-.343-.165.446-.392.722-.771.736-.446.022-.508-.08-.508-.08-.111-.031-.2-.183,0-.232Z" transform="translate(-36.14 -25.172)" fill="#0071bc"/>
        <path id="Path_526" data-name="Path 526" d="M67.655,44.981c-.031.263-.227.214-.312.227s.2.067.232.263-.41.477-.508.392-.08-.094-.214,0c-.361.214-.691.2-.049.232.473,0,.08.294,0,.392-.7.852-.789,1.592-.379,2.185a1.458,1.458,0,0,0,1.052-.74c.446-.557,0-.379,0-.379-.495.673-.312.562-.557.722s-.495.232-.477-.446a1.529,1.529,0,0,1,.33-.736,5.8,5.8,0,0,0,.638-1.132c.062-.174.361-.343.361-.343C68.034,45.2,67.664,44.892,67.655,44.981Z" transform="translate(-36.674 -24.915)" fill="#0071bc"/>
        <path id="Path_527" data-name="Path 527" d="M68.566,46.433a1.4,1.4,0,0,1-.263.722,3.482,3.482,0,0,1-.673.892,8.972,8.972,0,0,0,.673-1.338,1.806,1.806,0,0,1,.771-1.2,2.02,2.02,0,0,0-.508.923Z" transform="translate(-37.477 -25.216)" fill="#0071bc"/>
        <path id="Path_528" data-name="Path 528" d="M68.482,46.948c.116.062.147.1.312-.281a6.207,6.207,0,0,1-.232.892c-.062.183.067.33.263-.08-.2.41-.16.673.2.557.147-.232.071,0,.161-.936,0,1.3.383,1.11.446.606H69.7c-.067.4.375.495.312,0s-.116-.785-.116-.785h.116v-.468a1.378,1.378,0,0,0-.312-.794l.045-.094a.731.731,0,0,1,.312.5h.067s-.067.1.031-.21a.584.584,0,0,1,.4-.446l.031.067c-.214.2-.312.276-.375.892v.544h.1l-.138.8c-.116.294.085.539.294.232s.067-.446.116-.624c0,.852.446,1.066.526.294.049-.031-.147-.495.049-.031.147.343,0,.361.446.446a1.694,1.694,0,0,0-.165-.892c.165-.085.312-.067,0-.954s-.392-.8-.392-.8h.227c.165.161.116.294.214.392s.116.223.7.312a.985.985,0,0,1,.526.21c-.33,0-.3.183-.758.067.053.2,0,.08.673.95.446.446.985,1.922-.638,1.627-.2,0-.232-.067-.281-.134s-.031-.1-.312-.116-.446-.129-.375-.361a.3.3,0,0,0-.379.085.669.669,0,0,1-.379.312c-.178.08-.16.312-.21.392-.152-.147-.1-.116-.183-.276s-.067-.054-.263-.152-.268-.1-.325-.343c-.031-.129-.343-.062-.361.036-.183.2-.134.294-.638.325s-.348.134-.446.2-.085-.2-.085-.2l.25-.245c.343.049.539,0,.361-.343s.129.263,0-.049-.227-.4,0-.606.031-.41-.1-.281S68.482,46.948,68.482,46.948Z" transform="translate(-37.549 -25.147)" fill="#0071bc"/>
        <path id="Path_529" data-name="Path 529" d="M67,44.458h.147a.214.214,0,0,0,.41,0c.245.049.348.1.446-.1.218.094.1.343-.165.3a1.258,1.258,0,0,0-.232-.085C67.589,44.828,67.134,44.9,67,44.458Z" transform="translate(-37.128 -24.579)" fill="#0071bc"/>
        <path id="Path_530" data-name="Path 530" d="M76.728,48a5.559,5.559,0,0,0,.116.767.245.245,0,0,1-.214,0c.138.562.1,1,.446,1.248.4.294.856,0,.593-.562S76.875,48.317,76.728,48Z" transform="translate(-42.465 -26.596)" fill="#0071bc"/>
        <path id="Path_531" data-name="Path 531" d="M76.032,52.111c-.178,0-.281-.192-.049-.227s.272,0,.379.134c.21.245.178.375-.049.178C76.246,52.058,76.032,52.111,76.032,52.111Z" transform="translate(-42.032 -28.741)" fill="#0071bc"/>
        <path id="Path_532" data-name="Path 532" d="M76.988,50.17a8.025,8.025,0,0,1,.557.753c.027.058-.49-.49-.539-.531S76.988,50.17,76.988,50.17Z" transform="translate(-42.658 -27.799)" fill="#0071bc"/>
        <path id="Path_533" data-name="Path 533" d="M71.92,51.921c.214.165.446.37.655.062a.138.138,0,1,1,.232.147.834.834,0,0,1-.388.192,1.306,1.306,0,0,1-.446-.245A.241.241,0,0,1,71.92,51.921Z" transform="translate(-39.855 -28.76)" fill="#0071bc"/>
        <path id="Path_534" data-name="Path 534" d="M61.34,54.192l-.21-.25c-.771.2-1.56.232-1.783-.062a.4.4,0,0,1,.107-.655,1.712,1.712,0,0,1,1.315.227,5.742,5.742,0,0,0,1.458.967,1.311,1.311,0,0,0,1.115-.107l-.2-.232c-.526.152-.7.214-1.445-.308a3.27,3.27,0,0,0-1.543-.8c-1.338-.2-1.538,1.1-.41,1.378a2.559,2.559,0,0,0,1.592-.161Z" transform="translate(-32.703 -29.342)" fill="#0071bc"/>
        <path id="Path_535" data-name="Path 535" d="M67.627,53.923a2.425,2.425,0,0,0,1.783.446l.183.2a2.18,2.18,0,0,1-1.868-.263c-.535-.446-.446-.557-.807-.869s.25-.067.25-.067Z" transform="translate(-37.02 -29.519)" fill="#0071bc"/>
        <path id="Path_536" data-name="Path 536" d="M63.754,53.28l-.294-.214a2.956,2.956,0,0,1,2.149-.08v.392a2.229,2.229,0,0,0-1.855-.1Z" transform="translate(-35.167 -29.268)" fill="#0071bc"/>
        <path id="Path_537" data-name="Path 537" d="M65.839,53.538a2.907,2.907,0,0,0,.852.508.571.571,0,0,1,.2.111l-.049.147a6.135,6.135,0,0,1-1.132-.785Z" transform="translate(-36.413 -29.655)" fill="#0071bc"/>
        <path id="Path_538" data-name="Path 538" d="M68.28,53.537a5.8,5.8,0,0,0,.49-.312.4.4,0,0,1,.446-.031c.031.049.085,0,0,.312s.343.539.392.049.031-.446.031-.446c.2.165.495.379.495.379.1.227.1.2,0,.446-.031.067-.178-.2-.178-.2-.152-.067-.134-.1-.281.085s-.2.41-.49.049-.232-.085-.232-.41c0-.183-.165,0-.165,0a.785.785,0,0,0-.343.294C68.36,53.818,68.28,53.537,68.28,53.537Z" transform="translate(-37.838 -29.427)" fill="#0071bc"/>
        <path id="Path_539" data-name="Path 539" d="M78.282,54.447c-.589.1-2.118.156-2.492-.82-.08-.214-.7-.263-.522,0a.544.544,0,0,0,.308.116c.085,0,.067-.031.147.147a1.685,1.685,0,0,0,1.066.82,2.269,2.269,0,0,0,1.413,0,.178.178,0,0,0,.08-.263Z" transform="translate(-41.692 -29.615)" fill="#0071bc"/>
        <path id="Path_540" data-name="Path 540" d="M72.917,53.765c.263.178.339.174.361.232.049.129.259.227.049-.085-.067-.41.178-.722.325-.227a1.551,1.551,0,0,0,.41.508c.147.1.2.1.08-.1a.682.682,0,0,1-.1-.4c0-.062.178-.236.116,0-.08.294.4.41.642.892,0,.25-.918.4-1.364.1-.357-.227-.575-.312-.589-.446C72.877,54.01,72.917,53.765,72.917,53.765Z" transform="translate(-40.37 -29.606)" fill="#0071bc"/>
        <path id="Path_541" data-name="Path 541" d="M75.92,55.295l.036-.085c.183.183.183.147.3.281s-.116.1-.116.1Z" transform="translate(-42.071 -30.592)" fill="#0071bc"/>
        <path id="Path_542" data-name="Path 542" d="M74.16,54.318l.036-.1a3.188,3.188,0,0,0,.7.753c.178.165-.1.147-.1.147Z" transform="translate(-41.096 -30.043)" fill="#0071bc"/>
        <path id="Path_543" data-name="Path 543" d="M73.314,54.732a1.9,1.9,0,0,0,.669.5c.232.1-.1.067-.178.049a3.424,3.424,0,0,1-.7-.655C73.1,54.567,73.314,54.732,73.314,54.732Z" transform="translate(-40.509 -30.26)" fill="#0071bc"/>
        <path id="Path_544" data-name="Path 544" d="M76.812,53.205c.08.245.1.41-.147.2-.036.1.2.214.2.214s.134.1.116-.343-.165-.116-.165-.116" transform="translate(-42.482 -29.389)" fill="#0071bc"/>
        <path id="Path_545" data-name="Path 545" d="M77.84,53.178a2.165,2.165,0,0,1,1.56.575c.343.428,1.886,1.092,2.2.392.178-.41.263-.736-.562-1.115a2.128,2.128,0,0,0-1.752.214c.178.067.321-.138.936-.1a2.149,2.149,0,0,1,1.115.245.517.517,0,0,1-.361.869,2.13,2.13,0,0,1-1.3-.655,5.983,5.983,0,0,0-1.146-.642Z" transform="translate(-43.135 -29.331)" fill="#0071bc"/>
        <path id="Path_546" data-name="Path 546" d="M84.43,53.535c.308.312.508.753.589.767s.111-.125.111-.125-.539-.539-.606-.62S84.43,53.535,84.43,53.535Z" transform="translate(-46.787 -29.652)" fill="#0071bc"/>
        <path id="Path_547" data-name="Path 547" d="M83.376,53.325a7.659,7.659,0,0,1,.981.892c.152.232-.08.116-.08.116A12.421,12.421,0,0,0,83.243,53.3C83.046,53.191,83.376,53.325,83.376,53.325Z" transform="translate(-46.095 -29.509)" fill="#0071bc"/>
        <path id="Path_548" data-name="Path 548" d="M82.644,53.33h0a8.5,8.5,0,0,0,1.213,1.021c.1.062-.147.147-.147.147l-1.2-1.168Z" transform="translate(-45.723 -29.55)" fill="#0071bc"/>
        <path id="Path_549" data-name="Path 549" d="M82.058,53.37a4.6,4.6,0,0,0,1.1,1.034c.049.031-.263.031-.263.031s-.1.036-.936-1.03Z" transform="translate(-45.418 -29.572)" fill="#0071bc"/>
        <path id="Path_550" data-name="Path 550" d="M69.42,94v1.382h2.1V94Zm1.966.134v1.115H69.549V94.134Z" transform="translate(-38.469 -52.087)" fill="#0071bc"/>
        <path id="Path_551" data-name="Path 551" d="M71.308,92.32v.134l.076.027h.058c-.027,0-.058.045-.058.08h0c0,.085.08.12.138.147h0a1.03,1.03,0,0,1-.321-.1l-.2-.058.116.2h.027a.446.446,0,0,0,.446.138h.192a.276.276,0,0,0-.067.156.254.254,0,0,0,.067.156l.1-.085c-.058-.067-.045-.085,0-.156l.134-.2h-.268l-.08-.1-.156-.094v-.049a.152.152,0,0,0,.071,0l-.045-.027h.183l-.036-.125h-.178l-.218-.036Z" transform="translate(-39.345 -51.156)" fill="#0071bc"/>
        <rect id="Rectangle_56" data-name="Rectangle 56" width="24.53" height="0.526" transform="translate(19.929 39.889)" fill="#0071bc"/>
        <path id="Path_552" data-name="Path 552" d="M55.721,92.907,44.7,91.07,55.784,92.6" transform="translate(-24.771 -50.463)" fill="#0071bc"/>
        <path id="Path_553" data-name="Path 553" d="M55.784,94.439,44.7,94.31l11.084.459Z" transform="translate(-24.771 -52.259)" fill="#0071bc"/>
        <path id="Path_554" data-name="Path 554" d="M55.638,94.9,44.55,96.474,55.7,95.225Z" transform="translate(-24.688 -52.586)" fill="#0071bc"/>
        <path id="Path_555" data-name="Path 555" d="M55.7,95.34,44.55,98.358l11.137-2.671Z" transform="translate(-24.688 -52.83)" fill="#0071bc"/>
        <path id="Path_556" data-name="Path 556" d="M55.8,96.08,44.85,100.538l11.017-4.2Z" transform="translate(-24.854 -53.24)" fill="#0071bc"/>
        <path id="Path_557" data-name="Path 557" d="M56.194,96.22,45.44,102.453l10.754-5.97Z" transform="translate(-25.181 -53.317)" fill="#0071bc"/>
        <path id="Path_558" data-name="Path 558" d="M70.414,91.558a1.15,1.15,0,0,0-.994,1.155h.129a1.025,1.025,0,0,1,.892-1.034c.366,0,.807.241.972,1.043l.125-.027C71.337,91.821,70.829,91.531,70.414,91.558Z" transform="translate(-38.469 -50.733)" fill="#0071bc"/>
        <path id="Path_559" data-name="Path 559" d="M72.61,96.317a.615.615,0,0,0,.49.062h0v.067l.129.116v-.214l-.062-.111a.606.606,0,0,1-.5-.027Z" transform="translate(-40.237 -53.312)" fill="#0071bc"/>
        <path id="Path_560" data-name="Path 560" d="M74.047,92.907,85.068,91.07,73.98,92.6" transform="translate(-40.996 -50.463)" fill="#0071bc"/>
        <path id="Path_561" data-name="Path 561" d="M73.98,94.439l11.088-.129-11.088.459Z" transform="translate(-40.996 -52.259)" fill="#0071bc"/>
        <path id="Path_562" data-name="Path 562" d="M74.047,94.9l11.084,1.574L73.98,95.225Z" transform="translate(-40.996 -52.586)" fill="#0071bc"/>
        <path id="Path_563" data-name="Path 563" d="M73.98,95.34l11.151,3.018L74,95.688Z" transform="translate(-40.996 -52.83)" fill="#0071bc"/>
        <path id="Path_564" data-name="Path 564" d="M74.047,96.08,85,100.538l-11.017-4.2Z" transform="translate(-40.996 -53.24)" fill="#0071bc"/>
        <path id="Path_565" data-name="Path 565" d="M73.98,96.22l10.758,6.233L73.98,96.483Z" transform="translate(-40.996 -53.317)" fill="#0071bc"/>
        <path id="Path_566" data-name="Path 566" d="M61.366,118.67l-.446-.2c2.755-1.338,3.152.722,2.1,1.017l-.446-.165C63.858,119.2,63.631,117.569,61.366,118.67Z" transform="translate(-33.759 -65.402)" fill="#0071bc"/>
        <path id="Path_567" data-name="Path 567" d="M66,117.521c.691-.624,2.3-.892,2.675.067-.227.129-.379.134-.361.062.1-.446-.95-.589-2.167-.031Z" transform="translate(-36.574 -64.81)" fill="#0071bc"/>
        <path id="Path_568" data-name="Path 568" d="M70.878,119.479l.651-.129c.691-.789-.325-1.248-1.079-.655C72.055,118.3,71.7,119.381,70.878,119.479Z" transform="translate(-39.04 -65.622)" fill="#0071bc"/>
        <path id="Path_569" data-name="Path 569" d="M72.73,118.3a1.284,1.284,0,0,1,1.048,0c.232.1-.361-.08-.49-.049a5.087,5.087,0,0,1-.557.049Z" transform="translate(-40.304 -65.492)" fill="#0071bc"/>
        <path id="Path_570" data-name="Path 570" d="M71.59,117.467a2.189,2.189,0,0,1,1.69-.147c.539.031,1.293,1.311-.477,1.587a3.607,3.607,0,0,1-.82-.161l.178-.067a1.066,1.066,0,0,0,1.1-.08c.361-.1.687-.976-.294-1.07a2.127,2.127,0,0,0-1.213.1" transform="translate(-39.672 -64.952)" fill="#0071bc"/>
        <path id="Path_571" data-name="Path 571" d="M77.11,119.4a1.11,1.11,0,0,1,1.195-.049c.312.214,0-.107-.49-.08a4.721,4.721,0,0,0-.7.129Z" transform="translate(-42.731 -66.052)" fill="#0071bc"/>
        <path id="Path_572" data-name="Path 572" d="M77.062,118.635a1.338,1.338,0,0,1,1.61.446,1.124,1.124,0,0,0,.522-.1c-1.048-.655-1.115-.789-2.194-.49Z" transform="translate(-42.67 -65.576)" fill="#0071bc"/>
        <path id="Path_573" data-name="Path 573" d="M73.376,121.921l-.276.147c.116-1.364,1.556-1.525,2.622-1.338,0,0,.2.062-.031.08C74.264,120.935,73.689,120.967,73.376,121.921Z" transform="translate(-40.509 -66.864)" fill="#0071bc"/>
        <path id="Path_574" data-name="Path 574" d="M67.4,119.47a4.162,4.162,0,0,0,.424.08h-.361C67.413,119.55,67.4,119.47,67.4,119.47Z" transform="translate(-37.35 -66.201)" fill="#0071bc"/>
        <path id="Path_575" data-name="Path 575" d="M67.346,120.06c-.089.089.379.085.557.067s-.379-.085-.379-.085S67.4,120.02,67.346,120.06Z" transform="translate(-37.314 -66.515)" fill="#0071bc"/>
        <path id="Path_576" data-name="Path 576" d="M66.427,120.327a6.625,6.625,0,0,0,2.608,0c.281-.085.031.147.031.147a5.444,5.444,0,0,1-2.7.031C65.923,120.389,66.427,120.327,66.427,120.327Z" transform="translate(-36.676 -66.666)" fill="#0071bc"/>
        <path id="Path_577" data-name="Path 577" d="M65.6,120.961l.16.1c.129-.2.544-.147.8.116,0,0,.058.054.2,0,.963-.361.918.446.638.669,0,0,0,.058.147,0,.722-.33.967.178.967.41l.129-.134c-.08-.294-.129-.41-.031-.539s.4-.169,0-.049c-.606.178-1.115-.379-.33-.624.544.031.838.031,1,.294l.116.067.2-.147s-.232-.165-.183-.263a2.791,2.791,0,0,1-.673-.178,7.377,7.377,0,0,1-2.7.031C65.845,120.582,65.6,120.961,65.6,120.961Z" transform="translate(-36.352 -66.872)" fill="#0071bc"/>
        <path id="Path_578" data-name="Path 578" d="M70.19,123.513a.575.575,0,0,1,.446-.147c.227.036-.161.031-.325.2Z" transform="translate(-38.896 -68.359)" fill="#0071bc"/>
        <path id="Path_579" data-name="Path 579" d="M70,121.38h.263c0,.129-.04.205-.125.205S70,121.527,70,121.38Z" transform="translate(-38.791 -67.26)" fill="#0071bc"/>
        <path id="Path_580" data-name="Path 580" d="M69.141,105.691l-.218-.031c-.125-.3-.049-.758.107-.691-.156-.227-.214-.624-.058-.691v-.325c-.094-.361-.214-.49,0-.655.125-.1.062-.294.062-.294-.1-.263-.16-.557,0-.66s.062-.325.062-.325c-.125-.165-.156-.557,0-.593s.062-.2.062-.2a.446.446,0,0,1,0-.575,1.061,1.061,0,0,0,.045-.276c-.094-.2-.192-.557-.036-.624s.031-.294.031-.294a.388.388,0,0,1,0-.477.294.294,0,0,0,.031-.214c-.094-.111-.156-.392-.049-.446a.223.223,0,0,0,.076-.25.334.334,0,0,1,0-.446.192.192,0,0,0,0-.281c-.1-.049-.071-.325-.045-.374h.276c0,.41-.174.152.062.691-.12.312-.169.392,0,.589a.682.682,0,0,0-.027.7,4.376,4.376,0,0,0-.045,1.525.58.58,0,0,0-.058.771.8.8,0,0,0-.04.923.954.954,0,0,0-.031.95.776.776,0,0,0-.089.869c-.12.33-.169.785.1.82a.486.486,0,0,0-.169.673C69.364,105.508,69.235,105.722,69.141,105.691Z" transform="translate(-38.155 -53.733)" fill="#0071bc"/>
        <path id="Path_581" data-name="Path 581" d="M69.85,114.575a.214.214,0,0,0,.187.045h.089c0-.062-.1-.062-.1-.062a.311.311,0,0,1-.134-.027Z" transform="translate(-38.708 -63.464)" fill="#0071bc"/>
        <path id="Path_582" data-name="Path 582" d="M73.842,105.759l-.21.067c-.1.031-.214-.183-.031-.2a.7.7,0,0,0-.04-.771c.276-.031.1-.392-.027-.722a.771.771,0,0,0,0-.892.892.892,0,0,0,0-.95.767.767,0,0,0,0-.923c.218-.259.156-.5-.058-.767.214-.165.156-.655,0-.856a.776.776,0,0,0,0-.753c.2-.334.214-.317-.04-.7.227-.325-.027-.495-.027-.495.254-.535,0-.406,0-.816h.263c.053.085.12.067,0,.41a.776.776,0,0,1,0,.508.6.6,0,0,1,0,.624c.1.245.116.361,0,.526a.6.6,0,0,1,0,.642.976.976,0,0,1,0,.914.954.954,0,0,1,.036.758.976.976,0,0,1,0,.892,1.137,1.137,0,0,1,.031.985.838.838,0,0,1,.036.834.892.892,0,0,1,.049.753c.1.2.129.281.049.446a.651.651,0,0,1-.036.446" transform="translate(-40.68 -53.739)" fill="#0071bc"/>
        <path id="Path_583" data-name="Path 583" d="M72.589,97.341a.334.334,0,0,1-.383-.116c-.04-.045-.174,0-.272,0a.531.531,0,0,1,0,.446.406.406,0,0,0,.027.321h.062c0-.125-.076-.254.036-.357h.054a.383.383,0,0,0,0-.16.517.517,0,0,0,.544.107c.058-.027-.036-.169,0-.272a.4.4,0,0,1-.227.1" transform="translate(-39.85 -53.864)" fill="#0071bc"/>
        <path id="Path_584" data-name="Path 584" d="M70.9,115.66a1.4,1.4,0,0,0,.036.6c.027-.161-.04-.41,0-.593Z" transform="translate(-39.279 -64.09)" fill="#0071bc"/>
        <path id="Path_585" data-name="Path 585" d="M72.735,99.314c.031.174,0,.357.036.522a1.025,1.025,0,0,1-.071-.526Z" transform="translate(-40.282 -55.03)" fill="#0071bc"/>
        <path id="Path_586" data-name="Path 586" d="M72.376,102.44a4.682,4.682,0,0,0,.04.526c-.08,0-.067-.348-.076-.526Z" transform="translate(-40.087 -56.764)" fill="#0071bc"/>
        <path id="Path_587" data-name="Path 587" d="M71.622,105.858a1.658,1.658,0,0,1,0,.446,3.2,3.2,0,0,0-.022-.446C71.609,105.858,71.622,105.853,71.622,105.858Z" transform="translate(-39.677 -58.657)" fill="#0071bc"/>
        <path id="Path_588" data-name="Path 588" d="M72.967,105.93a2.8,2.8,0,0,1-.027.82c0-.16,0-.638,0-.82Z" transform="translate(-40.42 -58.698)" fill="#0071bc"/>
        <path id="Path_589" data-name="Path 589" d="M72.94,109.94a1.471,1.471,0,0,1,0,.593Z" transform="translate(-40.42 -60.92)" fill="#0071bc"/>
        <path id="Path_590" data-name="Path 590" d="M71.848,113.77c.031.178,0,.473.04.7a1.685,1.685,0,0,1-.071-.7Z" transform="translate(-39.792 -63.043)" fill="#0071bc"/>
        <path id="Path_591" data-name="Path 591" d="M73.167,113.808a1.726,1.726,0,0,1-.107.638c0-.165.085-.446.071-.638C73.158,113.808,73.167,113.8,73.167,113.808Z" transform="translate(-40.486 -63.062)" fill="#0071bc"/>
        <path id="Path_592" data-name="Path 592" d="M72.583,115.42a1.712,1.712,0,0,0,.04.642v-.642Z" transform="translate(-40.214 -63.957)" fill="#0071bc"/>
        <path id="Path_593" data-name="Path 593" d="M72.192,98.82a3.786,3.786,0,0,1-.892.089,6.772,6.772,0,0,0,1.021.1C72.5,99.007,72.192,98.82,72.192,98.82Z" transform="translate(-39.511 -54.758)" fill="#0071bc"/>
        <path id="Path_594" data-name="Path 594" d="M72.352,100.519a3.313,3.313,0,0,0-1.132.036l.049.04a1.783,1.783,0,0,1,1.066.156Z" transform="translate(-39.467 -55.682)" fill="#0071bc"/>
        <path id="Path_595" data-name="Path 595" d="M73.112,99.72a2.927,2.927,0,0,0-.312.1.49.49,0,0,1,.263.049C73.2,99.934,73.112,99.72,73.112,99.72Z" transform="translate(-40.342 -55.257)" fill="#0071bc"/>
        <path id="Path_596" data-name="Path 596" d="M73.116,101.33a.981.981,0,0,0-.276.053.955.955,0,0,1,.312.08C73.281,101.531,73.116,101.33,73.116,101.33Z" transform="translate(-40.365 -56.149)" fill="#0071bc"/>
        <path id="Path_597" data-name="Path 597" d="M73.191,104.94a1.235,1.235,0,0,0-.281.049,1.021,1.021,0,0,1,.312.085C73.356,105.136,73.191,104.94,73.191,104.94Z" transform="translate(-40.403 -58.15)" fill="#0071bc"/>
        <path id="Path_598" data-name="Path 598" d="M72.933,104.168a1.863,1.863,0,0,1,0,.446,4.194,4.194,0,0,1,0-.446Z" transform="translate(-40.413 -57.72)" fill="#0071bc"/>
        <path id="Path_599" data-name="Path 599" d="M73.049,106.84a1.071,1.071,0,0,1-.343,0c-.116,0,0,.076,0,.076a.615.615,0,0,1,.379,0Z" transform="translate(-40.262 -59.202)" fill="#0071bc"/>
        <path id="Path_600" data-name="Path 600" d="M73.256,108.62a1.132,1.132,0,0,1-.446.1c-.116,0,0,.049.116.067a1.626,1.626,0,0,0,.312,0Z" transform="translate(-40.321 -60.189)" fill="#0071bc"/>
        <path id="Path_601" data-name="Path 601" d="M73.1,103a1.577,1.577,0,0,1-.325,0,.245.245,0,0,0,.1.08l.294.085Z" transform="translate(-40.326 -57.075)" fill="#0071bc"/>
        <path id="Path_602" data-name="Path 602" d="M73.282,112.26a3.427,3.427,0,0,1-.557.049c-.067,0,.045.08.129.1a3.072,3.072,0,0,0,.41,0Z" transform="translate(-40.289 -62.206)" fill="#0071bc"/>
        <path id="Path_603" data-name="Path 603" d="M73.332,114.292a1.167,1.167,0,0,0-.575.031c-.183.1.067.067.067.067h.508Z" transform="translate(-40.281 -63.32)" fill="#0071bc"/>
        <path id="Path_604" data-name="Path 604" d="M73.837,115.72c-.1.049-.276.062-.259.161a.2.2,0,0,0,.178.147C73.824,116.041,73.837,115.72,73.837,115.72Z" transform="translate(-40.773 -64.123)" fill="#0071bc"/>
        <path id="Path_605" data-name="Path 605" d="M72.4,115.081c-.161-.085-.343-.312-.392-.232s.067.147-.2.178a3.771,3.771,0,0,0-.74.067,6.552,6.552,0,0,1,.82,0,3.714,3.714,0,0,1,.361.161C72.434,115.308,72.4,115.081,72.4,115.081Z" transform="translate(-39.384 -63.631)" fill="#0071bc"/>
        <path id="Path_606" data-name="Path 606" d="M71.544,108.818c0-.446-.085-.655.031-.638a.446.446,0,0,1,.2.08l-.187-.2H71.33v.758Z" transform="translate(-39.528 -59.879)" fill="#0071bc"/>
        <path id="Path_607" data-name="Path 607" d="M71.544,112.5c0-.446-.085-.66.031-.642a.473.473,0,0,1,.2.085l-.187-.2H71.33v.753Z" transform="translate(-39.528 -61.918)" fill="#0071bc"/>
        <path id="Path_608" data-name="Path 608" d="M71.522,104.894c0-.294-.062-.522.054-.5a.446.446,0,0,1,.2.08l-.187-.2H71.33v.62Z" transform="translate(-39.528 -57.778)" fill="#0071bc"/>
        <path id="Path_609" data-name="Path 609" d="M71.544,101.444c0-.294-.062-.526.054-.508a.446.446,0,0,1,.2.08l-.187-.2c-.062.036-.138,0-.241.1v.539Z" transform="translate(-39.55 -55.866)" fill="#0071bc"/>
        <path id="Path_610" data-name="Path 610" d="M72.457,98.026a1.658,1.658,0,0,0,0-.446,2.7,2.7,0,0,1-.027.446Z" transform="translate(-40.137 -54.071)" fill="#0071bc"/>
        <path id="Path_611" data-name="Path 611" d="M72.288,102.17a1.516,1.516,0,0,0-1.066,0c-.276.134.183,0,.348,0a1.783,1.783,0,0,1,.669.183C72.306,102.433,72.288,102.17,72.288,102.17Z" transform="translate(-39.42 -56.561)" fill="#0071bc"/>
        <path id="Path_612" data-name="Path 612" d="M72.274,103.848a1.449,1.449,0,0,0-1.164,0c-.3.214.241-.049.41-.031a2.016,2.016,0,0,1,.7.227C72.292,104.12,72.274,103.848,72.274,103.848Z" transform="translate(-39.357 -57.477)" fill="#0071bc"/>
        <path id="Path_613" data-name="Path 613" d="M72.2,105.708a1.449,1.449,0,0,0-1.164,0c-.3.214,0,0,.41-.031a1.565,1.565,0,0,1,.7.227C72.214,105.971,72.2,105.708,72.2,105.708Z" transform="translate(-39.297 -58.508)" fill="#0071bc"/>
        <path id="Path_614" data-name="Path 614" d="M72.4,107.683c-.892-.147-.985-.116-1.226-.031-.053,0,.08.062.49.031a1.454,1.454,0,0,1,.687.178C72.429,107.946,72.4,107.683,72.4,107.683Z" transform="translate(-39.436 -59.613)" fill="#0071bc"/>
        <path id="Path_615" data-name="Path 615" d="M72.41,109.626c-.892-.147-.954-.049-1.2.036a2.064,2.064,0,0,0,.557,0,5.145,5.145,0,0,1,.655.129C72.49,109.871,72.41,109.626,72.41,109.626Z" transform="translate(-39.458 -60.704)" fill="#0071bc"/>
        <path id="Path_616" data-name="Path 616" d="M72.459,111.395c-.892-.147-.985-.111-1.231-.031-.049,0,.085.067.495.031a1.783,1.783,0,0,1,.753.183C72.53,111.658,72.459,111.395,72.459,111.395Z" transform="translate(-39.466 -61.671)" fill="#0071bc"/>
        <path id="Path_617" data-name="Path 617" d="M72.51,113.383c-.892-.147-.985-.116-1.231-.031-.045,0,.085.062.495.031a1.453,1.453,0,0,1,.687.178C72.528,113.646,72.51,113.383,72.51,113.383Z" transform="translate(-39.495 -62.771)" fill="#0071bc"/>
        <path id="Path_618" data-name="Path 618" d="M71.11,116.836a7.577,7.577,0,0,0,1.083-.062c.2,0,0-.085-.2-.067s-.691.031-.753.031S71.11,116.836,71.11,116.836Z" transform="translate(-39.406 -64.669)" fill="#0071bc"/>
        <path id="Path_619" data-name="Path 619" d="M71.37,95.18c.375-.178.343-.161.606-.111A.892.892,0,0,0,72.543,95c.067-.031,0,.294,0,.294a1.5,1.5,0,0,0-.446,0c-.054,0,.031-.116-.263-.116a.678.678,0,0,0-.379.067Z" transform="translate(-39.55 -52.639)" fill="#0071bc"/>
        <path id="Path_620" data-name="Path 620" d="M72.647,94.418a2.4,2.4,0,0,0,.089.624c-.214-.116-.116-.446-.125-.624C72.634,94.418,72.647,94.413,72.647,94.418Z" transform="translate(-40.23 -52.317)" fill="#0071bc"/>
        <path id="Path_621" data-name="Path 621" d="M64.949,53.558a2.894,2.894,0,0,0,1.119.66.557.557,0,0,1,.2.116l-.049.147a4.41,4.41,0,0,1-1.4-.941Z" transform="translate(-35.92 -29.666)" fill="#0071bc"/>
        <path id="Path_622" data-name="Path 622" d="M64.254,53.879a4.347,4.347,0,0,0,1.079.62.615.615,0,0,1,.2.116l-.049.147a9.807,9.807,0,0,1-1.364-.892Z" transform="translate(-35.532 -29.849)" fill="#0071bc"/>
        <path id="Path_623" data-name="Path 623" d="M139.834,72.311l.366,1.1h0l-.945-.687-.941.687h0l.375-1.1-.959-.691v0l1.168,0,.357-1.11.352,1.11h1.173Z" transform="translate(-76.324 -39.07)" fill="#0071bc"/>
        <path id="Path_624" data-name="Path 624" d="M3.01,72.311l.366,1.1h0l-.941-.687-.945.687h0l.375-1.1L.91,71.62v0l1.164,0,.361-1.11.348,1.11H3.955Z" transform="translate(-0.504 -39.07)" fill="#0071bc"/>
        <path id="Path_625" data-name="Path 625" d="M67.52,63.258c.308-.085.5-.205.486.236,0,0-.214.731.294.5.165-.067.446.067.446-.165v-.424s.04-.361-.4-.205a.236.236,0,0,0-.071.138h.143c.053,0,.152-.058.134.187v.268c-.08.085-.027.049-.156.049s-.263.116-.245-.178.147-.838-.624-.638Z" transform="translate(-37.416 -34.899)" fill="#0071bc"/>
        <path id="Path_626" data-name="Path 626" d="M67.529,64.51a1.128,1.128,0,0,1,.446-.036c.08,0,.031-.147.031-.147a.745.745,0,0,0-.49.134C67.32,64.563,67.529,64.51,67.529,64.51Z" transform="translate(-37.368 -35.642)" fill="#0071bc"/>
        <path id="Path_627" data-name="Path 627" d="M66.865,62.18h-.178l-.08,1.7a.446.446,0,0,0-.317.245c.294.031.807.071.807.071-.1-.3-.276-.294-.245-.285Z" transform="translate(-36.735 -34.454)" fill="#0071bc"/>
        <path id="Path_628" data-name="Path 628" d="M75.561,63.9c.379-.089.134-.067.446-.031.08,0,.031-.147.031-.147a.446.446,0,0,0-.49.129C75.374,64,75.561,63.9,75.561,63.9Z" transform="translate(-41.824 -35.291)" fill="#0071bc"/>
        <path id="Path_629" data-name="Path 629" d="M76.935,63.14c-.022.178-.37.08-.446.116-.473.214-.263-.5-.263-.5.071-.375-.241-.276-.446-.178v-.187c.758-.294.7.227.664.482s.031.223.161.223.085,0,.165-.085v-.245c0-.245-.085-.178-.134-.178h-.147a.446.446,0,0,1,.089-.147c.352-.116.352.214.352.214A1.6,1.6,0,0,0,76.935,63.14Z" transform="translate(-41.994 -34.523)" fill="#0071bc"/>
        <path id="Path_630" data-name="Path 630" d="M84.961,66.175c.379-.089.134-.067.446-.031.08,0,.031-.147.031-.147a.446.446,0,0,0-.49.129C84.774,66.282,84.961,66.175,84.961,66.175Z" transform="translate(-47.033 -36.554)" fill="#0071bc"/>
        <path id="Path_631" data-name="Path 631" d="M86.164,65.353c-.031.29-.3,0-.446.116-.539.165-.272-.5-.272-.5.058-.4-.174-.325-.446-.178v-.165c.8-.446.664.116.624.5,0,.294.071.183.205.183s.071,0,.156-.058v-.178c0-.062-.036-.08-.12-.129a1.257,1.257,0,0,0-.152-.071.571.571,0,0,1,.107-.169.227.227,0,0,1,.352.178A1.123,1.123,0,0,0,86.164,65.353Z" transform="translate(-47.103 -35.718)" fill="#0071bc"/>
        <path id="Path_632" data-name="Path 632" d="M84.411,64h-.178l-.067,1.556c-.259.1-.2.116-.325.2.294.036.82.085.82.085-.085-.134-.116-.2-.25-.245Z" transform="translate(-46.46 -35.463)" fill="#0071bc"/>
        <path id="Path_633" data-name="Path 633" d="M81.018,69.783c-.3-.223-.646-.829.107-1.783l.259.027C80.924,68.589,80.639,69.1,81.018,69.783Z" transform="translate(-44.704 -37.679)" fill="#0071bc"/>
        <path id="Path_634" data-name="Path 634" d="M81.12,67.68l3.687.379a2.01,2.01,0,0,0-.571,1.917l-.1.067a1.9,1.9,0,0,1,.294-1.837l-3.246-.383Z" transform="translate(-44.953 -37.502)" fill="#0071bc"/>
        <path id="Path_635" data-name="Path 635" d="M83.18,69.767c.366-.366.406-.446,1.458-.687-.526.2-1.231.375-1.378.638Z" transform="translate(-46.094 -38.278)" fill="#0071bc"/>
        <path id="Path_636" data-name="Path 636" d="M85,69.806a1.043,1.043,0,0,1,.8-.357A5.252,5.252,0,0,0,85,69.806Z" transform="translate(-47.103 -38.483)" fill="#0071bc"/>
        <path id="Path_637" data-name="Path 637" d="M82.3,71.455a.361.361,0,0,1,.263-.49,1.717,1.717,0,0,1,1.1.2,2.1,2.1,0,0,1,.606.446l.067.067c-.343-.147-1.128-.758-1.7-.539-.263.1-.205.08-.25.263C82.386,71.522,82.3,71.455,82.3,71.455Z" transform="translate(-45.59 -39.311)" fill="#0071bc"/>
        <path id="Path_638" data-name="Path 638" d="M83.1,71.9c0-.129.076-.646.076-.646h.067l-.054.606Z" transform="translate(-46.05 -39.48)" fill="#0071bc"/>
        <path id="Path_639" data-name="Path 639" d="M83.622,71.179l-.022.6.08.022.018-.633Z" transform="translate(-46.327 -39.436)" fill="#0071bc"/>
        <path id="Path_640" data-name="Path 640" d="M84.082,71.2l-.022.6.107.027.013-.633Z" transform="translate(-46.582 -39.447)" fill="#0071bc"/>
        <path id="Path_641" data-name="Path 641" d="M84.692,71.39l-.022.6.138.031.013-.633Z" transform="translate(-46.92 -39.558)" fill="#0071bc"/>
        <path id="Path_642" data-name="Path 642" d="M84.066,72.371c-.1-.3-.424-.446-1.146-.076Z" transform="translate(-45.95 -39.937)" fill="#0071bc"/>
        <path id="Path_643" data-name="Path 643" d="M80.373,72.37l3.981.272c-.08.169-.174.3-.232.41A1.4,1.4,0,0,0,84.19,74.7l-.058.049c-.7-.892-.5-1.467-.089-1.944l-3.723-.285Z" transform="translate(-44.51 -40.101)" fill="#0071bc"/>
        <path id="Path_644" data-name="Path 644" d="M80.12,74.386a1.309,1.309,0,0,1-.031-1.886l.245.04a1.565,1.565,0,0,0-.214,1.846Z" transform="translate(-44.176 -40.173)" fill="#0071bc"/>
        <path id="Path_645" data-name="Path 645" d="M81.56,74.376a2.127,2.127,0,0,1,1.877-.789,1.584,1.584,0,0,0-.285.045,2.248,2.248,0,0,0-1.511.7Z" transform="translate(-45.197 -40.769)" fill="#0071bc"/>
        <path id="Path_646" data-name="Path 646" d="M85.026,73.937a2.006,2.006,0,0,0-.856.334,1.217,1.217,0,0,1,.981-.375C85.222,73.87,85.16,73.9,85.026,73.937Z" transform="translate(-46.643 -40.941)" fill="#0071bc"/>
        <path id="Path_647" data-name="Path 647" d="M71.963,67.679a1.235,1.235,0,0,1,.049-1.819l.205.125C71.655,66.342,71.687,67.024,71.963,67.679Z" transform="translate(-39.67 -36.493)" fill="#0071bc"/>
        <path id="Path_648" data-name="Path 648" d="M71.92,65.68l3.812.352a1.476,1.476,0,0,0-.446,1.783l-.067.067c-.227-.553-.361-1.338.183-1.752l-3.446-.285Z" transform="translate(-39.855 -36.394)" fill="#0071bc"/>
        <path id="Path_649" data-name="Path 649" d="M73.48,67.756c.227-.3.749-.615,2.136-.58h-.473a3.067,3.067,0,0,0-1.592.535Z" transform="translate(-40.719 -37.221)" fill="#0071bc"/>
        <path id="Path_650" data-name="Path 650" d="M76.7,67.79a2.06,2.06,0,0,0-.892.241s.183-.268.932-.281C76.786,67.754,76.831,67.786,76.7,67.79Z" transform="translate(-42.01 -37.541)" fill="#0071bc"/>
        <path id="Path_651" data-name="Path 651" d="M73.287,69.362a.361.361,0,0,1,.263-.49,1.663,1.663,0,0,1,1.1.2,2.02,2.02,0,0,1,.606.446l.067.067c-.343-.152-1.128-.758-1.708-.544-.263.1-.205.085-.245.263S73.287,69.362,73.287,69.362Z" transform="translate(-40.597 -38.15)" fill="#0071bc"/>
        <path id="Path_652" data-name="Path 652" d="M75.075,70.144c-.049-.178-.348-.624-.985-.085Z" transform="translate(-41.057 -38.677)" fill="#0071bc"/>
        <path id="Path_653" data-name="Path 653" d="M75.052,68.939l-.022.6.08.027.018-.633Z" transform="translate(-41.578 -38.195)" fill="#0071bc"/>
        <path id="Path_654" data-name="Path 654" d="M75.442,68.974l-.022.6.1.022.018-.629Z" transform="translate(-41.794 -38.217)" fill="#0071bc"/>
        <path id="Path_655" data-name="Path 655" d="M67.432,67.433a2.229,2.229,0,0,0-.892.392s.156-.312.892-.446C67.521,67.384,67.561,67.411,67.432,67.433Z" transform="translate(-36.873 -37.336)" fill="#0071bc"/>
        <path id="Path_656" data-name="Path 656" d="M68.247,67.88a1.293,1.293,0,0,0-.727.272s.116-.312.749-.312C68.34,67.844,68.376,67.876,68.247,67.88Z" transform="translate(-37.416 -37.591)" fill="#0071bc"/>
        <path id="Path_657" data-name="Path 657" d="M65.285,70.05c-.094-.294,0-.486.2-.539a1.168,1.168,0,0,1,1.057.236,2.279,2.279,0,0,1,.343.3l.036.058c-.205-.134-.807-.709-1.338-.446-.2.089-.089.218-.174.383C65.405,70.152,65.285,70.05,65.285,70.05Z" transform="translate(-36.157 -38.494)" fill="#0071bc"/>
        <path id="Path_658" data-name="Path 658" d="M66.952,70.61c-.049-.147-.339-.584-.892-.071Z" transform="translate(-36.607 -38.952)" fill="#0071bc"/>
        <path id="Path_659" data-name="Path 659" d="M66.858,69.729l-.018.477.107.022.009-.508Z" transform="translate(-37.04 -38.632)" fill="#0071bc"/>
        <path id="Path_660" data-name="Path 660" d="M67.332,69.879l-.022.473.1.027.018-.508Z" transform="translate(-37.3 -38.715)" fill="#0071bc"/>
        <path id="Path_661" data-name="Path 661" d="M63.009,63.85l-.036.41a21.018,21.018,0,0,0-3.014,3.567l-.3.446C59.5,67.983,62.086,64.679,63.009,63.85Z" transform="translate(-33.057 -35.379)" fill="#0071bc"/>
        <path id="Path_662" data-name="Path 662" d="M64.262,68.353c-.245-.107-.508-.847.107-1.783h.263a1.922,1.922,0,0,0-.37,1.783Z" transform="translate(-35.461 -36.887)" fill="#0071bc"/>
        <path id="Path_663" data-name="Path 663" d="M63.63,70.64l3.259.317c0,.036-.192.178-.263.272A1.815,1.815,0,0,0,66.5,72.9l-.031.125c-.3-.361-.531-1.525.111-1.962L63.657,70.8Z" transform="translate(-35.261 -39.142)" fill="#0071bc"/>
        <path id="Path_664" data-name="Path 664" d="M62.72,72.7c-.392-.223-.263-.927.321-1.748l.263.027C62.836,71.534,62.5,71.984,62.72,72.7Z" transform="translate(-34.632 -39.314)" fill="#0071bc"/>
        <path id="Path_665" data-name="Path 665" d="M66.172,71.756a3.251,3.251,0,0,0-.932.535,1.828,1.828,0,0,1,1.115-.566A1.274,1.274,0,0,0,66.172,71.756Z" transform="translate(-36.153 -39.741)" fill="#0071bc"/>
        <path id="Path_666" data-name="Path 666" d="M67.426,72.253a6.643,6.643,0,0,0-.776.374,1.311,1.311,0,0,1,.892-.388C67.613,72.244,67.555,72.249,67.426,72.253Z" transform="translate(-36.934 -40.029)" fill="#0071bc"/>
        <path id="Path_667" data-name="Path 667" d="M63.687,74.292c-.134-.205-.027-.593.187-.642a1.561,1.561,0,0,1,1.186.174,8.167,8.167,0,0,1,.713.548l-.031.058c-.214-.129-1.239-.892-1.783-.638-.2.089-.067.3-.165.482C63.758,74.364,63.687,74.292,63.687,74.292Z" transform="translate(-35.259 -40.784)" fill="#0071bc"/>
        <path id="Path_668" data-name="Path 668" d="M65.738,74.069l-.018.673.107.022.009-.7Z" transform="translate(-36.419 -41.037)" fill="#0071bc"/>
        <path id="Path_669" data-name="Path 669" d="M66.132,74.109l-.022.669.107.027.018-.7Z" transform="translate(-36.635 -41.059)" fill="#0071bc"/>
        <path id="Path_670" data-name="Path 670" d="M66.493,74.21l-.013.642.1.027.027-.3.116-.232Z" transform="translate(-36.84 -41.12)" fill="#0071bc"/>
        <path id="Path_671" data-name="Path 671" d="M67.06,74.65l.009.468.254.022.018-.4Z" transform="translate(-37.162 -41.364)" fill="#0071bc"/>
        <path id="Path_672" data-name="Path 672" d="M70.932,72.566a1.693,1.693,0,0,1-.25-2.3l.205.129C70.326,70.756,70.491,72,70.932,72.566Z" transform="translate(-38.983 -38.937)" fill="#0071bc"/>
        <path id="Path_673" data-name="Path 673" d="M70.75,70.06l4.36.415c.205,0,.508.125-.143.169a2.476,2.476,0,0,0-.3,2.229l-.067.067a2.149,2.149,0,0,1,.169-2.327L70.8,70.229Z" transform="translate(-39.206 -38.821)" fill="#0071bc"/>
        <path id="Path_674" data-name="Path 674" d="M73,71.922a4.32,4.32,0,0,1,1.783-.513s.125-.067-.21-.045a5.35,5.35,0,0,0-1.476.446Z" transform="translate(-40.453 -39.541)" fill="#0071bc"/>
        <path id="Path_675" data-name="Path 675" d="M74.79,72.351A4.9,4.9,0,0,1,76.038,72s.165-.089-.1-.053a3.281,3.281,0,0,0-1.066.3Z" transform="translate(-41.445 -39.863)" fill="#0071bc"/>
        <path id="Path_676" data-name="Path 676" d="M72.425,74.738a.486.486,0,0,1,.187-.638,1.641,1.641,0,0,1,1.378.147c.147.089.762.575.959.74l-.031.058c-.214-.134-1.583-1.052-2.229-.78-.33.143.067.415-.062.539S72.425,74.738,72.425,74.738Z" transform="translate(-40.106 -41.011)" fill="#0071bc"/>
        <path id="Path_677" data-name="Path 677" d="M74.2,74.419l-.178.78.152.022.125-.811Z" transform="translate(-41.018 -41.231)" fill="#0071bc"/>
        <path id="Path_678" data-name="Path 678" d="M74.632,74.679l-.232.432.165.1.04.21.107.027.018-.78Z" transform="translate(-41.229 -41.375)" fill="#0071bc"/>
        <path id="Path_679" data-name="Path 679" d="M75.152,74.76l-.022.263.138.031,0,.45.25.036-.009-.254.1-.4Z" transform="translate(-41.634 -41.425)" fill="#0071bc"/>
        <path id="Path_680" data-name="Path 680" d="M75.93,75.02v.473l.169.031.125.125.018-.5Z" transform="translate(-42.077 -41.569)" fill="#0071bc"/>
        <path id="Path_681" data-name="Path 681" d="M76.31,76.15c.031.08-.04.134.125.125" transform="translate(-42.287 -42.196)" fill="#0071bc"/>
        <path id="Path_682" data-name="Path 682" d="M81.2,76.431c-.067-.3.415-.495.606-.539a2.9,2.9,0,0,1,1.338.227c.3.1.807.281,1.164.419l.049.067a18.728,18.728,0,0,0-2.523-.522c-.339.071-.383.129-.446.308S81.2,76.431,81.2,76.431Z" transform="translate(-44.995 -42.049)" fill="#0071bc"/>
        <path id="Path_683" data-name="Path 683" d="M86.14,78.9a1.688,1.688,0,0,1,1.44-1.253c-.076,0,.165,0-.143.143a2.462,2.462,0,0,0-1.217,1.061Z" transform="translate(-47.735 -43.027)" fill="#0071bc"/>
        <path id="Path_684" data-name="Path 684" d="M87.683,79.014c.067.062-.379-.205.789-.687-.08,0,.178-.027-.129.116a1.4,1.4,0,0,0-.571.482Z" transform="translate(-48.573 -43.401)" fill="#0071bc"/>
        <path id="Path_685" data-name="Path 685" d="M88.42,75.409l1.057-.339c0,.067.138.125-.1.2-.169.094-.116.268-.107.348.085.869.58,1.391,1.422,2.158l-.094.053a3.086,3.086,0,0,1-1.569-2.372l-.477.089Z" transform="translate(-48.998 -41.597)" fill="#0071bc"/>
        <path id="Path_686" data-name="Path 686" d="M85.151,76.965s-.12-.268.6-.214c-.071-.031.187.107-.152.1a.531.531,0,0,0-.357.143Z" transform="translate(-47.182 -42.525)" fill="#0071bc"/>
        <path id="Path_687" data-name="Path 687" d="M84.422,81.6c.816-.111,4.869-.642,5.23-.771.085-.027-.2-.049-.281-.031-1.017.161-4.351.5-4.9.589C84.181,81.444,84.422,81.6,84.422,81.6Z" transform="translate(-46.73 -44.77)" fill="#0071bc"/>
        <path id="Path_688" data-name="Path 688" d="M85.12,81.331c.624-.7.82-.691,1.364-.7a5.3,5.3,0,0,1,1.966.312,6.75,6.75,0,0,0-1.69-.116c-.816.036-1.075.08-1.262.446C85.4,81.478,85.12,81.331,85.12,81.331Z" transform="translate(-47.17 -44.675)" fill="#0071bc"/>
        <path id="Path_689" data-name="Path 689" d="M60.87,75.09l4.539.4c0,.036-.192.178-.263.268-.892.62-.218,2.229,0,2.8v.107c-.3-.366-1.173-2.332,0-3.063l-4.213-.352Z" transform="translate(-33.731 -41.608)" fill="#0071bc"/>
        <path id="Path_690" data-name="Path 690" d="M61.023,78.28c-.74-.236-1.034-1.783-.285-2.88l.263.027A2.354,2.354,0,0,0,61.023,78.28Z" transform="translate(-33.416 -41.78)" fill="#0071bc"/>
        <path id="Path_691" data-name="Path 691" d="M63.694,77.2a2.809,2.809,0,0,1,1.917-.713c.058.04.111,0-.156.027a4.12,4.12,0,0,0-1.654.646C63.654,77.274,63.694,77.2,63.694,77.2Z" transform="translate(-35.293 -42.383)" fill="#0071bc"/>
        <path id="Path_692" data-name="Path 692" d="M65.458,77.5a1.73,1.73,0,0,1,1.173-.446c.058.04.076,0-.192.058a2.078,2.078,0,0,0-.838.294C65.431,77.5,65.458,77.5,65.458,77.5Z" transform="translate(-36.273 -42.694)" fill="#0071bc"/>
        <path id="Path_693" data-name="Path 693" d="M66.93,78.086c.12-.031.308-.232.531-.236.027,0,.107.027-.143.076l-.272.125C66.877,78.14,66.93,78.086,66.93,78.086Z" transform="translate(-37.085 -43.138)" fill="#0071bc"/>
        <path id="Path_694" data-name="Path 694" d="M68.22,75.35v.227l.067-.227Z" transform="translate(-37.804 -41.752)" fill="#0071bc"/>
        <path id="Path_695" data-name="Path 695" d="M71.983,77.969a2.35,2.35,0,0,1,.807-.419s.169.036-.161.085l-.531.3C71.912,78.023,71.983,77.969,71.983,77.969Z" transform="translate(-39.882 -42.971)" fill="#0071bc"/>
        <path id="Path_696" data-name="Path 696" d="M72.293,78.532A2.675,2.675,0,0,1,73.8,77.85c.058.04,0,.049-.25.08a3.263,3.263,0,0,0-1.168.562C72.226,78.59,72.293,78.532,72.293,78.532Z" transform="translate(-40.054 -43.138)" fill="#0071bc"/>
        <path id="Path_697" data-name="Path 697" d="M73.4,79.275a3.536,3.536,0,0,1,1.783-.865c.058.04.049,0-.205.1a3.932,3.932,0,0,0-1.338.633,1.177,1.177,0,0,1-.241.134Z" transform="translate(-40.675 -43.448)" fill="#0071bc"/>
        <path id="Path_698" data-name="Path 698" d="M70.745,79.071A2.786,2.786,0,0,1,70.3,75.79l.205.125C69.925,76.276,70.037,77.988,70.745,79.071Z" transform="translate(-38.76 -41.996)" fill="#0071bc"/>
        <path id="Path_699" data-name="Path 699" d="M70.56,75.76l4.392.513c.192-.04.308.143.058.205-.571.709-.5,1.494,0,2.546l-.147-.08c-.539-.655-.629-2.122-.031-2.541L70.6,75.921Z" transform="translate(-39.101 -41.979)" fill="#0071bc"/>
        <path id="Path_700" data-name="Path 700" d="M81.441,76.4h0a17.085,17.085,0,0,1-.691,2.581s0,.25.259-.486c.174-.553.513-2.167.513-2.167Z" transform="translate(-44.748 -42.295)" fill="#0071bc"/>
        <path id="Path_701" data-name="Path 701" d="M82.266,76.29c-.054.446-.548,2.822-.58,2.858s0,.138.187-.522c.174-.544.522-2.546.522-2.546h-.12Z" transform="translate(-45.261 -42.157)" fill="#0071bc"/>
        <path id="Path_702" data-name="Path 702" d="M83.041,76.1c-.129,1.721-.482,3.027-.4,2.92,0,0,0,.1.138-.6a16.8,16.8,0,0,0,.339-2.336h-.08Z" transform="translate(-45.79 -42.157)" fill="#0071bc"/>
        <path id="Path_703" data-name="Path 703" d="M83.69,76.14c-.138,1.819-.169,3.018-.183,3.032s.031.272.094-.049c0-.727.192-2.965.192-2.965h-.1Z" transform="translate(-46.274 -42.19)" fill="#0071bc"/>
        <path id="Path_704" data-name="Path 704" d="M84.243,76.506c-.241-.165-.446.3-.04.254a.446.446,0,0,1,0,.129c-.111,1.574-.138,2.443-.147,2.461s.16.334.223,0c0-.722.054-2.84.054-2.84h-.1Z" transform="translate(-46.534 -42.373)" fill="#0071bc"/>
        <path id="Path_705" data-name="Path 705" d="M47.505,70.717A57.037,57.037,0,0,0,54.888,66a59.442,59.442,0,0,1-6.723,4.543C47.7,70.811,47.309,70.976,47.505,70.717Z" transform="translate(-26.296 -36.571)" fill="#0071bc"/>
        <path id="Path_706" data-name="Path 706" d="M49.671,70.478a53.711,53.711,0,0,0,7.441-5.738,47.287,47.287,0,0,1-6.42,5.265C50.246,70.3,49.475,70.737,49.671,70.478Z" transform="translate(-27.508 -35.873)" fill="#0071bc"/>
        <path id="Path_707" data-name="Path 707" d="M58.064,72.79l-.031.41a6.773,6.773,0,0,0-1.56,2.608l-.143.263A6.4,6.4,0,0,1,58.064,72.79Z" transform="translate(-31.215 -40.334)" fill="#0071bc"/>
        <path id="Path_708" data-name="Path 708" d="M59.8,71.437c.085-.1,2.055-1.926,1.864-1.855.129-.049.08.214.08.214a18.87,18.87,0,0,1-2.033,1.721C59.705,71.357,59.8,71.437,59.8,71.437Z" transform="translate(-33.088 -38.553)" fill="#0071bc"/>
        <path id="Path_709" data-name="Path 709" d="M52.146,80.176a21.188,21.188,0,0,0-6-4.178s-.589-.027-.165.21C51.967,79.521,52.93,81.068,52.146,80.176Z" transform="translate(-25.395 -42.111)" fill="#0071bc"/>
        <path id="Path_710" data-name="Path 710" d="M53.226,78.515c.1-.294-.062-.4-.2-.544a2.02,2.02,0,0,0-1.338-.415,3.3,3.3,0,0,0-.446.107l-.031.054c-.116.076,1.106-.138,1.694.4a.892.892,0,0,1,.241.383C53.11,78.613,53.226,78.515,53.226,78.515Z" transform="translate(-28.374 -42.973)" fill="#0071bc"/>
        <path id="Path_711" data-name="Path 711" d="M54.151,78.25l-.361.535.076.08.183-.241.334-.116Z" transform="translate(-29.808 -43.359)" fill="#0071bc"/>
        <path id="Path_712" data-name="Path 712" d="M57.628,80.11c.1-.294-.174-.468-.312-.606a1.2,1.2,0,0,0-.713-.254c-.116,0,0,.058-.049.058l-.036.054c-.116.076.058-.25.651.281a.941.941,0,0,1,.236.388C57.4,80.142,57.628,80.11,57.628,80.11Z" transform="translate(-31.301 -43.913)" fill="#0071bc"/>
        <path id="Path_713" data-name="Path 713" d="M59.47,79.9a2.261,2.261,0,0,1,.513-.994s-.049.415.031.317c-.125.156-.3.049-.424.664C59.555,80.074,59.47,79.9,59.47,79.9Z" transform="translate(-32.955 -43.725)" fill="#0071bc"/>
        <path id="Path_714" data-name="Path 714" d="M62.775,80.7c-.134-.205,0-.753.285-.82a1.708,1.708,0,0,1,1.186.174,4.236,4.236,0,0,1,1.257.892l-.036.058c-.21-.129-1.614-1.253-2.39-.918-.276.12-.054.419-.147.6C62.9,80.8,62.775,80.7,62.775,80.7Z" transform="translate(-34.758 -44.242)" fill="#0071bc"/>
        <path id="Path_715" data-name="Path 715" d="M64.946,80.249l-.036.771.058.04.076-.82Z" transform="translate(-35.97 -44.462)" fill="#0071bc"/>
        <path id="Path_716" data-name="Path 716" d="M65.749,80.48l-.009.557.018.018.049-.575Z" transform="translate(-36.43 -44.595)" fill="#0071bc"/>
        <path id="Path_717" data-name="Path 717" d="M66.233,80.7l-.013.673.058.04.071-.638Z" transform="translate(-36.696 -44.717)" fill="#0071bc"/>
        <path id="Path_718" data-name="Path 718" d="M66.99,81.12l.031.633.058.04.04-.624Z" transform="translate(-37.123 -44.95)" fill="#0071bc"/>
        <path id="Path_719" data-name="Path 719" d="M66.33,81.07c.076-.089.272-.04.334.036l.036-.263-.348-.183Z" transform="translate(-36.757 -44.695)" fill="#0071bc"/>
        <path id="Path_720" data-name="Path 720" d="M71.793,81.756c-.156-.241.343-.78.7-.794a2.8,2.8,0,0,1,1.3.178,4.12,4.12,0,0,1,1.2.762l-.031.058a3.751,3.751,0,0,0-2.675-.771c-.236.049-.276.3-.294.548C71.958,81.832,71.793,81.756,71.793,81.756Z" transform="translate(-39.768 -44.855)" fill="#0071bc"/>
        <path id="Path_721" data-name="Path 721" d="M73.857,81.21l-.027.776.036.027.08-.767Z" transform="translate(-40.913 -45)" fill="#0071bc"/>
        <path id="Path_722" data-name="Path 722" d="M74.649,81.2l-.009.771.058.036.049-.82Z" transform="translate(-41.362 -44.988)" fill="#0071bc"/>
        <path id="Path_723" data-name="Path 723" d="M77.47,82.179l.009.41.036.009.031-.428Z" transform="translate(-42.93 -45.532)" fill="#0071bc"/>
        <path id="Path_724" data-name="Path 724" d="M75.338,81.4l-.018.673.223.08.031-.687Z" transform="translate(-41.739 -45.105)" fill="#0071bc"/>
        <path id="Path_725" data-name="Path 725" d="M76.43,81.82l.031.633.134.04.04-.624Z" transform="translate(-42.354 -45.338)" fill="#0071bc"/>
        <path id="Path_726" data-name="Path 726" d="M73.087,81.254l-.027.776.085.045.062-.825Z" transform="translate(-40.486 -45.022)" fill="#0071bc"/>
        <path id="Path_727" data-name="Path 727" d="M74.77,81.626c.045-.053.3,0,.334.036l.036-.263-.348-.178Z" transform="translate(-41.434 -45.005)" fill="#0071bc"/>
        <path id="Path_728" data-name="Path 728" d="M53.652,80.575a17.3,17.3,0,0,0-4.659-3.357c-1.052-.357-.852-.557-.852-.557a26.5,26.5,0,0,0,11.592,2.787,53.054,53.054,0,0,0,8.756-.4,9.019,9.019,0,0,1-2.523,2.069c.606-.508,1.592-1.164,1.837-1.708-10.37.789-13.045-.12-16.71-1.262,1.338.918,2.461,1.574,2.622,2S53.652,80.575,53.652,80.575Z" transform="translate(-26.669 -42.478)" fill="#0071bc"/>
        <path id="Path_729" data-name="Path 729" d="M60.846,81.817a5.4,5.4,0,0,0,1.181,1.378c.232.08.4.1.232-.036a8.025,8.025,0,0,1-1.338-1.338C60.748,81.483,60.846,81.817,60.846,81.817Z" transform="translate(-33.703 -45.254)" fill="#0071bc"/>
        <path id="Path_730" data-name="Path 730" d="M57.239,82.259a10.434,10.434,0,0,0,1.734-.058l-.424-.241a5.8,5.8,0,0,1,1.262.067,6.442,6.442,0,0,0-1.507-.214c-.031-.178-.312-.178.08-.178s1.511.165,2.412.2c.049-.067,0-.031-.294-.067s-1.739-.165-1.935-.227c-.268-.089-1.017-.374-.036-.214a20.817,20.817,0,0,0,4.316.312,31.19,31.19,0,0,1-5.676-.771c-.539-.134-.49-.33.049-.2,1.338.276,2.836.522,3.38.557s-.508-.2-.508-.2A52.424,52.424,0,0,1,54.6,79.78,19.261,19.261,0,0,1,57.239,82.259Z" transform="translate(-30.257 -44.207)" fill="#0071bc"/>
        <path id="Path_731" data-name="Path 731" d="M81.482,84.169a21.391,21.391,0,0,0,2.434-1.931c-.954-.036-4.86.58-7.089.58-2.332,0,1.908.811,3.38.638-.589,1.083.834.419.5.624-.085.049-.049.147.161,0s.3-.1.379-.049C81.237,84.16,81.482,84.169,81.482,84.169Z" transform="translate(-42.194 -45.568)" fill="#0071bc"/>
        <path id="Path_732" data-name="Path 732" d="M78,83.937v.027h.134C78.125,83.924,78,83.937,78,83.937Z" transform="translate(-43.224 -46.51)" fill="#0071bc"/>
        <path id="Path_733" data-name="Path 733" d="M79.13,83.909v.04h.085C79.21,83.9,79.13,83.909,79.13,83.909Z" transform="translate(-43.85 -46.495)" fill="#0071bc"/>
        <path id="Path_734" data-name="Path 734" d="M69,85.17c1.1,0,2.153.04,2.336,0,.067.085.129.165-.058.138-1.164,0-2.167,0-2.229-.031A.1.1,0,0,1,69,85.17Z" transform="translate(-38.235 -47.194)" fill="#0071bc"/>
        <path id="Path_735" data-name="Path 735" d="M68.631,85.62c1.1,0,1.164.08,1.338.062,0,0,.294.053,0,.076a4.964,4.964,0,0,1-1.3,0C68.5,85.723,68.631,85.62,68.631,85.62Z" transform="translate(-38.006 -47.443)" fill="#0071bc"/>
        <path id="Path_736" data-name="Path 736" d="M78.415,84.773H79.98l.825-.067c.08-.027.031.12-.111.178a15.463,15.463,0,0,0-2.229,0C78.366,84.871,78.415,84.773,78.415,84.773Z" transform="translate(-43.447 -46.935)" fill="#0071bc"/>
        <path id="Path_737" data-name="Path 737" d="M79.07,85.47a13.2,13.2,0,0,0,1.436,0s.446.089-.107.116a5.253,5.253,0,0,1-1.293,0C78.941,85.573,79.07,85.47,79.07,85.47Z" transform="translate(-43.79 -47.36)" fill="#0071bc"/>
        <path id="Path_738" data-name="Path 738" d="M86.613,86.31c-1.017.031-1.141,0-1.453,0,.232,0,0,.2,1.025.16C86.814,86.439,86.613,86.31,86.613,86.31Z" transform="translate(-47.192 -47.826)" fill="#0071bc"/>
        <path id="Path_739" data-name="Path 739" d="M86.455,86c-1.008.031-.99.067-1.311.067-.045,0-.383.12,1.186.054a.12.12,0,0,0,.125-.12Z" transform="translate(-47.149 -47.654)" fill="#0071bc"/>
        <path id="Path_740" data-name="Path 740" d="M46.91,84.307a3.567,3.567,0,0,0,2.033-.557c-.227.606.294.687,1.213.446-.531.325-1.525.557-1.422-.1A2.515,2.515,0,0,1,46.91,84.307Z" transform="translate(-25.995 -46.407)" fill="#0071bc"/>
        <path id="Path_741" data-name="Path 741" d="M59.132,84.965a25.858,25.858,0,0,1-3.183.673c-.325.031-1.181-.129-.834-.655a25.237,25.237,0,0,1-3.411.477c-.6,0-1.422.04-1.083-.593-.343,0,0-.129-1.262.3-1.231.352-2.523.892-3.87.094-.21-.12-.312-.187-.446-.062-.067.129-.232.058-.138-.04a.834.834,0,0,1,.562-.281c-.049.1-.263.187.82.517a7.346,7.346,0,0,0,3.567-.593,3.009,3.009,0,0,1,1.034-.161c-.111.21-.361.446.446.508a17.433,17.433,0,0,0,4.231-.446c-.4.263-.753.771.526.673a15.6,15.6,0,0,0,3.228-.673c.446-.183.036.178.036.178s-.348.2.263.361A4.093,4.093,0,0,0,62.124,85c.789-.227.99-.259.446,0-.446.2,0,.606.227.593a5.517,5.517,0,0,0,3.313-.544,2.109,2.109,0,0,1,.856-.165c-.263.268-.446.575.655.611a6.38,6.38,0,0,0,1.783-.446c.165-.031.272-.045-.1.156a4.962,4.962,0,0,1-2.4.49c-.655-.067-.357-.593-.357-.593-.312.036-.259.031-1.235.446a5.176,5.176,0,0,1-2.787.183c-.312-.116-.361-.526-.294-.575a4.743,4.743,0,0,1-2.8.33c-.446-.165-.312-.415-.294-.446" transform="translate(-24.869 -46.899)" fill="#0071bc"/>
        <path id="Path_742" data-name="Path 742" d="M91.964,84.207c-.138,0-.062-.027-.08-.027a6.309,6.309,0,0,0,2.051-.687c.067,0,.227-.036,0,.08-.575.205-.522.753.575.606,0,.1-1.048.174-1.048,0s.147-.392-.236-.245A4.868,4.868,0,0,1,91.964,84.207Z" transform="translate(-50.915 -46.262)" fill="#0071bc"/>
        <path id="Path_743" data-name="Path 743" d="M56.884,87.036a14.749,14.749,0,0,0,2.755-.624c.446-.12.138.147.138.147s.031.321.7.41a4.931,4.931,0,0,0,2.532-.263c.553-.152.482-.308.495-.031,0,.343.343.446.606.495A4.744,4.744,0,0,0,67,86.759a1.962,1.962,0,0,1,.789-.169c-.544.263-.477.7.722.678a3.38,3.38,0,0,0,2.113-.6c.165-.036.227-.111-.1.152a3.22,3.22,0,0,1-2.773.575c-.651-.107-.361-.589-.361-.589a5.087,5.087,0,0,0-1.128.392,4.222,4.222,0,0,1-2.559.147c-.165-.062-.281-.325-.294-.655a5.429,5.429,0,0,1-3.2.508.629.629,0,0,1-.566-.629c-1.507.366-3.941,1.2-4.3.236-.152-.406-.33-.2-.785-.031-1.783.508-3.215.6-3.825.259-.276-.147.183-.446-.276-.259a5.2,5.2,0,0,1-3.215.21,10.093,10.093,0,0,0,3.33-.392c.446-.116.375-.312.753-.276-.722.375-.214.731.638.669,3.121-.227,2.229-.446,3.723-.722-.4.263-.08.892,1.2.789" transform="translate(-26.178 -47.798)" fill="#0071bc"/>
        <path id="Path_744" data-name="Path 744" d="M37.4,58.7v.58l2.051,2.376V79.49c.129,2.675.522,3.567,2.8,4.623l10.7,4.989,10.7-4.989c2.283-1.048,2.675-1.966,2.8-4.623V61.656l1.993-2.376V58.7Zm28.3,2.755V79.494c-.134,2.069-.4,2.791-1.783,3.678L52.929,88.286l-11-5.114c-1.373-.892-1.636-1.61-1.783-3.678V61.455l-1.725-2.033H67.4Z" transform="translate(-20.725 -32.526)" fill="#0071bc"/>
        <path id="Path_745" data-name="Path 745" d="M71.56,53.87c.027.058,0,0,0,.058,0-.062.174.049.236.138a.518.518,0,0,0-.036-.058A.776.776,0,0,0,71.56,53.87Z" transform="translate(-39.655 -29.849)" fill="#0071bc"/>
        <path id="Path_746" data-name="Path 746" d="M62.473,81.963s-2.269.789-1.025,1.1c0,0-1.025.116-1.074,0L58.59,81.33A33.352,33.352,0,0,0,62.473,81.963Z" transform="translate(-32.468 -45.066)" fill="#0071bc"/>
        <path id="Path_747" data-name="Path 747" d="M.807,54.912l.169-.66a.7.7,0,0,1,.49-.571,1.538,1.538,0,0,1,.838,0A1.855,1.855,0,0,1,3.041,54a.807.807,0,0,1,.294.892l-.152.6Zm2.809,1.494.4-1.632a1.338,1.338,0,0,0-.375-1.19A2.524,2.524,0,0,0,2.4,52.915a1.94,1.94,0,0,0-.843-.04,1.311,1.311,0,0,0-1.137.932L0,55.5Z" transform="translate(0 -29.282)" fill="#0071bc"/>
        <path id="Path_748" data-name="Path 748" d="M3.644,43.59l.593.236L3.528,45.61l.789.312.66-1.659.593.236-.66,1.672.892.352.749-1.859.593.236-1.025,2.59L2.65,46.1Z" transform="translate(-1.469 -24.152)" fill="#0071bc"/>
        <path id="Path_749" data-name="Path 749" d="M7.15,37.738l.4-.722a.446.446,0,0,1,.486-.285.829.829,0,0,1,.446.276.477.477,0,0,1,.071.522l-.41.753ZM9.486,39.9l.37-.673-1.164-.642.446-.8a1.052,1.052,0,0,0-.067-1.253,1.663,1.663,0,0,0-.994-.539A1.057,1.057,0,0,0,7,36.65L6.2,38.1Z" transform="translate(-3.436 -19.941)" fill="#0071bc"/>
        <path id="Path_750" data-name="Path 750" d="M12.77,30.812l1.462.446-.571.771ZM12.3,29.92l-.517.718,2.278,3.228.446-.633-.446-.651.8-1.119.758.223.446-.633Z" transform="translate(-6.528 -16.577)" fill="#0071bc"/>
        <path id="Path_751" data-name="Path 751" d="M17.406,23.1l.713-.753c.232-.25.446-.236.624-.053a.495.495,0,0,1,.094.713l-.722.767Zm1.721,2.675.526-.544-1.074-1.012.62-.655a.4.4,0,0,1,.606-.089c.192.2.406.4.548.517a.816.816,0,0,0,.321.165l.566-.6-.1-.111c-.1.027-.169.04-.325-.1s-.5-.446-.629-.548a.687.687,0,0,0-.66-.054.892.892,0,0,0-.08-.771,1.262,1.262,0,0,0-.575-.49.856.856,0,0,0-1.021.218L16.43,23.212Z" transform="translate(-9.105 -11.857)" fill="#0071bc"/>
        <path id="Path_752" data-name="Path 752" d="M25.075,14.7l.406.495-.825.7,1.962,2.385-.624.486-1.966-2.385-.869.718-.388-.477Z" transform="translate(-12.618 -8.143)" fill="#0071bc"/>
        <path id="Path_753" data-name="Path 753" d="M33.183,13.209,31.025,10.98l1.592,2.568-.651.4L30,10.793l.954-.589,2.1,2.069-.918-2.8.954-.589,1.966,3.174-.655.406L32.813,9.892l1.021,2.916Z" transform="translate(-16.625 -4.918)" fill="#0071bc"/>
        <path id="Path_754" data-name="Path 754" d="M42.314,5l.272.589L40.8,6.364l.339.78,1.636-.718.254.584L41.4,7.729l.388.892,1.85-.816.259.589L41.342,9.5l-1.5-3.415Z" transform="translate(-22.077 -2.768)" fill="#0071bc"/>
        <path id="Path_755" data-name="Path 755" d="M49.027,2.651l2.167,2.024L50.48,2.214,51.216,2l1.039,3.567-.727.214L49.352,3.734l.727,2.5-.736.227L48.3,2.892Z" transform="translate(-26.766 -1.105)" fill="#0071bc"/>
        <path id="Path_756" data-name="Path 756" d="M60.218.47l.1.633-1.074.165.477,3.054-.758.12-.468-3.054-1.115.178-.1-.633Z" transform="translate(-31.742 -0.257)" fill="#0071bc"/>
        <path id="Path_757" data-name="Path 757" d="M72.139,3.233a.963.963,0,0,1-.678-.272A1.44,1.44,0,0,1,71.1,1.913,1.436,1.436,0,0,1,71.55.888a1.066,1.066,0,0,1,1.369.045,1.458,1.458,0,0,1,.339,1.048A1.453,1.453,0,0,1,72.847,3a.976.976,0,0,1-.709.236Zm1.837-1.222A2.189,2.189,0,0,0,73.472.5,1.721,1.721,0,0,0,72.246,0a1.7,1.7,0,0,0-1.257.446,2.194,2.194,0,0,0-.6,1.471,2.185,2.185,0,0,0,.5,1.507,1.9,1.9,0,0,0,2.488.085,2.194,2.194,0,0,0,.6-1.494Z" transform="translate(-39.003 0.007)" fill="#0071bc"/>
        <path id="Path_758" data-name="Path 758" d="M83.288,1.078l-.111.62-1.828-.3-.134.847,1.61.263-.094.633-1.61-.268-.263,1.583L80.1,4.333,80.7.65Z" transform="translate(-44.388 -0.357)" fill="#0071bc"/>
        <path id="Path_759" data-name="Path 759" d="M95.029,7.211a1.445,1.445,0,0,1-.82.794,2,2,0,0,1-1.159-.036,1.578,1.578,0,0,1-1.061-1.783,2.675,2.675,0,0,1,.156-.638,2.581,2.581,0,0,1,.325-.646,1.569,1.569,0,0,1,1.953-.611,1.676,1.676,0,0,1,.843.62,1.226,1.226,0,0,1,.178,1.168l-.687-.254a.785.785,0,0,0-.651-.963.892.892,0,0,0-.892.3,2.412,2.412,0,0,0-.343.58,1.921,1.921,0,0,0-.16.776,1.016,1.016,0,0,0,.276.655.722.722,0,0,0,.263.161,1.026,1.026,0,0,0,.317.071.727.727,0,0,0,.78-.446Z" transform="translate(-50.961 -2.303)" fill="#0071bc"/>
        <path id="Path_760" data-name="Path 760" d="M101.714,11.2a1.017,1.017,0,0,1-.486-.548,1.467,1.467,0,0,1,.161-1.088,1.449,1.449,0,0,1,.816-.731,1.091,1.091,0,0,1,1.208.66,1.489,1.489,0,0,1-.161,1.088,1.471,1.471,0,0,1-.816.736,1.021,1.021,0,0,1-.722-.116Zm2.194-.285a2.229,2.229,0,0,0,.214-1.574,1.694,1.694,0,0,0-.892-1,1.721,1.721,0,0,0-1.315-.178,2.278,2.278,0,0,0-1.4,2.626,1.676,1.676,0,0,0,.892,1,1.7,1.7,0,0,0,1.338.178A2.229,2.229,0,0,0,103.908,10.918Z" transform="translate(-55.667 -4.49)" fill="#0071bc"/>
        <path id="Path_761" data-name="Path 761" d="M108.788,16.111l1.271-2.818-1.824,2.434-.615-.446,2.229-2.992.892.673-1.155,2.711,2.269-1.881.892.673-2.229,2.987-.62-.446,1.783-2.416-2.336,2.02Z" transform="translate(-59.638 -6.807)" fill="#0071bc"/>
        <path id="Path_762" data-name="Path 762" d="M116.623,22.844l1.69-2.59-2.153,2.118-.539-.548L118.3,19.21l.771.8-1.556,2.506L120.043,21l.785.789L118.152,24.4l-.539-.544,2.189-2.109-2.622,1.641Z" transform="translate(-64.071 -10.642)" fill="#0071bc"/>
        <path id="Path_763" data-name="Path 763" d="M127.276,29.717l-.517.379-1.15-1.552-.682.5,1.061,1.436-.513.379-1.061-1.436-.776.575,1.2,1.623-.513.383-1.659-2.229,3-2.229Z" transform="translate(-67.978 -15.264)" fill="#0071bc"/>
        <path id="Path_764" data-name="Path 764" d="M130.456,36.078l.5.892c.169.3.094.482-.138.611a.495.495,0,0,1-.709-.129l-.508-.918Zm-3.076.829.375.669,1.288-.713.446.789a.392.392,0,0,1-.1.58c-.241.125-.5.268-.66.37a.865.865,0,0,0-.254.254l.4.722.12-.08c0-.1,0-.174.2-.276a5.783,5.783,0,0,0,.709-.446.678.678,0,0,0,.25-.615.892.892,0,0,0,.762.156,1.28,1.28,0,0,0,.642-.392.892.892,0,0,0,.1-1.043l-1.008-1.81Z" transform="translate(-70.588 -19.431)" fill="#0071bc"/>
        <path id="Path_765" data-name="Path 765" d="M134.2,48.106a1.427,1.427,0,0,1-1.141-.094,1.975,1.975,0,0,1-.74-.892,1.574,1.574,0,0,1,.629-1.966,3.064,3.064,0,0,1,.584-.3,2.836,2.836,0,0,1,.7-.178,1.56,1.56,0,0,1,1.743,1.061,1.645,1.645,0,0,1,.094,1.043,1.208,1.208,0,0,1-.758.892l-.268-.678a.785.785,0,0,0,.294-1.128.892.892,0,0,0-.82-.473,2.457,2.457,0,0,0-.646.12,1.868,1.868,0,0,0-.687.392,1.021,1.021,0,0,0-.312.638.776.776,0,0,0,.053.3,1.084,1.084,0,0,0,.156.29.718.718,0,0,0,.852.285Z" transform="translate(-73.255 -24.741)" fill="#0071bc"/>
        <path id="Path_766" data-name="Path 766" d="M138.818,55.865l-.624.152-.446-1.881-.829.205.424,1.734-.62.152-.424-1.739-.936.232.482,1.962-.624.152-.66-2.711,3.625-.892Z" transform="translate(-74.567 -29.494)" fill="#0071bc"/>
        <path id="Path_767" data-name="Path 767" d="M5.481,90.376l-2.47.736a1.15,1.15,0,0,1-1.271-.352,1.921,1.921,0,0,1-.366-.687,2.02,2.02,0,0,1-.089-.727,1.28,1.28,0,0,1,.892-1.07l2.457-.736.218.736-2.474.74c-.223.076-.548.25-.375.847s.553.584.78.517l2.479-.74Z" transform="translate(-0.71 -48.507)" fill="#0071bc"/>
        <path id="Path_768" data-name="Path 768" d="M7.459,96.411l-1.712,2.43,2.336-1.052.317.7L5,100.022l-.312-.691,1.752-2.448L4.067,97.958l-.317-.7,3.4-1.538Z" transform="translate(-2.078 -53.04)" fill="#0071bc"/>
        <path id="Path_769" data-name="Path 769" d="M8.289,106.1l-.379-.669,3.232-1.855.383.664Z" transform="translate(-4.383 -57.396)" fill="#0071bc"/>
        <path id="Path_770" data-name="Path 770" d="M15.393,108.807l-.526.366-.62-.892-2.541,1.783-.446-.633,2.559-1.783-.642-.932.522-.366Z" transform="translate(-6.24 -58.931)" fill="#0071bc"/>
        <path id="Path_771" data-name="Path 771" d="M19.792,115.029l-.477.446-1.288-1.445-.633.562,1.186,1.338-.477.446-1.186-1.338-.722.638,1.338,1.511-.477.446L15.2,115.546,18,113Z" transform="translate(-8.423 -62.616)" fill="#0071bc"/>
        <path id="Path_772" data-name="Path 772" d="M24.014,119.963l.526.446a.7.7,0,0,1,.276.7,1.52,1.52,0,0,1-.388.736,1.989,1.989,0,0,1-.624.513.811.811,0,0,1-.936-.152l-.446-.4Zm-2.6,1.828,1.266,1.106a1.338,1.338,0,0,0,1.235.205,2.555,2.555,0,0,0,1.164-.816,1.962,1.962,0,0,0,.419-.731,1.311,1.311,0,0,0-.33-1.44L23.858,119Z" transform="translate(-11.864 -65.941)" fill="#0071bc"/>
        <path id="Path_773" data-name="Path 773" d="M35.786,129.085c.161-.254.085-.62-.366-.892-.321-.192-.624-.223-.8.031a.3.3,0,0,0,0,.446c.027.125.58.575.691.673a1.743,1.743,0,0,1,.571.762,1.177,1.177,0,0,1-1.03,1.293,2.229,2.229,0,0,1-1.137-.366,1.721,1.721,0,0,1-.642-.687,1.293,1.293,0,0,1,.036-1.092l.646.375a.557.557,0,0,0-.058.415.923.923,0,0,0,.495.544.981.981,0,0,0,.6.147.446.446,0,0,0,.33-.535c-.08-.343-.718-.718-1.048-1.1a.892.892,0,0,1-.062-1.235c.352-.482.945-.642,1.734-.183a1.676,1.676,0,0,1,.847,1.048,1.048,1.048,0,0,1-.183.731Z" transform="translate(-18.269 -70.6)" fill="#0071bc"/>
        <path id="Path_774" data-name="Path 774" d="M45.272,131.509l-.254.589-1-.446-1.231,2.831-.7-.3,1.235-2.836-1.039-.446.254-.589Z" transform="translate(-23.319 -72.208)" fill="#0071bc"/>
        <path id="Path_775" data-name="Path 775" d="M49.352,134.93l.049,1.529-.914-.263Zm.691-.727-.847-.263-2.336,3.188.749.232.446-.642,1.338.406.027.789.749.232Z" transform="translate(-25.968 -74.22)" fill="#0071bc"/>
        <path id="Path_776" data-name="Path 776" d="M59.542,135.878l-.116.642-1.074-.2-.566,3.041-.753-.165.589-3.027-1.11-.21.116-.629Z" transform="translate(-31.315 -74.99)" fill="#0071bc"/>
        <path id="Path_777" data-name="Path 777" d="M67.2,136.9l-.04.638-1.931-.129-.058.852,1.783.116-.04.638-1.783-.116-.062.959,2.015.134-.04.638-2.782-.183.241-3.723Z" transform="translate(-35.61 -75.761)" fill="#0071bc"/>
        <path id="Path_778" data-name="Path 778" d="M74.8,137.944c0-.3-.272-.562-.8-.544-.375,0-.646.161-.651.446s.085.3.254.361a4.129,4.129,0,0,0,.95.174,1.783,1.783,0,0,1,.892.317,1.177,1.177,0,0,1-.143,1.65,2.256,2.256,0,0,1-1.15.33,1.784,1.784,0,0,1-.927-.21,1.289,1.289,0,0,1-.566-.918l.745-.045a.553.553,0,0,0,.178.375.941.941,0,0,0,.713.183,1.025,1.025,0,0,0,.584-.21.446.446,0,0,0-.022-.629c-.259-.241-.994-.2-1.485-.334a.892.892,0,0,1-.736-.994c.027-.6.446-1.061,1.338-1.11a1.636,1.636,0,0,1,1.284.4,1.025,1.025,0,0,1,.254.709Z" transform="translate(-40.25 -75.79)" fill="#0071bc"/>
        <path id="Path_779" data-name="Path 779" d="M87.287,137.964a.985.985,0,0,1-.727-.071,1.581,1.581,0,0,1-.513-1.984,1.064,1.064,0,0,1,1.329-.343,1.614,1.614,0,0,1,.513,2.006A.981.981,0,0,1,87.287,137.964Zm1.422-1.685a2.2,2.2,0,0,0-.892-1.311,1.89,1.89,0,0,0-2.408.615,2.278,2.278,0,0,0,.736,2.889,1.89,1.89,0,0,0,2.408-.615A2.189,2.189,0,0,0,88.71,136.279Z" transform="translate(-47.197 -74.678)" fill="#0071bc"/>
        <path id="Path_780" data-name="Path 780" d="M96.055,131.26l.236.6-1.721.687.312.789,1.52-.606.232.593-1.5.606.589,1.489-.709.281-1.382-3.464Z" transform="translate(-51.885 -72.735)" fill="#0071bc"/>
        <path id="Path_781" data-name="Path 781" d="M106.362,127.764l1.186.963-.811.508Zm-.1-.994-.753.446.869,3.852.664-.41-.174-.776,1.173-.727.611.495.669-.41Z" transform="translate(-58.469 -70.247)" fill="#0071bc"/>
        <path id="Path_782" data-name="Path 782" d="M114.22,123.461l-2.452-1.886,1.939,2.314-.584.49-2.4-2.853.86-.722,2.376,1.748-1.329-2.644.856-.718,2.4,2.853-.584.495-1.944-2.314,1.431,2.742Z" transform="translate(-61.356 -66.046)" fill="#0071bc"/>
        <path id="Path_783" data-name="Path 783" d="M120.088,113.29l.477.446-1.3,1.436.629.566,1.2-1.338.473.446-1.2,1.338.718.642,1.338-1.5.473.446-1.868,2.069-2.769-2.5Z" transform="translate(-65.534 -62.777)" fill="#0071bc"/>
        <path id="Path_784" data-name="Path 784" d="M124.594,108.852l.593-.852c.192-.281.392-.294.606-.143a.49.49,0,0,1,.2.691l-.6.86Zm2.1,2.394.446-.629-1.208-.843.513-.74a.4.4,0,0,1,.571-.165,7.308,7.308,0,0,0,.615.446.847.847,0,0,0,.348.116l.468-.678-.116-.08c-.085.04-.16.062-.334-.053s-.566-.379-.7-.446a.678.678,0,0,0-.66.049.892.892,0,0,0-.2-.753,1.222,1.222,0,0,0-.638-.4.856.856,0,0,0-.976.366l-1.182,1.7Z" transform="translate(-68.515 -59.311)" fill="#0071bc"/>
        <path id="Path_785" data-name="Path 785" d="M131.969,104.854l-.375.669L128.34,103.7l.375-.669Z" transform="translate(-71.12 -57.091)" fill="#0071bc"/>
        <path id="Path_786" data-name="Path 786" d="M134.225,96.3a1.436,1.436,0,0,1,.74.892,2.015,2.015,0,0,1-.111,1.155,1.578,1.578,0,0,1-1.832.95,3.049,3.049,0,0,1-.629-.2,2.706,2.706,0,0,1-.62-.366,1.56,1.56,0,0,1-.486-1.984,1.636,1.636,0,0,1,.673-.8,1.2,1.2,0,0,1,1.173-.1l-.294.669a.785.785,0,0,0-1,.589.892.892,0,0,0,.245.918,2.511,2.511,0,0,0,.544.366,1.846,1.846,0,0,0,.762.21,1,1,0,0,0,.673-.232.749.749,0,0,0,.178-.254.985.985,0,0,0,.089-.308.718.718,0,0,0-.4-.807Z" transform="translate(-72.658 -53.046)" fill="#0071bc"/>
        <path id="Path_787" data-name="Path 787" d="M135.221,89.417l1.529-.076-.263.918Zm-.74-.678-.241.852,3.228,2.269.214-.753-.646-.446.383-1.338.789-.04.214-.753Z" transform="translate(-74.39 -49.056)" fill="#0071bc"/>
      </g>
    </g>
  </g>
</svg>
