<svg width="250" height="53" viewBox="0 0 250 53" fill="none" xmlns="http://www.w3.org/2000/svg">
<g clip-path="url(#clip0_42_2)">
<path d="M55.7553 37.4067H58.5937V20.1462H55.7553V18.4161H70.1773V22.9103H68.4472V20.1462H61.9458V27.8573H66.9942V25.3365H68.7243V32.5678H66.9942V29.5942H61.9458V37.4067H64.818V39.1368H55.7553V37.4067ZM71.975 37.4067H74.7729V20.1462H71.975V18.4161H86.4646V22.9103H84.7345V20.1462H78.1249V27.614H83.2071V25.0932H84.9372V32.3177H83.2071V29.3441H78.1249V37.3999H84.971V34.5006H86.7011V39.13H71.9682V37.4067L71.975 37.4067ZM88.2623 37.4067H91.1007V20.1462H88.2623V18.4161H94.8988V20.1462L101.542 34.014L108.077 20.1462V18.4161H114.856V20.1462H112.051V37.4067H114.856V39.1368H105.827V37.4067H108.699V23.1942H108.632L101.157 39.1368H100.4L93.0673 23.505H92.9998V37.4067H95.7977V39.1368H88.2623L88.2623 37.4067ZM128.271 30.1416H122.736L125.399 22.5318H125.466L128.271 30.1416ZM116.654 39.1368H122.047V37.4067H120.175L122.047 31.8717H128.967L130.934 37.4067H128.967V39.1368H136.192V37.4067H134.394L127.095 17.9025H125.331L118.451 37.4067H116.653L116.654 39.1368Z" fill="#005288"/>
<path d="M24.0795 4.06848C10.7793 4.06848 0 14.8478 0 28.148C0 41.4482 10.7793 52.2275 24.0795 52.2275C37.3797 52.2275 48.159 41.4482 48.159 28.148C48.159 14.8478 37.3797 4.06848 24.0795 4.06848Z" fill="white"/>
<path d="M38.711 19.4974C38.4407 19.592 38.1704 19.6664 37.9068 19.7204C39.4071 22.1737 40.2722 25.0594 40.2722 28.1479C40.2722 37.089 33.0206 44.3406 24.0795 44.3406C15.1384 44.3406 7.89358 37.089 7.89358 28.1479C7.89358 24.9242 8.83297 21.9236 10.4549 19.4028C10.1981 19.3284 9.94808 19.2271 9.69127 19.1122C8.04226 21.7276 7.08936 24.8296 7.08936 28.1547C7.08936 37.5418 14.6991 45.1448 24.0795 45.1448C33.4667 45.1448 41.0697 37.5351 41.0697 28.1547C41.0764 24.9851 40.2114 22.0317 38.711 19.4974Z" fill="#C41230"/>
<path d="M14.6654 14.9695C17.3146 13.0704 20.5653 11.9553 24.0795 11.9553C27.9993 11.9553 31.5947 13.3475 34.3993 15.6723C34.717 15.5845 35.0211 15.5034 35.3387 15.4223C32.3381 12.7663 28.398 11.1578 24.0795 11.1578C20.2071 11.1578 16.6388 12.4554 13.78 14.6316C13.9152 14.6789 14.0504 14.7329 14.1923 14.7802C14.3545 14.8478 14.5167 14.9086 14.6654 14.9695Z" fill="#C41230"/>
<path d="M24.0795 4.06848C10.7793 4.06848 0 14.8478 0 28.148C0 41.4482 10.7793 52.2275 24.0795 52.2275C37.3797 52.2275 48.159 41.4482 48.159 28.148C48.159 14.8478 37.3797 4.06848 24.0795 4.06848ZM24.0795 50.7407C11.6039 50.7407 1.48681 40.6237 1.48681 28.148C1.48681 15.6723 11.6039 5.56205 24.0795 5.56205C36.5552 5.56205 46.6655 15.6791 46.6655 28.148C46.6655 40.6237 36.5552 50.7407 24.0795 50.7407Z" fill="#C0C2C4"/>
<path d="M18.2674 23.3159C17.9228 23.1401 17.6254 22.9374 17.301 22.6468C16.267 21.7074 16.0237 20.7139 16.3278 19.5786C16.5103 18.9027 16.7874 18.5581 16.6928 17.8552C16.6387 17.4497 16.3548 17.1253 16.0642 16.8482C15.3749 16.1859 14.5572 15.7737 13.3407 15.3682C12.5905 15.1181 10.4211 14.4423 9.46147 13.5773C9.24521 14.2125 9.71152 15.0641 10.2589 15.179C9.77235 15.2263 9.35334 15.4831 9.15735 15.7602C9.52905 16.1859 10.2657 16.632 10.8739 16.6455C10.5901 16.8347 10.2522 17.2335 10.1373 17.4565C10.6644 17.7336 11.5024 17.9701 12.1445 17.9296C11.8742 18.1458 11.6376 18.4229 11.4822 18.673C11.9215 18.869 12.7662 19.1596 13.5772 19.2204C13.2799 19.3691 12.8541 19.8759 12.6378 20.1868C13.0906 20.3896 14.0773 20.5112 14.6856 20.572C14.2463 20.8018 13.7935 21.2614 13.5367 21.6736C13.976 21.8831 14.814 22.1197 15.4898 22.0994C15.1519 22.417 14.9356 22.809 14.8072 23.1875C15.3208 23.2956 15.8615 23.2956 16.49 23.2145C16.1116 23.6943 15.9561 24.3363 15.902 24.7891C16.4157 24.7756 17.0915 24.6607 17.5713 24.3701C17.47 24.7621 17.4902 25.2893 17.6592 25.661C17.8619 25.6137 18.0917 25.5326 18.3485 25.3974C18.3215 24.6743 18.2877 23.9308 18.2674 23.3159Z" fill="#005288"/>
<path d="M39.0219 14.7465C38.0622 15.6183 36.5281 15.8481 34.9197 16.382C33.71 16.7807 32.953 17.0172 31.865 17.8823C31.5541 18.1323 31.2567 18.4905 31.2905 19.1123C31.3243 19.8084 31.4392 20.1057 31.4595 21.0722C31.473 21.7615 31.2365 22.3157 30.9458 22.6468C30.6417 22.9915 30.243 23.2956 29.8848 23.4848C29.8645 24.0728 29.8375 24.6675 29.8037 25.3569C30.0538 25.492 30.3782 25.6204 30.5809 25.6677C30.7499 25.296 30.7701 24.7689 30.6688 24.3769C31.1486 24.6608 31.8244 24.7757 32.338 24.7959C32.284 24.3431 32.1285 23.7011 31.7501 23.2213C32.3786 23.3024 32.9192 23.3024 33.4329 23.1942C33.3045 22.8158 33.0814 22.4238 32.7503 22.1062C33.4329 22.1264 34.2641 21.8899 34.7102 21.6804C34.4601 21.2681 34.0006 20.8086 33.5613 20.5788C34.1695 20.518 35.1832 20.3963 35.636 20.1936C35.413 19.8827 34.9602 19.3691 34.6696 19.2204C35.4806 19.1596 36.3254 18.869 36.7647 18.673C36.6092 18.4229 36.3727 18.1458 36.1091 17.9296C36.866 17.8755 37.5959 17.7404 38.1163 17.4565C38.0014 17.2335 37.6568 16.8348 37.3797 16.6455C38.9881 16.186 39.0152 15.375 39.0219 14.7465Z" fill="#005288"/>
<path d="M32.1962 16.4562C29.8916 14.8545 27.1005 13.9219 24.0796 13.9219C21.329 13.9219 18.7609 14.6991 16.5847 16.0507C17.1456 16.49 17.4836 16.9496 17.5647 17.4361C17.639 17.8552 17.6863 18.3688 17.443 19.1122C17.1862 19.9029 17.0443 20.7071 17.6255 21.5316C18.2067 22.3494 18.9569 22.7008 19.5786 22.8224C20.3964 22.6805 21.302 22.5589 22.2008 22.4913C22.3157 22.1128 22.6671 21.7817 23.0118 21.5113C23.5186 21.1194 23.4038 20.7747 23.2889 20.5044C23.1943 20.2949 23.0118 20.1259 22.755 19.9908C22.5252 19.8759 21.6939 19.788 21.7142 20.3219C21.579 20.1327 21.4709 19.8691 21.552 19.5312C21.6669 19.0649 22.4238 18.95 22.613 18.9635C22.4644 18.8419 22.559 18.6391 22.8901 18.5445C23.2956 18.4296 23.6808 18.4161 24.0458 18.4228C24.8095 18.4431 24.9311 18.6256 25.3163 18.9703C25.7826 19.3825 26.3976 19.5312 26.6409 19.2811C26.4652 19.6799 25.9111 19.8894 25.5596 19.8286C25.7353 20.376 25.7962 20.8558 25.857 21.4303C25.884 21.6938 25.9381 22.1331 26.0124 22.4913C27.0329 22.5724 28.0602 22.7143 28.9522 22.89C29.3239 22.7819 29.7092 22.5656 30.0538 22.1669C30.3782 21.7884 30.6824 21.3086 30.5607 20.1056C30.5269 19.7677 30.358 18.8959 30.3782 18.4904C30.4255 17.5578 31.1149 16.9495 32.1962 16.4562Z" fill="#005288"/>
<path d="M22.7346 18.9974C22.8765 19.1055 22.9576 19.119 23.0049 19.1055C23.0117 19.1326 23.0523 19.1663 23.0658 19.1731C23.0928 19.2001 23.1131 19.2272 23.1198 19.2542C23.1807 19.2272 23.3564 19.1596 23.5051 19.1055C23.6605 19.0515 23.8768 18.9839 23.8768 18.9839C23.2145 18.8487 23.1063 19.0515 22.7346 18.9974Z" fill="#005288"/>
<path d="M23.6808 30.2497L23.397 30.1078L23.2145 29.628L22.7955 29.4455L22.3292 29.0265L22.0521 29.3306L21.6398 29.4252L21.4168 29.7766L21.0789 30.1281L20.6261 30.3714L20.3152 30.9053L20.1395 31.1418L19.8354 31.3783L19.6664 31.2026L19.484 31.3783L19.2542 31.7973C19.1325 31.4865 19.0582 31.2432 19.0244 30.7363C18.9568 29.8037 18.8892 28.6345 18.8217 27.4383C20.3558 27.1071 22.3089 26.8909 23.8971 26.8706V30.493C23.8295 30.4592 23.7552 30.4254 23.6808 30.2497Z" fill="#0078AE"/>
<path d="M23.9038 31.9934H19.342C19.4096 32.1353 19.484 32.2637 19.5718 32.3921C19.903 32.8517 20.3693 33.1964 20.964 33.3788C21.7682 33.6289 22.2819 33.7911 22.6603 33.906L23.1064 34.0479C23.4713 34.1628 23.7281 34.325 23.9038 34.5075V31.9934Z" fill="#5E9732"/>
<path d="M28.7224 30.2295C28.8441 30.1282 28.9928 30.0133 29.182 29.9457C29.209 29.5199 29.2361 29.0671 29.2631 28.594C29.2158 28.6278 29.1617 28.6684 29.0941 28.7224C28.8779 28.8982 28.6075 29.1212 28.1277 29.1212C27.6817 29.1212 27.3843 28.9455 27.1545 28.7968C26.9653 28.6819 26.8099 28.5873 26.5868 28.5873C26.3368 28.5873 26.1273 28.7157 25.9043 28.8509C25.661 28.9928 25.3906 29.1617 25.0527 29.1617C24.708 29.1617 24.458 29.0604 24.2552 28.9455V30.2295C24.3026 30.2566 24.3499 30.2836 24.3904 30.3106C24.5932 30.439 24.7689 30.5472 25.0527 30.5472C25.2284 30.5472 25.3974 30.4458 25.6001 30.3241C25.8705 30.1619 26.1813 29.9795 26.5868 29.9795C26.9788 29.9795 27.2356 30.1349 27.4654 30.2768C27.6681 30.4052 27.8439 30.5134 28.1277 30.5134C28.398 30.4998 28.54 30.3782 28.7224 30.2295Z" fill="#005288"/>
<path d="M25.0527 33.149C24.7081 33.149 24.458 33.0409 24.2552 32.9328V34.5007C24.4377 34.3182 24.6878 34.156 25.0527 34.0411L25.4988 33.8992C25.8705 33.7775 26.3841 33.6221 27.1951 33.3721C27.4316 33.2977 27.6479 33.2031 27.8439 33.0815C27.5533 33.0274 27.337 32.8922 27.1545 32.7841C26.9653 32.6692 26.8099 32.5746 26.5868 32.5746C26.3368 32.5746 26.1273 32.703 25.9043 32.8382C25.661 32.9868 25.3906 33.149 25.0527 33.149Z" fill="#005288"/>
<path d="M28.7224 28.2629C28.8711 28.1412 29.0468 27.9993 29.3036 27.9385C29.3104 27.7763 29.3239 27.6073 29.3307 27.4451C27.7966 27.114 25.8434 26.8977 24.2552 26.8774V28.2494C24.3026 28.2764 24.3499 28.3034 24.3904 28.3305C24.5932 28.4589 24.7689 28.567 25.0527 28.567C25.2284 28.567 25.3974 28.4656 25.6001 28.344C25.8705 28.1818 26.1813 27.9993 26.5868 27.9993C26.9788 27.9993 27.2356 28.1615 27.4654 28.2967C27.6681 28.4251 27.8439 28.5332 28.1277 28.5332C28.398 28.5264 28.54 28.4116 28.7224 28.2629Z" fill="#0078AE"/>
<path d="M24.2552 30.9121V32.2503C24.3026 32.2773 24.3499 32.3043 24.3904 32.3314C24.5932 32.4598 24.7689 32.5679 25.0527 32.5679C25.2284 32.5679 25.3974 32.4665 25.6001 32.3449C25.8705 32.1827 26.1813 32.0002 26.5868 32.0002C26.9788 32.0002 27.2356 32.1624 27.4654 32.2976C27.6681 32.426 27.8439 32.5341 28.1277 32.5341C28.344 32.5341 28.4859 32.4598 28.6211 32.3516C28.9117 31.9191 29.0874 31.3784 29.1279 30.7567C29.1279 30.7297 29.1347 30.7026 29.1347 30.6756C29.1212 30.6824 29.1076 30.6959 29.0941 30.7094C28.8779 30.8851 28.6075 31.1081 28.1277 31.1081C27.6817 31.1081 27.3843 30.9324 27.1545 30.7837C26.9653 30.6621 26.8099 30.5742 26.5868 30.5742C26.3368 30.5742 26.1273 30.7026 25.9043 30.8378C25.661 30.9797 25.3906 31.1487 25.0527 31.1487C24.7081 31.1284 24.458 31.0203 24.2552 30.9121Z" fill="#0078AE"/>
<path d="M18.8082 27.0937C18.7338 25.7623 18.673 24.4174 18.6324 23.3564C20.2477 22.9915 22.3968 22.7482 24.0796 22.7482C25.7624 22.7482 27.9115 22.9915 29.5267 23.3564C29.4861 24.4174 29.4253 25.7556 29.351 27.0937C27.8236 26.7693 25.8097 26.5328 24.0796 26.5328C22.3495 26.5328 20.3288 26.7761 18.8082 27.0937Z" fill="#005288"/>
<path d="M19.8692 24.2417L19.93 23.9579L19.6597 23.8362L19.9503 23.8025L19.9841 23.5118L20.099 23.7822L20.3828 23.7213L20.1665 23.9173L20.3152 24.1742L20.0652 24.0255L19.8692 24.2417Z" fill="white"/>
<path d="M21.6465 24.0052L21.3965 23.8497L21.1937 24.0592L21.2681 23.7754L21.0045 23.6402L21.2951 23.6199L21.3424 23.3293L21.4506 23.6064L21.7344 23.5591L21.5114 23.7416L21.6465 24.0052Z" fill="white"/>
<path d="M22.9779 23.9038L22.7414 23.7349L22.5251 23.9308L22.613 23.647L22.3629 23.5051H22.6535L22.7076 23.2145L22.8022 23.4916L23.0928 23.4578L22.8563 23.6335L22.9779 23.9038Z" fill="white"/>
<path d="M24.3093 23.8768L24.0863 23.6876L23.8565 23.8768L23.9647 23.5997L23.7146 23.4375L24.0052 23.451L24.0863 23.174L24.1606 23.451L24.4512 23.4375L24.208 23.5997L24.3093 23.8768Z" fill="white"/>
<path d="M28.1006 24.0255L27.8505 24.1742L27.9992 23.9173L27.783 23.7213L28.0668 23.7822L28.1817 23.5118L28.2155 23.8025L28.5061 23.8362L28.2358 23.9579L28.2966 24.2417L28.1006 24.0255Z" fill="white"/>
<path d="M26.6544 23.7483L26.4314 23.5591L26.7152 23.6064L26.8234 23.3293L26.8639 23.6199L27.1545 23.6402L26.8977 23.7754L26.9721 24.0592L26.7625 23.8497L26.5193 24.0052L26.6544 23.7483Z" fill="white"/>
<path d="M25.3095 23.6335L25.0797 23.4645L25.3636 23.4916L25.4582 23.2145L25.519 23.5051H25.8096L25.5528 23.6538L25.6406 23.9308L25.4244 23.7349L25.1878 23.9038L25.3095 23.6335Z" fill="white"/>
<path d="M20.0651 26.3976L20.1259 26.1138L19.8556 25.9921L20.1462 25.9583L20.18 25.6677L20.2949 25.9381L20.5855 25.884L20.3625 26.0732L20.5111 26.33L20.2611 26.1813L20.0651 26.3976Z" fill="white"/>
<path d="M21.7885 26.1813L21.5452 26.0191L21.3424 26.2286L21.4168 25.9448L21.1532 25.8096L21.4506 25.7961L21.4911 25.5055L21.5992 25.7758L21.8831 25.7353L21.6601 25.9177L21.7885 26.1813Z" fill="white"/>
<path d="M23.0725 26.0867L22.836 25.9177L22.6197 26.1137L22.7076 25.8299L22.4575 25.6879H22.7481L22.8089 25.3973L22.8968 25.6744L23.1874 25.6474L22.9509 25.8163L23.0725 26.0867Z" fill="white"/>
<path d="M24.3566 26.0664L24.1268 25.8772L23.9038 26.0664L24.0051 25.7893L23.7618 25.6271L24.0524 25.6406L24.1268 25.3568L24.2011 25.6406L24.4917 25.6271L24.2484 25.7893L24.3566 26.0664Z" fill="white"/>
<path d="M27.9993 26.1949L27.7493 26.3435L27.8912 26.0935L27.6749 25.8975L27.9588 25.9516L28.0737 25.688L28.1075 25.9786L28.3981 26.0056L28.1345 26.1273L28.1953 26.4179L27.9993 26.1949Z" fill="white"/>
<path d="M26.6004 25.9312L26.3706 25.742L26.6612 25.7893L26.7626 25.5122L26.8099 25.8028L27.1005 25.8231L26.8437 25.9515L26.918 26.2421L26.7085 26.0326L26.4652 26.188L26.6004 25.9312Z" fill="white"/>
<path d="M25.3028 25.8232L25.073 25.6475L25.3569 25.6813L25.4515 25.4042L25.5123 25.688L25.8029 25.6948L25.5461 25.8367L25.6339 26.1205L25.4177 25.9178L25.1811 26.0935L25.3028 25.8232Z" fill="white"/>
<path d="M20.7004 25.127L20.768 24.8364L20.5044 24.708L20.795 24.6877L20.8355 24.3971L20.9437 24.6674L21.2275 24.6201L21.0113 24.8093L21.1464 25.0662L20.8964 24.9107L20.7004 25.127Z" fill="white"/>
<path d="M19.4231 25.3298L19.484 25.0392L19.2136 24.9175L19.5042 24.8905L19.5313 24.5931L19.6529 24.8635L19.9367 24.8026L19.7205 24.9986L19.8692 25.2555L19.6191 25.1068L19.4231 25.3298Z" fill="white"/>
<path d="M22.4238 24.9445L22.1805 24.7824L21.971 24.9851L22.0521 24.7012L21.7953 24.5593L22.0859 24.5526L22.14 24.262L22.2413 24.5391L22.5252 24.4985L22.2954 24.681L22.4238 24.9445Z" fill="white"/>
<path d="M23.701 24.8837L23.4712 24.708L23.2482 24.8972L23.3428 24.6201L23.0928 24.4715H23.3834L23.451 24.1876L23.5321 24.4715L23.8227 24.4444L23.5861 24.6134L23.701 24.8837Z" fill="white"/>
<path d="M24.9783 24.904L24.7553 24.708L24.5255 24.8837L24.6404 24.6134L24.3971 24.4444L24.6877 24.4715L24.7756 24.1876L24.8431 24.4782L25.1337 24.4715L24.8837 24.6201L24.9783 24.904Z" fill="white"/>
<path d="M28.6076 25.1203L28.3507 25.2622L28.5062 25.0054L28.2899 24.8094L28.5738 24.8703L28.7022 24.6067L28.7224 24.8973L29.013 24.9378L28.7427 25.0527L28.7968 25.3433L28.6076 25.1203Z" fill="white"/>
<path d="M27.2153 24.8162L26.9923 24.627L27.2829 24.681L27.391 24.4039L27.4316 24.7013L27.7222 24.7216L27.4586 24.85L27.5262 25.1338L27.3235 24.9243L27.0734 25.0798L27.2153 24.8162Z" fill="white"/>
<path d="M25.9245 24.6878L25.6947 24.5053L25.9853 24.5459L26.0867 24.2688L26.134 24.5594L26.4246 24.5662L26.1678 24.7081L26.2489 24.9919L26.0394 24.7824L25.8028 24.9514L25.9245 24.6878Z" fill="white"/>
<path d="M41.928 19.4907C42.5903 19.2001 43.3539 19.3353 43.5432 19.7745C43.7392 20.2206 43.3201 20.8694 42.6578 21.16C41.9888 21.4506 41.2319 21.3222 41.0359 20.8761C40.8399 20.4301 41.2589 19.7813 41.928 19.4907ZM42.9282 21.775C43.7662 21.41 44.1446 20.4706 43.7932 19.6597C43.435 18.8487 42.4956 18.4972 41.6576 18.8689C40.8196 19.2339 40.4276 20.1733 40.7858 20.9775C41.1372 21.7885 42.0902 22.1467 42.9282 21.775Z" fill="#005288"/>
<path d="M41.7522 23.9646L41.4346 22.7008L41.6306 22.6535L41.7184 23.0049L44.3947 22.3223L44.3068 21.9709L44.5028 21.9236L44.9894 23.8429L45.1178 23.8091L45.1786 24.0592L44.442 24.2484L44.3812 24.0051L44.7191 23.9173L44.4758 22.9508L43.3809 23.2279L43.5702 23.9713L43.8878 23.8902L43.9554 24.1403L43.043 24.3701L42.9754 24.12L43.2998 24.0389L43.1106 23.2955L41.8806 23.6064L41.9617 23.9173L41.7522 23.9646Z" fill="#005288"/>
<path d="M4.29147 20.5653L4.17658 20.9505L5.90669 21.4641C6.42707 21.6195 6.6974 21.8966 6.76498 22.3427C6.79877 22.5724 6.7785 22.8157 6.71092 23.0523C6.48789 23.7957 5.93372 24.1606 5.29845 23.9714L3.43994 23.4172L3.33857 23.7686L3.14258 23.7146L3.5278 22.4238L3.72378 22.4846L3.62241 22.8293L5.339 23.3429C5.80531 23.478 6.04185 23.4645 6.23108 23.2618C6.31894 23.1672 6.39328 23.0455 6.43383 22.9036C6.59603 22.3494 6.36625 21.9304 5.80531 21.7682L4.09549 21.2613L3.9806 21.6466L3.78461 21.5857L4.10224 20.5179L4.29147 20.5653Z" fill="#005288"/>
<path d="M7.33266 21.3154C7.26508 21.4776 7.07585 21.5587 6.91366 21.4844C6.75146 21.4168 6.67036 21.2276 6.7447 21.0654C6.81228 20.9032 7.00151 20.8221 7.16371 20.8964C7.32591 20.964 7.40025 21.1532 7.33266 21.3154Z" fill="#005288"/>
<path d="M7.9342 19.9435L7.80579 20.1732L7.05563 19.7475L7.18404 19.5177L7.49492 19.6934C7.75173 19.592 7.88689 19.4771 8.00178 19.2744C8.15046 19.0176 8.0964 18.7405 7.88013 18.6188C7.6909 18.5107 7.48816 18.558 7.02184 18.8081C6.53525 19.0716 6.46091 19.0987 6.27844 19.1392C6.09597 19.173 5.89998 19.1392 5.71751 19.0311C5.25795 18.7743 5.14306 18.2607 5.4269 17.7538C5.52152 17.5916 5.61613 17.4767 5.77157 17.3551L5.64316 17.2875L5.77157 17.0645L6.48794 17.4632L6.35954 17.6862L6.06893 17.524C5.85943 17.6389 5.7513 17.7268 5.66344 17.8822C5.54179 18.0985 5.60262 18.3553 5.7986 18.4634C5.96756 18.558 6.123 18.5175 6.60283 18.2607C6.83937 18.139 6.98129 18.0579 7.04212 18.0309C7.16376 17.9701 7.30569 17.9363 7.45437 17.9295C7.63008 17.9227 7.78552 17.9633 7.94772 18.0579C8.42755 18.3282 8.56271 18.8621 8.28563 19.3487C8.15046 19.592 8.00178 19.7407 7.77876 19.8691L7.9342 19.9435Z" fill="#005288"/>
<path d="M9.19121 17.7741C9.19121 17.9498 9.04929 18.0918 8.88034 18.0918C8.70462 18.0918 8.56946 17.9498 8.56946 17.7741C8.56946 17.5984 8.71138 17.4632 8.88034 17.4632C9.04929 17.4565 9.19121 17.5984 9.19121 17.7741Z" fill="#005288"/>
<path d="M16.6117 11.5971L14.5842 12.6446L14.4896 12.4621L14.814 12.2932L13.5502 9.83319L13.2258 10.0021L13.1312 9.81967L14.8884 8.91407L14.8275 8.79242L15.0573 8.67078L15.4087 9.3466L15.1857 9.46149L15.0303 9.15061L14.145 9.61017L14.6653 10.6171L15.3479 10.2657L15.1992 9.97511L15.429 9.85346L15.8615 10.6915L15.6318 10.8131L15.4763 10.5158L14.7937 10.8672L15.3344 11.9215L16.2603 11.4416L16.0981 11.124L16.3279 11.0091L16.6117 11.5971Z" fill="#005288"/>
<path d="M18.5648 10.8943L17.247 11.3336L17.1862 11.1443L17.5308 11.0295L16.659 8.40727L16.3144 8.52216L16.2535 8.33293L17.6322 7.87337C18.1931 7.68414 18.6797 7.90716 18.8555 8.42754C19.0176 8.92089 18.7203 9.48182 18.1864 9.65754C18.112 9.68457 18.058 9.69809 17.9296 9.7116L17.8552 9.48858C17.9161 9.48182 17.9431 9.47506 17.9836 9.46155C18.2945 9.36017 18.3891 9.07633 18.254 8.67084C18.112 8.24507 17.8688 8.07611 17.5444 8.18425L17.274 8.2721L18.1256 10.8335L18.5108 10.7051L18.5648 10.8943Z" fill="#005288"/>
<path d="M20.1327 9.14392L20.403 7.88013L21.0586 8.98172L20.1327 9.14392ZM22.4643 9.8265L22.2683 9.86029L20.572 7.04211L20.2814 7.08942L19.5853 10.3266L19.2947 10.3739L19.3285 10.5699L20.3084 10.4009L20.2746 10.205L19.8962 10.2725L20.0719 9.4548L21.2208 9.25205L21.6465 9.96842L21.3154 10.0225L21.3492 10.2185L22.5048 10.0157L22.4643 9.8265Z" fill="#005288"/>
<path d="M23.8362 7.12995H24.1403C24.4782 7.12995 24.681 7.35297 24.6742 7.73819C24.6742 8.11665 24.4444 8.38022 24.1133 8.38022H23.8294L23.8362 7.12995ZM25.7826 9.82647H25.5866C25.4919 9.82647 25.4311 9.78593 25.323 9.61697L24.6472 8.56945C25.1 8.43428 25.3162 8.1572 25.323 7.72467C25.323 7.46786 25.2487 7.26511 25.0932 7.10291C24.9243 6.9272 24.6877 6.86638 24.2755 6.86638L22.8562 6.85962V7.06237H23.2212L23.2144 9.82647H22.8495V10.0292H24.1944V9.82647H23.8362V8.61675H23.9646L24.681 9.74538C24.8432 10.0022 24.8905 10.0292 25.1743 10.0292H25.7826V9.82647Z" fill="#005288"/>
<path d="M27.952 10.4144L26.4314 10.1576L26.4652 9.96163L26.9247 10.036L27.3708 7.39351L26.553 7.25834L26.4854 7.65032L26.2286 7.60977L26.3638 6.80554L26.6274 6.85285L26.6071 6.98801L28.8508 7.36647L28.8711 7.23131L29.1279 7.27186L28.9927 8.07609L28.7359 8.02878L28.8035 7.6368L27.9925 7.50164L27.5465 10.1441L27.9993 10.2184L27.952 10.4144Z" fill="#005288"/>
<path d="M32.4327 11.9283L31.1013 11.4147L31.1757 11.2255L31.5541 11.3741L32.3043 9.44128L30.4796 11.2255L30.2228 8.68436L29.4861 10.5767L29.8646 10.7253L29.7902 10.9146L28.7562 10.5158L28.8306 10.3266L29.209 10.4753L30.2092 7.90041L29.8308 7.75173L29.9051 7.5625L30.6958 7.86662L30.9526 10.3604L32.6963 8.64381L33.5816 8.98848L33.5072 9.17771L33.1355 9.02903L32.1353 11.6039L32.5138 11.7526L32.4327 11.9283Z" fill="#005288"/>
<path d="M34.7711 13.4624L32.845 12.2324L32.9531 12.0634L33.2572 12.2594L34.744 9.92781L34.4332 9.73182L34.5413 9.56287L36.2106 10.6239L36.2849 10.509L36.5012 10.6509L36.0889 11.293L35.8727 11.1578L36.0619 10.8672L35.2239 10.3265L34.6156 11.2795L35.2644 11.6917L35.4401 11.4146L35.6631 11.5498L35.1563 12.3472L34.9333 12.2121L35.1157 11.9282L34.4669 11.516L33.8317 12.5162L34.7102 13.0771L34.8995 12.7798L35.1157 12.9217L34.7711 13.4624Z" fill="#005288"/>
<path d="M13.4894 11.4958C12.9622 10.7794 11.989 10.6442 11.2592 11.1781L10.0494 12.0635L10.1711 12.2256L10.4617 12.0094L12.0972 14.2328C12.1783 14.2599 12.2526 14.2937 12.327 14.3207L13.1244 13.7327C13.5029 13.4556 13.6989 13.1515 13.7732 12.7393C13.8476 12.2932 13.7462 11.8539 13.4894 11.4958ZM12.8744 13.5908L12.5635 13.8206L11.0023 11.6985L11.3335 11.4552C11.7863 11.1241 12.5297 11.3268 12.9487 11.8945C13.388 12.5027 13.361 13.2326 12.8744 13.5908Z" fill="#005288"/>
<path d="M38.8597 12.8001L38.7245 12.9487L39.0016 13.2055L37.65 14.6924L37.9947 12.0093L37.2918 11.3673L37.1566 11.516L37.4135 11.7458L37.3594 12.0296L35.6631 13.8881L35.3725 13.6178L35.2373 13.7665L36.0415 14.4964L36.1767 14.3477L35.8996 14.0909L37.3121 12.5432L37.008 15.0032C37.2986 14.9289 37.6162 14.841 37.9541 14.7464C37.9811 14.7397 38.0082 14.7329 38.0352 14.7261L39.2449 13.4015L39.5423 13.6719L39.6775 13.5232L38.8597 12.8001Z" fill="#005288"/>
<path d="M42.0901 16.2941L41.982 16.3752L40.6033 14.5708L40.7114 14.4897L40.5492 14.2802L39.9004 14.7735L40.0626 14.983L40.3803 14.7397L40.8871 15.402L38.7515 17.024L38.6434 16.8821C38.5826 16.9159 38.5218 16.9497 38.4609 16.9699L39.2516 18.0039L39.4138 17.8823L39.1368 17.5173L41.2656 15.8886L41.7657 16.5442L41.4481 16.7875L41.6103 16.997L42.2591 16.5036L42.0901 16.2941Z" fill="#005288"/>
<path d="M28.0601 49.2404L27.8033 49.2945L27.6141 48.4497L27.8709 48.3956L27.9452 48.7403C28.1953 48.8619 28.3642 48.889 28.594 48.8417C28.8846 48.7808 29.0603 48.5578 29.0063 48.3145C28.959 48.105 28.79 47.9834 28.2899 47.7941C27.7695 47.6049 27.7019 47.5711 27.5465 47.4562C27.3978 47.3481 27.2964 47.1724 27.2491 46.9696C27.1342 46.456 27.4384 46.0302 28.0128 45.9018C28.1953 45.8613 28.344 45.8613 28.5399 45.8951L28.5061 45.7532L28.7562 45.6991L28.9319 46.5033L28.6819 46.5574L28.6075 46.233C28.3845 46.1519 28.2493 46.1316 28.0736 46.1654C27.8303 46.2195 27.6816 46.4357 27.729 46.652C27.7695 46.8412 27.9047 46.9358 28.4183 47.1183C28.6616 47.2129 28.817 47.267 28.8778 47.294C28.9995 47.3481 29.1211 47.4292 29.2293 47.5373C29.3509 47.6657 29.4253 47.8077 29.4658 47.9901C29.5807 48.524 29.2766 48.9836 28.7292 49.1052C28.4588 49.1661 28.2493 49.1525 28.006 49.0714L28.0601 49.2404Z" fill="#005288"/>
<path d="M32.9395 47.7062L30.8107 48.5443L30.7363 48.355L31.0743 48.2199L30.0673 45.645L29.7294 45.7802L29.655 45.5909L31.4933 44.8678L31.446 44.7394L31.6893 44.6448L31.9663 45.3544L31.7298 45.449L31.6014 45.1246L30.6688 45.4896L31.081 46.5438L31.7974 46.26L31.6757 45.9559L31.9123 45.8545L32.2569 46.7331L32.0204 46.8344L31.8988 46.5236L31.1824 46.8074L31.6149 47.909L32.5881 47.5305L32.4597 47.1994L32.703 47.1048L32.9395 47.7062Z" fill="#005288"/>
<path d="M36.1362 45.7598C35.8659 46.0977 35.6766 46.2735 35.3658 46.4627C34.5007 46.9898 33.5275 46.7803 33.0342 45.9626C32.5408 45.1516 32.7909 44.1784 33.6221 43.6783C33.8857 43.5161 34.0952 43.4418 34.3926 43.4012L34.2912 43.2255L34.5142 43.0903L34.9603 43.827L34.7372 43.9621L34.575 43.6986C34.2439 43.6783 34.0817 43.7121 33.8654 43.8405C33.2977 44.1852 33.1896 44.9015 33.6019 45.5841C34.0074 46.2464 34.7575 46.5032 35.3252 46.1586C35.528 46.0369 35.6496 45.9018 35.7713 45.6652L35.582 45.3543L35.8118 45.2124L36.1362 45.7598Z" fill="#005288"/>
<path d="M37.5824 40.8062L37.285 41.0765L38.5015 42.4078C38.8664 42.8066 38.9611 43.185 38.7853 43.6041C38.6907 43.8203 38.5556 44.0163 38.3731 44.1853C37.7986 44.7124 37.1363 44.7327 36.6903 44.2461L35.386 42.8133L35.1156 43.0566L34.9805 42.908L35.9739 42.0024L36.1091 42.151L35.8455 42.3943L37.0552 43.7189C37.3796 44.0771 37.5959 44.1785 37.8662 44.1109C37.9879 44.0771 38.1163 44.0095 38.2244 43.9082C38.6502 43.523 38.6705 43.0431 38.2717 42.6106L37.0688 41.2927L36.7714 41.5631L36.6295 41.4076L37.454 40.6575L37.5824 40.8062Z" fill="#005288"/>
<path d="M42.9688 38.0082L42.3267 39.1909L42.151 39.0963L42.3267 38.7719L39.8938 37.4541L39.7181 37.7717L39.5424 37.6771L40.1844 36.4944L40.3601 36.589L40.1911 36.9066L42.6241 38.2245L42.7931 37.9069L42.9688 38.0082Z" fill="#005288"/>
<path d="M44.1919 35.1359L43.6445 36.5822L43.4553 36.5146L43.6175 36.0821L41.1169 35.1292L40.8263 35.9064L41.198 36.0483L41.1034 36.2983L40.3397 36.0077L40.4343 35.7577L40.5627 35.805L41.367 33.6761L41.2386 33.6288L41.3332 33.3788L42.0969 33.6694L42.0022 33.9194L41.6305 33.7775L41.3399 34.548L43.8472 35.4941L44.0094 35.0616L44.1919 35.1359Z" fill="#005288"/>
<path d="M45.0435 31.6015L44.7866 32.9193L44.5907 32.8788L44.6582 32.5273L43.3607 32.2705L41.7657 32.9261L41.7049 33.2234L41.5089 33.1829L41.7657 31.865L41.9617 31.9056L41.8941 32.257L43.0565 31.7907L42.1442 30.9594L42.0631 31.3582L41.8671 31.3176L42.0834 30.2228L42.2793 30.2633L42.2118 30.6012L43.3471 31.642L44.7664 31.9191L44.834 31.5609L45.0435 31.6015Z" fill="#005288"/>
<path d="M41.8131 39.7383L41.6982 39.8937C41.6441 39.9681 41.5698 39.9883 41.3738 39.9816L40.1303 39.9072C40.2857 39.4612 40.1978 39.1165 39.8464 38.8597C39.6437 38.711 39.4274 38.6435 39.2111 38.6772C38.9679 38.711 38.7786 38.8597 38.5353 39.1909L37.6906 40.3263L37.8527 40.4479L38.069 40.1573L40.2857 41.8063L40.0694 42.0969L40.2316 42.2186L41.0359 41.1372L40.8737 41.0156L40.6574 41.3062L39.6842 40.5831L39.7586 40.4817L41.0899 40.5763C41.3941 40.5966 41.4414 40.5763 41.6103 40.3465L41.9753 39.8599L41.8131 39.7383ZM38.488 39.6977L38.6705 39.4544C38.8732 39.1774 39.1706 39.1571 39.4747 39.3801C39.7788 39.6031 39.8532 39.941 39.6572 40.2114L39.4882 40.4411L38.488 39.6977Z" fill="#005288"/>
<path d="M3.78463 34.575L3.46699 33.2707L3.66298 33.2234L3.75084 33.5748L4.97407 33.2775L4.60237 31.7636L3.37914 32.061L3.46699 32.4124L3.27101 32.4597L2.95337 31.1554L3.14936 31.1081L3.23721 31.4663L5.92022 30.8107L5.83237 30.4593L6.02836 30.412L6.34599 31.7163L6.15 31.7636L6.06215 31.4122L4.87946 31.7028L5.25116 33.2166L6.43385 32.926L6.34599 32.5746L6.54198 32.5273L6.85962 33.8316L6.66363 33.879L6.57577 33.5275L3.89276 34.1831L3.98062 34.5413L3.78463 34.575Z" fill="#005288"/>
<path d="M5.61608 35.305C6.27839 35.0076 7.03531 35.1292 7.23806 35.5618C7.4408 36.001 7.02855 36.6566 6.373 36.9607C5.7107 37.2648 4.94702 37.1364 4.74427 36.6971C4.54829 36.2579 4.95378 35.6091 5.61608 35.305ZM6.65009 37.5757C7.48135 37.1972 7.85305 36.2511 7.48135 35.4536C7.11641 34.6494 6.1635 34.3115 5.33224 34.69C4.50098 35.0684 4.12252 36.0078 4.49422 36.812C4.85916 37.6163 5.81883 37.9542 6.65009 37.5757Z" fill="#005288"/>
<path d="M7.87337 42.1308L7.03535 40.9751L7.19754 40.8602L7.43408 41.1846L9.11012 39.9681L6.60958 40.475L7.77199 38.1975L6.12975 39.3869L6.36628 39.7113L6.20409 39.833L5.5553 38.9341L5.7175 38.8125L5.95403 39.1369L8.191 37.5149L7.95446 37.1905L8.11666 37.0688L8.61677 37.7582L7.48139 39.9884L9.8738 39.4883L10.4347 40.2587L10.2725 40.3804L10.036 40.056L7.79902 41.6847L8.03556 42.0091L7.87337 42.1308Z" fill="#005288"/>
<path d="M10.3671 44.5839L8.68433 43.0363L8.81949 42.8876L9.08982 43.1377L10.9618 41.1034L10.6915 40.8534L10.8267 40.7047L12.2797 42.0428L12.3676 41.9415L12.5568 42.1172L12.0364 42.6781L11.8472 42.5092L12.0837 42.2523L11.3471 41.5765L10.5834 42.4078L11.1511 42.9282L11.3741 42.6849L11.5701 42.8538L10.9281 43.5499L10.7321 43.381L10.9618 43.1309L10.3942 42.6105L9.58993 43.4823L10.3536 44.1852L10.5969 43.9216L10.7861 44.0973L10.3671 44.5839Z" fill="#005288"/>
<path d="M13.2258 46.5439L11.347 45.2801L11.4619 45.1111L11.7661 45.3139L13.3069 43.0228L13.0028 42.8201L13.1177 42.6511L14.2328 43.4013L14.1179 43.5702L13.8206 43.3675L12.3202 45.5909L13.165 46.1586L13.361 45.8613L13.5773 46.0032L13.2258 46.5439Z" fill="#005288"/>
<path d="M15.1384 46.1384L16.0778 45.2463L15.9967 46.5303L15.1384 46.1384ZM16.686 48.0171L16.5035 47.936L16.6928 44.6516L16.4292 44.5299L14.03 46.8074L13.7597 46.6858L13.6786 46.8682L14.5842 47.2805L14.6653 47.098L14.3139 46.9426L14.9221 46.3614L15.9831 46.8412L15.9291 47.6725L15.625 47.5373L15.5439 47.7198L16.6117 48.2064L16.686 48.0171Z" fill="#005288"/>
<path d="M20.0043 49.1525L19.68 49.0714L18.6054 46.3952L18.1188 48.4362L18.4905 48.524L18.4432 48.72L17.3889 48.4699L17.4362 48.274L17.8214 48.3686L18.4094 45.9221L18.3148 45.645L17.9769 45.5639L18.0242 45.3679L18.9501 45.5909L19.9435 48.105L20.4098 46.1519L20.0381 46.064L20.0854 45.868L21.1397 46.1181L21.0924 46.3141L20.7072 46.2127L20.0043 49.1525Z" fill="#005288"/>
<path d="M23.1198 46.2195L21.6262 46.1654L21.6195 46.3682L21.9844 46.3817L21.8831 49.1458L21.5181 49.1323L21.5114 49.335L23.0049 49.3891C23.478 49.4093 23.8227 49.2877 24.1335 49.0106C24.4715 48.7065 24.6607 48.301 24.681 47.8617C24.708 46.9696 24.0254 46.2533 23.1198 46.2195ZM23.9984 47.8347C23.9713 48.5848 23.4983 49.139 22.89 49.1187L22.4981 49.1052L22.5927 46.4695L22.9982 46.483C23.5658 46.5033 24.0254 47.1251 23.9984 47.8347Z" fill="#005288"/>
<path d="M39.3937 30.1213L38.2177 30.4863L38.4813 30.5944L38.0691 30.858C38.1164 30.6147 38.1569 30.3782 38.1907 30.1281L38.8395 29.5874L38.853 29.8713L39.5829 28.8778L38.461 29.3915L38.7381 29.4658L38.2245 29.8983C38.2583 29.601 38.2853 29.3036 38.3056 28.9995L38.9409 28.2966L38.9949 28.5805L39.5829 27.4992L38.5421 28.1547L38.826 28.1885L38.3191 28.7359C38.3259 28.5467 38.3326 28.3574 38.3326 28.1682C38.3326 26.749 38.1231 25.3771 37.7379 24.0795C37.0959 24.1403 36.4471 23.9308 36.1362 23.87C36.9607 24.3566 37.2513 24.877 37.3662 25.4784C36.7039 25.6271 35.8253 25.4109 35.3387 25.0324C35.8118 25.4447 36.1092 26.0934 36.1294 26.7693C35.4469 26.8031 34.8183 26.4854 34.3588 26.0191C34.6562 26.3503 35.0279 27.1883 34.94 27.783C34.3723 27.7222 33.7032 27.3505 33.3383 26.9044C33.6357 27.5735 33.7843 28.1074 33.7506 28.7089C33.1829 28.6007 32.7571 28.4453 32.2502 27.9587C32.4935 28.567 32.5814 29.1752 32.5273 29.6753C31.8718 29.4455 31.4392 29.182 31.0743 28.567C31.2703 29.1076 31.3987 29.8172 31.2635 30.2362C30.7094 30.074 30.3444 29.7429 30.0606 29.1752C30.3444 29.7767 30.3106 30.4728 30.216 30.831C29.9862 30.7836 29.6821 30.6214 29.5199 30.4457C29.5132 30.5539 29.5064 30.662 29.4996 30.7634C29.4726 31.1689 29.3915 31.5473 29.2631 31.892C29.3104 31.9461 29.4185 32.0745 29.4185 32.0745C29.7091 32.3853 30.1079 32.6827 30.4188 32.7841C30.2836 32.8044 30.0944 32.9192 29.9119 32.9395C30.1214 33.1761 30.5404 33.2234 30.804 33.4937C30.6012 33.514 30.5539 33.6626 30.3039 33.6356C30.7702 34.0006 31.2027 34.0141 31.446 34.0411C31.5406 34.0546 31.8583 34.0817 32.061 34.0479C32.3043 34.0073 32.5611 34.1087 32.6963 34.183L35.2712 28.9657L34.9873 29.013L35.7915 28.0804L35.5415 29.2901L35.4063 29.0333L32.8179 34.2776C32.8652 34.3385 32.8855 34.4128 32.8923 34.4804H32.9125L33.0139 34.3993L37.1837 31.108L36.9066 31.0337L38.0353 30.5336L37.2919 31.5203L37.2783 31.2297L33.1423 34.4939C33.2504 34.5142 33.3518 34.5547 33.3856 34.602C33.4532 34.7169 33.4397 34.771 33.3721 34.967C33.3113 35.1562 33.264 35.217 33.1356 35.2373C33.1018 35.2441 33.0342 35.2508 32.9666 35.217C33.0071 35.2441 33.0274 35.2643 33.0477 35.3117C33.068 35.359 33.095 35.4468 32.9463 35.6225C32.8112 35.778 32.6828 35.832 32.5746 35.7712C32.5138 35.7374 32.4935 35.6969 32.4665 35.6698C32.48 35.7104 32.5003 35.7577 32.507 35.805C32.5341 35.9604 32.4124 36.0145 32.2637 36.0686C31.9867 36.1699 31.8447 36.1226 31.7839 36.028C31.642 35.8118 31.7231 35.5414 31.8177 35.4941C31.7974 35.5752 31.7974 35.6698 31.8109 35.7712C31.8245 35.8523 31.865 35.9875 32.0137 35.974C32.0948 35.9672 32.2435 35.9334 32.3381 35.8726C32.4057 35.832 32.4057 35.7239 32.3719 35.6293C32.3584 35.582 32.3381 35.5144 32.284 35.4671C32.3786 35.4941 32.4327 35.5414 32.507 35.6023C32.5814 35.6631 32.6895 35.6766 32.7503 35.609C32.8314 35.5279 32.8787 35.4603 32.9058 35.4063C32.9734 35.2576 32.7841 35.1427 32.676 35.0819C32.872 35.0886 32.899 35.163 33.0612 35.1427C33.2167 35.1224 33.264 34.8724 33.264 34.7845C33.264 34.7237 33.1896 34.6629 33.1018 34.6426C33.0342 34.6291 32.9531 34.6223 32.8923 34.6291C32.8923 34.6493 32.8855 34.6696 32.8787 34.6831C32.8585 34.7575 32.8247 34.8453 32.6963 34.9129C32.6219 34.9332 32.5746 34.9399 32.649 34.8859C32.7165 34.8318 32.7774 34.5345 32.6219 34.4128C32.507 34.325 32.3448 34.2574 32.1556 34.2641C31.9461 34.2776 31.6217 34.2912 31.4595 34.2776C31.3176 34.2641 31.223 34.4534 31.2027 34.5345C31.1486 34.7237 31.0946 34.9602 30.8175 34.8386C30.4796 34.6493 29.9997 34.6629 29.4523 34.4398C29.5334 34.6088 29.4996 34.7575 29.5807 34.9399C29.0941 34.8183 28.9657 34.5682 28.4994 34.406C28.5738 34.575 28.5535 34.7102 28.6616 34.8724C28.2696 34.8048 27.9047 34.4534 27.3573 34.3047C27.3438 34.3114 27.3235 34.3182 27.31 34.3182C27.114 34.379 26.9315 34.4331 26.7626 34.4871C27.1478 34.9264 27.4722 35.4603 27.6209 36.1159C27.6209 36.1159 27.3505 36.1226 26.945 35.9807C27.0599 36.3321 27.1343 36.7174 27.141 37.1229C27.141 37.1229 26.8369 37.0688 26.4179 36.8052C26.4584 37.1904 26.4449 37.5892 26.3638 38.0014C26.3638 38.0014 26.0056 37.8595 25.5934 37.427C25.5461 37.8257 25.4447 38.2312 25.2758 38.6299C25.2758 38.6299 24.9514 38.4069 24.6202 37.9C24.485 38.2988 24.2891 38.6908 24.0255 39.0625C24.0255 39.0625 23.6741 38.6908 23.4308 37.9474C23.1131 38.4272 22.809 38.6299 22.809 38.6299C22.64 38.2312 22.5387 37.8257 22.4914 37.427C22.0724 37.8527 21.7209 38.0014 21.7209 38.0014C21.6398 37.5892 21.6263 37.1837 21.6669 36.7985C21.2479 37.0553 20.937 37.1161 20.937 37.1161C20.9437 36.7106 21.0181 36.3254 21.133 35.974C20.7275 36.1159 20.4571 36.1091 20.4571 36.1091C20.6126 35.4468 21.0451 34.7642 21.3357 34.4534C21.1938 34.4128 21.0384 34.3587 20.8762 34.3114C20.8626 34.3047 20.8424 34.3047 20.8288 34.2979C20.2814 34.4466 19.9165 34.798 19.5245 34.8656C19.6326 34.7034 19.6056 34.575 19.6867 34.3993C19.2204 34.5615 19.0987 34.8115 18.6122 34.9332C18.6933 34.744 18.6595 34.602 18.7406 34.4331C18.2878 34.6561 17.666 34.8115 17.3889 34.8656C17.0848 34.9264 17.0645 34.4736 16.9699 34.379C16.9294 34.3385 16.6793 34.3182 16.5779 34.3317C16.4293 34.3587 16.1319 34.3452 15.9156 34.3385C15.6994 34.3317 15.5439 34.3993 15.429 34.4871C15.2668 34.602 15.3479 34.9197 15.4155 34.9737C15.4899 35.0278 15.4426 35.021 15.3682 35.0008C15.2398 34.9332 15.206 34.8453 15.1857 34.771C15.1857 34.7642 15.179 34.7507 15.179 34.7372C15.1182 34.7304 15.0168 34.7237 14.9357 34.744C14.8411 34.7642 14.7667 34.8251 14.7667 34.8859C14.7667 34.967 14.8073 35.2238 14.9627 35.2508C15.1182 35.2779 15.1519 35.2035 15.3479 35.2035C15.233 35.2643 15.0438 35.3725 15.1114 35.5212C15.1384 35.582 15.1857 35.6428 15.2601 35.7307C15.3209 35.7982 15.429 35.7847 15.5034 35.7307C15.5777 35.6766 15.6318 35.6225 15.7264 35.6023C15.6723 35.6496 15.6453 35.7171 15.6318 35.7577C15.598 35.8523 15.598 35.9604 15.6588 36.001C15.7467 36.0618 15.8954 36.1024 15.9764 36.1091C16.1319 36.1294 16.1724 35.9942 16.186 35.9131C16.2062 35.8118 16.2062 35.7239 16.186 35.636C16.2806 35.6834 16.3482 35.9604 16.2062 36.1699C16.1386 36.2646 15.9967 36.3051 15.7196 36.197C15.571 36.1429 15.4561 36.0821 15.4899 35.9266C15.4966 35.8793 15.5169 35.832 15.5304 35.7915C15.5034 35.8185 15.4831 35.8591 15.4155 35.8929C15.3074 35.9537 15.179 35.8929 15.0506 35.7374C14.9019 35.5549 14.9357 35.4738 14.956 35.4198C14.9762 35.3725 15.0033 35.3522 15.0371 35.3252C14.9627 35.3522 14.9019 35.3454 14.8681 35.3387C14.7465 35.3184 14.6991 35.2508 14.6451 35.0616C14.5843 34.8656 14.5707 34.8048 14.6383 34.6967C14.6924 34.6088 14.9965 34.5615 15.1587 34.5885C15.1655 34.4804 15.1993 34.3587 15.3074 34.2979C15.4223 34.2303 15.7129 34.0884 15.9967 34.1357C16.1995 34.1695 16.5103 34.1357 16.6117 34.1222C16.7063 34.1087 17.416 33.9803 17.889 33.6221C17.6457 33.6491 17.5917 33.5004 17.3889 33.4802C17.6525 33.2166 18.0715 33.1625 18.281 32.926C18.0918 32.9057 17.9296 32.757 17.7944 32.7368C18.2067 32.507 18.4837 32.3718 18.7743 32.0609C18.7811 32.0542 18.8825 31.9325 18.9298 31.8785C18.7946 31.5271 18.7135 31.1486 18.6865 30.7431C18.6797 30.6485 18.673 30.5404 18.6662 30.439C18.5648 30.5539 18.3553 30.662 18.0174 30.7836C17.862 30.3984 17.9363 29.6821 18.1391 29.1279C17.8552 29.6956 17.5241 30.0605 16.9767 30.2227C16.8415 29.8105 16.9226 29.0873 17.1186 28.5399C16.7536 29.1549 16.3549 29.4658 15.7061 29.6956C15.6521 29.1955 15.7061 28.5332 15.9427 27.9249C15.4358 28.4115 15.01 28.567 14.4423 28.6751C14.4085 28.0804 14.5505 27.5397 14.8546 26.8706C14.4896 27.3167 13.7395 27.6208 13.1718 27.6816C13.2123 27.168 13.5773 26.4584 13.7868 26.0461C13.2529 26.4314 12.6784 26.7084 12.0634 26.7422C12.1378 26.1543 12.4014 25.519 12.8542 25.0054C12.3203 25.3974 11.5093 25.6136 10.901 25.5258C11.0497 24.8837 11.4417 24.2552 11.9823 23.9173C11.6715 23.9781 11.1105 24.1065 10.4617 24.0457C10.0833 25.323 9.87378 26.6679 9.86702 28.0668C9.54263 27.8168 9.31961 27.7492 9.09659 27.5329C9.13714 27.8371 9.17769 27.9993 9.21148 28.3777C9.2723 29.0468 9.52911 29.4388 9.94812 29.6753C9.9684 29.8645 9.99543 30.0605 10.0225 30.2497C9.71159 30.047 9.29258 29.9254 8.7384 29.9321C9.07631 31.0269 9.55615 31.108 10.2049 31.2162C10.2252 31.3175 10.2522 31.4189 10.2725 31.5135C9.92785 31.4257 9.5156 31.4189 9.04928 31.5541C9.37367 32.0609 9.82648 32.3651 10.5428 32.4732C10.5428 32.4777 10.5451 32.4822 10.5496 32.4867C10.1103 32.4529 9.63049 32.5137 9.24527 32.7097C9.79268 33.1761 10.3266 33.3585 10.8402 33.3045C10.8672 33.372 10.8943 33.4396 10.9213 33.5072C10.5158 33.6153 10.1644 33.8248 9.96164 34.0208C10.3874 34.156 10.8267 34.2303 11.2187 34.183C11.2254 34.1898 11.2254 34.2033 11.2322 34.2101C11.0024 34.3858 10.7997 34.6696 10.678 35.1224C10.9821 35.0481 11.293 35.0278 11.6039 34.9332C11.6647 35.0481 11.7323 35.163 11.7931 35.2711C11.6309 35.582 11.5701 35.974 11.6715 36.4065C11.9283 36.3457 12.1445 36.2443 12.327 36.1159C12.3878 36.2037 12.4487 36.2983 12.5162 36.3862C12.4487 36.8863 12.5636 37.3864 12.8609 37.7176C12.9826 37.5824 13.0772 37.454 13.1583 37.3256C13.8003 36.3457 13.4151 35.636 13.4286 35.0008C13.4354 34.9873 13.4421 34.9737 13.4421 34.9602C13.4962 35.7171 14.1517 36.4673 13.3813 37.3797C13.3678 37.3999 13.3543 37.4135 13.3407 37.427C15.9494 40.4614 19.8219 42.3807 24.1336 42.3807C30.2633 42.3807 35.4874 38.5083 37.4946 33.0814L38.1434 32.7976L38.0961 33.0814L39.0287 32.2772L37.819 32.5273L38.0758 32.6624L37.5757 32.8652C37.6636 32.6151 37.7447 32.3583 37.819 32.1015L38.5286 31.7095L38.5016 31.9934L39.3599 31.1013L38.1772 31.4595L38.4408 31.5676L37.8731 31.8785C37.9474 31.6014 38.015 31.3175 38.0758 31.0337L38.6165 30.689L38.5962 30.9729L39.3937 30.1213Z" fill="#005288"/>
<path d="M32.8787 34.629C32.9395 34.629 33.0206 34.629 33.0882 34.6426C33.176 34.6628 33.2504 34.7237 33.2504 34.7845C33.2504 34.8656 33.2031 35.1156 33.0476 35.1427C32.8922 35.1629 32.8584 35.0886 32.6624 35.0818C32.7705 35.1427 32.9598 35.2576 32.8922 35.4062C32.8651 35.4671 32.8178 35.5279 32.7367 35.609C32.6692 35.6766 32.561 35.6631 32.4934 35.6022C32.4191 35.5414 32.365 35.4941 32.2704 35.4671C32.3245 35.5144 32.3448 35.582 32.3583 35.6293C32.3921 35.7239 32.3921 35.832 32.3245 35.8726C32.2366 35.9334 32.0812 35.9672 32.0001 35.9739C31.8447 35.9874 31.8109 35.8523 31.7973 35.7712C31.7838 35.6698 31.7771 35.582 31.8041 35.4941C31.7095 35.5414 31.6284 35.8117 31.7703 36.028C31.8379 36.1294 31.9731 36.1699 32.2501 36.0685C32.3988 36.0145 32.5137 35.9604 32.4934 35.805C32.4867 35.7577 32.4664 35.7104 32.4529 35.6698C32.4799 35.6968 32.5002 35.7374 32.561 35.7712C32.6692 35.832 32.7976 35.7779 32.9327 35.6225C33.0882 35.4468 33.0544 35.3589 33.0341 35.3116C33.0138 35.2643 32.9868 35.2373 32.953 35.217C33.0273 35.244 33.0882 35.2373 33.122 35.2373C33.2436 35.2238 33.2909 35.1562 33.3585 34.967C33.4261 34.771 33.4396 34.7169 33.372 34.602C33.345 34.5547 33.2436 34.5142 33.1287 34.4939L37.2647 31.2297L37.2783 31.5203L38.0217 30.5336L36.893 31.0337L37.1701 31.108L33.0071 34.4128L32.9057 34.4939H32.8854" fill="white"/>
<path d="M32.8111 34.2844L35.3995 29.0468L35.5347 29.2968L35.7848 28.0939L34.9805 29.0265L35.2644 28.9724L32.6827 34.1898" fill="white"/>
<path d="M32.1624 34.8656C32.2367 35.0008 32.2435 35.2373 32.2029 35.3522C32.4732 35.3117 32.5273 35.0481 32.5408 34.9129C32.4597 34.8115 32.2705 34.798 32.1624 34.8656Z" fill="white"/>
<path d="M32.1151 34.8927C31.9529 34.8792 31.892 34.8048 31.865 34.7237C31.838 34.6494 31.7501 34.5953 31.7501 34.717C31.7501 34.8319 31.7501 34.8859 31.8109 34.9197C31.8785 34.9535 32.0002 34.9603 32.1151 34.8927Z" fill="white"/>
<path d="M32.1286 35.3927C32.0745 35.3184 32.0407 35.2373 32.0272 35.1494C31.9934 35.2102 31.9393 35.413 31.9191 35.5617C31.9123 35.5955 31.9191 35.609 32.0069 35.6157C32.0948 35.6225 32.1961 35.5887 32.2705 35.5346C32.2299 35.4873 32.1691 35.4535 32.1286 35.3927Z" fill="white"/>
<path d="M35.2914 29.9051L35.5753 29.8916L33.96 32.3448C33.7708 32.73 33.5883 33.1017 33.4261 33.4329C33.4329 33.4261 33.4397 33.4126 33.4532 33.4058L35.7104 29.9794L35.8118 30.2497L36.2105 29.0806L35.2914 29.9051Z" fill="white"/>
<path d="M34.6764 32.0541L37.6162 28.3371L37.6973 28.6142L38.1906 27.4856L37.2107 28.229L37.4945 28.2358L34.8318 31.6081C34.6223 31.9257 34.3993 32.2637 34.1965 32.5745L34.2033 32.5813C34.352 32.4056 34.5142 32.2299 34.6764 32.0541Z" fill="white"/>
<path d="M34.325 33.1558C34.575 32.9598 34.8318 32.7571 35.0819 32.5611L37.5283 30.2971L37.5621 30.5809L38.2244 29.5402L37.1431 30.1281L37.427 30.1822L34.967 32.4597C34.744 32.6962 34.5277 32.9328 34.325 33.1558Z" fill="white"/>
<path d="M37.0417 32.6286L33.595 34.352C33.5342 34.3993 33.4869 34.4398 33.4531 34.4601C33.4802 34.4804 33.5004 34.5007 33.5139 34.5277C33.5207 34.5412 33.5275 34.548 33.5342 34.5615L37.1161 32.7705L37.0688 33.0544L37.9946 32.2434L36.7849 32.5002L37.0417 32.6286Z" fill="white"/>
<path d="M31.8311 36.2781C31.7771 36.2578 31.7365 36.2376 31.696 36.197L31.081 37.4743L30.8579 37.5487L30.1281 38.9476L30.4795 38.8395L30.6079 39.1842L31.2972 37.7649L31.2161 37.5352L31.8311 36.2781Z" fill="white"/>
<path d="M34.2371 33.8451C34.4736 33.7235 34.7439 33.5883 35.021 33.4531L37.312 31.9528L37.2985 32.2434L38.1298 31.3311L36.9606 31.723L37.231 31.8244L34.7372 33.4531C34.5615 33.5951 34.3925 33.7235 34.2371 33.8451Z" fill="white"/>
<path d="M31.5542 35.9334C31.5339 35.8658 31.5271 35.7915 31.5339 35.7239L30.7161 36.616L30.4728 36.6362L30.4526 36.6565L29.3104 37.7986H29.3645L29.3577 37.8054L29.3712 37.7986L29.6551 37.7851L29.7024 38.0622L30.6486 36.8187L30.831 36.7782L31.5542 35.9334Z" fill="white"/>
<path d="M33.0612 34.1561C33.1625 34.075 33.3045 33.9601 33.4802 33.8249L37.5013 29.4253L37.5554 29.7092L38.1298 28.6211L37.0958 29.2902L37.3797 29.3239L33.1693 33.9331C33.1355 34.0074 33.0949 34.0885 33.0612 34.1561Z" fill="white"/>
<path d="M29.4658 37.1634L30.9661 36.1091C31.1351 35.9199 31.3243 35.7172 31.3919 35.6428L29.5199 36.8796L29.2833 36.8323L29.1482 36.9201L27.9452 37.6703L28.2831 37.7379L28.3237 37.9947L29.2901 37.1567L29.4658 37.1634Z" fill="white"/>
<path d="M28.2223 37.2986L28.8238 36.9269L29.3847 36.5484L29.574 36.5822C29.574 36.5822 30.9391 35.7442 31.2703 35.5212C31.2838 35.5077 31.2973 35.5009 31.2973 35.5009C31.2973 35.5009 31.3041 35.4941 31.3108 35.4941L29.5199 36.3862L29.2901 36.3186L27.8641 36.9945L28.1818 37.1094L28.2223 37.2986Z" fill="white"/>
<path d="M15.1384 34.6155C14.9762 34.5817 14.6721 34.6358 14.618 34.7237C14.5437 34.8318 14.5639 34.8926 14.6248 35.0886C14.6788 35.2778 14.7261 35.3454 14.8478 35.3657C14.8816 35.3724 14.9492 35.3792 15.0167 35.3522C14.9762 35.3792 14.9492 35.3995 14.9356 35.4468C14.9154 35.4941 14.8816 35.5819 15.0302 35.7644C15.1587 35.9199 15.2871 35.9807 15.3952 35.9199C15.456 35.8861 15.4763 35.8455 15.5101 35.8185C15.4898 35.859 15.4763 35.9063 15.4695 35.9536C15.4425 36.1091 15.5574 36.1699 15.6993 36.224C15.9764 36.3321 16.1116 36.2916 16.1859 36.1969C16.3346 35.9874 16.2602 35.7103 16.1656 35.663C16.1859 35.7441 16.1859 35.8388 16.1656 35.9401C16.1521 36.0212 16.1116 36.1564 15.9561 36.1361C15.875 36.1294 15.7263 36.0888 15.6385 36.028C15.5777 35.9874 15.5777 35.8725 15.6115 35.7847C15.6317 35.7374 15.652 35.6698 15.7061 35.6292C15.6115 35.6495 15.5574 35.6968 15.4831 35.7577C15.4087 35.8117 15.3006 35.8252 15.2398 35.7577C15.1587 35.6698 15.1113 35.609 15.0911 35.5482C15.0235 35.3995 15.2195 35.2913 15.3276 35.2305C15.1316 35.2305 15.0978 35.3049 14.9424 35.2778C14.787 35.2508 14.7464 35.0007 14.7464 34.9129C14.7464 34.8521 14.8207 34.7912 14.9154 34.771C14.9965 34.7507 15.1046 34.7574 15.1587 34.7642" fill="white"/>
<path d="M11.5903 32.9936C11.6241 33.0004 11.6174 32.9936 11.5768 32.9801C11.1443 32.7368 10.8402 32.6557 10.2522 32.7368C10.8064 32.7841 11.1983 32.8585 11.5903 32.9936Z" fill="white"/>
<path d="M11.8539 36.0212C11.9147 35.609 12.1918 35.1156 12.5905 34.7845C12.8744 34.5547 13.0298 34.4669 12.7933 34.7102C12.4418 35.0886 12.0296 35.6901 11.8539 36.0212Z" fill="white"/>
<path d="M12.7325 37.1499C12.5771 36.7646 12.7122 36.1361 12.8812 35.7306C12.9961 35.4468 13.2867 35.021 13.3745 34.9805C13.0569 35.4671 12.719 36.7714 12.7325 37.1499Z" fill="white"/>
<path d="M11.4484 31.7298C11.4214 31.5811 11.2727 31.4865 11.1308 31.5203C10.9821 31.5473 10.8875 31.696 10.9213 31.8379C10.9483 31.9866 11.097 32.0812 11.2389 32.0474C11.3808 32.0204 11.4755 31.8785 11.4484 31.7298Z" fill="white"/>
<path d="M13.807 32.1082C13.8138 31.7028 13.753 31.2837 13.8003 30.8107C12.9893 31.3986 12.719 32.4326 13.0501 33.1558C13.0163 33.149 12.9825 33.149 12.9487 33.1558C12.8001 33.1896 12.6987 33.3315 12.7325 33.4869C12.7595 33.6424 12.9149 33.737 13.0636 33.7032C13.2191 33.6694 13.3137 33.5207 13.2866 33.372C13.2731 33.2977 13.2258 33.2301 13.165 33.1896C13.0298 32.5475 13.138 31.7501 13.4759 31.4121C13.3677 31.8109 13.1785 32.6489 13.3069 33.4261C13.4353 33.2774 13.5367 33.1287 13.611 32.9868C13.6246 33.1085 13.6583 33.2369 13.7057 33.3653C13.7259 32.7503 13.9287 32.142 14.5707 31.7163C14.1044 32.311 13.8341 33.0003 13.78 33.5207C14.1179 33.0882 14.8951 32.9598 14.9492 31.2702C14.5437 31.3986 14.0706 31.6825 13.807 32.1082Z" fill="white"/>
<path d="M14.3409 33.8452C14.3072 33.683 14.1517 33.5816 13.9963 33.6154C13.8341 33.6492 13.7327 33.8046 13.7665 33.96C13.8003 34.1155 13.9557 34.2236 14.1112 34.1898C14.2666 34.156 14.368 34.0006 14.3409 33.8452Z" fill="white"/>
<path d="M14.2396 34.7304C14.2058 34.5682 14.0504 34.4668 13.8949 34.5006C13.7395 34.5344 13.6313 34.6899 13.6651 34.8453C13.6989 35.0007 13.8544 35.1089 14.0098 35.0751C14.1652 35.048 14.2666 34.8926 14.2396 34.7304Z" fill="white"/>
<path d="M12.5365 30.3917C11.9418 30.8918 11.7728 31.5203 11.8404 32.0678H11.7728C11.6512 32.0948 11.5701 32.2164 11.5971 32.3381C11.6242 32.4597 11.7391 32.5408 11.8675 32.5138C11.8945 32.507 11.9215 32.5003 11.9418 32.48C11.9959 32.6422 12.0702 32.7841 12.1581 32.9125C12.104 32.7233 12.0634 32.5206 12.0432 32.3111V32.2435C12.0432 32.2367 12.0364 32.2367 12.0364 32.23C12.0026 31.7636 12.077 31.277 12.3338 30.9324C12.2527 31.4392 12.131 32.4327 12.2459 33.0409C12.4149 32.3922 13.3543 32.1083 12.5365 30.3917Z" fill="white"/>
<path d="M14.9221 34.2439C14.8951 34.1223 14.7802 34.0412 14.6518 34.0615C14.5301 34.0885 14.449 34.2101 14.4693 34.3318C14.4963 34.4534 14.618 34.5345 14.7396 34.5143C14.868 34.4872 14.9491 34.3656 14.9221 34.2439Z" fill="white"/>
<path d="M13.6583 34.1966C13.638 34.0817 13.5231 34.0073 13.4082 34.0344C13.2933 34.0546 13.219 34.1695 13.246 34.2844C13.2663 34.3993 13.3812 34.4737 13.4961 34.4466C13.611 34.4263 13.6853 34.3115 13.6583 34.1966Z" fill="white"/>
<path d="M10.7793 31.3041C10.7658 31.2095 10.6847 31.1419 10.5901 31.1419C10.2927 30.7432 9.86696 30.3174 9.15735 30.243C9.54257 30.4255 10.1305 30.7837 10.536 31.1486C10.4414 31.1757 10.3738 31.2703 10.3941 31.3717C10.4144 31.4798 10.5157 31.5474 10.6171 31.5339C10.7253 31.5068 10.7996 31.4055 10.7793 31.3041Z" fill="white"/>
<path d="M10.7861 29.9592C10.7591 29.824 10.6307 29.7362 10.4955 29.7632C10.4888 29.7632 10.482 29.77 10.4752 29.77C10.313 29.1414 10.1576 28.6548 9.448 28.1615C9.80618 28.6211 10.2184 29.2834 10.4482 29.7767C10.3401 29.8173 10.2793 29.9322 10.2995 30.0538C10.3266 30.189 10.455 30.2768 10.5901 30.2498C10.7253 30.2228 10.8132 30.0876 10.7861 29.9592Z" fill="white"/>
<path d="M11.5092 32.4259C11.489 32.3178 11.3944 32.2502 11.2862 32.2705C11.2322 32.2773 11.1916 32.311 11.1646 32.3448C10.5361 31.7907 10.0968 31.7839 9.76562 31.7704C9.96837 31.8447 10.6915 32.0475 11.1511 32.3719C11.1308 32.4057 11.124 32.453 11.1308 32.4935C11.1511 32.6016 11.2524 32.6692 11.3538 32.6557C11.4552 32.6354 11.5295 32.5341 11.5092 32.4259Z" fill="white"/>
<path d="M12.0432 33.2166C12.0094 33.0612 11.8674 32.9666 11.712 32.9936C11.5633 33.0274 11.462 33.1693 11.489 33.3248C11.5228 33.4802 11.6715 33.5748 11.8201 33.5478C11.9756 33.514 12.0702 33.3653 12.0432 33.2166Z" fill="white"/>
<path d="M12.4486 33.6965C12.4284 33.5884 12.327 33.5208 12.2256 33.5411C12.158 33.5546 12.104 33.5951 12.0837 33.656C11.5363 33.5816 10.9348 33.6627 10.4347 33.9398C11.0024 33.8114 11.5903 33.6897 12.0702 33.6897C12.0634 33.7168 12.0634 33.7438 12.0634 33.7708C12.0837 33.879 12.1851 33.9466 12.2864 33.933C12.3946 33.906 12.4689 33.8046 12.4486 33.6965Z" fill="white"/>
<path d="M13.0163 34.0277C12.9892 33.8925 12.8541 33.8046 12.7189 33.8317C12.5837 33.8587 12.4959 33.9939 12.5229 34.129H12.5026C12.0971 34.1155 11.4213 34.2236 11.0023 34.7102C11.4281 34.4602 12.1039 34.2034 12.5162 34.1425H12.5297C12.5635 34.271 12.6919 34.3521 12.827 34.325C12.9554 34.298 13.0433 34.1628 13.0163 34.0277Z" fill="white"/>
<path d="M11.9756 29.04C11.0565 29.4388 10.6375 30.5809 11.1038 31.4189C11.5363 30.8107 12.3406 30.6823 11.9756 29.04ZM11.1106 31.3784C11.0024 30.9188 11.2863 29.6888 11.6985 29.4388C11.4282 30.0335 11.3201 30.5877 11.1106 31.3784Z" fill="white"/>
<path d="M11.0497 27.3302C10.7591 27.4518 10.3401 27.8573 10.1576 28.3912C10.2319 28.4723 10.2928 28.5602 10.3468 28.6548C10.4482 28.2628 10.6712 27.8033 10.8942 27.6073C10.7456 27.8573 10.5428 28.4115 10.4414 28.844C10.5428 29.0873 10.5901 29.3374 10.5834 29.5807C11.1375 29.0671 11.3335 28.1817 11.0497 27.3302Z" fill="white"/>
<path d="M16.5779 35.3049C17.7403 36.1767 18.3959 37.3865 18.5648 38.3664C18.4161 38.2583 18.1458 38.1501 17.9769 38.1772C17.8282 37.1499 17.2875 36.3187 16.4427 35.6361C16.4833 35.4874 16.5306 35.3793 16.5779 35.3049Z" fill="white"/>
<path d="M15.4899 35.0075C15.571 34.9061 15.7602 34.8994 15.8683 34.9669C15.794 35.1021 15.7872 35.3386 15.8278 35.4535C15.5575 35.4062 15.5101 35.1427 15.4899 35.0075Z" fill="white"/>
<path d="M15.9156 34.994C16.0778 34.9805 16.1387 34.9061 16.1657 34.825C16.1927 34.7507 16.2806 34.6966 16.2806 34.8183C16.2806 34.9332 16.2806 34.9872 16.213 35.021C16.1522 35.0481 16.0373 35.0616 15.9156 34.994Z" fill="white"/>
<path d="M16.0034 35.2441C15.9899 35.332 15.9561 35.4131 15.9021 35.4874C15.8615 35.5483 15.8007 35.582 15.7601 35.6226C15.8345 35.6767 15.9358 35.7105 16.0237 35.7037C16.1116 35.6969 16.1116 35.6834 16.1116 35.6564C16.0913 35.5145 16.0372 35.305 16.0034 35.2441Z" fill="white"/>
<path d="M239.734 32.3922C236.848 32.0745 233.848 30.4323 231.3 29.128C229.002 27.9588 225.988 27.4384 223.406 28.0061C221.223 28.4859 219.649 29.2293 217.682 30.2093C213.505 32.2908 210.066 33.2302 205.382 31.5001C202.895 30.5742 201.064 29.4118 197.698 28.3102C194.562 27.2897 191.616 27.9047 188.547 29.2091C187.081 29.8308 185.736 30.581 184.351 31.3041V34.0952C185.641 33.4127 186.344 33.1018 188.088 32.1962C190.399 31.0067 193.967 29.9457 196.569 30.5066C199.205 31.0676 201.564 32.5003 204.024 33.5073C208.464 35.3185 212.438 35.305 216.689 33.3045C218.601 32.4057 220.831 31.3109 222.899 30.7634C225.4 30.1079 228.245 30.2498 230.536 31.392C232.895 32.5611 235.679 34.1561 238.288 34.6764C240.214 35.0684 242.985 34.9738 245.06 34.3723V31.8515C243.242 32.3584 241.674 32.6017 239.734 32.3922ZM196.671 35.0414C199.3 35.6023 201.679 37.1297 204.159 38.0893C207.964 39.5626 212.972 39.4883 217.087 37.6839C219.027 36.8323 220.926 35.8389 223.001 35.2982C225.495 34.6494 228.34 34.7846 230.638 35.9267C232.989 37.1026 235.774 38.6908 238.382 39.218C240.275 39.5897 242.985 39.5086 245.046 38.9341V36.4268C243.309 36.9269 241.904 37.2108 240.011 37.008C237.119 36.6972 234.003 35.0414 231.435 33.7438C229.144 32.5746 226.001 32.1354 223.427 32.703C221.237 33.1829 219.737 33.7438 217.783 34.7575C214.256 36.5755 209.734 37.596 205.49 36.0416C202.997 35.136 201.057 33.6424 197.637 32.703C195.035 31.9934 192.028 32.1962 188.656 33.7506C187.169 34.4332 185.777 35.1563 184.351 35.9064V38.6976C185.716 37.9745 186.398 37.6636 188.196 36.7445C190.501 35.5415 194.069 34.4805 196.671 35.0414ZM245.046 27.3235C243.235 27.8574 241.789 28.1683 239.829 27.9655C236.929 27.6479 234.672 26.2354 232.118 24.9379C229.827 23.7687 225.819 23.0929 223.237 23.6606C221.054 24.1404 219.574 24.7351 217.594 25.7083C213.431 27.7898 210.167 29.1144 205.409 27.1883C202.949 26.1949 200.868 24.5864 197.448 23.6606C194.846 22.9509 190.845 23.5727 188.46 24.7081C187.047 25.3839 185.695 26.053 184.337 26.7693V29.5605C185.587 28.9049 186.283 28.5873 188 27.6952C190.318 26.499 193.886 25.4447 196.482 26.0057C199.11 26.5666 201.679 28.1818 204.139 29.182C208.579 31 211.897 31.054 216.134 29.0469C218.054 28.148 220.73 26.8031 222.805 26.2557C225.305 25.6002 228.306 25.7286 230.611 26.8775C232.962 28.0534 235.814 29.6348 238.423 30.1552C240.376 30.5539 242.965 30.4593 245.039 29.8376V27.3235H245.046Z" fill="#057DC1"/>
<path d="M187.845 46.5303H188.851V40.7453H187.845V43.8541C187.845 44.2798 187.865 44.6718 187.919 45.0367C187.73 44.5299 187.507 44.0703 187.27 43.6445L185.608 40.7453H184.445V46.5303H185.452V43.3337C185.452 42.9011 185.439 42.5159 185.385 42.1577C185.628 42.7795 185.851 43.2458 186.033 43.5432L187.845 46.5303ZM192.386 40.7453H191.028L189.284 46.5303H190.318L190.683 45.2665H192.677L193.035 46.5303H194.123L192.386 40.7453ZM190.953 44.3406L191.683 41.7522L192.42 44.3406H190.953ZM196.204 46.5303V41.7049H197.725V40.7453H193.589V41.7049H195.11V46.5303H196.204ZM198.272 40.7453H199.374V46.5303H198.272V40.7453ZM202.517 40.6777C201.03 40.6777 200.117 41.7658 200.117 43.6445C200.117 45.5301 201.037 46.6182 202.517 46.6182C203.997 46.6182 204.916 45.5233 204.916 43.6445C204.916 41.7658 204.003 40.6777 202.517 40.6777ZM202.517 45.645C201.672 45.645 201.226 44.9692 201.226 43.6445C201.226 42.3267 201.672 41.6374 202.517 41.6374C203.361 41.6374 203.814 42.3267 203.814 43.6445C203.814 44.9692 203.361 45.645 202.517 45.645ZM210.018 40.7453H209.004V43.8541C209.004 44.2798 209.031 44.6718 209.086 45.0367C208.896 44.5299 208.667 44.0703 208.43 43.6445L206.761 40.7453H205.612V46.5303H206.619V43.3337C206.619 42.9011 206.605 42.5159 206.544 42.1577C206.795 42.7795 207.018 43.2458 207.2 43.5432L209.004 46.5303H210.018L210.018 40.7453ZM210.451 46.5303H211.485L211.85 45.2665H213.85L214.202 46.5303H215.296L213.553 40.7453H212.194L210.451 46.5303ZM213.587 44.3406H212.12L212.85 41.7522L213.587 44.3406ZM215.736 40.7453V46.5303H219.284V45.5368H216.837V40.7453H215.736ZM223.237 41.6847H225.792V40.7453H222.142V46.5303H223.237V43.9825H225.17V43.0431H223.237V41.6847ZM226.305 40.7453V46.5303H229.86V45.5368H227.414V40.7453H226.305ZM229.995 43.6445C229.995 45.5301 230.915 46.6182 232.395 46.6182C233.875 46.6182 234.794 45.5233 234.794 43.6445C234.794 41.7658 233.875 40.6777 232.395 40.6777C230.908 40.6777 229.995 41.7658 229.995 43.6445ZM233.692 43.6445C233.692 44.9692 233.233 45.645 232.395 45.645C231.543 45.645 231.097 44.9692 231.097 43.6445C231.097 42.3267 231.543 41.6374 232.395 41.6374C233.239 41.6374 233.692 42.3267 233.692 43.6445ZM235.193 43.6445C235.193 45.5301 236.118 46.6182 237.598 46.6182C239.072 46.6182 239.998 45.5233 239.998 43.6445C239.998 41.7658 239.079 40.6777 237.598 40.6777C236.112 40.6777 235.193 41.7658 235.193 43.6445ZM238.896 43.6445C238.896 44.9692 238.436 45.645 237.598 45.645C236.747 45.645 236.294 44.9692 236.294 43.6445C236.294 42.3267 236.747 41.6374 237.598 41.6374C238.436 41.6374 238.896 42.3267 238.896 43.6445ZM245.174 43.6175C245.174 41.7252 244.249 40.7453 242.464 40.7453H240.694V46.5303H242.424C244.255 46.5303 245.174 45.5504 245.174 43.6175ZM241.795 45.5774V41.7117H242.37C243.539 41.7117 244.073 42.3064 244.073 43.6175C244.073 44.9962 243.579 45.5774 242.383 45.5774H241.795ZM184.465 47.8482H185.297V52.214H184.465V47.8482ZM188.676 50.2C188.676 50.5176 188.696 50.815 188.737 51.0786C188.595 50.7001 188.426 50.3555 188.243 50.0378L186.993 47.8482H186.114V52.214H186.878V49.8013C186.878 49.4836 186.865 49.1795 186.824 48.9227C187.013 49.389 187.175 49.7337 187.317 49.9702L188.676 52.2207H189.439V47.8549H188.676V50.2ZM191.953 49.7067C191.264 49.4093 190.838 49.3417 190.838 48.9362C190.838 48.6524 191.055 48.4699 191.413 48.4699C191.785 48.4699 192.014 48.6389 192.197 49.0241L192.94 48.7605C192.71 48.1252 192.21 47.8008 191.467 47.8008C190.602 47.8008 190.048 48.301 190.048 48.9903C190.048 49.4025 190.23 49.7405 190.555 49.95C190.845 50.1324 191.203 50.2473 191.595 50.4028C192.048 50.5717 192.244 50.7204 192.244 51.011C192.244 51.3421 191.981 51.5584 191.534 51.5584C191.143 51.5584 190.872 51.3557 190.649 50.8961L189.906 51.2205C190.19 51.9098 190.751 52.268 191.555 52.268C192.487 52.268 193.035 51.7612 193.035 50.9704C193.035 50.2946 192.677 50.0108 191.953 49.7067ZM196.049 50.6393C196.049 51.2813 195.833 51.5584 195.191 51.5584C194.582 51.5584 194.366 51.2611 194.366 50.6393V47.8482H193.542V50.6123C193.542 51.7341 194.076 52.2815 195.191 52.2815C196.258 52.2815 196.846 51.7341 196.846 50.7407V47.8482H196.049V50.6393ZM200.746 49.1525C200.746 48.2672 200.205 47.8482 199.104 47.8482H197.63V52.214H198.435V50.4433H199.185L200.03 52.214H200.908L199.948 50.2541C200.455 50.1122 200.746 49.7269 200.746 49.1525ZM199.144 49.7472H198.435V48.5375H199.144C199.665 48.5375 199.915 48.7132 199.915 49.139C199.915 49.5647 199.671 49.7472 199.144 49.7472ZM202.49 47.8482L201.178 52.214H201.956L202.226 51.2611H203.74L204.003 52.214H204.821L203.51 47.8482H202.49ZM202.429 50.565L202.976 48.6118L203.537 50.565H202.429ZM207.774 50.2C207.774 50.5176 207.795 50.815 207.835 51.0786C207.693 50.7001 207.524 50.3555 207.342 50.0378L206.085 47.8482H205.213V52.214H205.977V49.8013C205.977 49.4836 205.963 49.1795 205.923 48.9227C206.105 49.389 206.274 49.7337 206.416 49.9702L207.781 52.2207H208.538V47.8549H207.774V50.2ZM210.843 51.5584C210.221 51.5584 209.944 51.0651 209.944 50.0581C209.944 49.0106 210.234 48.4767 210.829 48.4767C211.221 48.4767 211.485 48.6997 211.593 49.1187L212.343 48.9362C212.181 48.1996 211.66 47.7873 210.877 47.7873C209.761 47.7873 209.113 48.5916 209.113 50.0513C209.113 51.5246 209.701 52.2815 210.829 52.2815C211.654 52.2815 212.221 51.8693 212.438 51.1191L211.681 50.9096C211.566 51.3151 211.241 51.5584 210.843 51.5584ZM213.708 50.2879H215.188V49.5918H213.708V48.5578H215.729V47.8482H212.897V52.214H215.817V51.4706H213.708V50.2879ZM219.797 47.8482H218.243V52.214H219.067V50.4501H219.878C220.825 50.4501 221.318 49.9973 221.318 49.1457C221.325 48.2739 220.818 47.8482 219.797 47.8482ZM219.689 49.7607H219.074V48.5307H219.689C220.243 48.5307 220.507 48.6727 220.507 49.1457C220.507 49.612 220.243 49.7607 219.689 49.7607ZM224.92 49.1525C224.92 48.2672 224.379 47.8482 223.285 47.8482H221.811V52.214H222.615V50.4433H223.372L224.204 52.214H225.089L224.129 50.2541C224.643 50.1122 224.92 49.7269 224.92 49.1525ZM223.332 49.7472H222.615V48.5375H223.332C223.846 48.5375 224.102 48.7132 224.102 49.139C224.102 49.5647 223.846 49.7472 223.332 49.7472ZM227.15 47.7941C226.028 47.7941 225.339 48.6186 225.339 50.0446C225.339 51.457 226.035 52.2883 227.15 52.2883C228.265 52.2883 228.961 51.4638 228.961 50.0446C228.961 48.6186 228.265 47.7941 227.15 47.7941ZM227.15 51.5449C226.515 51.5449 226.17 51.0313 226.17 50.0378C226.17 49.0308 226.515 48.524 227.15 48.524C227.786 48.524 228.13 49.0376 228.13 50.0378C228.13 51.038 227.786 51.5449 227.15 51.5449ZM231.131 50.6866H231.949C231.874 51.234 231.543 51.5584 231.084 51.5584C230.502 51.5584 230.151 51.0313 230.151 50.0311C230.151 49.0038 230.489 48.4767 231.104 48.4767C231.482 48.4767 231.746 48.6794 231.915 49.0849L232.658 48.9024C232.442 48.1861 231.901 47.7941 231.124 47.7941C229.995 47.7941 229.313 48.5916 229.313 49.9837C229.313 51.4435 229.948 52.2815 230.975 52.2815C231.482 52.2815 231.847 52.1193 232.124 51.7544L232.172 52.214H232.753V49.9973H231.131L231.131 50.6866ZM236.558 49.1525C236.558 48.2672 236.017 47.8482 234.922 47.8482H233.442V52.214H234.246V50.4433H234.997L235.835 52.214H236.72L235.753 50.2541C236.274 50.1122 236.558 49.7269 236.558 49.1525ZM234.97 49.7472H234.253V48.5375H234.97C235.49 48.5375 235.733 48.7132 235.733 49.139C235.733 49.5647 235.49 49.7472 234.97 49.7472ZM238.308 47.8482L236.99 52.214H237.767L238.051 51.2611H239.552L239.822 52.214H240.64L239.322 47.8482H238.308ZM238.247 50.565L238.808 48.6118L239.362 50.565H238.247ZM243.356 49.9837C243.262 50.3081 243.16 50.6663 243.073 51.0583C243.025 50.7069 242.944 50.3352 242.829 49.9702L242.201 47.8549H241.032V52.2207H241.741V48.5578C241.809 48.8484 241.897 49.166 241.998 49.5242L242.768 52.2207H243.363L244.161 49.5242C244.262 49.1863 244.35 48.8686 244.424 48.5578V52.2207H245.127V47.8549H243.998L243.356 49.9837ZM232.53 24.1201L233.753 24.7553C235.767 25.8096 237.666 26.8098 239.923 27.0464C241.809 27.2559 243.147 26.9315 245.046 26.3638V14.3544L235.97 7.27184L229.063 12.5703V22.9577C230.387 23.2415 231.604 23.6537 232.53 24.1201ZM233.645 15.9156H238.112V21.2749H233.645V15.9156ZM203.179 25.0865C204.057 25.5528 204.889 25.9853 205.754 26.3368C210.133 28.1074 213.12 26.918 217.189 24.8905C219.101 23.9376 220.669 23.2821 223.041 22.7684C224.663 22.4102 226.637 22.4981 228.482 22.836V10.6307L214.864 0L207.68 5.53498V3.7846H204.287V8.20447L201.219 10.5766V24.1133C201.915 24.4309 202.564 24.7689 203.179 25.0865ZM211.37 12.6176H218.459V21.2749H211.37V12.6176ZM197.684 22.7819C198.786 23.0793 199.746 23.451 200.631 23.8362V12.6784L193.562 7.13667L184.344 14.2193V25.7353C185.547 25.1135 186.77 24.5053 188.074 23.8768C190.514 22.7144 194.778 21.9845 197.684 22.7819ZM191.183 15.9156H195.643V21.2749H191.183V15.9156ZM248.256 47.8482C249.216 47.8617 250.013 48.6456 250 49.6391C249.986 50.6055 249.196 51.3962 248.216 51.3827C247.242 51.3692 246.458 50.565 246.472 49.5985C246.486 48.6051 247.29 47.8346 248.256 47.8482ZM248.222 51.011C248.966 51.0178 249.628 50.3757 249.635 49.6323C249.642 48.8686 249 48.2199 248.256 48.2131C247.52 48.2063 246.85 48.8416 246.844 49.5985C246.837 50.3487 247.479 51.0042 248.222 51.011ZM247.952 50.5582L247.479 50.5514L247.499 48.6591L248.378 48.6659C248.486 48.6659 249.094 48.6727 249.087 49.2403C249.081 49.5985 248.824 49.6999 248.729 49.7405L249.074 50.565L248.581 50.5582L248.29 49.8351L247.959 49.8283L247.952 50.5582ZM247.966 49.4836H248.249C248.385 49.4836 248.608 49.4566 248.614 49.2201C248.614 49.1119 248.54 49.0038 248.29 49.0038L247.972 48.9971L247.966 49.4836Z" fill="#211E1F"/>
</g>
<defs>
<clipPath id="clip0_42_2">
<rect width="250" height="53" fill="white"/>
</clipPath>
</defs>
</svg>
