<svg id="Layer_1" data-name="Layer 1" xmlns="http://www.w3.org/2000/svg" width="110.0828" height="110.0899" viewBox="0 0 110.0828 110.0899"><defs><style>.cls-1{fill:#897053;}.cls-2{fill:#fff;}</style></defs><path class="cls-1" d="M55.0415,110.0449a55,55,0,1,1,55-55A55.0625,55.0625,0,0,1,55.0415,110.0449Zm0-109.0764a54.0764,54.0764,0,1,0,54.0761,54.0762A54.1376,54.1376,0,0,0,55.0415.9685Z"/><path class="cls-2" d="M13.78,33.8523a5.3368,5.3368,0,0,1,1.3443.9561,4.45,4.45,0,0,1-.4115,1.88c-.6644,1.557-1.9894,2.8028-4.1505,1.88A3.1,3.1,0,0,1,9.01,34.2239a3.9316,3.9316,0,0,1,1.1-1.5665,5.4841,5.4841,0,0,1,1.4184.4391l-.086.3158a1.6692,1.6692,0,0,0-2.128.9711c-.4986,1.1677.183,2.301,1.64,2.9226.2733.1169,2.6417,1.1282,3.4582-.7849a1.9444,1.9444,0,0,0-.8093-2.3915Z"/><path class="cls-2" d="M13.27,32.576a3.0864,3.0864,0,0,1-1.04-4.4453,2.8679,2.8679,0,0,1,4.2007-1.1065,3.0889,3.0889,0,0,1,1.0353,4.4532A2.8652,2.8652,0,0,1,13.27,32.576Zm3.9574-1.363c.6635-1.072-.087-2.2038-1.3045-2.9567-1.2636-.7826-2.7192-1.0481-3.454.1385-.6588,1.0645.092,2.1965,1.3093,2.95C15.0417,32.1265,16.4979,32.3924,17.2276,31.213Z"/><path class="cls-2" d="M19.24,28.0145l.15-.2276c.22-.3341-.0315-.5531-.9279-1.3335l-3.0891-2.691a3.02,3.02,0,0,1,.2424-.3739l5.915-.197L19.7044,21.6c-1.1065-.9641-1.2014-.9507-1.5555-.6267l-.1918.1793-.1766-.1539,1.3248-1.5207.1765.1539-.1505.2273c-.2194.3342.0319.5531.9281,1.3336l3.0891,2.6905a2.5229,2.5229,0,0,1-.2532.4l-5.8564.2125,1.8058,1.573c1.0659.9285,1.1606.9157,1.5286.6033l.1916-.1794.1768.1537-1.3248,1.521Z"/><path class="cls-2" d="M28.2285,19.0427a7.0566,7.0566,0,0,1-1.4477,1.8038c-1.4477,1.2168-3.233,1.6113-4.6986-.1329-1.4422-1.7163-.6633-3.4766.6536-4.5828a4.02,4.02,0,0,1,1.6459-.9245,5.6921,5.6921,0,0,1,1.1365,1.0443l-.24.2605a1.696,1.696,0,0,0-2.4121-.043c-1.1029.9265-.791,2.1935.1763,3.3446,1.1758,1.4,2.56,1.5772,3.6079.6967a4.3651,4.3651,0,0,0,.4834-.4884l-.5559-.6619c-.4-.4757-.4231-.5031-.8266-.27l-.3785.2353-.1508-.179,1.9649-1.6513.15.1791-.12.1369c-.1928.2322-.143.32.2219.7539.4288.51.4447.4734.6355.3368Z"/><path class="cls-2" d="M29.8521,16.8186c.47.757.5273.8492.92.6792l.1977-.0909.1234.1988-2.0806,1.2931L28.8891,18.7l.17-.1371c.3263-.2769.2691-.3687-.206-1.1334l-1.7351-2.7929c-.48-.7726-.5276-.85-.9283-.6745l-.19.0859-.1234-.1985L28.0791,12.48c.7039-.4372,1.8531-1.0452,2.5993.1563a1.79,1.79,0,0,1-.1665,1.9165A14.313,14.313,0,0,0,33.0148,15.85a.7757.7757,0,0,0,.618-.0974l.1234.1988-.6657.4134a1.5207,1.5207,0,0,1-1.7527-.0561l-.6424-.3855c-.5863-.346-.7773-.62-1.2593-.32l-.245.1522Zm-.8414-1.354.3749-.2333a1.1984,1.1984,0,0,0,.3694-1.8627,1.2076,1.2076,0,0,0-1.7632-.4312,1.6183,1.6183,0,0,0-.3644.3007Z"/><path class="cls-2" d="M33.9456,15.6329l.1858-.1135c.3523-.2478.3635-.2231-.0547-1.15L32.73,11.3811c-.4185-.9277-.4-.8866-.8264-.8031l-.208.0644-.0963-.2134,3.784-1.7064a6.6435,6.6435,0,0,1,.6981,1.2854l-.2771.1744c-.6833-.9463-.9615-.84-1.8234-.4521l-.591.2667.9512,2.11.558-.2522c.7306-.3292.8417-.3895.7357-.7561l-.0884-.3059.2132-.0962.7364,1.6332-.2133.0965-.1594-.2445c-.22-.335-.3435-.28-1.0247.0278l-.5911.2663.9884,2.192a3.9271,3.9271,0,0,0,.8843-.2511c1.2313-.5553,1.0367-1.2278.9232-1.9175l.3215-.0759a6.3715,6.3715,0,0,1,.4062,1.6245l-3.9889,1.7985Z"/><path class="cls-2" d="M40.9554,8.425c-.2536-.4007-.6979-1.2123-1.6313-.9083a.8553.8553,0,0,0-.5771,1.1354c.4294,1.3183,3.1414.34,3.7385,2.1729.396,1.2155-.5377,2.0123-1.5653,2.3469a3.2959,3.2959,0,0,1-1.6183.1483,4.1538,4.1538,0,0,1-.7728-1.5287l.3745-.2164c.2872.4744.96,1.581,2.0562,1.2243a.9182.9182,0,0,0,.59-1.2435c-.4716-1.4469-3.09-.4708-3.6613-2.2264-.3547-1.0874.3027-1.8032,1.4071-2.1633a2.6711,2.6711,0,0,1,1.4475-.1211,8.7251,8.7251,0,0,1,.5211,1.28Z"/><path class="cls-2" d="M46.228,7.1727c-.2085-.4254-.5621-1.2806-1.5229-1.08a.8548.8548,0,0,0-.697,1.0658c.2836,1.3575,3.0858.6794,3.48,2.5656.2615,1.2517-.7532,1.9421-1.8109,2.1637a3.3041,3.3041,0,0,1-1.6251-.0286A4.1636,4.1636,0,0,1,43.45,10.256l.3958-.175c.2341.5033.7829,1.6764,1.9111,1.4407a.9183.9183,0,0,0,.7212-1.1722c-.3113-1.4894-3.02-.8033-3.3979-2.6107-.2342-1.1192.4966-1.76,1.634-1.9974a2.67,2.67,0,0,1,1.452.0366,8.7181,8.7181,0,0,1,.379,1.3285Z"/><path class="cls-2" d="M50.1154,9.7083c.1044.885.1171.9926.5448,1.0057l.2177.0011.0274.2325-2.4322.2872-.0273-.2321.2113-.0523c.4129-.1124.4-.22.2956-1.1048l-.3853-3.2641c-.1055-.8942-.1183-1.0015-.5461-1.0143l-.2177-.0017-.0274-.2325,2.4323-.2875.0276.233-.2115.052c-.4131.1122-.4.22-.2958,1.1051Z"/><path class="cls-2" d="M51.6511,7.9354a3.0857,3.0857,0,0,1,3.2276-3.2276,2.8671,2.8671,0,0,1,3.1555,2.9846A3.0888,3.0888,0,0,1,54.7976,10.92,2.8649,2.8649,0,0,1,51.6511,7.9354Zm3.245,2.6423c1.26-.0017,1.8259-1.2361,1.8238-2.6679-.0022-1.4854-.5441-2.8618-1.94-2.86-1.2515.0014-1.8169,1.2359-1.8147,2.6675C52.9676,9.2029,53.51,10.58,54.8961,10.5777Z"/><path class="cls-2" d="M58.5069,10.584l.2724.0048c.4.0058.45-.3236.6277-1.4985L60.0211,5.04a2.966,2.966,0,0,1,.4456.004L63.8062,9.93l.3629-2.395c.22-1.4511.1581-1.5243-.3056-1.649L63.61,5.82l.035-.2317,1.9941.3022-.0353.2315-.2724-.0049c-.3994-.0058-.45.3236-.6274,1.4985l-.6141,4.0508a2.5291,2.5291,0,0,1-.4737.0009l-3.3211-4.829L59.936,9.2066c-.2118,1.3976-.15,1.4708.311,1.6135l.254.0659-.035.2316-1.9941-.3022Z"/><path class="cls-2" d="M64.7489,11.5383l.2309.0119c.2165-.0018.368-.07.7858-.5939L68.9926,6.84a2.309,2.309,0,0,1,.5484.05l.3907,5.4111c.0281.412.0657.6673.3474.826l.2028.1067-.0664.2247-2.4433-.7224.0664-.2248.3608.05c.18.0251.3164.0088.3521-.112a.9121.9121,0,0,0,.0177-.3137L68.68,10.6915a3.4184,3.4184,0,0,0-.8331-.3594,2.848,2.848,0,0,0-.8449-.1277l-.6148.8417a3.71,3.71,0,0,0-.354.5618c-.0382.1295.0267.1955.1656.265l.4409.2244-.0664.2246-1.8909-.559Zm2.48-1.6889a5.26,5.26,0,0,1,.7233.1575c.1812.0536.4785.16.7126.2574l-.13-2.1979-.0173-.0051Z"/><path class="cls-2" d="M70.83,13.4187l.2093.0606c.421.0929.4066.1259.8132-.8163l1.3089-3.0353c.3457-.8022.3883-.9013.0246-1.1271l-.1876-.11.0923-.215,2.25.97-.0931.2151-.2089-.0608c-.4138-.11-.4564-.01-.8024.7919L72.585,13.92a3.6807,3.6807,0,0,0,.7107.4436c1.1661.5028,1.4168-.0559,1.953-.6391l.2727.1863a6.4866,6.4866,0,0,1-.9387,1.38l-3.8454-1.6577Z"/><path class="cls-2" d="M79.0081,14.3656a3.0863,3.0863,0,0,1,4.4858-.8491,2.8678,2.8678,0,0,1,.9261,4.2443,3.0887,3.0887,0,0,1-4.4933.8439A2.8653,2.8653,0,0,1,79.0081,14.3656Zm1.1928,4.0118c1.0427.7088,2.2055.0072,3.01-1.1771.8348-1.2286,1.1624-2.6722.0083-3.4567-1.0352-.7032-2.198-.0018-3.0029,1.1825C79.3819,16.1548,79.054,17.5978,80.2009,18.3774Z"/><path class="cls-2" d="M83.2261,20.5351l.1732.1173c.36.2459.3713.2325,1.0279-.51l2.1835-2.4687c.6264-.7081.656-.742.3868-1.0763l-.1443-.1636.1551-.1755,3.11,2.75a9.7733,9.7733,0,0,1-.8922,1.1585l-.2667-.1874c.4189-.76.5885-1.0187-.2886-1.794l-.5329-.4716L86.479,19.59l.5264.4654c.5261.4651.661.5849.9648.3361l.2489-.2.1754.1549-1.1989,1.3559-.1757-.155.1934-.2865c.1847-.3175.0158-.4663-.47-.8962l-.5329-.471-.9067,1.0252c-.6386.7218-.6562.742-.38,1.0822l.1371.1577-.1548.1753-1.835-1.6226Z"/><path class="cls-2" d="M86.6818,23.639l.16.1344c.3323.2816.3453.2692,1.0741-.4015l2.4252-2.2313c.696-.64.7292-.6706.4957-1.0308l-.1262-.1772.1717-.1585,2.8106,3.0546a9.7715,9.7715,0,0,1-1.0059,1.06l-.2464-.2141c.495-.7124.6894-.9527-.1029-1.814l-.482-.5237-1.8415,1.6953.4756.5165c.4751.5167.5971.65.9247.4335l.2688-.1732.1584.1721L90.51,25.2069l-.1584-.1721.2215-.265c.2162-.2968.0639-.4624-.3752-.9394l-.4816-.5235-1.007.9265c-.7093.6524-.7292.6706-.49,1.0373l.1205.1712-.1721.1582L86.5094,23.798Z"/><path class="cls-2" d="M91.8682,28.0241c-.7075.5425-.7938.6079-.5859.9823l.11.1879-.1854.1425-1.49-1.9443.1862-.1427.1526.1552c.3078.298.3933.2322,1.1011-.31l2.6093-1.9991c.7147-.5475.8006-.6135.5931-.9875l-.11-.1883.1862-.1422,1.4893,1.9445-.1858.1422-.153-.155c-.3074-.2978-.3932-.2323-1.1007.31Z"/><path class="cls-2" d="M96.1587,33.666a5.3386,5.3386,0,0,1-1.5564.5462,4.4521,4.4521,0,0,1-1.2982-1.4208c-.8879-1.441-1.1408-3.2417.86-4.4742a3.099,3.099,0,0,1,4.4432,1.2386,3.9243,3.9243,0,0,1,.6451,1.8022,5.49,5.49,0,0,1-1.1769.9049l-.2082-.2522a1.67,1.67,0,0,0,.4347-2.2983c-.666-1.0807-1.9843-1.1781-3.3333-.3471-.2529.1561-2.4451,1.5064-1.3541,3.2775a1.9449,1.9449,0,0,0,2.42.7187Z"/><path class="cls-2" d="M95.04,35.0565l.1151.1845c.2518.35.2273.3612,1.15-.0669l2.9729-1.3786c.9229-.4281.8818-.4093.7938-.8345l-.0664-.2076.2125-.0987,1.7459,3.7652a6.6366,6.6366,0,0,1-1.2772.7118l-.1775-.2752c.9387-.6931.83-.97.4325-1.8282l-.2731-.5881L98.57,35.414l.2576.5553c.337.727.398.8376.7638.7275l.3052-.0918.0982.2123-1.6254.7535-.0981-.2119.2421-.1622c.333-.2237.2763-.3467-.0383-1.0247l-.2728-.5877-2.1806,1.0113a3.916,3.916,0,0,0,.26.8816c.5682,1.2253,1.239,1.0238,1.9273.9025l.0794.321a6.3793,6.3793,0,0,1-1.62.4233l-1.8408-3.9694Z"/><path class="cls-2" d="M5.3119,49.4912,5.324,49.7c.0227.4349.0408.4361,1.0286.5074l3.2866.2374c.943.068.9879.0713,1.09-.3456l.0424-.2136.2335.0168-.2988,4.14a9.7794,9.7794,0,0,1-1.4619-.0062L9.2321,53.71c.8578-.1276,1.1662-.1505,1.2507-1.3178l.051-.71-2.4965-.18-.0505.7c-.05.7-.0635.88.318.9707l.31.0767-.0168.2334-1.805-.13L6.81,53.12l.3445-.02c.3644-.0458.3805-.27.4272-.917l.0512-.7095-1.365-.0985c-.9608-.0694-.9879-.0714-1.0907.3545l-.0418.2046L4.902,51.917l.1765-2.4427Z"/><path class="cls-2" d="M7.5524,54.9336A3.0858,3.0858,0,0,1,10.97,57.96,2.8674,2.8674,0,0,1,8.1816,61.29a3.0884,3.0884,0,0,1-3.4179-3.035A2.8646,2.8646,0,0,1,7.5524,54.9336Zm-2.4411,3.399C5.19,59.5907,6.4558,60.08,7.8845,59.9915c1.4827-.092,2.8241-.7165,2.7375-2.11-.0775-1.2491-1.3437-1.7387-2.7725-1.65C6.3669,56.3241,5.0254,56.9486,5.1113,58.3326Z"/><path class="cls-2" d="M6.997,64.3759c-.8728.1807-.9787.2027-.9545.63l.0173.2168-.2293.0477-.4968-2.3982.2293-.0476.07.2063c.1475.4016.2532.38,1.135.197l3.2181-.6667c.89-.1848.9786-.2028.9527-.639l-.0155-.2082.2292-.0472.5261,2.5392c.1679.8111.3429,2.0988-1.0415,2.3856a1.79,1.79,0,0,1-1.7413-.8161,14.3361,14.3361,0,0,0-2.08,1.9021.7745.7745,0,0,0-.1211.6133l-.2292.0476-.159-.767a1.5215,1.5215,0,0,1,.6563-1.6257l.583-.47c.527-.4308.85-.5163.7344-1.0716l-.0584-.2821Zm1.5606-.3233.0895.4319a1.1978,1.1978,0,0,0,1.6208.9882,1.2071,1.2071,0,0,0,1.012-1.506,1.6346,1.6346,0,0,0-.1565-.4459Z"/><path class="cls-2" d="M9.6962,73.5039c-.83.3254-.93.3651-.8347.7818l.0536.2111-.2179.0855-.8939-2.28.218-.0852.1041.1913c.213.3709.3137.3315,1.1435.0061l3.06-1.2c.8383-.3287.9389-.368.8431-.7851l-.0537-.2111.2179-.0855.8941,2.28-.2181.0855-.104-.1916c-.2132-.3709-.3137-.3312-1.1437-.0061Z"/><path class="cls-2" d="M9.4161,75.8541l.1589.2212c.2343.3243.5282.1674,1.5767-.3922l3.614-1.9288a3.06,3.06,0,0,1,.2634.3593l-1.9214,5.5977,2.1366-1.14c1.2947-.6909,1.3165-.7843,1.1394-1.2306l-.099-.2432.2065-.11.95,1.779-.2065.11-.159-.2211c-.2341-.3244-.5282-.1674-1.5766.3922l-3.6141,1.9287a2.5194,2.5194,0,0,1-.2839-.3791l1.8864-5.5483-2.1128,1.1278c-1.2471.6657-1.2687.7588-1.1076,1.2137l.099.2429-.2064.11-.95-1.7795Z"/><path class="cls-2" d="M18.5549,80.8428l-.2117-.2916c-.5982-.8237-.8459-.7659-1.7708-.3838l-.19-.2627c.1165-.0844,1.141-.7281,1.3225-.8154l2.9431,4.0528c-.1391.1454-1.0683.92-1.1848,1.0051l-.1907-.2626c.65-.7609.7809-.9788.1828-1.8025l-.2116-.2915-3.477,2.5248c-.7436.54-.7726.561-.5015,1.0878l.1052.1908-.1894.1378-1.63-2.2452.1895-.1374.149.1591c.4169.4207.4461.3994,1.1895-.14Z"/><path class="cls-2" d="M16.8338,87.455l.1667.14c.3472.2555.3274.2735,1.074-.4181l2.4049-2.2286c.7467-.6917.7137-.661.4984-1.0391l-.127-.1768.1718-.1591,2.8223,3.0458a6.6475,6.6475,0,0,1-.9969,1.0712l-.2535-.2075c.68-.9492.4913-1.1794-.1517-1.8732l-.4407-.4759-1.698,1.5734.4163.45c.5448.5877.6372.6743.9514.4567l.262-.1811.1591.1718-1.3148,1.2183-.1592-.1721.1807-.2287c.2479-.3157.1561-.4149-.3519-.9633l-.4409-.4755-1.7641,1.6347a3.9069,3.9069,0,0,0,.5192.7591c.9184.9911,1.4945.5921,2.1124.2652l.1741.2807a6.3706,6.3706,0,0,1-1.4111.9023l-2.9753-3.211Z"/><path class="cls-2" d="M23.0666,92.1431c-.5733.683-.6427.766-.3589,1.0864l.1482.16-.15.1793-1.8768-1.5749.15-.1793.1829.1184c.365.2237.4344.1407,1.0133-.5492l2.1133-2.5186c.5847-.6967.6426-.766.352-1.0922l-.1414-.1537L24.65,87.44l1.9872,1.6673c.6349.5325,1.5706,1.4352.6616,2.5186a1.79,1.79,0,0,1-1.8733.4388,14.3369,14.3369,0,0,0-.4533,2.7824.7764.7764,0,0,0,.2852.5571l-.1505.1793-.6-.5037a1.5214,1.5214,0,0,1-.4925-1.6831l.1661-.7306c.1465-.6649.3469-.9319-.0878-1.2967l-.2208-.1851Zm1.0247-1.2213.3382.2836a1.3434,1.3434,0,0,0,1.7459-2.0388,1.6291,1.6291,0,0,0-.3992-.2526Z"/><path class="cls-2" d="M25.9452,95.913l.2484.1122c.365.1638.5412-.119,1.17-1.1282l2.1674-3.478a3.0563,3.0563,0,0,1,.4079.18l1.1334,5.811,1.2814-2.0562c.7764-1.2462.7486-1.3378.372-1.6362l-.2073-.1609.1237-.1988,1.7124,1.0669-.1238.1988-.2484-.1122c-.3649-.1638-.5412.119-1.17,1.1281l-2.1673,3.4781a2.5483,2.5483,0,0,1-.4357-.1865L29.07,93.18l-1.2671,2.0331c-.7479,1.2-.72,1.2919-.353,1.6055l.2072.1612-.1237.1985-1.7123-1.0669Z"/><path class="cls-2" d="M32.0267,99.627l.2279.0422c.2148.0264.3737-.0213.8563-.487l3.734-3.6628a2.2936,2.2936,0,0,1,.5376.12l-.3153,5.4166c-.0255.4124-.0217.67.2372.8637l.1874.1324-.0949.214-2.3292-1.0337.0948-.2139.3513.0966c.1755.0484.3126.05.3638-.0649a.9284.9284,0,0,0,.0585-.3092l.0988-1.4439a3.4363,3.4363,0,0,0-.7793-.464,2.8284,2.8284,0,0,0-.8211-.2363l-.7191.7548a3.6908,3.6908,0,0,0-.4239.5112c-.0549.1234.0009.1974.13.2843l.4078.28-.0948.2139-1.8026-.8Zm2.6793-1.3526a5.4487,5.4487,0,0,1,.6968.25c.1729.0769.4536.2212.6731.3482l.1569-2.1961-.0164-.0076Z"/><path class="cls-2" d="M41.1237,97.551l-.3436-.1075c-.9709-.3038-1.1353-.11-1.649.7479l-.3094-.0967c.0431-.1374.4808-1.2645.5742-1.4428l4.7769,1.4952c-.0249.2-.308,1.3749-.3509,1.5124l-.3094-.0967c.0671-.998.0426-1.2509-.9283-1.5547l-.3436-.1075-1.2827,4.0983c-.2743.876-.285.9106.2465,1.1711l.1982.0906-.07.2233-2.6462-.8284.07-.2233.2143.0389c.5852.0888.596.0545.87-.8218Z"/><path class="cls-2" d="M45.7372,103.153c-.1792.8735-.2008.9792.2011,1.1261l.2064.07-.0471.2294-2.4-.4921.0471-.23.2172.017c.4273.0231.449-.0826.6281-.9561l.6606-3.22c.181-.8825.2026-.9882-.1993-1.135l-.2064-.07.0471-.2291,2.4.4921-.0469.23-.2172-.017c-.4273-.0234-.449.0823-.6283.9557Z"/><path class="cls-2" d="M47.8166,102.0634a3.0871,3.0871,0,0,1,3.4925-2.9419,2.8683,2.8683,0,0,1,2.89,3.2439,3.0894,3.0894,0,0,1-3.5013,2.9412A2.8655,2.8655,0,0,1,47.8166,102.0634Zm3.0088,2.9106c1.2565.1057,1.9254-1.0763,2.0455-2.5032.1247-1.4811-.2983-2.8993-1.6894-3.0166-1.2474-.105-1.9163,1.077-2.0365,2.5039C49.02,103.4391,49.4434,104.8574,50.8254,104.974Z"/><path class="cls-2" d="M55.4224,105.22l.267-.0548c.3919-.0812.3688-.4139.2861-1.6l-.2846-4.0888a3.0379,3.0379,0,0,1,.4358-.0935l4.3266,4.042-.1681-2.4173c-.1021-1.4648-.1782-1.5226-.6584-1.5435l-.2623-.0087-.0166-.2338,2.0132-.14.0162.2334L61.11,99.37c-.3915.0816-.3684.4139-.2858,1.6l.2847,4.0885a2.5473,2.5473,0,0,1-.4622.1047l-4.2959-3.99.1663,2.39c.0981,1.4107.1746,1.4688.6559,1.5074l.2623.009.0162.2335-2.0128.14Z"/><path class="cls-2" d="M62.3085,104.6911l.2093-.0985c.19-.1039.2915-.2356.412-.8951l.8973-5.1532a2.3075,2.3075,0,0,1,.5073-.2158l2.9022,4.5842c.22.35.3734.5571.6967.5636l.2294-.0018.0477.2295-2.4953.5184-.0476-.2294.342-.126c.1707-.0631.2832-.1417.2576-.2651a.922.922,0,0,0-.1331-.2851l-.7613-1.2306a3.416,3.416,0,0,0-.9038.0775,2.81,2.81,0,0,0-.8049.2869l-.1443,1.0322a3.7309,3.7309,0,0,0-.0462.6628c.0274.1324.1162.16.2713.1551l.4947-.0108.0476.23-1.931.4012Zm1.3876-2.6612a5.3927,5.3927,0,0,1,.7119-.2031c.1854-.0386.4975-.0852.75-.11L64.0046,99.841l-.0177.0039Z"/><path class="cls-2" d="M69.165,103.1444l.1959-.0953c.3749-.2125.3864-.1786.0567-1.1509l-1.0615-3.13c-.28-.8273-.315-.93-.7364-.8533l-.2132.0437-.075-.2216,2.32-.7869.075.2219-.1959.0949c-.3806.1956-.346.298-.0653,1.1253l1.3389,3.9493a3.6838,3.6838,0,0,0,.8251-.1469c1.2025-.4077,1.0146-.99,1.0218-1.7823l.3272-.0444a6.4982,6.4982,0,0,1,.228,1.6535L69.24,103.3659Z"/><path class="cls-2" d="M77.3283,99.94l.1764-.1277c.3316-.2749.3489-.2435-.1461-1.1426l-1.5929-2.8943c-.421-.7649-.473-.86-.8742-.7108l-.2024.0805-.1129-.2049,2.1452-1.1809.113.2049-.1765.1281c-.34.2591-.2879.3536.1332,1.1188l2.01,3.6516a3.6878,3.6878,0,0,0,.7865-.289c1.112-.6123.8248-1.1527.6931-1.9331l.3142-.101a6.5012,6.5012,0,0,1,.5142,1.5871l-3.6675,2.0186Z"/><path class="cls-2" d="M82.2141,97.1617l.1606-.1475c.2976-.3118.3131-.29-.2775-1.1185l-1.9021-2.6695c-.5906-.8287-.5642-.7923-.9665-.6274l-.1916.1035-.136-.1905,3.381-2.4093a6.6433,6.6433,0,0,1,.9348,1.1256l-.2382.2248c-.8543-.7955-1.1065-.6379-1.8768-.0891l-.5282.3763,1.3432,1.8848.4986-.3554c.6527-.4651.75-.5455.5748-.885l-.1461-.2829.1905-.1356,1.04,1.4594-.1908.136-.2039-.2089c-.281-.2861-.3911-.2075-1,.2262l-.5278.3763,1.3952,1.958a3.8728,3.8728,0,0,0,.8189-.4178c1.1-.7836.7786-1.406.5333-2.06l.3-.1367a6.3552,6.3552,0,0,1,.7144,1.5146l-3.5643,2.54Z"/><path class="cls-2" d="M86.67,93.9673l.1288-.1923c.11-.1866.13-.3514-.1061-.98l-1.8761-4.8822a2.271,2.271,0,0,1,.324-.4452l4.8447,2.4425c.368.1873.6061.2865.8868.126l.1963-.12.1584.1721-1.8747,1.7264-.1584-.1724.2284-.2836c.114-.1418.17-.267.0848-.36a.9149.9149,0,0,0-.26-.1765l-1.2852-.6645a3.4319,3.4319,0,0,0-.7356.53,2.8267,2.8267,0,0,0-.5434.66l.4066.96a3.7508,3.7508,0,0,0,.3006.5924c.0916.0992.1815.0775.3124-.0062l.4189-.2633.1584.1724-1.4507,1.3357Zm-.1761-2.996a5.3764,5.3764,0,0,1,.5065-.54c.139-.1281.3832-.3284.5871-.4792l-1.953-1.017-.013.0119Z"/><path class="cls-2" d="M91.91,89.0486l.1147-.1851c.2176-.3684.1476-.425-.5661-1.003l-2.5464-2.0623c-.7487-.6061-.77-.6231-1.099-.3452l-.157.1508-.1818-.1472,1.7733-2.19c.7934-.9792,2.2874-2.5956,4.4565-.8392.4687.3795,2.2174,2.0391-.2583,5.0961l-1.3541,1.6723Zm.9427-1.5651a3.2807,3.2807,0,0,0,.6671-.595c.9067-1.1191.6585-2.3859-.65-3.4455-1.3645-1.1048-2.5973-.8984-3.5263.2489a4.0184,4.0184,0,0,0-.4016.6246Z"/><path class="cls-2" d="M96.7079,82.8628l.0887-.1988c.1494-.4041.1725-.39-.6985-.9164l-2.8048-1.695c-.8709-.526-.8323-.5026-1.1361-.1916l-.1346.1707-.2006-.1209,2.1467-3.5527a6.626,6.626,0,0,1,1.3043.6621l-.1292.3c-1.1-.3911-1.2689-.1461-1.7578.6631l-.3351.5549,1.98,1.1968.3167-.5239c.4146-.6858.4719-.7984.1761-1.0405l-.2464-.2013.1212-.2,1.5334.9265-.1209.2-.27-.11c-.3716-.1508-.4416-.0354-.828.6043l-.3355.5549,2.0576,1.2433a3.8887,3.8887,0,0,0,.5859-.7086c.6985-1.156.1566-1.5994-.3283-2.1027l.2215-.2446a6.3666,6.3666,0,0,1,1.2566,1.1062l-2.2632,3.7454Z"/><path class="cls-2" d="M99.5094,75.5351c.8154.3605.9142.4045,1.143.0426l.1122-.1865.2143.0945-.9907,2.24-.2143-.0946.0627-.2085c.1137-.4127.0148-.4564-.8089-.82l-3.0061-1.3292c-.832-.368-.9142-.4044-1.1466-.0346l-.1086.1786-.2143-.0946L95.6009,72.95c.3352-.7576.9421-1.9071,2.2351-1.3356a1.79,1.79,0,0,1,.9421,1.6769,14.3172,14.3172,0,0,0,2.7983-.338.7777.7777,0,0,0,.4557-.4286l.2139.0945-.3168.7165a1.5209,1.5209,0,0,1-1.48.941l-.7475.0436c-.6794.044-.9915-.0743-1.221.4449l-.1165.2634Zm-1.4576-.6443.1782-.4038a1.343,1.343,0,0,0-2.4432-1.11,1.6159,1.6159,0,0,0-.1317.4535Z"/><path class="cls-2" d="M99.3727,67.0241c-.4734-.02-1.3938-.1184-1.6766.8219a.8556.8556,0,0,0,.6032,1.1217c1.3284.3994,2.072-2.3867,3.9178-1.8318,1.2246.3684,1.3465,1.59,1.0352,2.6251a3.3085,3.3085,0,0,1-.8014,1.4143,4.1611,4.1611,0,0,1-1.6968-.2374l.0358-.4315c.5538.035,1.8468.1133,2.1788-.9907a.9181.9181,0,0,0-.6852-1.1935c-1.4576-.4384-2.1492,2.2694-3.9174,1.7376-1.0954-.3291-1.309-1.2776-.9745-2.39a2.6752,2.6752,0,0,1,.7262-1.2585,8.6962,8.6962,0,0,1,1.3483.302Z"/><path class="cls-2" d="M99.7432,64.645c-.89-.1375-.9969-.154-1.1239.2547l-.06.21-.2312-.0357.3741-2.4212.2313.0357-.0062.2179c-.0025.4279.1047.4445.9857.5805l1.3.201.4153-2.6883-1.2906-.2c-.89-.1375-.9968-.1541-1.1238.2547l-.06.21-.2313-.0357.3741-2.4213.2313.0358-.0047.2089c-.004.4369.1028.4535.9933.5909l3.24.5008c.89.1375.9972.1541,1.1253-.2637l.0584-.2006.2313.0357-.3741,2.4213-.2313-.0358.0061-.2179c.0026-.4279-.1042-.4445-.9943-.5819l-1.5489-.2392-.4156,2.6879,1.5579.241c.881.136.9878.1526,1.1148-.2562l.06-.21.2313.0357-.3742,2.4213-.2312-.0357.0061-.218c.0025-.4279-.1043-.4445-.9857-.5805Z"/><path class="cls-2" d="M103.9446,56.22c.8915.03.9994.0339,1.0766-.3872l.0343-.215.2341.0079-.0826,2.4487-.2341-.0079-.02-.2168c-.0487-.4254-.1566-.429-1.0477-.4593l-3.2861-.1112c-.9005-.03-1.0084-.0339-1.0856.3872l-.0347.215-.2338-.0079.0827-2.4487.2341.0079.02.2168c.0487.4254.1565.429,1.0477.459Z"/><path class="cls-2" d="M105.0829,54.0965l-.0408-.2139c-.0721-.4194-.198-.4113-1.0877-.3538l-3.28.212c-.8807.0568-1.0157.0657-1.0424.4914l-.013.2176-.2334.0151-.1544-2.39c-.0714-1.1053.0426-2.4121,1.4352-2.5021,1.519-.0981,2.0006,1.3506,2.0883,2.2925l-.3413.022a1.4287,1.4287,0,0,0-2.8315.3093,1.7978,1.7978,0,0,0,.0913.4362l4.2053-.2718c.89-.0574,1.015-.0745,1.0326-.5l.0051-.3433.2334-.0152.1667,2.5792Z"/><path class="cls-1" d="M55.0408,14.56A40.4058,40.4058,0,0,0,28.59,85.5329a.533.533,0,0,1,.0794-.445.5432.5432,0,0,1,.4484-.2078s-.5961-.5377-.1221-.93c0,0-1.804-1.0936-.8378-2.0686a38.042,38.042,0,1,1,53.81-.045c.8478.9611-.8822,2.0161-.8822,2.0161.4771.3912-.1179.93-.1179.93a.5423.5423,0,0,1,.4462.2068.6174.6174,0,0,1,.0472.57,40.4055,40.4055,0,0,0-26.42-71Z"/><path class="cls-2" d="M54.8727,17.96l-.0619-.1412A37.1541,37.1541,0,0,0,28.8965,81.3956c.1735-.1261.3982-.4379-.02-1.149l.3282-.2674.1518-.4468.5061-.0921.898-.5367,1.0154-.1786a1.2244,1.2244,0,0,0,1.3447-1.5811,3.2184,3.2184,0,0,1,.028-2.69c.6305-1.7324-.0881-2.4506-.0881-2.4506l.0308-.8664-.7186-.9283s-1.075-1.1911.63-1.7288l.4151-.36.0912-.4192s1.076-.5693.8063-1.1964c-.2675-.6264-.0877-.9259-.0877-.9259l.5075-.5657.5681-.0292a4.3682,4.3682,0,0,0,1.5828-3.02C37.2435,59.725,38.44,51.7458,47.9434,46.79l.4449-1.2267-.1477-.5687-.6581-.8063s-.0893-.4151.63-.1144c.7164.2983.7473.0583.7473.0583s1.7293-.4828,1.97-1.5273a.91.91,0,0,1-.477-.9237l.6575-.5348.2971-.9295-.03-4.63-.387-.8647.1786-.3306-.5681-.8377s-.6562-.5389,0-.9261c.6586-.3889,1.584-.8641,1.584-.8641a2.0536,2.0536,0,0,1,.6254-1.7954,3.4719,3.4719,0,0,0,.898-2.1819l.0292-.6848-.2394-.3287A2.382,2.382,0,0,1,54.0354,25.4c.5383-.6562.4788-1.0767.03-1.4071-.449-.3246-.0882-1.0446-.0882-1.0446l-.1793-.8383.3259-.2926-.3865-.7753.209-.8373.6872-1.2S54.3022,18.1066,54.8727,17.96ZM36.48,42.3382l-2.0074,1.7961.5542,2.6333.257,1.2212-1.0783-.6282-2.3226-1.3532-2.3353,1.34-1.0825.6212.2651-1.2195.571-2.6275-2-1.8038-.9256-.8349,1.24-.1279,2.6775-.276,1.099-2.4535.51-1.1375.5032,1.14L33.4912,41.09l2.678.2843,1.2412.1318Z"/><path class="cls-2" d="M55.6755,17.8293l.3036.7834a2.8592,2.8592,0,0,0-.0309,1.7681c.3269.7157.627,2.5117-.2686,2.81l.2394,1.0445-.0316.3561s.2983.2687.2983.4812l.1805.6866.26.3135s.0181.4595-.29.4928l.5074.3608a2.7369,2.7369,0,0,0,.2382,2.5673l.51.1769.3293.8063-.6586-.0853.3883.3848.1191.2078.1279.6815s.926.4776,1.584.8646,0,.9254,0,.9254l-.5675.8385.18.33-.3883.8618-.03,4.6329.3.9272.6558.5353a.9109.9109,0,0,1-.4759.9255c.2376,1.0457,1.97,1.5268,1.97,1.5268s.0314.2371.7455-.0618c.7182-.302.6307.1179.6307.1179l-.6593.808-.1488.5687.4466,1.2244c9.5024,4.9564,10.7,12.9331,11.0584,15.1763a4.3573,4.3573,0,0,0,1.5822,3.0157l.5675.03.508.5681s.18.2989-.0893.9272c-.268.6254.8063,1.1946.8063,1.1946l.0923.4169.4168.3585c1.7026.5383.6277,1.7311.6277,1.7311l-.717.9267.0292.8681s-.7164.7153-.0876,2.4522a3.2051,3.2051,0,0,1,.028,2.6887,1.2241,1.2241,0,0,0,1.343,1.5829l1.0165.1757.8979.5378.5079.094.1489.4448.3293.2686c-.4741.8064-.1237,1.1.0415,1.1882a37.1514,37.1514,0,0,0-25.572-63.5079ZM82.5178,46.7676l.257,1.2212-1.0783-.6282L79.374,46.0074l-2.3354,1.34-1.0825.6212.2651-1.22.5711-2.6274-2-1.8038-.9257-.8349,1.24-.1279,2.6777-.276,1.0988-2.4534.51-1.1376.5033,1.14L80.9821,41.09l2.6779.2843,1.2412.1318-.93.8323-2.0074,1.7961Z"/><polygon class="cls-1" points="36.111 41.925 33.114 41.607 31.898 38.852 30.668 41.598 27.673 41.907 29.911 43.926 29.272 46.867 31.885 45.367 34.485 46.882 33.865 43.935 36.111 41.925"/><polygon class="cls-1" points="83.602 41.925 80.605 41.607 79.389 38.852 78.159 41.598 75.164 41.907 77.402 43.926 76.763 46.867 79.376 45.367 81.976 46.882 81.355 43.935 83.602 41.925"/></svg>