<svg width="120" height="34" viewBox="0 0 120 34" fill="none" xmlns="http://www.w3.org/2000/svg">
<path d="M93.9623 7.01325C93.913 6.29206 93.2732 5.96877 92.5841 5.96877C91.7719 5.96877 91.3782 6.21746 91.3782 6.93865C91.3782 8.62971 97.137 7.65984 97.137 11.6637C97.137 14.0013 94.4545 15.195 92.5841 15.195C90.2461 15.195 88.2034 14.2251 88.1542 11.7631H90.9352C91.009 12.5838 91.6981 13.0563 92.5841 13.0563C93.3962 13.0563 94.0361 12.6833 94.0115 11.8626C94.0115 11.0171 92.5595 10.6441 91.9688 10.4949C90.0492 9.99748 88.2527 9.57471 88.2527 7.06299C88.2527 4.82482 90.7875 3.83008 92.5595 3.83008C94.676 3.83008 96.4971 4.62587 96.6448 6.98838L93.9623 7.01325Z" fill="white"/>
<path d="M103.437 13.0309C105.283 13.0309 105.578 11.1906 105.578 9.47472C105.578 7.75879 105.258 5.91851 103.413 5.91851C101.567 5.91851 101.272 7.75879 101.272 9.47472C101.272 11.2155 101.591 13.0558 103.437 13.0309ZM103.437 15.1696C100.139 15.1696 98.1706 12.8817 98.1706 9.49959C98.1706 6.11746 100.115 3.80469 103.413 3.80469C106.71 3.80469 108.679 6.09259 108.704 9.47472C108.704 12.8568 106.735 15.1696 103.437 15.1696Z" fill="white"/>
<path d="M113.281 5.66978C113.281 5.66978 113.281 5.76925 113.331 5.71952C113.946 4.77451 114.906 4.1528 116.456 4.12793C117.465 4.12793 119.434 4.89885 119.803 6.41584C119.975 7.06242 120 7.73387 120 8.08203L119.975 14.896H116.948L116.973 8.62914C116.948 7.51005 116.653 6.24176 115.152 6.24176C114.192 6.24176 113.281 6.91321 113.281 8.62914C113.281 9.42493 113.306 14.896 113.306 14.896H110.304V4.25227H113.306L113.281 5.66978Z" fill="white"/>
<path d="M67.1862 23.5503C67.2108 22.0084 66.2756 20.765 64.4299 20.765C62.2395 20.765 61.6981 24.0974 61.6981 26.1615C61.6981 28.2256 62.2641 31.5331 64.4545 31.5331C66.3002 31.5331 67.2108 30.2896 67.1862 28.7229H70.4594C70.3363 32.4035 67.7523 33.7961 64.4545 33.821C60.2953 33.8458 58.4249 30.4637 58.4003 26.1863C58.3757 21.8841 60.2461 18.5268 64.4053 18.502C67.703 18.502 70.2871 19.8697 70.4348 23.5503H67.1862Z" fill="white"/>
<path d="M78.1871 26.9819C78.1871 25.838 77.8917 24.7686 76.4397 24.7686C75.0615 24.7686 74.7662 25.838 74.7416 26.9819H78.1871ZM74.7416 29.0709C74.7416 30.4387 74.9139 31.707 76.4643 31.707C77.498 31.707 78.0148 31.3091 78.2855 30.3392H80.968C80.7219 32.9255 78.7777 33.7711 76.4643 33.7711C73.0435 33.7711 71.6653 31.7567 71.6653 28.2502C71.6653 25.0919 73.4126 22.6797 76.4643 22.6797C78.3347 22.6797 79.8852 23.3511 80.7219 25.1914C80.9926 25.7634 81.1403 26.41 81.2141 27.0566C81.288 27.7031 81.2879 28.3746 81.2879 29.0709H74.7416Z" fill="white"/>
<path d="M95.6604 23.2023V21.163L98.6628 20.0439V23.1774H100.927V25.2166H98.6628L98.6875 29.9914C98.6875 31.3343 98.8843 31.7073 99.9426 31.7073C100.263 31.7073 100.582 31.6576 100.902 31.6327V33.4481C100.558 33.6222 98.9582 33.7714 98.5398 33.7714C96.2018 33.7714 95.685 32.528 95.685 30.2898L95.6604 25.2166H93.6423V23.1774L95.6604 23.2023Z" fill="white"/>
<path d="M108.704 26.9571C108.704 25.8131 108.409 24.7438 106.957 24.7438C105.578 24.7438 105.283 25.8131 105.258 26.9571H108.704ZM105.234 29.0709C105.234 30.4387 105.431 31.707 106.957 31.707C107.99 31.707 108.507 31.3091 108.778 30.3392H111.46C111.214 32.9255 109.27 33.7959 106.957 33.7959C103.536 33.7959 102.158 31.7816 102.158 28.2751C102.158 25.1168 103.905 22.7046 106.932 22.6797C108.802 22.6797 110.353 23.3263 111.189 25.1665C111.46 25.7385 111.608 26.3851 111.682 27.0317C111.756 27.6783 111.756 28.3497 111.756 29.046L105.234 29.0709Z" fill="white"/>
<path d="M116.308 23.128L116.382 25.0677H116.431C117.096 23.4015 118.425 22.9539 119.975 23.0036V25.8138H118.622C118.105 25.8635 117.416 26.162 117.121 26.6096C116.801 27.2064 116.727 27.8033 116.702 28.4996L116.727 33.7717H113.651L113.601 25.2418C113.601 24.7942 113.527 23.8989 113.503 23.128H116.308Z" fill="white"/>
<path d="M49.7867 0H48.4824V33.871H49.7867V0Z" fill="white"/>
<path d="M81.1895 0.0244141H78.2609V2.66048H81.1895V0.0244141Z" fill="white"/>
<path d="M81.1895 4.12793H78.2609V14.896H81.1895V4.12793Z" fill="white"/>
<path d="M86.3823 0.0244141H83.5521V14.8958H86.3823V0.0244141Z" fill="white"/>
<path d="M60.886 14.8958L57.3175 0.0244141H60.3938L62.6333 10.2454L65.3651 0.0244141H68.9582L71.5669 10.3946L73.8556 0.0244141H76.8827L73.265 14.8958H70.0656L67.1124 3.77957L64.1592 14.8958H60.886Z" fill="white"/>
<path d="M120 14.8961H117.047V9.54934C117.047 8.40539 116.998 7.6842 116.874 7.36091C116.751 7.03762 116.579 6.76406 116.308 6.58998C116.038 6.4159 115.718 6.31643 115.349 6.31643C114.881 6.31643 114.438 6.44077 114.069 6.71433C113.7 6.98788 113.527 7.26143 113.38 7.6842C113.232 8.10697 113.257 8.97737 113.257 10.1462V14.8961H110.353V4.25234H113.281V5.8688C114.192 4.67511 114.93 4.17773 116.308 4.17773C116.924 4.17773 117.465 4.27721 117.957 4.50103C118.45 4.72484 118.942 5.04813 119.212 5.39629C119.459 5.74445 119.754 6.06774 119.852 6.51538C119.951 6.93814 120 7.55986 120 8.38052V14.8961Z" fill="white"/>
<path d="M92.5595 33.7711H89.6062V28.4243C89.6062 27.2804 89.557 26.5592 89.434 26.2359C89.3109 25.9126 89.1386 25.6391 88.8679 25.465C88.5972 25.2909 88.2773 25.1914 87.9081 25.1914C87.4405 25.1914 86.9975 25.3158 86.6284 25.5893C86.2592 25.8629 86.087 26.1364 85.9393 26.5592C85.7916 26.982 85.8163 27.8524 85.8163 29.0212V33.7711H82.9122V23.1273H85.8409V24.7438C86.7514 23.5501 87.4898 23.0527 88.8679 23.0527C89.4832 23.0527 90.0246 23.1522 90.5168 23.376C91.009 23.5998 91.5012 23.9231 91.772 24.2713C92.0181 24.6195 92.3134 24.9427 92.4118 25.3904C92.5103 25.8131 92.5595 26.4349 92.5595 27.2555V33.7711Z" fill="white"/>
<path d="M0 0L15.603 33.8461L20.968 22.3568L26.3331 33.8461L41.936 0H35.5373L25.4471 24.3463L20.9434 13.5285L16.4397 24.1474L6.39869 0H0Z" fill="white"/>
<path d="M16.4889 17.0847L9.67188 0H15.3076L19.393 9.77334L16.4889 17.0847Z" fill="white"/>
<path d="M25.3979 17.0847L32.2149 0H26.5792L22.4938 9.77334L25.3979 17.0847Z" fill="white"/>
<path d="M20.9434 5.86898L18.5808 0H23.2814L20.9434 5.86898Z" fill="white"/>
</svg>
